<svg width="213" height="34" viewBox="0 0 213 34" fill="none" xmlns="http://www.w3.org/2000/svg">
<path fill-rule="evenodd" clip-rule="evenodd" d="M121.862 33.169L121.602 28.0885C121.391 28.7805 121.176 29.3941 120.959 29.9284C120.682 30.6067 120.4 31.1581 120.11 31.5805C119.597 32.3192 118.94 32.8738 118.14 33.2444C117.341 33.6139 116.399 33.799 115.315 33.799C113.389 33.799 111.814 33.2047 110.58 32.0165C109.961 31.4399 109.422 30.6993 108.964 29.7985C108.507 28.902 108.131 27.8453 107.836 26.6317C107.541 25.4183 107.319 24.0345 107.171 22.4788C107.023 20.9294 106.949 19.2127 106.949 17.3274C106.949 15.9761 106.979 14.7259 107.039 13.5772C107.098 12.4301 107.187 11.3895 107.304 10.4549C107.42 9.51764 107.572 8.65201 107.757 7.85749C107.943 7.06216 108.163 6.33633 108.419 5.67892C108.678 5.01803 108.981 4.40221 109.33 3.83121C109.679 3.2594 110.073 2.7332 110.511 2.25316C111.197 1.50291 112.025 0.939421 112.998 0.563223C113.968 0.188099 115.08 0 116.336 0C118.252 0 119.811 0.564297 121.029 1.69235L121.032 1.69477C121.491 2.15388 121.872 2.64626 122.174 3.17219C122.476 3.69731 122.698 4.25624 122.84 4.84844C122.943 5.19432 123.026 5.53349 123.092 5.86541C123.161 6.21156 123.211 6.54938 123.245 6.87782C123.285 7.20169 123.324 7.62592 123.36 8.15131C123.396 8.67026 123.43 9.29278 123.462 10.0194L123.467 10.1174H120.343L120.343 10.0237C120.334 9.17391 120.325 8.46338 120.311 7.89398C120.298 7.32915 120.282 6.90277 120.262 6.61673C120.242 6.32748 120.207 5.99931 120.157 5.63223C120.109 5.27589 120.045 4.87742 119.966 4.43656V4.43575C119.867 3.85026 119.706 3.33292 119.483 2.88481C119.261 2.43777 118.978 2.05996 118.637 1.75273C118.285 1.44281 117.888 1.20936 117.446 1.05346C117.002 0.897294 116.512 0.818941 115.973 0.818941C113.622 0.818941 112.03 2.28804 111.199 5.22545L111.198 5.22759C110.988 5.90513 110.811 6.6272 110.666 7.39086C110.52 8.16178 110.406 8.97535 110.326 9.82891C110.249 10.691 110.19 11.7587 110.151 13.0314C110.113 14.284 110.093 15.7485 110.093 17.4245C110.093 19.2569 110.125 20.9198 110.189 22.4052C110.298 23.8655 110.44 25.154 110.617 26.2681C110.793 27.3779 111.003 28.3139 111.246 29.0738C111.469 29.7797 111.722 30.3854 112.005 30.8925C112.285 31.3959 112.595 31.8005 112.932 32.108C113.268 32.4137 113.652 32.6431 114.086 32.796C114.521 32.9492 115.008 33.026 115.546 33.026C116.556 33.026 117.418 32.6847 118.136 32.0036C118.861 31.3148 119.442 30.2775 119.879 28.8942C120.051 28.3605 120.193 27.8252 120.307 27.2886C120.421 26.7506 120.507 26.2115 120.567 25.6713C120.627 25.1256 120.672 24.4622 120.7 23.6798C120.729 22.9016 120.743 21.9966 120.743 20.9643C120.743 19.5964 120.728 18.57 120.699 17.8715H114.81V16.7381H123.695V33.2597H121.866L121.861 33.1695L121.862 33.169ZM88.4396 33.2572H82.8477V32.4833H84.8442L91.8865 0.0878906H93.8436L100.926 32.4833H103.019V33.2572H95.3124L95.2802 32.4833H97.7286L95.4398 22.2337H88.233L86.0624 32.4833H88.5592L88.5379 33.2572H88.4396ZM0 33.2606H5.5919H5.68971L5.71128 32.4867H3.21477L5.38537 22.2371H12.5921L14.8813 32.4867H12.4325L12.4647 33.2606H20.1711V32.4867H18.0785L10.9963 0.0913086H9.03881L1.99629 32.4867H0V33.2606ZM12.5291 21.1019H5.73076L9.21534 4.38574L12.5291 21.1019ZM23.3438 33.164V33.1634V32.4397H25.8843V1.44742H23.3438V0.673828H31.9709V1.44742H29.0769V32.1247H32.6417C33.507 32.1247 34.2241 31.9962 34.7931 31.7394C35.3563 31.4853 35.7774 31.1037 36.0564 30.5936L36.0584 30.5909C36.2673 30.2418 36.4534 29.8085 36.6156 29.2933C36.7801 28.773 36.9199 28.1701 37.0362 27.4874V27.4861C37.1607 26.8072 37.2553 26.1069 37.318 25.3856C37.3802 24.6724 37.4124 23.938 37.4124 23.1824V23.0879H38.2733V33.2579H23.3438V33.164ZM56.9223 0.674096H42.2145V0.673828H42.1133V1.46969H44.6535V32.4843H42.1133V33.2581H50.7405V32.4843H47.8467V17.4203H50.1013C50.8043 17.4203 51.4133 17.508 51.9273 17.6827C52.4393 17.8563 52.8579 18.116 53.1852 18.4608C53.5203 18.8102 53.7783 19.265 53.9593 19.8264C54.1419 20.3936 54.2452 21.0682 54.2688 21.8501L54.2714 21.9422H55.13V11.8245H54.2682V12.2716C54.2682 12.9096 54.2055 13.4742 54.0778 13.9647C53.9515 14.4504 53.7619 14.8647 53.5094 15.2068C53.216 15.5626 52.7836 15.8315 52.2121 16.0118C51.6339 16.1948 50.9136 16.2866 50.0524 16.2866H47.8464V1.80752H51.2824C51.7953 1.80752 52.2434 1.83301 52.6251 1.88346C53.0077 1.9339 53.3244 2.00877 53.5744 2.10698L53.5767 2.10778C53.8169 2.1966 54.0369 2.33452 54.2383 2.51967C54.4422 2.70696 54.6278 2.94363 54.7957 3.22806L54.7983 3.23235C54.9856 3.5149 55.1527 3.82804 55.298 4.16962C55.4412 4.50611 55.5632 4.87211 55.6621 5.26655C55.7855 5.75867 55.8793 6.28325 55.9423 6.84084C56.005 7.39843 56.0367 7.99144 56.0367 8.6196V8.71405H56.9223V0.674096ZM60.82 0.674365H69.6707C71.5278 0.674365 73.0549 0.970332 74.2437 1.56307C74.8444 1.85958 75.3659 2.23953 75.808 2.70052C76.2501 3.16124 76.6122 3.703 76.8939 4.32391C77.1752 4.94349 77.3869 5.64812 77.5275 6.43808C77.6676 7.22348 77.7384 8.09287 77.7384 9.04732C77.7384 10.4539 77.5799 11.6702 77.2635 12.695C76.9456 13.7246 76.4676 14.5604 75.8298 15.2006C75.5594 15.4757 75.2623 15.7166 74.9373 15.9219C74.6122 16.128 74.259 16.2984 73.8787 16.432C73.5048 16.5646 73.0414 16.6824 72.4885 16.7857C72.1954 16.8407 71.8772 16.8914 71.5349 16.9386C71.8246 16.9657 72.0964 16.9963 72.3499 17.0301C72.8794 17.1004 73.3302 17.1847 73.7007 17.2807C74.0579 17.3728 74.3927 17.4935 74.7037 17.643C75.0141 17.7924 75.3014 17.9703 75.5638 18.177C76.1365 18.6082 76.5855 19.2632 76.9082 20.1433C77.229 21.0153 77.4277 22.1115 77.5045 23.433C77.5931 25.1605 77.6711 26.8722 77.7381 28.6002C77.7692 29.1989 77.8043 29.7135 77.8434 30.145C77.8828 30.5891 77.9257 30.9374 77.9697 31.1923C78.0163 31.4335 78.0781 31.6374 78.1538 31.803C78.2274 31.964 78.3143 32.0869 78.4115 32.1717C78.5104 32.253 78.6433 32.3201 78.8102 32.3718C78.9839 32.4258 79.1936 32.4636 79.4393 32.4856L79.5307 32.4937V33.2584H75.6282L75.5856 33.175C75.499 33.0067 75.4323 32.8771 75.3722 32.7859C75.3385 32.7384 75.3046 32.6845 75.2715 32.6257C75.2399 32.5685 75.2088 32.5068 75.18 32.4424L75.1795 32.4405C75.0612 32.1553 74.9608 31.8411 74.8797 31.499C74.7983 31.1577 74.7353 30.7884 74.691 30.3916C74.6105 29.6016 74.5297 28.1521 74.4491 26.0583C74.4181 25.1916 74.3827 24.4282 74.3441 23.7657C74.3047 23.0756 74.2613 22.5008 74.2167 22.0374C74.1687 21.5877 74.1085 21.1908 74.0369 20.846C73.9659 20.5047 73.8827 20.2152 73.7881 19.9758C73.6986 19.7424 73.5859 19.5191 73.4521 19.3055C73.3158 19.0887 73.1573 18.8811 72.9781 18.6841C72.8271 18.5287 72.6691 18.3924 72.5055 18.2762C72.3438 18.1611 72.177 18.0661 72.0047 17.9907C71.9339 17.9693 71.803 17.9363 71.6109 17.8917C71.4187 17.8472 71.1688 17.7922 70.8613 17.7267C70.3665 17.6701 69.9655 17.6266 69.6592 17.5984C69.3491 17.5697 69.1233 17.555 68.9798 17.555H66.4519V32.4843H68.6625V33.2581H60.7188V32.4843H63.259V1.46969H60.7188V0.673828H60.82V0.674365ZM68.7682 16.4667H66.4498H66.4492V1.80762H69.3067C72.8247 1.80762 74.5834 4.31086 74.5834 9.32486C74.5834 10.6045 74.472 11.7039 74.2477 12.6216C74.025 13.5333 73.6914 14.2656 73.2458 14.8173C72.8028 15.3658 72.2103 15.7774 71.4687 16.0522C70.7214 16.3285 69.8213 16.4667 68.7682 16.4667ZM95.3803 21.1019H88.582L92.0663 4.38574L95.3803 21.1019ZM127.84 33.2572H133.431H133.432H133.53L133.551 32.4833H131.055L133.225 22.2337H140.432L142.721 32.4833H140.272L140.305 33.2572H148.011V32.4833H145.918L138.836 0.0878906H136.878L129.836 32.4833H127.84V33.2572ZM133.562 21.1019H140.361L137.047 4.38574L133.562 21.1019ZM157.376 0.67627H151.277H151.176V1.44986H153.716V32.487H151.176V33.2608H157.142V32.487H154.883V2.39465H154.938L163.926 33.2606H167.424V1.44986H169.683V0.67627H163.974V1.44986H166.257V31.1566L157.376 0.67627ZM188.635 1.44986H186.4V0.67627H192.061V1.44986H189.802V21.9102C189.802 23.4158 189.792 24.6877 189.771 25.7262C189.752 26.7555 189.722 27.5352 189.681 28.066C189.645 28.6002 189.584 29.0913 189.498 29.5407C189.41 30.0015 189.297 30.4198 189.161 30.7965C188.783 31.8124 188.143 32.5753 187.242 33.0846C186.344 33.5914 185.189 33.8455 183.776 33.8455C183.117 33.8455 182.483 33.7734 181.875 33.629C181.268 33.4849 180.685 33.2678 180.126 32.9786C179.561 32.6813 179.069 32.3356 178.65 31.9442C178.232 31.5524 177.886 31.1139 177.617 30.6304C177.442 30.3114 177.29 29.9862 177.161 29.6553C177.03 29.3218 176.922 28.9815 176.837 28.6359C176.739 28.2568 176.661 27.8736 176.599 27.4869C176.537 27.0984 176.493 26.704 176.465 26.3039C176.437 25.9035 176.416 25.3357 176.403 24.6008C176.39 23.8543 176.384 22.9583 176.384 21.9111V1.45067H174.125V0.677074H181.812V1.45067H179.528V22.5333C179.528 23.6045 179.53 24.4623 179.534 25.1079C179.538 25.7991 179.544 26.3259 179.552 26.686C179.568 27.4091 179.6 27.9766 179.648 28.3877C179.672 28.5908 179.706 28.802 179.751 29.0229C179.797 29.244 179.855 29.4745 179.926 29.7149L179.927 29.7186C180.059 30.2376 180.247 30.7015 180.494 31.1088C180.737 31.5113 181.039 31.8594 181.398 32.1513C181.759 32.4438 182.156 32.663 182.591 32.8087C183.025 32.955 183.498 33.0279 184.009 33.0279C184.535 33.0279 185.02 32.9654 185.464 32.8401C185.906 32.7151 186.31 32.5264 186.675 32.2742L186.675 32.2734C187.043 32.0257 187.352 31.7306 187.603 31.3895C187.856 31.0453 188.052 30.6538 188.19 30.2158C188.262 29.9703 188.323 29.7041 188.374 29.4186C188.424 29.1401 188.463 28.842 188.491 28.5254C188.523 28.1028 188.548 27.7029 188.563 27.3238C188.579 26.946 188.587 26.5794 188.587 26.2226L188.587 26.2207C188.604 25.545 188.616 24.9099 188.624 24.3147C188.631 23.7386 188.635 23.1824 188.635 22.6455V1.45013L188.635 1.44986ZM200.079 22.7582H197.18L197.179 22.7574H197.078V24.1941C197.078 27.3829 197.712 29.7785 198.98 31.3807C200.255 32.9913 202.166 33.797 204.712 33.797C206.484 33.797 207.951 33.3683 209.115 32.5123C210.277 31.6571 211.133 30.3777 211.682 28.6752L211.682 28.6738C211.912 27.9091 212.085 27.1604 212.199 26.4282C212.313 25.6946 212.37 24.9776 212.37 24.2764C212.37 23.3617 212.252 22.5181 212.018 21.7453C211.783 20.9704 211.431 20.2668 210.962 19.6357C210.734 19.3083 210.469 18.9946 210.17 18.6939C209.872 18.3939 209.539 18.1059 209.173 17.8293C208.812 17.5489 208.325 17.2172 207.715 16.8335C207.104 16.4487 206.369 16.0108 205.513 15.5198C204.716 15.0529 204.031 14.623 203.457 14.2305C202.886 13.8392 202.428 13.4856 202.081 13.1703C201.738 12.8574 201.452 12.5258 201.223 12.1753C200.994 11.8257 200.823 11.457 200.71 11.0687C200.594 10.6703 200.506 10.1841 200.447 9.61224C200.389 9.04339 200.36 8.38651 200.36 7.64378C200.36 6.72019 200.417 5.8983 200.531 5.17622C200.646 4.45281 200.817 3.82974 201.043 3.30677C201.271 2.78916 201.565 2.35232 201.922 1.99571C202.279 1.64044 202.702 1.36272 203.192 1.16148C203.463 1.06246 203.733 0.987331 204 0.937422C204.269 0.887512 204.538 0.861753 204.809 0.861753C205.488 0.861753 206.073 0.992697 206.562 1.2562C207.048 1.51755 207.442 1.91173 207.742 2.43899C208.047 2.97485 208.277 3.68109 208.431 4.55692C208.586 5.43435 208.663 6.48352 208.663 7.70389V9.23041H211.502V8.54349C211.502 5.73784 210.961 3.6293 209.881 2.21896C208.792 0.798695 207.163 0.0878906 204.994 0.0878906C204.209 0.0878906 203.478 0.179391 202.801 0.362123C202.124 0.545124 201.504 0.819357 200.941 1.18482C200.374 1.54653 199.873 1.99008 199.441 2.51547C199.01 3.03925 198.645 3.64487 198.348 4.33152C198.052 5.01657 197.829 5.76574 197.68 6.57905C197.531 7.39209 197.456 8.26925 197.456 9.21109C197.456 9.76653 197.501 10.293 197.592 10.7932C197.682 11.2939 197.818 11.7667 198.001 12.2142L198.002 12.2156C198.202 12.683 198.44 13.1177 198.716 13.5199C198.993 13.9224 199.309 14.293 199.664 14.6316C200.017 14.9651 200.478 15.3285 201.045 15.721C201.61 16.1131 202.281 16.5346 203.059 16.9851C204.45 17.8108 205.565 18.5058 206.407 19.0679C207.26 19.6381 207.824 20.0658 208.1 20.3489C208.505 20.8225 208.81 21.4206 209.014 22.1435C209.219 22.8701 209.322 23.7237 209.322 24.7044C209.322 25.8183 209.28 26.817 209.195 27.7006C209.11 28.5821 208.983 29.3535 208.812 30.0152C208.677 30.396 208.515 30.7467 208.326 31.0671C208.137 31.3864 207.92 31.6764 207.677 31.9364C207.301 32.2982 206.874 32.5705 206.397 32.7516C205.92 32.933 205.39 33.0243 204.809 33.0243C204.431 33.0243 204.069 32.9843 203.721 32.9051C203.37 32.8254 203.032 32.7057 202.709 32.5477C202.387 32.3905 202.098 32.2053 201.842 31.992C201.587 31.7795 201.363 31.538 201.171 31.267C200.948 30.9452 200.761 30.5986 200.61 30.2288C200.457 29.855 200.341 29.4579 200.262 29.0382C200.185 28.6113 200.127 28.0575 200.088 27.3746C200.05 26.7016 200.031 25.8998 200.031 24.9674C200.073 24.2035 200.079 23.5289 200.079 22.7582Z" fill="#6A1625"/>
</svg>
