<svg width="184" height="56" viewBox="0 0 184 56" fill="none" xmlns="http://www.w3.org/2000/svg">
<path fill-rule="evenodd" clip-rule="evenodd" d="M5.14362 54.0955V49.9661V47.4477C5.14362 47.0942 6.12615 46.2243 6.40455 46.0048C7.422 45.3106 7.886 44.9937 8.09301 44.9951C8.2859 44.9963 8.82584 45.3803 9.66499 46.0063C9.97209 46.2354 10.9303 47.0823 10.9303 47.4477V49.9661V52.958L16.0739 52.7413V49.9661V46.8033V37.1977H21.8495V52.7407L38.0391 55.8151V50.6838L26.9932 48.2675V21.2653C26.9932 20.9118 27.9757 20.0419 28.2541 19.8223C29.2716 19.1281 29.7356 18.8113 29.9426 18.8127C30.1355 18.8139 30.6754 19.1978 31.5145 19.8239C31.8216 20.053 32.7799 20.8999 32.7799 21.2653V44.2173L37.9235 45.717V20.6208C37.9235 18.2766 35.8734 16.5829 34.189 15.3032C33.1998 14.5073 30.3088 12.7422 29.9508 12.758C29.6344 12.7516 26.4508 14.638 25.5564 15.3137C24.1133 16.4036 21.8495 18.3827 21.8495 20.6208V32.1122H16.0739V20.6208C16.0739 18.2766 14.0238 16.5829 12.3395 15.3032C11.3503 14.5073 8.4592 12.7422 8.10122 12.758C7.78485 12.7516 4.60125 14.638 3.70682 15.3137C2.26379 16.4036 0 18.3827 0 20.6208V46.8033V49.9661V55.5134L5.14362 54.0955ZM16.109 16.1359V8.50739C16.109 8.15389 17.0916 7.28398 17.3699 7.06444C18.3874 6.37022 18.8514 6.0534 19.0584 6.05477C19.2513 6.05599 19.7912 6.43995 20.6304 7.06597C20.9375 7.29509 21.8957 8.14201 21.8957 8.50739V16.0658C22.7648 14.0041 24.3913 12.1559 27.0393 10.5305V7.86295C27.0393 5.51873 24.9892 3.82504 23.3049 2.54529C22.3157 1.74937 19.4246 -0.0157274 19.0666 0.000105815C18.7502 -0.00628835 15.5667 1.88014 14.6722 2.55579C13.2292 3.64569 10.9654 5.62484 10.9654 7.86295V10.5305C13.5085 12.0077 15.4421 14.0216 16.109 16.1359ZM5.14362 40.5502V21.2653C5.14362 20.9118 6.12615 20.0419 6.40455 19.8223C7.422 19.1281 7.886 18.8113 8.09301 18.8127C8.2859 18.8139 8.82584 19.1978 9.66499 19.8239C9.97209 20.053 10.9303 20.8999 10.9303 21.2653V40.5006C9.74321 39.7332 8.34332 38.9298 8.10122 38.9404C7.88858 38.9362 6.381 39.7869 5.14362 40.5502Z" fill="#F6A019"/>
<path fill-rule="evenodd" clip-rule="evenodd" d="M150.179 24.9054H146.707V37.4104H150.179V28.2569H152.237V37.4086H155.709V28.2569H157.895V37.4086H161.363L164.71 34.1863C164.71 35.3063 164.709 37.4121 164.709 37.4121L168.186 37.4086C168.195 37.3998 170.857 35.0623 172.169 33.9284H168.182V24.9054H164.71V33.9284H161.367V24.9054H158.281L157.747 24.9053L155.709 26.7101V24.9054H152.622C152.511 24.9054 152.36 24.9062 152.36 24.9062C151.624 25.4783 150.92 26.0253 150.185 26.5973L150.179 24.9054Z" fill="#212121"/>
<path fill-rule="evenodd" clip-rule="evenodd" d="M64.6632 32.0475V18.8465H68.0065V28.6964L68.0081 31.142L64.6844 34.5722H68.0065C68.0065 34.7791 68.0038 37.2368 67.9995 37.4159H71.4785V15.3662H64.661C64.661 15.3662 61.4115 18.7257 61.0651 19.073C61.0636 19.0838 61.0625 19.0943 61.0625 19.1042V37.4284H64.6832C64.6727 37.1537 64.6636 34.9153 64.6632 34.5935V32.0475Z" fill="#212121"/>
<path fill-rule="evenodd" clip-rule="evenodd" d="M172.941 37.0218L172.95 37.4068C172.95 37.4068 175.221 37.4085 176.538 37.4085C176.538 37.4085 179.967 34.3475 180.4 34.0572V42.6934H184V24.9053H180.4V33.9282H176.542V24.9053H172.941V37.0218Z" fill="#212121"/>
<path fill-rule="evenodd" clip-rule="evenodd" d="M103.761 28.3857H107.104V33.9282H103.761V28.3857ZM100.289 37.4085H110.576V24.9053H100.289V37.4085Z" fill="#212121"/>
<path fill-rule="evenodd" clip-rule="evenodd" d="M122.66 28.3857H129.476V33.9282H122.917L122.827 33.9285L127.541 30.5769H122.66V37.4085H132.948V24.9053H122.66V28.3857Z" fill="#212121"/>
<path fill-rule="evenodd" clip-rule="evenodd" d="M134.619 28.3857H139.891H139.916L134.62 33.724C134.62 33.8361 134.617 34.6745 134.617 37.4085H144.907V33.9282H139.437C141.246 32.0431 143.066 30.2408 144.9 28.3866L144.907 24.9053H134.619V28.3857Z" fill="#212121"/>
<path fill-rule="evenodd" clip-rule="evenodd" d="M74.4375 37.3484C74.4375 37.3612 74.4381 37.3736 74.4392 37.3856H78.0708L81.1943 33.9276H77.9095V15.3662H74.4375V37.3484Z" fill="#212121"/>
<path fill-rule="evenodd" clip-rule="evenodd" d="M95.0107 30.3185L95.01 30.4482L91.668 33.9276H95.0107V37.4078H98.4827L95.109 33.958L98.4827 33.9276V15.3662H95.0107V30.3185Z" fill="#212121"/>
<path fill-rule="evenodd" clip-rule="evenodd" d="M88.0703 17.8153C88.0703 19.405 88.0708 20.9948 88.0703 22.5846C88.1162 25.1823 88.0744 30.677 88.0744 30.677L91.4137 33.9276H88.0703V37.416H91.5423V15.3662H88.0703V17.8153Z" fill="#212121"/>
<path fill-rule="evenodd" clip-rule="evenodd" d="M112.246 37.0218C112.246 37.3188 112.336 37.4085 112.632 37.4085H115.718V24.9053H112.246V37.0218Z" fill="#212121"/>
<path fill-rule="evenodd" clip-rule="evenodd" d="M80.8672 28.3857H85.2393V24.9053H80.8672V28.3857Z" fill="#212121"/>
<path fill-rule="evenodd" clip-rule="evenodd" d="M164.039 19.4595L166.482 21.9713L168.988 19.5224L166.482 17.0732L164.039 19.4595Z" fill="#212121"/>
<path fill-rule="evenodd" clip-rule="evenodd" d="M61.6229 47.7207C61.6229 46.2066 64.7091 45.6712 64.7091 47.8495C64.7091 49.5193 61.6229 49.3733 61.6229 47.7207ZM60.7227 47.7207C60.7227 49.2827 62.4025 50.8156 64.7091 49.2674V49.7829H65.6091V45.6582H64.7091C64.6345 46.535 64.5358 45.5293 63.0373 45.5293C61.8095 45.5293 60.7227 46.4772 60.7227 47.7207Z" fill="#212121"/>
<path fill-rule="evenodd" clip-rule="evenodd" d="M95.5732 46.4312H96.4732C97.1287 46.4312 97.3768 46.7947 97.5021 47.3335H94.5443C94.5925 46.7539 94.9659 46.4312 95.5732 46.4312ZM93.5156 47.7202C93.5156 49.2073 94.8277 49.9114 96.3447 49.9114C97.1218 49.9114 97.5139 49.5431 98.145 49.3958C98.0903 48.7364 98.0473 49.2213 97.8878 48.6224C96.9109 48.8506 97.8198 49.0091 95.9589 49.0091C95.0094 49.0091 94.7421 48.5959 94.4158 47.9779H98.4021C98.4021 44.3331 93.5156 45.1552 93.5156 47.7202Z" fill="#212121"/>
<path fill-rule="evenodd" clip-rule="evenodd" d="M75.5107 46.4312H76.4107C77.0662 46.4312 77.3143 46.7947 77.4396 47.3335H74.4818C74.53 46.7539 74.9033 46.4312 75.5107 46.4312ZM73.4531 47.7202C73.4531 49.2073 74.7652 49.9114 76.2822 49.9114C77.0593 49.9114 77.4514 49.5431 78.0825 49.3958C78.0278 48.7364 77.9848 49.2213 77.8253 48.6224C76.8484 48.8506 77.7573 49.0091 75.8964 49.0091C74.9467 49.0091 74.6796 48.5959 74.3533 47.9779H78.3396C78.3396 44.3331 73.4531 45.1552 73.4531 47.7202Z" fill="#212121"/>
<path fill-rule="evenodd" clip-rule="evenodd" d="M81.4274 46.1739V45.6582H80.5273V49.7829H81.4274C81.4274 47.1134 81.0896 46.4316 83.0992 46.4316C84.1559 46.4316 83.8707 48.743 83.8707 49.7829H84.7709C84.7709 47.728 85.1954 45.5293 82.9705 45.5293C82.2081 45.5293 81.8805 45.8697 81.4274 46.1739Z" fill="#212121"/>
<path fill-rule="evenodd" clip-rule="evenodd" d="M87.3438 47.9784C87.3438 49.1085 88.0041 49.9118 89.144 49.9118C90.0307 49.9118 90.1103 49.5507 90.6871 49.3962V49.7829H91.5873V45.6582H90.6871C90.6871 46.6447 90.854 48.193 90.4516 48.6444C90.038 49.1083 88.244 49.5023 88.244 47.7206V45.6582H87.3438V47.9784Z" fill="#212121"/>
<path fill-rule="evenodd" clip-rule="evenodd" d="M115.98 28.3857H120.86V24.9238L115.98 28.3857Z" fill="#212121"/>
<path fill-rule="evenodd" clip-rule="evenodd" d="M69.5959 49.7825C70.2792 49.7825 70.182 49.6652 70.5385 48.9228L72.2964 45.6578H71.2677L70.1599 48.0276C69.9263 48.5127 70.0595 48.4984 69.5959 48.6224L68.1825 45.6572L67.2812 45.6578C67.4003 46.17 68.0524 47.3579 68.3083 47.8507C68.5991 48.4107 69.236 49.7825 69.5959 49.7825Z" fill="#212121"/>
<path d="M65.591 45.4824V49.7119H64.7551V49.0029C64.6533 49.1318 64.5127 49.2567 64.3332 49.3775C64.1536 49.4984 63.946 49.5977 63.7103 49.6756C63.4746 49.7534 63.2227 49.7924 62.9548 49.7924C62.4993 49.7924 62.1002 49.6985 61.7572 49.5104C61.4143 49.3224 61.1452 49.0619 60.9495 48.729C60.7539 48.396 60.6562 48.0174 60.6562 47.5931C60.6562 47.1635 60.758 46.7835 60.9615 46.4531C61.1652 46.1228 61.4451 45.8636 61.8014 45.6758C62.1578 45.4877 62.5691 45.3937 63.0352 45.3937C63.421 45.3937 63.7639 45.4622 64.0639 45.5992C64.364 45.7361 64.5944 45.8959 64.7551 46.0784V45.4824H65.591ZM63.1477 49.0271C63.4746 49.0271 63.7612 48.964 64.0077 48.8378C64.2542 48.7115 64.4457 48.541 64.5822 48.3261C64.7189 48.1113 64.7873 47.867 64.7873 47.5931C64.7873 47.3192 64.7189 47.0749 64.5822 46.8599C64.4457 46.6451 64.2542 46.4759 64.0077 46.3525C63.7612 46.2289 63.4746 46.1672 63.1477 46.1672C62.8262 46.1672 62.5422 46.2289 62.2958 46.3525C62.0493 46.4759 61.8551 46.6451 61.713 46.8599C61.571 47.0749 61.5001 47.3192 61.5001 47.5931C61.5001 47.867 61.571 48.1113 61.713 48.3261C61.8551 48.541 62.0493 48.7115 62.2958 48.8378C62.5422 48.964 62.8262 49.0271 63.1477 49.0271ZM68.179 45.4824L69.7944 48.7532L71.4581 45.4824H72.3583L70.1078 49.7119H69.4086L67.2306 45.4824H68.179ZM78.1772 49.156H78.1691C78.0244 49.2633 77.8423 49.3667 77.6227 49.4661C77.4029 49.5655 77.1631 49.6447 76.9032 49.7038C76.6433 49.7629 76.3768 49.7924 76.1035 49.7924C75.5838 49.7924 75.1257 49.6998 74.7292 49.5145C74.3327 49.3291 74.0234 49.0741 73.801 48.7491C73.5785 48.4242 73.4673 48.055 73.4673 47.6414C73.4673 47.1688 73.5853 46.7646 73.8211 46.4289C74.0568 46.0932 74.3689 45.8355 74.7574 45.6555C75.1458 45.4756 75.5704 45.3857 76.0312 45.3857C76.4598 45.3857 76.8511 45.473 77.2047 45.6474C77.5583 45.8221 77.8395 46.0625 78.0485 46.3685C78.2575 46.6746 78.362 47.0318 78.362 47.4399L78.354 47.8428H74.3113C74.3809 48.208 74.5899 48.4967 74.9381 48.7089C75.2864 48.921 75.7205 49.0271 76.2402 49.0271C76.6207 49.0271 76.9354 48.9707 77.1846 48.8579C77.4337 48.7451 77.636 48.6376 77.7914 48.5356L78.1772 49.156ZM76.0312 46.1511C75.6133 46.1511 75.2477 46.2289 74.9342 46.3846C74.6207 46.5404 74.4211 46.8063 74.3353 47.1822H77.5182V47.0775C77.4913 46.8949 77.4056 46.7337 77.2609 46.5941C77.1163 46.4545 76.9354 46.3458 76.7183 46.2678C76.5015 46.1899 76.2723 46.1511 76.0312 46.1511ZM83.0316 45.3937C83.4494 45.3937 83.7924 45.4743 84.0603 45.6354C84.3282 45.7965 84.5251 46.0127 84.651 46.284C84.7769 46.5551 84.8399 46.8546 84.8399 47.1822V49.7119H84.0122V47.295C84.0122 46.9621 83.9022 46.688 83.6826 46.4732C83.463 46.2584 83.1709 46.1537 82.8065 46.1591C82.5333 46.1591 82.2895 46.2208 82.0752 46.3444C81.8608 46.4679 81.6934 46.6223 81.5728 46.8075C81.4522 46.993 81.3921 47.1769 81.3921 47.3594V49.7119H80.5641V45.4824H81.3921V46.2235C81.5688 46.0034 81.7965 45.81 82.0752 45.6435C82.3538 45.4769 82.6726 45.3937 83.0316 45.3937ZM90.8999 47.6656V45.4824H91.7278V49.7119H90.8999V48.9867C90.7498 49.1962 90.5249 49.3829 90.2247 49.5467C89.9248 49.7105 89.563 49.7924 89.1397 49.7924C88.62 49.7924 88.2008 49.6152 87.882 49.2608C87.5632 48.9062 87.4037 48.4147 87.4037 47.7864V45.4824H88.2316V47.5045C88.2316 47.9771 88.3293 48.345 88.5249 48.6081C88.7205 48.8713 89.0379 49.0029 89.4773 49.0029C89.7345 49.0029 89.9702 48.9493 90.1846 48.8418C90.3989 48.7343 90.5716 48.5813 90.703 48.3826C90.8342 48.1838 90.8999 47.9449 90.8999 47.6656ZM98.4066 49.156H98.3985C98.2538 49.2633 98.0717 49.3667 97.8521 49.4661C97.6323 49.5655 97.3925 49.6447 97.1326 49.7038C96.8727 49.7629 96.6062 49.7924 96.333 49.7924C95.8132 49.7924 95.3551 49.6998 94.9586 49.5145C94.5622 49.3291 94.2528 49.0741 94.0304 48.7491C93.8079 48.4242 93.6968 48.055 93.6968 47.6414C93.6968 47.1688 93.8148 46.7646 94.0505 46.4289C94.2862 46.0932 94.5983 45.8355 94.9868 45.6555C95.3752 45.4756 95.7999 45.3857 96.2607 45.3857C96.6893 45.3857 97.0805 45.473 97.4341 45.6474C97.7877 45.8221 98.069 46.0625 98.278 46.3685C98.4869 46.6746 98.5914 47.0318 98.5914 47.4399L98.5834 47.8428H94.5408C94.6103 48.208 94.8193 48.4967 95.1676 48.7089C95.5158 48.921 95.9499 49.0271 96.4697 49.0271C96.8501 49.0271 97.1648 48.9707 97.4141 48.8579C97.6631 48.7451 97.8654 48.6376 98.0208 48.5356L98.4066 49.156ZM96.2607 46.1511C95.8427 46.1511 95.4771 46.2289 95.1636 46.3846C94.8501 46.5404 94.6506 46.8063 94.5648 47.1822H97.7476V47.0775C97.7207 46.8949 97.635 46.7337 97.4903 46.5941C97.3457 46.4545 97.1648 46.3458 96.9478 46.2678C96.7309 46.1899 96.5017 46.1511 96.2607 46.1511Z" fill="#212121"/>
</svg>
