<svg width="176" height="58" viewBox="0 0 176 58" fill="none" xmlns="http://www.w3.org/2000/svg">
<path fill-rule="evenodd" clip-rule="evenodd" d="M138.315 9.09184C139.401 9.09043 140.336 9.86084 140.55 10.9319C140.763 12.0029 140.194 13.0762 139.191 13.4954C138.188 13.9145 137.031 13.5627 136.427 12.6551C135.822 11.7475 135.94 10.5369 136.707 9.76387C137.132 9.33309 137.711 9.09115 138.315 9.09184ZM100.193 13.572C100.468 12.7993 100.805 12.0502 101.199 11.3319C103.42 7.2967 106.87 4.08625 111.043 2.17441C115.328 0.166661 120.122 -0.471314 124.779 0.346488C126.493 0.654839 128.146 1.23557 129.679 2.06689C131.059 2.80829 132.272 3.82873 133.242 5.06414C133.501 5.35113 133.594 5.75325 133.487 6.12595C133.422 6.30925 133.3 6.4665 133.139 6.57397C133.006 6.66326 132.853 6.72001 132.694 6.73974C132.253 6.78975 131.815 6.62295 131.518 6.29172C130.645 5.28021 129.586 4.44675 128.4 3.83657C127.172 3.21246 125.838 2.82642 124.467 2.69859C121.349 2.3805 117.951 3.27654 114.873 5.27471C111.727 7.36449 109.208 10.2782 107.587 13.702C107.009 14.8943 106.576 16.1517 106.295 17.4474C105.986 16.9045 105.612 16.402 105.181 15.951C103.852 14.5891 102.083 13.75 100.193 13.5855V13.572ZM156.652 8.84543C156.25 9.07616 155.868 9.34148 155.512 9.63843C155.127 9.96978 154.767 10.3292 154.434 10.7137C153.819 11.4372 153.253 12.2021 152.741 13.0031C152.148 13.8991 151.554 14.8952 150.96 15.9914C150.906 16.0944 150.831 16.2378 150.746 16.4394H155.066C155.474 16.4243 155.85 16.6602 156.015 17.0352C156.122 17.2965 156.122 17.5894 156.015 17.8506C155.874 18.2556 155.493 18.5257 155.066 18.5227H149.793C149.129 20.0325 148.319 22.0172 147.615 24.0423C146.891 25.9937 146.382 28.0188 146.096 30.0816C146.069 30.3638 146.056 30.6416 146.056 30.9149C146.026 31.4086 146.116 31.9022 146.319 32.3531C146.448 32.612 146.704 32.7825 146.991 32.8011H147.138C148.06 32.8011 149.365 31.905 150.701 30.7178C151.968 29.5591 153.13 28.2908 154.176 26.9275C154.347 26.2578 154.572 25.6031 154.848 24.9697C155.732 22.8231 156.933 20.8232 158.411 19.0379C159.583 17.7297 160.95 16.753 162.473 16.6141C163.685 16.5066 164.153 16.6992 164.206 17.3041C164.237 17.6759 164.015 17.9671 163.694 18.3838C163.551 18.5675 163.382 18.7915 163.213 19.0469C162.066 20.7626 161.025 22.5476 160.095 24.3917C159.316 25.9309 158.671 27.5348 158.166 29.1856C158.038 29.6038 157.938 30.0304 157.868 30.4624C157.733 31.068 157.769 31.6994 157.97 32.2859C158.093 32.5867 158.346 32.8145 158.656 32.9041L158.852 32.9489C162.077 33.4507 164.487 29.0019 166.87 24.6426C169.252 20.2834 171.479 16.1302 174.811 16.1302C175.125 16.0967 175.441 16.1761 175.702 16.3543C176.103 16.6948 176.147 17.1114 175.537 17.658C173.475 19.58 171.444 26.0763 169.854 31.1658C169.408 32.604 168.99 33.9301 168.624 34.9964C167.322 38.7422 165.377 42.2296 162.879 45.3008C158.826 50.3504 153.456 54.1651 147.37 56.3177C141.028 58.5484 134.122 58.5611 127.772 56.3535C123.903 54.9804 120.306 52.9314 117.145 50.3008L117.096 50.256C116.883 50.068 116.728 49.8222 116.65 49.5481C116.608 49.3484 116.651 49.1398 116.771 48.9746C116.896 48.7965 117.097 48.6873 117.314 48.6789C117.602 48.6811 117.884 48.7666 118.125 48.9253H118.156L118.192 48.9567C122.387 52.2586 126.703 54.1716 130.943 54.9557C136.321 55.9153 141.862 55.1798 146.809 52.85C151.764 50.5265 156.096 47.044 159.44 42.6934C162.074 39.3306 164.074 35.512 165.342 31.4257C164.885 32.0347 164.376 32.6015 163.819 33.1192C162.304 34.4991 160.456 35.3279 158.113 34.8485C157.755 34.7766 157.406 34.667 157.071 34.5215C155.891 34.0081 154.948 33.0656 154.43 31.8826C154.269 31.5225 154.143 31.1474 154.055 30.7626C153.491 31.3622 152.897 31.932 152.274 32.4695C150.595 33.9077 148.777 34.9829 147.263 34.9829C146.513 34.9841 145.77 34.8317 145.081 34.5349C143.902 34.0157 142.952 33.0824 142.408 31.9095C142.055 31.1744 141.817 30.3884 141.704 29.5798C140.86 30.6113 139.937 31.5745 138.943 32.4606C137.282 33.9256 135.478 35.0143 133.945 35.0143C132.996 35.0361 132.054 34.8368 131.193 34.4319C130.4 34.0432 129.737 33.4296 129.287 32.6667C128.844 31.8967 128.574 31.039 128.494 30.1533C127.236 31.4153 125.798 32.4814 124.227 33.3163C121.298 34.9044 117.983 35.6281 114.664 35.4041C112.264 35.2387 109.929 34.5524 107.818 33.3925L107.475 33.1998V27.7877C108.444 29.7512 110.017 31.3477 111.96 32.3396C112.932 32.8146 113.978 33.1177 115.051 33.2357C117.675 33.5314 120.579 32.698 123.1 31.3181C125.746 29.871 127.959 27.8281 128.993 25.8478C129.091 25.5521 129.193 25.2654 129.313 24.9876C130.006 23.2682 130.835 21.6081 131.794 20.0235C132.459 18.8768 133.323 17.86 134.346 17.0218C134.603 16.8327 134.885 16.6819 135.184 16.5738C135.506 16.4629 135.839 16.3863 136.177 16.3453C137.197 16.2154 137.7 16.3453 137.865 16.9456C137.981 17.3713 137.745 17.8641 137.317 18.6436C136.134 20.9285 135.092 23.2852 134.199 25.7C133.554 27.3272 133.114 29.0295 132.89 30.7671C132.89 30.9418 132.868 31.112 132.868 31.2823C132.84 31.7142 132.928 32.1457 133.121 32.5323C133.273 32.7692 133.532 32.914 133.812 32.9176H133.95C134.774 32.9176 136.021 32.0215 137.295 30.8701C139.063 29.2229 140.635 27.3752 141.98 25.3639C141.982 25.3535 141.982 25.343 141.98 25.3326C142.029 25.2493 142.086 25.1712 142.15 25.0996L142.257 24.8263L142.818 23.4823C143.455 21.9545 144.154 20.2296 144.978 18.4913H142.07C141.641 18.506 141.251 18.2449 141.099 17.8417C141.046 17.7122 141.019 17.5738 141.018 17.434C141.02 17.2942 141.047 17.1559 141.099 17.0263C141.25 16.6222 141.641 16.3606 142.07 16.3767H145.998C147.486 13.4376 149.205 10.6958 151.147 9.10529C151.833 8.51058 152.6 8.01589 153.423 7.63578C154.188 7.31447 155.004 7.13535 155.833 7.10711C157.053 7.03543 157.458 7.36249 157.485 7.81947C157.512 8.27645 157.017 8.60798 156.679 8.80063L156.652 8.84543Z" fill="#212121"/>
<path fill-rule="evenodd" clip-rule="evenodd" d="M105.035 34.4005V22.3398C105.035 18.5137 102.959 15.9779 98.9506 15.9779C96.6293 15.899 94.4275 17.0131 93.1069 18.9349C92.2161 16.9546 90.4122 15.9779 88.0605 15.9779C85.7853 15.8934 83.6329 17.0159 82.3905 18.9349V16.4618H77.7316V34.3826H82.631V24.6516C82.631 22.2189 83.357 19.9564 86.1942 19.9564C88.5103 19.9564 88.8889 21.5558 88.8889 23.4688V34.3871H93.7883V24.3066C93.7883 21.8739 94.6524 19.9967 97.209 19.9967C99.7656 19.9967 100.042 21.6992 100.042 23.6839V34.3916L105.035 34.4005ZM68.9572 25.6731V27.6892C68.9572 30.2608 67.1756 31.69 64.6011 31.69C62.9086 31.69 61.9287 30.794 61.9287 29.2886C61.9287 27.0978 63.8261 26.8872 65.5231 26.6005C66.7391 26.4034 67.8169 26.3317 68.9572 25.6731ZM74.302 34.4005C73.6428 32.8728 73.6784 31.1703 73.6784 29.535V21.7843C73.6784 16.7799 69.4961 15.96 65.9017 15.96C60.7529 15.96 57.9156 18.012 57.6395 22.0083H62.236C62.579 19.9564 63.5144 19.2619 65.7592 19.2619C67.9372 19.2619 68.975 20.0281 68.975 21.6633C68.975 23.1239 67.7991 23.4016 64.6189 23.8183C61.0958 24.2663 56.8422 24.8263 56.8422 29.5216C56.8422 32.8952 59.2608 34.9426 63.2026 34.9426C65.3518 34.9992 67.4352 34.1933 68.9928 32.7025C69.0112 33.2974 69.1287 33.885 69.3402 34.4409L74.302 34.4005ZM49.9519 23.554H42.1306C42.4067 21.054 43.9122 19.5218 46.1036 19.5218C48.5578 19.5218 49.7336 21.3632 49.9519 23.554ZM54.6419 28.8406H49.9519C49.2259 30.6327 48.1213 31.4481 46.3263 31.4481C43.6984 31.4481 42.2108 29.777 42.144 26.6856H54.9314C54.9314 20.4133 51.5108 15.9421 46.1169 15.9421C40.9325 15.9421 37.1644 19.9743 37.1644 25.5387C37.1644 31.1703 40.7944 34.9247 46.2906 34.9247C50.3215 34.9202 53.5151 32.716 54.6419 28.8406ZM36.6343 16.1392C36.28 16.0751 35.9209 16.0406 35.5609 16.0362C33.0574 15.9714 30.7658 17.4431 29.7707 19.7548V16.4618H25.1251V34.3826H30.0246V26.1973C30.0246 22.9312 31.3385 20.494 34.7236 20.494C35.3631 20.4924 36.0009 20.5616 36.6254 20.7001L36.6343 16.1392ZM5.35374 29.88V14.1679H9.29554C14.1682 14.1679 16.4487 17.0532 16.4487 22.0262C16.4487 26.9992 14.2217 29.8845 9.29554 29.8845L5.35374 29.88ZM0.00890825 34.4005H9.95474C17.5934 34.4005 21.8782 29.9831 21.8782 22.0262C21.8782 14.0694 17.5889 9.64742 9.95474 9.64742H0L0.00890825 34.4005Z" fill="#212121"/>
<path fill-rule="evenodd" clip-rule="evenodd" d="M113.533 41.0402H108.843V42.1244H110.558V46.7838H111.818V42.1244H113.533V41.0402ZM100.567 46.7838H101.779V42.9309L104.144 46.7838H105.395V41.0402H104.193V44.8887L101.845 41.0402H100.572L100.567 46.7838ZM96.8703 41.0402H92.59V46.7838H96.9283V45.7086H93.8327V44.2973H96.6209V43.3027H93.8327V42.0527H96.8703V41.0402ZM82.5284 46.7838H83.7221V42.7516L85.1385 46.7838H86.1094L87.5125 42.7024V46.7838H88.7017V41.0402H86.9557L85.6596 44.9828L84.3234 41.0402H82.5418L82.5284 46.7838ZM75.6469 42.0751H76.7693C77.3216 42.0751 77.7403 42.2902 77.7403 42.904C77.7403 43.5178 77.3261 43.7283 76.7604 43.7283H75.6469V42.0751ZM74.4043 41.0447V46.7838H75.6469V44.7185H76.9297C78.0744 44.7185 78.9563 44.136 78.9563 42.8861C78.9563 41.6361 78.1011 41.0402 76.8629 41.0402L74.4043 41.0447ZM67.9415 41.9363C68.8946 41.9363 69.4826 42.6934 69.4826 43.9031C69.4826 45.1127 68.8991 45.8878 67.9504 45.8878C67.0017 45.8878 66.387 45.1351 66.387 43.9031C66.387 42.671 66.9928 41.9363 67.9415 41.9363ZM67.937 40.9103C66.2311 40.9103 65.1087 42.102 65.1087 43.9255C65.1087 45.7489 66.24 46.9272 67.9281 46.9272C69.6162 46.9272 70.7342 45.7175 70.7342 43.9255C70.7342 42.1334 69.6028 40.9103 67.937 40.9103ZM61.8751 45.7086H59.0869V41.0492H57.8353V46.7838H61.8751V45.7086ZM54.1385 41.0492H49.8581V46.7838H54.1964V45.7086H51.1008V44.2973H53.889V43.3027H51.1008V42.0527H54.1385V41.0492ZM41.4044 41.0492L43.2706 46.7838H44.6915L46.5934 41.0402H45.2928L43.9967 45.0724L42.7139 41.0402L41.4044 41.0492ZM38.3222 41.0492H34.0419V46.7838H38.3712V45.7086H35.2801V44.2973H38.0684V43.3027H35.2801V42.0527H38.3178L38.3222 41.0492ZM26.5681 45.7444V42.0975H27.4811C28.6125 42.0975 29.1425 42.7651 29.1425 43.921C29.1425 45.0769 28.6303 45.7444 27.4811 45.7444H26.5681ZM25.3254 46.7928H27.6326C29.4142 46.7928 30.3985 45.7668 30.3985 43.921C30.3985 42.0751 29.4053 41.0492 27.6326 41.0492H25.3209L25.3254 46.7928Z" fill="#212121"/>
</svg>
