<svg width="176" height="58" viewBox="0 0 176 58" fill="none" xmlns="http://www.w3.org/2000/svg">
<path fill-rule="evenodd" clip-rule="evenodd" d="M105.035 34.4006V22.3399C105.035 18.5138 102.959 15.978 98.9506 15.978C96.6293 15.899 94.4275 17.0131 93.1069 18.9349C92.2161 16.9547 90.4122 15.978 88.0605 15.978C85.7853 15.8934 83.6329 17.0159 82.3905 18.9349V16.4618H77.7316V34.3827H82.631V24.6517C82.631 22.2189 83.357 19.9564 86.1942 19.9564C88.5103 19.9564 88.8889 21.5558 88.8889 23.4689V34.3871H93.7883V24.3067C93.7883 21.8739 94.6524 19.9967 97.209 19.9967C99.7656 19.9967 100.042 21.6992 100.042 23.6839V34.3916L105.035 34.4006ZM68.9572 25.6731V27.6892C68.9572 30.2609 67.1756 31.6901 64.6011 31.6901C62.9086 31.6901 61.9287 30.794 61.9287 29.2887C61.9287 27.0979 63.8261 26.8873 65.5231 26.6005C66.7391 26.4034 67.8169 26.3317 68.9572 25.6731ZM74.302 34.4006C73.6428 32.8728 73.6784 31.1704 73.6784 29.5351V21.7843C73.6784 16.7799 69.4961 15.9601 65.9017 15.9601C60.7529 15.9601 57.9156 18.012 57.6395 22.0083H62.236C62.579 19.9564 63.5144 19.262 65.7592 19.262C67.9372 19.262 68.975 20.0281 68.975 21.6634C68.975 23.1239 67.7991 23.4017 64.6189 23.8183C61.0958 24.2664 56.8422 24.8264 56.8422 29.5216C56.8422 32.8952 59.2608 34.9427 63.2026 34.9427C65.3518 34.9993 67.4352 34.1933 68.9928 32.7026C69.0112 33.2975 69.1287 33.8851 69.3402 34.4409L74.302 34.4006ZM49.9519 23.554H42.1306C42.4067 21.0541 43.9122 19.5218 46.1036 19.5218C48.5578 19.5218 49.7336 21.3632 49.9519 23.554ZM54.6419 28.8406H49.9519C49.2259 30.6327 48.1213 31.4481 46.3263 31.4481C43.6984 31.4481 42.2108 29.777 42.144 26.6857H54.9314C54.9314 20.4134 51.5108 15.9421 46.1169 15.9421C40.9325 15.9421 37.1644 19.9743 37.1644 25.5387C37.1644 31.1704 40.7944 34.9248 46.2906 34.9248C50.3215 34.9203 53.5151 32.716 54.6419 28.8406ZM36.6343 16.1393C36.28 16.0751 35.9209 16.0406 35.5609 16.0362C33.0574 15.9714 30.7658 17.4431 29.7707 19.7548V16.4618H25.1251V34.3827H30.0246V26.1973C30.0246 22.9313 31.3385 20.494 34.7236 20.494C35.3631 20.4925 36.0009 20.5616 36.6254 20.7001L36.6343 16.1393ZM5.35374 29.8801V14.168H9.29554C14.1682 14.168 16.4487 17.0532 16.4487 22.0263C16.4487 26.9993 14.2217 29.8845 9.29554 29.8845L5.35374 29.8801ZM0.00890825 34.4006H9.95474C17.5934 34.4006 21.8782 29.9831 21.8782 22.0263C21.8782 14.0694 17.5889 9.64746 9.95474 9.64746H0L0.00890825 34.4006Z" fill="#D10D0F"/>
<path fill-rule="evenodd" clip-rule="evenodd" d="M138.315 9.09184C139.401 9.09043 140.337 9.86084 140.55 10.9319C140.763 12.0029 140.194 13.0762 139.192 13.4954C138.189 13.9145 137.031 13.5627 136.427 12.6551C135.823 11.7475 135.94 10.5369 136.707 9.76387C137.133 9.33309 137.712 9.09115 138.315 9.09184ZM100.193 13.572C100.468 12.7993 100.805 12.0502 101.2 11.3319C103.42 7.2967 106.871 4.08625 111.043 2.17441C115.329 0.166661 120.123 -0.471314 124.78 0.346488C126.493 0.654839 128.147 1.23557 129.679 2.06689C131.059 2.80829 132.273 3.82873 133.242 5.06414C133.502 5.35113 133.595 5.75325 133.487 6.12595C133.423 6.30925 133.301 6.4665 133.14 6.57397C133.006 6.66326 132.854 6.72001 132.694 6.73974C132.254 6.78975 131.816 6.62295 131.519 6.29172C130.645 5.28021 129.587 4.44675 128.401 3.83657C127.172 3.21246 125.838 2.82642 124.468 2.69859C121.35 2.3805 117.952 3.27654 114.874 5.27471C111.728 7.36449 109.208 10.2782 107.587 13.702C107.01 14.8943 106.576 16.1517 106.295 17.4474C105.987 16.9045 105.613 16.402 105.182 15.951C103.853 14.5891 102.084 13.75 100.193 13.5855V13.572ZM156.653 8.84543C156.25 9.07616 155.869 9.34148 155.512 9.63843C155.127 9.96978 154.767 10.3292 154.434 10.7137C153.819 11.4372 153.254 12.2021 152.742 13.0031C152.148 13.8991 151.554 14.8952 150.96 15.9914C150.907 16.0944 150.831 16.2378 150.747 16.4394H155.067C155.475 16.4243 155.85 16.6602 156.016 17.0352C156.122 17.2965 156.122 17.5894 156.016 17.8506C155.875 18.2556 155.493 18.5257 155.067 18.5227H149.793C149.13 20.0325 148.319 22.0172 147.615 24.0423C146.892 25.9937 146.382 28.0188 146.097 30.0816C146.07 30.3638 146.056 30.6416 146.056 30.9149C146.027 31.4086 146.117 31.9022 146.319 32.3531C146.448 32.612 146.704 32.7825 146.992 32.8011H147.139C148.061 32.8011 149.366 31.905 150.702 30.7178C151.968 29.5591 153.131 28.2908 154.176 26.9275C154.348 26.2578 154.573 25.6031 154.849 24.9697C155.732 22.8231 156.934 20.8232 158.412 19.0379C159.583 17.7297 160.951 16.753 162.474 16.6141C163.685 16.5066 164.153 16.6992 164.207 17.3041C164.238 17.6759 164.015 17.9671 163.694 18.3838C163.552 18.5675 163.383 18.7915 163.213 19.0469C162.066 20.7626 161.025 22.5476 160.095 24.3917C159.317 25.9309 158.671 27.5348 158.167 29.1856C158.039 29.6038 157.939 30.0304 157.868 30.4624C157.734 31.068 157.769 31.6993 157.971 32.2859C158.093 32.5867 158.346 32.8145 158.657 32.9041L158.853 32.9489C162.078 33.4507 164.487 29.0019 166.87 24.6426C169.253 20.2834 171.48 16.1302 174.812 16.1302C175.125 16.0967 175.441 16.1761 175.702 16.3543C176.103 16.6948 176.148 17.1114 175.538 17.658C173.475 19.58 171.444 26.0763 169.854 31.1658C169.409 32.604 168.99 33.9301 168.625 34.9964C167.322 38.7422 165.378 42.2296 162.879 45.3008C158.827 50.3504 153.457 54.1651 147.37 56.3177C141.028 58.5484 134.123 58.5611 127.773 56.3535C123.904 54.9804 120.306 52.9314 117.145 50.3008L117.096 50.256C116.883 50.068 116.729 49.8222 116.651 49.5481C116.608 49.3484 116.652 49.1398 116.771 48.9746C116.897 48.7965 117.098 48.6873 117.315 48.6789C117.603 48.6811 117.884 48.7666 118.125 48.9253H118.156L118.192 48.9567C122.388 52.2586 126.704 54.1716 130.944 54.9557C136.322 55.9153 141.863 55.1798 146.809 52.85C151.765 50.5265 156.096 47.044 159.441 42.6934C162.074 39.3306 164.074 35.512 165.342 31.4257C164.886 32.0347 164.376 32.6015 163.819 33.1192C162.305 34.4991 160.456 35.3279 158.113 34.8485C157.756 34.7766 157.406 34.667 157.071 34.5215C155.892 34.0081 154.948 33.0656 154.43 31.8826C154.269 31.5225 154.144 31.1474 154.056 30.7626C153.492 31.3622 152.897 31.932 152.274 32.4695C150.595 33.9077 148.778 34.9829 147.263 34.9829C146.513 34.9841 145.771 34.8317 145.081 34.5349C143.902 34.0157 142.952 33.0824 142.409 31.9095C142.055 31.1744 141.818 30.3884 141.705 29.5798C140.861 30.6112 139.937 31.5745 138.943 32.4606C137.282 33.9256 135.478 35.0143 133.946 35.0143C132.996 35.0361 132.054 34.8368 131.193 34.4319C130.4 34.0432 129.738 33.4296 129.287 32.6667C128.845 31.8967 128.574 31.039 128.494 30.1533C127.236 31.4153 125.798 32.4814 124.227 33.3163C121.299 34.9044 117.984 35.6281 114.664 35.4041C112.265 35.2387 109.929 34.5524 107.819 33.3925L107.476 33.1998V27.7877C108.444 29.7512 110.018 31.3477 111.961 32.3396C112.932 32.8146 113.978 33.1177 115.052 33.2357C117.675 33.5314 120.579 32.698 123.1 31.3181C125.746 29.871 127.96 27.8281 128.993 25.8478C129.091 25.5521 129.194 25.2654 129.314 24.9876C130.006 23.2682 130.836 21.6081 131.795 20.0235C132.459 18.8768 133.324 17.86 134.347 17.0218C134.603 16.8327 134.885 16.6819 135.184 16.5738C135.506 16.4629 135.839 16.3863 136.177 16.3453C137.197 16.2154 137.701 16.3453 137.865 16.9456C137.981 17.3713 137.745 17.8641 137.318 18.6436C136.134 20.9285 135.093 23.2852 134.2 25.7C133.554 27.3272 133.114 29.0295 132.89 30.7671C132.89 30.9418 132.868 31.112 132.868 31.2823C132.841 31.7142 132.928 32.1457 133.122 32.5323C133.273 32.7692 133.532 32.914 133.812 32.9176H133.95C134.774 32.9176 136.022 32.0215 137.295 30.8701C139.063 29.2229 140.636 27.3752 141.981 25.3639C141.982 25.3535 141.982 25.343 141.981 25.3326C142.029 25.2493 142.086 25.1712 142.15 25.0996L142.257 24.8263L142.818 23.4823C143.455 21.9545 144.155 20.2296 144.979 18.4913H142.07C141.642 18.506 141.251 18.2449 141.099 17.8417C141.047 17.7122 141.019 17.5738 141.019 17.434C141.02 17.2942 141.047 17.1559 141.099 17.0263C141.25 16.6222 141.641 16.3606 142.07 16.3767H145.999C147.486 13.4376 149.205 10.6958 151.147 9.10529C151.834 8.51058 152.6 8.01589 153.423 7.63578C154.188 7.31447 155.005 7.13535 155.833 7.10711C157.053 7.03543 157.459 7.36249 157.485 7.81947C157.512 8.27645 157.018 8.60798 156.679 8.80063L156.653 8.84543Z" fill="#212121"/>
<path fill-rule="evenodd" clip-rule="evenodd" d="M113.533 41.0403H108.843V42.1245H110.558V46.784H111.818V42.1245H113.533V41.0403ZM100.568 46.784H101.779V42.931L104.144 46.784H105.396V41.0403H104.193V44.8888L101.846 41.0403H100.572L100.568 46.784ZM96.8707 41.0403H92.5904V46.784H96.9286V45.7087H93.833V44.2974H96.6213V43.3028H93.833V42.0529H96.8707V41.0403ZM82.5288 46.784H83.7224V42.7518L85.1388 46.784H86.1098L87.5128 42.7025V46.784H88.702V41.0403H86.956L85.6599 44.9829L84.3237 41.0403H82.5421L82.5288 46.784ZM75.6473 42.0753H76.7697C77.322 42.0753 77.7407 42.2903 77.7407 42.9041C77.7407 43.5179 77.3265 43.7285 76.7608 43.7285H75.6473V42.0753ZM74.4046 41.0448V46.784H75.6473V44.7186H76.93C78.0747 44.7186 78.9566 44.1361 78.9566 42.8862C78.9566 41.6362 78.1014 41.0403 76.8632 41.0403L74.4046 41.0448ZM67.9418 41.9364C68.895 41.9364 69.4829 42.6935 69.4829 43.9032C69.4829 45.1128 68.8995 45.8879 67.9507 45.8879C67.002 45.8879 66.3874 45.1352 66.3874 43.9032C66.3874 42.6711 66.9931 41.9364 67.9418 41.9364ZM67.9374 40.9104C66.2315 40.9104 65.1091 42.1021 65.1091 43.9256C65.1091 45.749 66.2404 46.9273 67.9285 46.9273C69.6165 46.9273 70.7345 45.7177 70.7345 43.9256C70.7345 42.1335 69.6032 40.9104 67.9374 40.9104ZM61.8755 45.7087H59.0872V41.0493H57.8357V46.784H61.8755V45.7087ZM54.1388 41.0493H49.8585V46.784H54.1967V45.7087H51.1012V44.2974H53.8894V43.3028H51.1012V42.0529H54.1388V41.0493ZM41.4048 41.0493L43.271 46.784H44.6918L46.5937 41.0403H45.2931L43.997 45.0725L42.7142 41.0403L41.4048 41.0493ZM38.3226 41.0493H34.0423V46.784H38.3716V45.7087H35.2805V44.2974H38.0687V43.3028H35.2805V42.0529H38.3181L38.3226 41.0493ZM26.5684 45.7445V42.0977H27.4815C28.6128 42.0977 29.1428 42.7652 29.1428 43.9211C29.1428 45.077 28.6306 45.7445 27.4815 45.7445H26.5684ZM25.3257 46.7929H27.6329C29.4145 46.7929 30.3989 45.7669 30.3989 43.9211C30.3989 42.0753 29.4056 41.0493 27.6329 41.0493H25.3213L25.3257 46.7929Z" fill="#212121"/>
</svg>
