<svg width="157" height="107" viewBox="0 0 157 107" fill="none" xmlns="http://www.w3.org/2000/svg">
<path fill-rule="evenodd" clip-rule="evenodd" d="M0 96.227H156.482V95.3813H0V96.227Z" fill="#212121"/>
<path fill-rule="evenodd" clip-rule="evenodd" d="M45.3536 81.6208H45.3488H45.3464H45.344H45.3415L45.2886 81.622C44.4847 81.6328 43.7121 81.6533 42.8889 81.6533C42.8889 83.7994 42.8672 85.9238 42.8672 88.0686C42.8672 88.5017 42.8456 88.9035 42.8456 89.3474V90.6369C42.8456 91.0532 42.8371 91.4237 42.8359 91.8327V91.8531V91.8736V91.894V91.9145H44.5268V82.8995C44.5581 82.9104 44.5388 82.9104 44.5689 82.932L44.5906 82.9537L44.7807 83.1762C44.8132 83.2075 44.8024 83.2075 44.8337 83.2388L45.4366 83.9473C45.4571 83.9798 45.4679 83.9906 45.4992 84.0207C45.5209 84.0532 45.5305 84.0532 45.551 84.0844L45.912 84.5067C45.9433 84.538 45.9433 84.5488 45.9746 84.5801L46.6401 85.3632C46.6617 85.3945 46.6714 85.3945 46.7039 85.4257L46.8194 85.5629C46.8507 85.6062 46.8507 85.6062 46.8724 85.6375L47.8977 86.8416C47.9194 86.8741 47.9302 86.8741 47.9495 86.8946L48.1408 87.1159C48.3947 87.4226 48.8918 87.9832 49.1036 88.2479L49.7053 88.9444C49.7282 88.9865 49.7378 88.9865 49.7583 89.019L49.9376 89.2307C49.9809 89.2836 50.023 89.3257 50.0663 89.3774C50.3082 89.6842 50.585 89.9789 50.8366 90.2857C50.8691 90.317 50.8787 90.3278 50.9003 90.3603C50.9316 90.3915 50.9425 90.4024 50.9629 90.4336L51.8102 91.4153C51.8415 91.4477 51.8415 91.4574 51.8715 91.4898L52.1808 91.8483C52.2013 91.8784 52.2121 91.9121 52.2542 91.9121H54.7911V81.6184H53.1111V90.6971C53.0473 90.6442 52.7838 90.3061 52.6995 90.2111L52.5623 90.0415C52.3084 89.7239 51.9377 89.3233 51.6633 88.9949L49.1048 85.9731C49.053 85.9202 48.9989 85.866 48.9568 85.8131C48.9038 85.7481 48.8725 85.6976 48.8184 85.6447L47.1588 83.6899C46.894 83.3519 46.5871 83.0463 46.3127 82.7059L45.7628 82.0527C45.7303 82.019 45.7303 82.0106 45.6881 81.9781C45.5931 81.8722 45.5197 81.7459 45.4246 81.6497C45.3909 81.6244 45.3789 81.6184 45.3536 81.6172V81.6208Z" fill="#212121"/>
<path fill-rule="evenodd" clip-rule="evenodd" d="M3.86469 91.9892H3.87673H3.88876H3.9008H8.94451H8.96136C9.30435 91.9844 9.97467 91.8388 10.2659 91.7366C10.6992 91.5982 11.26 91.3444 11.556 91.0376C11.7799 90.8151 11.9255 90.678 12.0843 90.382C12.2613 90.0596 12.4478 89.552 12.4538 89.1851V89.1682V86.7262H6.71449V87.9208H10.6907V89.4221C10.6907 89.8106 10.3622 90.204 10.0553 90.4049C9.78092 90.5962 9.16595 90.8271 8.86027 90.8271H3.88034C3.69019 90.8271 3.36285 90.7213 3.20279 90.6683C2.80324 90.5324 2.42174 90.299 2.18947 89.9598C2.10402 89.8335 1.94637 89.5171 1.94637 89.327V84.2012C1.94637 84.0641 2.07274 83.7453 2.12569 83.6503C2.4434 83.0693 3.13058 82.9105 3.75518 82.7421C3.89117 82.7096 4.67342 82.7204 4.82145 82.7204C4.89486 82.7312 4.90569 82.7421 4.98993 82.7421C6.12119 82.7421 7.31622 82.7204 8.43665 82.7421C8.75557 82.7421 9.3573 82.89 9.64372 82.9851C9.98189 83.103 10.2671 83.3123 10.4777 83.5986C10.7437 83.9582 10.6992 84.1904 10.6992 84.6018H12.4538L12.4237 83.5144C12.3924 83.3135 12.0543 82.795 11.8749 82.6687C11.7161 82.54 11.6619 82.457 11.3984 82.2982C10.6907 81.8759 9.55948 81.5896 8.72307 81.5896H4.78053C4.43995 81.5896 4.23175 81.5752 4.02355 81.5752C3.7973 81.5752 3.56864 81.592 3.1727 81.663C2.39045 81.8013 1.6082 82.0564 1.00526 82.5833C0.963142 82.6338 0.921021 82.6783 0.866865 82.73C0.709211 82.8888 0.612934 83.0272 0.507029 83.216C0.349376 83.4698 0.179688 83.9667 0.179688 84.3047V89.3992C0.179688 89.5893 0.286796 89.884 0.338545 90.0332C0.433618 90.2978 0.591272 90.5613 0.76096 90.7838C1.21587 91.3336 1.80797 91.6078 2.50598 91.8087C2.61309 91.84 2.71659 91.8508 2.82249 91.8713C2.9284 91.8929 3.04634 91.9134 3.1715 91.9338C3.38451 91.9651 3.624 91.9856 3.8659 91.9868L3.86469 91.9892Z" fill="#212121"/>
<path fill-rule="evenodd" clip-rule="evenodd" d="M63.007 81.6199H62.9252H62.8422H62.7591H62.6761H62.593H62.5088H62.4246H62.3403H62.2561H62.1718H62.0876H62.0033H61.9191H61.8349H61.7506H61.6664H61.5821H61.4979H61.4136C59.9117 81.6199 58.5289 81.6223 58.2148 81.6223V87.0861V87.1619V87.2364V87.311C58.2173 88.8364 58.2353 90.3208 58.2353 91.8618C60.9539 91.8618 63.7026 91.8823 66.4309 91.8823C67.2661 91.8823 68.3023 91.6513 68.9582 91.2182C69.0111 91.1857 69.0424 91.1557 69.0954 91.1232C69.4961 90.8164 69.7934 90.4038 69.9631 89.907C70.0256 89.7157 70.1099 89.4006 70.1099 89.1371V84.6128C70.1099 83.4508 69.6129 82.7831 68.6922 82.2767C68.2481 82.0228 67.4021 81.8111 66.8954 81.7377C66.7691 81.7161 66.609 81.6956 66.4718 81.6848C66.4092 81.674 66.3454 81.674 66.2708 81.6632L65.828 81.6319C65.7774 81.6235 64.5017 81.6199 63.0034 81.6187L63.007 81.6199ZM59.8877 89.7699V88.7666C59.8877 88.4178 59.8684 88.1122 59.8684 87.7633C59.8684 86.0936 59.8467 84.4131 59.8467 82.7434H66.3912C66.6559 82.7434 67.4057 83.0189 67.6921 83.2294C68.0411 83.4832 68.3576 83.8646 68.3576 84.3602V89.2755C68.3576 89.3813 68.2842 89.5497 68.2517 89.6339C68.0291 90.1861 67.5429 90.5013 66.9724 90.6588C66.7606 90.7118 66.4225 90.7767 66.1481 90.7767H59.8985C59.8985 90.4279 59.8877 90.1308 59.8877 89.7723V89.7699Z" fill="#212121"/>
<path fill-rule="evenodd" clip-rule="evenodd" d="M24.3094 91.8822H26.117V88.8712C26.117 88.734 26.0328 88.5764 25.9786 88.4489C25.8944 88.2492 25.7464 88.0688 25.5875 87.9088C25.3673 87.6863 24.8895 87.4445 24.5838 87.4228V87.3915C24.7944 87.3915 25.2192 87.1906 25.3985 87.0655C25.62 86.9164 25.8318 86.683 25.9269 86.452C26.0003 86.2932 26.0845 86.0502 26.0845 85.8265V83.4807C26.0845 83.1644 25.7788 82.6772 25.5249 82.4654C24.922 81.9806 23.9387 81.716 23.1252 81.716L15.2582 81.6943C15.2582 83.4061 15.2365 85.0782 15.2365 86.7876L15.2269 91.7258C15.2269 91.7931 15.216 91.7979 15.2148 91.8593V91.8653V91.8725H16.9382V87.9413H22.6366C23.0494 87.9413 23.4838 88.0784 23.7366 88.2492C23.9604 88.4068 24.0964 88.5656 24.2119 88.8086C24.2649 88.9445 24.2541 88.9445 24.2541 89.1262L24.2757 89.4426C24.2757 90.2678 24.307 91.0702 24.307 91.8822H24.3094ZM16.8973 82.8167L22.024 82.8275C22.1937 82.8275 22.373 82.8167 22.5211 82.8383C22.6559 82.8576 22.7269 82.854 22.7918 82.8516C22.911 82.848 23.0073 82.8432 23.4309 82.9659C23.6427 83.0176 23.9604 83.1764 24.1072 83.3243C24.1494 83.3664 24.3299 83.5565 24.3299 83.6203V85.628C24.3299 85.8181 24.2553 86.0322 24.171 86.1465L24.0122 86.3365C23.9063 86.4207 23.9375 86.4111 23.8124 86.4845C23.5476 86.6433 23.0193 86.8334 22.7545 86.8334H16.8973V82.8179V82.8167Z" fill="#212121"/>
<path fill-rule="evenodd" clip-rule="evenodd" d="M82.566 91.9159H87.5772C88.6026 91.9159 89.6713 91.6512 90.2405 90.7851C90.2935 90.7105 90.326 90.648 90.3789 90.5626C90.4812 90.3857 90.699 89.7999 90.7062 89.5196V89.5064V88.2697H89.025V89.368C89.025 89.5701 88.8565 89.9069 88.7723 90.0224C88.6459 90.2137 88.5075 90.3617 88.3162 90.4771C87.9684 90.6997 87.4184 90.8465 86.8467 90.8465H82.903C82.5877 90.8465 81.9739 90.6155 81.6875 90.3929L81.5599 90.2871C81.507 90.2341 81.4973 90.2029 81.4552 90.1608C81.1568 89.8336 81.0412 89.3476 81.0412 88.882V84.2001C81.0412 84.0834 81.2952 83.7141 81.3698 83.6191C81.507 83.4387 81.6454 83.2919 81.8247 83.1644C82.152 82.9106 82.7333 82.6676 83.1557 82.6676H86.8154C87.1645 82.6676 87.8083 82.8697 88.126 83.0585C88.4967 83.2811 88.7506 83.5445 88.9408 83.9367C89.0587 84.1592 89.025 84.3914 89.025 84.7078C89.025 84.8136 89.0358 84.8666 89.0358 84.9724H90.675V83.7454C90.675 83.5553 90.4836 83.1536 90.3476 82.9539C90.1791 82.6989 90.0516 82.5737 89.8181 82.3825C89.6809 82.2658 89.5124 82.1816 89.3523 82.0877C89.0888 81.9398 88.528 81.7714 88.2428 81.7172C87.8938 81.6439 87.2908 81.5488 86.9214 81.5488H83.3483C82.8079 81.5488 82.2796 81.633 81.8259 81.7389C81.1062 81.8977 80.3673 82.2249 79.8799 82.8071C79.8173 82.8805 79.7547 82.9755 79.7006 83.0597C79.4695 83.4928 79.3516 83.9066 79.3516 84.4335V89.528C79.3516 89.7181 79.6272 90.322 79.7427 90.5229C80.3348 91.5153 81.4336 91.9183 82.566 91.9183V91.9159Z" fill="#212121"/>
<path fill-rule="evenodd" clip-rule="evenodd" d="M35.5695 81.6438H32.9471C32.9471 81.6751 32.8099 81.9084 32.7895 81.9493C32.7558 82.0023 32.7365 82.0564 32.704 82.1081L31.9422 83.5553C31.657 84.1267 31.2972 84.739 31.012 85.3104C30.9807 85.3633 30.9602 85.4259 30.9277 85.4788L30.7484 85.7964C30.7267 85.8481 30.7063 85.9022 30.6738 85.954L30.3356 86.5891C30.3043 86.6517 30.2839 86.7046 30.2405 86.7575L28.9721 89.1478C28.8253 89.4534 28.6231 89.8106 28.4654 90.109L27.5352 91.8821H29.2898C29.3524 91.7787 29.3945 91.6824 29.4583 91.567C29.7218 91.0377 30.0504 90.4687 30.3152 89.9285C30.3681 89.8106 30.4211 89.7168 30.4836 89.6122C30.5053 89.5604 30.5366 89.5063 30.5691 89.4425C30.6004 89.38 30.6317 89.2946 30.6738 89.2946H37.8332C37.8753 89.2946 37.8958 89.3583 37.9379 89.4425C38.329 90.1294 38.7635 90.8584 39.1329 91.5357C39.1979 91.6524 39.2605 91.7462 39.3231 91.8629H40.9827L39.8947 89.8022C39.8634 89.7397 39.8418 89.6964 39.8105 89.6326L38.2761 86.7575C38.2448 86.7046 38.2243 86.6625 38.1918 86.5988C38.0438 86.3149 37.8332 85.9347 37.6852 85.6484C37.483 85.2358 37.2194 84.7811 37.0076 84.3697C36.9763 84.3071 36.9559 84.2638 36.9246 84.2013L36.6706 83.7345C36.649 83.6816 36.6177 83.619 36.5864 83.5661L36.1628 82.7734C36.0557 82.5616 35.5923 81.7268 35.5707 81.6426L35.5695 81.6438ZM32.4718 85.818C32.7257 85.332 33.0314 84.7823 33.2636 84.3083L33.804 83.2942C33.8365 83.2305 33.8678 83.1884 33.9003 83.1246C33.9219 83.0717 34.0375 82.7962 34.1013 82.7962C34.5237 82.7962 34.4394 82.7649 34.5237 82.9454L34.9786 83.7899C35.0099 83.8536 35.0424 83.8849 35.0737 83.9595C35.2108 84.2542 35.4431 84.6572 35.614 84.9627L36.2386 86.1464C36.2699 86.1994 36.3 86.2523 36.3325 86.3161C36.365 86.3786 36.3842 86.4111 36.4275 86.4845C36.5443 86.7275 36.7573 87.0763 36.8728 87.3193L37.3265 88.1638H31.237L32.4742 85.8168L32.4718 85.818Z" fill="#212121"/>
<path fill-rule="evenodd" clip-rule="evenodd" d="M103.069 91.9159H104.855C104.855 91.8317 104.146 90.5421 104.041 90.3304L102.793 87.9221C102.761 87.8583 102.73 87.8247 102.709 87.7633L100.71 83.9163C100.677 83.8645 100.647 83.82 100.624 83.7575C100.593 83.6949 100.574 83.6516 100.54 83.5878C100.51 83.5349 100.479 83.4928 100.456 83.4411L99.5269 81.6655H96.8407C96.8191 81.7401 96.7878 81.7726 96.7565 81.8243L95.6674 83.9078C95.6349 83.9596 95.6144 84.0029 95.5819 84.0654C95.5518 84.1292 95.5193 84.1605 95.4868 84.2242L95.3292 84.5394C95.1282 84.9424 94.8526 85.4067 94.6516 85.8073L94.3135 86.4545C94.1137 86.8647 93.8489 87.3206 93.6383 87.7308L93.1413 88.6824C93.1088 88.7353 93.0883 88.7894 93.057 88.8412L92.6334 89.6339C92.6021 89.6977 92.5805 89.7289 92.5492 89.7927L91.4492 91.8846H93.1317C93.1642 91.8341 93.1834 91.8004 93.2171 91.7391C93.2484 91.6753 93.2676 91.632 93.3122 91.5695L94.4326 89.4667C94.4531 89.4041 94.4856 89.3608 94.5168 89.2971H101.76C101.781 89.3933 102.362 90.5024 102.415 90.6095L103.071 91.9195L103.069 91.9159ZM96.8504 84.8546L97.3799 83.8188C97.4124 83.7563 97.4316 83.7142 97.4641 83.6504C97.4966 83.5866 97.5279 83.5445 97.5592 83.482L97.9094 82.7831H98.3427C98.3535 82.8384 98.469 83.0489 98.5111 83.1331C98.67 83.4495 98.8914 83.8296 99.0515 84.1472L99.5894 85.1733C99.6231 85.2251 99.6532 85.2888 99.6749 85.3418C99.8325 85.6569 100.066 86.0503 100.226 86.3667L101.209 88.2577H95.0981C95.1198 88.1627 96.641 85.2888 96.8528 84.8546H96.8504Z" fill="#212121"/>
<path fill-rule="evenodd" clip-rule="evenodd" d="M131.945 91.905H133.67C133.69 91.8316 133.796 91.6512 133.838 91.5778L134.187 90.9318C134.356 90.6467 134.621 90.0982 134.79 89.801L135.054 89.2934H142.317C142.423 89.5051 142.539 89.7265 142.644 89.9382L143.3 91.2169C143.405 91.4274 143.511 91.6608 143.627 91.8713H145.382C145.362 91.7763 145.266 91.6404 145.224 91.5549L144.718 90.5938C144.684 90.53 144.665 90.4975 144.631 90.4458L143.543 88.3635C143.301 87.8559 142.952 87.2748 142.698 86.766C142.402 86.1645 142 85.4656 141.704 84.8641C141.586 84.6416 141.471 84.4407 141.366 84.2205L140.52 82.6326C140.445 82.4871 140.045 81.7473 140.023 81.6606H137.326C137.315 81.7352 136.977 82.3379 136.914 82.4534L135.911 84.3781C135.615 84.9579 135.266 85.5702 134.98 86.1429C134.947 86.1958 134.927 86.2379 134.896 86.3016L134.303 87.4216C134.272 87.4733 134.25 87.5166 134.229 87.5804L133.722 88.5319C133.69 88.5824 133.67 88.6354 133.637 88.7003L133.13 89.6519C132.939 90.0212 132.708 90.423 132.54 90.7718C132.517 90.8248 132.487 90.8777 132.454 90.9402L131.947 91.9026L131.945 91.905ZM135.678 88.0916L136.756 86.0514C136.789 85.9865 136.809 85.9347 136.84 85.871L137.474 84.6765C137.697 84.2338 137.993 83.7249 138.203 83.3027L138.478 82.7746H138.85L139.388 83.7887C139.419 83.8633 139.451 83.8957 139.484 83.9691L140.933 86.7046C140.974 86.7684 140.994 86.8225 141.028 86.8851L141.386 87.5611C141.418 87.6249 141.439 87.6574 141.482 87.7296C141.512 87.7933 141.545 87.8366 141.566 87.8992C141.598 87.9629 141.631 88.0279 141.662 88.0796C141.695 88.1325 141.737 88.1867 141.746 88.2588H135.593C135.613 88.2071 135.646 88.1542 135.677 88.0916H135.678Z" fill="#212121"/>
<path fill-rule="evenodd" clip-rule="evenodd" d="M106.684 91.882H108.385V87.9736H113.894C114.464 87.9736 115.205 87.8244 115.744 87.6139L115.977 87.508C116.251 87.3697 116.494 87.1917 116.696 86.9475C116.855 86.7562 117.108 86.334 117.108 86.0801V83.6598C117.108 83.0571 116.707 82.5916 116.242 82.3077C116.189 82.2644 116.136 82.2451 116.072 82.2018C115.797 82.0322 114.888 81.7158 114.602 81.7158H106.716C106.716 85.0023 106.686 88.2791 106.684 91.5632V91.722V91.8808V91.882ZM108.364 82.8262H113.82C114.2 82.8262 114.815 82.9837 115.089 83.2592C115.173 83.3434 115.29 83.4902 115.29 83.6285V86.0609C115.29 86.1667 115.131 86.3352 115.056 86.4097C114.772 86.6936 114.137 86.8103 113.725 86.8103H108.364V82.8262Z" fill="#212121"/>
<path fill-rule="evenodd" clip-rule="evenodd" d="M133.656 82.7939V81.6523H122.816V82.8469H127.333C127.364 82.8469 127.375 82.8577 127.375 82.889V91.8811H129.098V82.7927H133.656V82.7939Z" fill="#212121"/>
<path fill-rule="evenodd" clip-rule="evenodd" d="M147.254 91.9049H157.001V90.7428H148.904V81.6533H147.254V91.9049Z" fill="#212121"/>
<path fill-rule="evenodd" clip-rule="evenodd" d="M43.9421 106.437H43.9746H47.5898H47.6198C48.2408 106.431 48.78 106.243 49.1338 105.971C49.419 105.761 49.6621 105.442 49.7981 105.116C49.8306 105.032 49.9245 104.83 49.9245 104.735V103.275H46.0132V103.92H48.7198V104.935C48.7198 105.073 48.4659 105.326 48.3708 105.411C48.1807 105.579 47.7366 105.739 47.4718 105.76C47.3455 105.77 47.1854 105.77 47.0602 105.77C46.9014 105.76 46.8063 105.781 46.6583 105.781H44.5221C44.2477 105.781 43.5931 105.59 43.3283 105.453C43.1369 105.358 42.8734 105.168 42.8108 104.967C42.7771 104.883 42.8 103.603 42.8 103.455L42.7879 101.955C42.7879 101.436 42.9059 101.235 43.3596 101.014C43.5281 100.919 43.9421 100.824 44.1948 100.824H47.3551C47.5669 100.824 47.9688 100.972 48.1373 101.067C48.2854 101.14 48.3166 101.162 48.4454 101.266C48.4972 101.298 48.6885 101.489 48.6885 101.541V102.027H49.9148C49.9148 101.985 49.9245 101.974 49.9245 101.922C49.9245 101.499 49.9666 101.424 49.6826 101.043C49.4286 100.707 49.07 100.463 48.6669 100.325C48.2757 100.197 47.8329 100.114 47.3984 100.114C47.2287 100.114 46.9712 100.1 46.7521 100.1C46.6414 100.1 46.5415 100.103 46.4681 100.114C46.3297 100.137 46.1576 100.13 45.9855 100.122C45.8279 100.116 45.669 100.11 45.5367 100.125C45.3188 100.15 45.0432 100.147 44.7472 100.144C44.403 100.142 44.0323 100.138 43.6966 100.178C43.4017 100.22 43.1694 100.251 42.9155 100.335C42.4486 100.495 42.0899 100.685 41.8047 101.119C41.7217 101.234 41.5568 101.605 41.5508 101.797V101.805V104.553V104.575C41.5568 105.033 41.7469 105.488 42.0478 105.802C42.0695 105.833 42.0899 105.843 42.1128 105.863C42.1754 105.906 42.2079 105.947 42.2596 105.992C42.6544 106.261 43.2657 106.428 43.9409 106.434L43.9421 106.437Z" fill="#212121"/>
<path fill-rule="evenodd" clip-rule="evenodd" d="M64.1351 100.191H64.1266H58.6172V106.373H59.7172V103.997H63.9148C63.9991 103.997 64.1796 104.069 64.2422 104.103C64.5274 104.228 64.7609 104.535 64.7609 104.874V106.374H65.9439V104.556C65.9439 104.208 65.5311 103.914 65.2567 103.785C65.2049 103.765 65.1508 103.744 65.087 103.723C65.0136 103.69 64.9715 103.67 64.8969 103.659C64.9306 103.606 64.8872 103.637 65.0353 103.606C65.3626 103.522 65.7116 103.352 65.8705 103.047C66.0077 102.771 65.9234 102.285 65.9234 101.958C65.933 101.324 65.986 100.901 65.3506 100.553C65.17 100.446 65.0016 100.382 64.7922 100.32C64.655 100.279 64.3048 100.196 64.1327 100.192L64.1351 100.191ZM59.7184 102.538V102.42V102.389V100.92C60.1095 100.92 60.4477 100.898 60.8388 100.898H63.9052C64.0954 100.898 64.3902 101.045 64.4961 101.141C64.5695 101.215 64.6345 101.268 64.6875 101.363C64.7404 101.468 64.75 101.586 64.75 101.733V102.579C64.75 102.991 64.1591 103.264 64.0412 103.264H59.7063C59.7063 103.085 59.6955 102.695 59.7172 102.537L59.7184 102.538Z" fill="#212121"/>
<path fill-rule="evenodd" clip-rule="evenodd" d="M80.1563 100.117C79.0635 100.117 77.9708 100.128 76.8792 100.128C76.4978 100.128 75.7985 100.286 75.5145 100.435C75.3244 100.53 75.346 100.508 75.1667 100.636C74.9417 100.782 74.7732 100.985 74.648 101.228C74.6059 101.289 74.5 101.564 74.5 101.65C74.5 102.273 74.5108 102.854 74.5108 103.478C74.5108 103.648 74.5325 103.765 74.5325 103.922C74.5325 104.103 74.5325 104.937 74.5542 105.053C74.6179 105.349 74.7443 105.634 74.9429 105.825C75.1029 105.995 75.2726 106.099 75.5061 106.195C76.0019 106.405 76.245 106.364 76.647 106.427C76.8058 106.448 76.9647 106.427 77.1019 106.417C77.3895 106.405 77.7361 106.417 78.0322 106.417C78.1284 106.427 78.1585 106.405 78.2343 106.405H78.9311C79.5136 106.405 80.1803 106.374 80.7724 106.374C81.1828 106.374 81.1323 106.395 81.5342 106.227C81.7545 106.142 81.9555 106.037 82.136 105.901C82.497 105.624 82.7281 105.265 82.7281 104.641V101.726C82.7281 101.357 82.5391 101.028 82.2756 100.788C82.0638 100.597 81.8002 100.474 81.5354 100.377C81.0998 100.215 80.6052 100.12 80.1599 100.12L80.1563 100.117ZM76.4568 105.654C76.1596 105.536 75.9586 105.39 75.7901 105.137C75.6 104.853 75.6734 104.628 75.6734 104.396V103.519C75.6734 103.309 75.695 103.15 75.695 102.938V102.05C75.6842 101.935 75.7047 101.882 75.7047 101.765C75.7047 101.606 75.7793 101.511 75.8852 101.363C76.1608 101.025 76.6458 100.826 77.1332 100.826H80.0841C80.5594 100.826 81.2009 101.098 81.4729 101.517C81.6004 101.715 81.6173 101.873 81.6173 102.083C81.6173 102.914 81.6173 103.745 81.6173 104.577C81.6028 104.68 81.6185 104.756 81.6173 104.827C81.6064 105.39 80.882 105.68 80.4126 105.761C80.1466 105.806 78.5087 105.783 78.0755 105.783C77.7975 105.783 77.5508 105.804 77.3101 105.804C77.0297 105.804 76.7589 105.776 76.4592 105.657L76.4568 105.654Z" fill="#212121"/>
<path fill-rule="evenodd" clip-rule="evenodd" d="M99.4213 100.158H98.2491V104.873C98.2491 104.957 98.154 105.127 98.1215 105.188C97.9952 105.358 97.8038 105.506 97.592 105.579C97.5294 105.611 97.3176 105.686 97.243 105.686H93.8492C93.6386 105.686 93.1512 105.473 92.9815 105.305C92.866 105.199 92.866 105.199 92.7806 105.072C92.6963 104.946 92.6963 104.935 92.6963 104.734C92.6963 104.65 92.6855 104.619 92.6855 104.543C92.6735 104.322 92.6855 103.731 92.6855 103.477C92.6855 103.18 92.6626 102.937 92.6626 102.643V101.797C92.6735 101.639 92.6518 101.543 92.6518 101.396V100.338C92.6518 100.264 92.6722 100.162 92.6133 100.158H92.6109H91.4375V100.167V100.174V100.182V100.19C91.4387 100.345 91.4483 100.465 91.4483 100.635C91.4483 100.782 91.4375 100.984 91.4483 101.12C91.4712 101.331 91.4712 101.616 91.4592 101.84C91.4592 101.945 91.4808 101.976 91.4808 102.071C91.4808 102.811 91.5133 103.518 91.5133 104.258L91.5446 104.967C91.6926 105.96 92.6542 106.298 93.5749 106.403C94.2307 106.487 94.3992 106.435 94.9925 106.435H96.9698C97.8784 106.435 98.5668 106.192 99.0638 105.568C99.1481 105.463 99.2022 105.379 99.2648 105.273C99.2973 105.222 99.4225 104.999 99.4225 104.935V100.157L99.4213 100.158Z" fill="#212121"/>
<path fill-rule="evenodd" clip-rule="evenodd" d="M108.398 106.405H109.519V104.039C109.519 103.965 109.784 103.997 109.921 103.997H113.536C114.034 103.997 114.848 103.806 115.196 103.394C115.311 103.256 115.47 103.003 115.47 102.759V101.364C115.47 101.088 115.216 100.741 114.974 100.582C114.286 100.105 113.292 100.19 112.511 100.19C112.331 100.19 112.203 100.168 112.014 100.168H109.424C109.075 100.168 108.757 100.157 108.398 100.157V106.403V106.405ZM109.562 100.899H113.442C113.877 100.899 114.276 101.142 114.276 101.555V102.633C114.276 102.877 114.161 103.002 114.013 103.108C113.896 103.181 113.632 103.276 113.442 103.276H109.562V100.899Z" fill="#212121"/>
<path fill-rule="evenodd" clip-rule="evenodd" d="M119.614 91.8628H121.317V81.6221H119.678C119.678 81.8434 119.667 82.0227 119.667 82.2464V84.1808C119.667 84.603 119.646 85.0048 119.646 85.4487V86.7382C119.646 87.1821 119.635 87.5623 119.635 88.0061V89.2945C119.635 89.7396 119.613 90.1294 119.613 90.5624V91.8628H119.614Z" fill="#212121"/>
<path fill-rule="evenodd" clip-rule="evenodd" d="M58.3651 16.7975L57.1953 20.2921C63.9973 15.8159 71.2277 13.4244 78.8925 11.9279L78.8877 8.51514C71.6116 9.95387 64.4594 12.5703 58.3651 16.7963V16.7975Z" fill="#212121"/>
<path fill-rule="evenodd" clip-rule="evenodd" d="M96.2693 64.9168C105.086 65.7589 112.694 67.9723 121.019 71.6979L119.021 65.6386C110.819 61.8204 103.248 59.7922 95.4727 58.9321L96.2681 64.9168H96.2693Z" fill="#212121"/>
<path fill-rule="evenodd" clip-rule="evenodd" d="M95.1266 56.2724C103.109 57.1169 110.634 59.4434 118.132 62.9464L116.134 56.8872C109.226 53.6175 102.739 51.4101 94.3359 50.2817L95.1266 56.2724Z" fill="#212121"/>
<path fill-rule="evenodd" clip-rule="evenodd" d="M93.8993 46.9509C102.245 48.0865 108.235 50.33 115.027 53.5202L113.252 48.1334C106.283 44.6652 100.303 42.7237 93.1953 41.6182L93.8993 46.9509Z" fill="#212121"/>
<path fill-rule="evenodd" clip-rule="evenodd" d="M92.7521 38.2781C100.744 39.5701 105.876 41.7763 112.136 44.7031L110.364 39.3788C104.677 36.4111 99.2496 34.2157 92.0469 32.9346L92.7521 38.2781Z" fill="#212121"/>
<path fill-rule="evenodd" clip-rule="evenodd" d="M91.6069 29.5918C97.7517 30.7442 103.716 32.9697 109.256 36.0143L107.702 31.3012C102.172 28.2156 97.2138 26.2463 90.9883 24.9062L91.6069 29.5918Z" fill="#212121"/>
<path fill-rule="evenodd" clip-rule="evenodd" d="M90.4577 20.8788C96.0635 22.107 101.391 24.3529 106.37 27.2593L104.998 23.097C99.9855 20.3507 95.3281 18.0807 89.9258 16.8501L90.4577 20.8788Z" fill="#212121"/>
<path fill-rule="evenodd" clip-rule="evenodd" d="M41.055 68.5253L39.1836 74.1178C51.6274 68.0934 65.182 64.9501 78.9593 64.4797L78.952 59.0195C64.709 59.6234 53.163 62.7703 41.055 68.5253Z" fill="#212121"/>
<path fill-rule="evenodd" clip-rule="evenodd" d="M47.137 50.3515L45.2656 55.944C55.9548 50.6245 66.7968 47.5883 78.9361 46.7366L78.9289 41.2764C67.2168 42.2291 57.429 45.0609 47.137 50.3515Z" fill="#212121"/>
<path fill-rule="evenodd" clip-rule="evenodd" d="M49.9426 41.963L48.3047 46.8554C58.0058 41.6695 68.2401 38.8474 78.9232 37.8634L78.9172 33.0864C68.719 34.1306 58.9301 36.9443 49.9426 41.963Z" fill="#212121"/>
<path fill-rule="evenodd" clip-rule="evenodd" d="M52.75 33.5736L51.1133 38.4672C59.6278 33.6193 69.1327 30.7755 78.9145 29.6736L78.9085 24.8955C69.6286 26.0167 60.6399 28.9218 52.7512 33.5736H52.75Z" fill="#212121"/>
<path fill-rule="evenodd" clip-rule="evenodd" d="M55.5556 25.1855L54.1523 29.3802C62.0146 24.7127 70.1668 22.0878 78.9016 20.8019L78.8968 16.707C70.5315 18.1049 62.7643 20.6202 55.5568 25.1867L55.5556 25.1855Z" fill="#212121"/>
<path fill-rule="evenodd" clip-rule="evenodd" d="M61.1713 8.40882L60.2266 11.2021C65.3208 7.54871 71.3766 4.76507 78.8766 3.05567V0.326172C72.4935 1.91407 66.4737 4.45952 61.1713 8.40882Z" fill="#212121"/>
<path fill-rule="evenodd" clip-rule="evenodd" d="M44.094 59.4379L42.2227 65.0304C54.1466 59.0926 66.3124 56.297 78.9451 55.6077L78.9379 50.1475C66.6542 51.0641 55.4114 53.7768 44.0928 59.4379H44.094Z" fill="#212121"/>
<path fill-rule="evenodd" clip-rule="evenodd" d="M39.8398 78.7266C66.115 70.917 93.9223 69.933 120.672 75.8937C94.447 66.4649 65.3388 67.4814 39.8398 78.7266Z" fill="#212121"/>
<path fill-rule="evenodd" clip-rule="evenodd" d="M85.0273 0.025617L91.3516 64.5833L94.3073 64.7506L85.8385 0.0605027C85.5737 0.0460672 85.3041 0.0340377 85.0273 0.0244141V0.025617Z" fill="#212121"/>
<path fill-rule="evenodd" clip-rule="evenodd" d="M81.0938 0.0716622L81.2201 64.4886L83.9592 64.4694L81.953 0.0307617C81.675 0.0415883 81.3898 0.0548208 81.0938 0.0716622Z" fill="#212121"/>
<path fill-rule="evenodd" clip-rule="evenodd" d="M86.2909 64.4727L89.0083 64.5088L83.9429 0.00158033C83.6312 -0.000825577 83.3099 -0.000825577 82.9766 0.00398624L86.2921 64.4715L86.2909 64.4727Z" fill="#212121"/>
</svg>
