<svg width="125" height="125" viewBox="0 0 125 125" fill="none" xmlns="http://www.w3.org/2000/svg">
<g clip-path="url(#clip0_222_1495)">
<path fill-rule="evenodd" clip-rule="evenodd" d="M86.6848 84.7435H81.4766V71.9773H77.7836V84.7435H72.5773V75.9524C72.5773 71.7322 76.0607 68.299 80.3413 68.299H90.3789V64.6573H80.3413C76.8347 64.6573 73.6924 66.2197 71.5888 68.6747C71.1366 67.0374 70.5424 65.4586 69.809 63.9549C72.7387 61.4479 76.4366 60.0748 80.3413 60.0748H90.3789V56.434H80.3413C75.7863 56.434 71.4593 57.9503 67.9518 60.7369C67.0986 59.4589 66.142 58.253 65.0916 57.1336C69.2765 53.832 74.5775 51.8506 80.3413 51.8506H90.3789V48.2089H80.3413C73.5233 48.2089 67.2657 50.6121 62.39 54.6036C57.5132 50.6111 51.2537 48.2051 44.4338 48.2051H38.0719V40.026H86.6848V48.2051H90.3789V40.026V36.3853H86.6848H38.0719H34.3789V40.026V48.2051V51.8468H44.4338C50.1995 51.8468 55.5024 53.8291 59.6883 57.1336C58.637 58.253 57.6804 59.457 56.8272 60.7359C53.3196 57.9465 48.9907 56.4302 44.4338 56.4302H34.3789V60.071H44.4338C48.3404 60.071 52.0403 61.445 54.97 63.9539C54.2356 65.4558 53.6404 67.0364 53.1882 68.6728C51.0846 66.2168 47.9414 64.6534 44.4338 64.6534H34.3789V68.2942H44.4338C48.7154 68.2942 52.1987 71.7284 52.1987 75.9486V84.7435H46.9915V71.9734H43.2985V84.7435H38.0719V72.0042H34.3789V88.3853H55.8918V75.9524C55.8918 69.6519 58.3597 63.9107 62.389 59.6117C66.4174 63.9107 68.8833 69.65 68.8833 75.9486V88.3853H90.3789V72.0042H86.6848V84.7435Z" fill="black"/>
<path d="M116.191 67.0883C115.988 67.0796 115.786 67.1271 115.607 67.2254C115.467 67.3369 115.354 67.4779 115.275 67.6383C115.195 67.7988 115.152 67.9747 115.149 68.1536C115.113 68.3789 115.115 68.6085 115.153 68.8333C115.169 68.9789 115.234 69.1145 115.338 69.2177C115.442 69.3208 115.578 69.3852 115.723 69.4C115.808 69.4128 115.894 69.4022 115.973 69.3694C116.052 69.3367 116.12 69.2829 116.171 69.2141C116.324 68.9922 116.443 68.7477 116.521 68.4895L116.725 67.9154C116.847 67.5044 117.039 67.1178 117.293 66.7726C117.449 66.604 117.646 66.4785 117.864 66.408C118.083 66.3376 118.316 66.3246 118.541 66.3704C118.771 66.3943 118.993 66.4688 119.191 66.5884C119.39 66.7081 119.559 66.87 119.688 67.0627C119.984 67.5566 120.085 68.143 119.972 68.7078C119.92 69.2424 119.694 69.7451 119.328 70.1384C119.148 70.3235 118.927 70.4634 118.683 70.5466C118.439 70.6298 118.178 70.6539 117.923 70.617L118.061 69.5222C118.207 69.54 118.355 69.5165 118.488 69.4543C118.621 69.3921 118.734 69.2937 118.814 69.1704C118.939 68.9702 119.015 68.7439 119.037 68.5092C119.081 68.2585 119.051 68.0002 118.95 67.7664C118.909 67.6753 118.845 67.5966 118.764 67.5383C118.683 67.48 118.589 67.4442 118.489 67.4346C118.399 67.4203 118.307 67.4325 118.223 67.4699C118.14 67.5072 118.069 67.568 118.02 67.6449C117.888 67.864 117.782 68.0976 117.703 68.341L117.357 69.2691C117.251 69.5999 117.076 69.9043 116.843 70.1621C116.689 70.3089 116.502 70.4169 116.298 70.4772C116.094 70.5376 115.879 70.5485 115.67 70.5092C115.432 70.4834 115.204 70.4039 115.002 70.2768C114.8 70.1496 114.629 69.9781 114.503 69.7751C114.207 69.2636 114.105 68.6621 114.216 68.0812C114.258 67.4736 114.504 66.8982 114.915 66.449C115.098 66.2672 115.322 66.1317 115.568 66.0537C115.813 65.9758 116.074 65.9577 116.328 66.0009L116.191 67.0883Z" fill="black"/>
<path d="M113.473 73.0964L113.713 71.9814L119.077 73.141L118.837 74.256L113.473 73.0964Z" fill="black"/>
<path d="M114.036 75.0373L116.609 78.7621L117.408 76.144L118.338 76.4287L117.121 80.4105L116.241 80.1413L113.63 76.3664L112.796 79.0943L111.871 78.8109L113.111 74.7539L114.036 75.0373Z" fill="black"/>
<path d="M116.292 82.6638L115.81 83.7662L111.43 84.2266L114.935 85.7642L114.506 86.744L109.48 84.5391L109.94 83.4876L114.403 83.0033L110.837 81.4388L111.266 80.459L116.292 82.6638Z" fill="black"/>
<path d="M107.984 87.2705L108.536 86.272L113.338 88.9307L112.787 89.9289L107.984 87.2705Z" fill="black"/>
<path d="M111.517 92.1425L110.841 93.138L106.452 92.7883L109.616 94.9419L109.015 95.8268L104.477 92.738L105.122 91.7887L109.598 92.1302L106.378 89.9387L106.979 89.0537L111.517 92.1425Z" fill="black"/>
<path d="M103.627 99.613C103.779 99.702 103.95 99.7531 104.127 99.7611C104.303 99.7681 104.478 99.732 104.637 99.656C104.832 99.562 105.005 99.429 105.146 99.265C105.287 99.113 105.391 98.9303 105.452 98.7314C105.512 98.5324 105.526 98.3225 105.493 98.1172C105.376 97.5922 105.077 97.1255 104.649 96.8006C104.144 96.3538 103.685 96.153 103.271 96.1982C102.882 96.2314 102.52 96.4138 102.261 96.7075C102.022 96.9577 101.887 97.2899 101.883 97.6364C101.888 97.9735 102.012 98.298 102.232 98.5527L103.073 97.6002L103.759 98.2074L102.245 99.923L100.039 97.9699L100.542 97.4001L101.132 97.7676C101.084 97.4999 101.079 97.2265 101.115 96.957C101.194 96.5735 101.378 96.2194 101.647 95.9347C101.861 95.6767 102.128 95.468 102.43 95.323C102.732 95.178 103.062 95.1002 103.397 95.0948C104.159 95.0915 104.891 95.3906 105.433 95.9267C106.042 96.4151 106.441 97.1189 106.547 97.8931C106.584 98.2542 106.542 98.6192 106.424 98.9625C106.306 99.3061 106.115 99.619 105.864 99.881C105.485 100.355 104.949 100.678 104.353 100.791C104.098 100.835 103.836 100.829 103.583 100.772C103.33 100.715 103.091 100.609 102.879 100.459L103.627 99.613Z" fill="black"/>
<path d="M96.6114 103.358C96.4728 103.208 96.296 103.1 96.1002 103.044C95.9225 103.024 95.7427 103.045 95.5737 103.103C95.4046 103.161 95.2503 103.255 95.1219 103.38C94.9386 103.515 94.7784 103.679 94.6475 103.866C94.5564 103.981 94.5073 104.123 94.5085 104.269C94.5096 104.416 94.561 104.557 94.654 104.671C94.705 104.739 94.7737 104.792 94.8527 104.825C94.9317 104.857 95.018 104.867 95.1023 104.854C95.3674 104.804 95.6233 104.714 95.8608 104.586L96.4089 104.322C96.7843 104.116 97.1926 103.976 97.6157 103.91C97.8451 103.9 98.0731 103.95 98.2779 104.054C98.4826 104.158 98.6572 104.313 98.7848 104.504C98.9315 104.683 99.0369 104.893 99.0936 105.117C99.1503 105.342 99.1569 105.577 99.1129 105.804C98.9756 106.363 98.6353 106.851 98.1582 107.173C97.7454 107.516 97.2313 107.714 96.6952 107.736C96.4372 107.74 96.1818 107.684 95.9497 107.571C95.7177 107.458 95.5158 107.291 95.3603 107.085L96.2282 106.405C96.3193 106.52 96.4409 106.608 96.5792 106.657C96.7175 106.707 96.8669 106.717 97.0106 106.686C97.2397 106.631 97.453 106.524 97.6335 106.373C97.8412 106.226 98.0014 106.021 98.0942 105.784C98.1292 105.69 98.139 105.589 98.1224 105.491C98.1059 105.392 98.0636 105.3 98 105.223C97.9459 105.15 97.8716 105.093 97.7861 105.061C97.7006 105.029 97.6076 105.022 97.5185 105.042C97.2708 105.105 97.0313 105.196 96.8046 105.313L95.9062 105.729C95.5983 105.889 95.2599 105.982 94.9134 106.001C94.7007 105.997 94.4921 105.942 94.3048 105.841C94.1175 105.74 93.9568 105.596 93.836 105.421C93.6856 105.235 93.5794 105.018 93.5253 104.785C93.4712 104.552 93.4707 104.31 93.5237 104.077C93.6729 103.505 94.0231 103.006 94.5102 102.671C94.9671 102.269 95.5469 102.034 96.1546 102.004C96.4123 102.004 96.6664 102.065 96.8957 102.183C97.125 102.301 97.3229 102.472 97.473 102.682L96.6114 103.358Z" fill="black"/>
<path d="M91.3965 105.153L94.2448 109.849L93.2709 110.441L92.1847 108.651L90.3611 109.759L91.4473 111.55L90.4734 112.142L87.625 107.446L88.599 106.854L89.8704 108.95L91.694 107.841L90.4226 105.745L91.3965 105.153Z" fill="black"/>
<path d="M86.6314 114.053L85.448 114.586L81.4258 110.373L82.5598 109.862L83.353 110.744L85.196 109.913L85.0725 108.73L86.1665 108.237L86.6314 114.053ZM85.2995 110.905L84.0177 111.482L85.5359 113.169L85.2995 110.905Z" fill="black"/>
<path d="M79.8763 110.929L81.4931 116.18L80.4043 116.516L79.7877 114.514L77.7489 115.144L78.3655 117.146L77.2767 117.482L75.6602 112.231L76.7487 111.895L77.4705 114.239L79.5093 113.609L78.7875 111.265L79.8763 110.929Z" fill="black"/>
<path d="M73.0704 118.396L71.7926 118.622L68.9258 113.55L70.1505 113.333L70.7032 114.382L72.6933 114.03L72.8635 112.852L74.0449 112.644L73.0704 118.396ZM72.551 115.017L71.1669 115.262L72.2252 117.27L72.551 115.017Z" fill="black"/>
<path d="M64.0466 119.235C63.8431 119.16 63.6604 119.037 63.5139 118.877C63.3912 118.745 63.2902 118.594 63.2147 118.43C63.1348 118.25 63.0903 118.055 63.0837 117.858C63.0719 117.59 63.126 117.322 63.2413 117.079C63.3657 116.815 63.5898 116.611 63.8644 116.512C63.6367 116.445 63.439 116.302 63.3048 116.106C63.1692 115.843 63.1 115.551 63.103 115.255L63.0842 114.887C63.081 114.716 63.0621 114.546 63.0275 114.379C63.0133 114.315 62.9857 114.255 62.9465 114.203C62.9073 114.151 62.8574 114.108 62.8002 114.077L62.793 113.939L64.0574 113.874C64.0984 113.993 64.1282 114.09 64.1469 114.164C64.1848 114.318 64.209 114.476 64.2193 114.634L64.2528 115.144C64.2403 115.393 64.3173 115.638 64.47 115.835C64.6648 115.964 64.901 116.014 65.1314 115.976L66.2499 115.918L66.1397 113.766L67.2588 113.709L67.5401 119.196L64.9188 119.331C64.6246 119.353 64.3288 119.32 64.0466 119.235ZM66.3721 118.301L66.2965 116.826L65.0639 116.89C64.8755 116.89 64.6892 116.93 64.5177 117.008C64.4106 117.072 64.3252 117.166 64.2729 117.28C64.2205 117.393 64.2037 117.52 64.2246 117.643C64.2149 117.773 64.2426 117.904 64.3043 118.02C64.366 118.136 64.4592 118.232 64.5732 118.296C64.7432 118.362 64.9265 118.386 65.1077 118.366L66.3721 118.301Z" fill="black"/>
<path d="M57.2865 119.056C56.9151 118.909 56.6024 118.644 56.3968 118.302C56.2256 118.024 56.1117 117.715 56.0618 117.392C56.0132 117.09 55.9974 116.783 56.0145 116.478C56.0346 115.831 56.2262 115.201 56.5695 114.652C56.7693 114.338 57.0537 114.085 57.3899 113.925C57.7262 113.764 58.1008 113.702 58.4709 113.744L60.8324 113.892L60.4887 119.376L58.1269 119.228C57.8398 119.213 57.5566 119.155 57.2865 119.056ZM59.4372 118.354L59.6615 114.775L58.6045 114.709C58.3551 114.684 58.1043 114.742 57.8908 114.873C57.6774 115.005 57.513 115.203 57.4231 115.438C57.2784 115.764 57.1968 116.115 57.1827 116.472C57.1298 116.915 57.1924 117.363 57.3644 117.774C57.5205 118.084 57.859 118.255 58.3802 118.288L59.4372 118.354Z" fill="black"/>
<path d="M51.7961 118.418L50.5225 118.169L49.668 112.404L50.8886 112.642L51.0277 113.82L53.0115 114.207L53.5926 113.17L54.7699 113.4L51.7961 118.418ZM52.5242 115.077L51.1446 114.808L51.4116 117.063L52.5242 115.077Z" fill="black"/>
<path d="M43.3915 114.398C43.3689 114.573 43.3896 114.751 43.4519 114.916C43.5142 115.081 43.6161 115.229 43.7487 115.345C43.911 115.488 44.1012 115.595 44.3071 115.66C44.5026 115.73 44.7115 115.754 44.9179 115.732C45.1243 115.709 45.3228 115.639 45.4983 115.528C45.9346 115.214 46.2456 114.755 46.3758 114.234C46.5882 113.593 46.5923 113.092 46.3882 112.729C46.2046 112.383 45.8949 112.121 45.5236 111.999C45.1997 111.877 44.8414 111.883 44.5217 112.016C44.2141 112.153 43.9647 112.394 43.8174 112.697L45.0227 113.097L44.7342 113.968L42.5645 113.248L43.4914 110.449L44.2123 110.688L44.1063 111.375C44.3337 111.226 44.5827 111.114 44.8445 111.041C45.2277 110.963 45.625 110.994 45.9919 111.129C46.313 111.225 46.6096 111.389 46.8614 111.61C47.1132 111.831 47.3142 112.104 47.4507 112.41C47.7531 113.11 47.7659 113.902 47.4863 114.612C47.2773 115.365 46.7873 116.009 46.1177 116.41C45.8007 116.587 45.4491 116.691 45.0876 116.718C44.726 116.744 44.363 116.692 44.0238 116.564C43.4394 116.401 42.9325 116.034 42.595 115.53C42.454 115.312 42.3572 115.069 42.3101 114.813C42.2631 114.558 42.2668 114.296 42.3209 114.042L43.3915 114.398Z" fill="black"/>
<path d="M40.6338 109.189L41.6755 109.65L39.4558 114.676L38.4141 114.214L40.6338 109.189Z" fill="black"/>
<path d="M35.9859 106.832L33.0294 111.462L32.0695 110.848L33.1967 109.083L31.3996 107.932L30.272 109.698L29.3125 109.083L32.269 104.453L33.2289 105.068L31.9089 107.134L33.7063 108.285L35.026 106.218L35.9859 106.832Z" fill="black"/>
<path d="M27.053 100.906C27.7082 100.914 28.3407 101.148 28.8436 101.568C29.3464 101.989 29.6888 102.571 29.8128 103.215C29.9038 103.974 29.6332 104.732 29.0011 105.489C28.3565 106.262 27.6594 106.663 26.9098 106.694C26.2545 106.686 25.6219 106.452 25.119 106.032C24.6161 105.611 24.2737 105.029 24.1496 104.385C24.0483 103.643 24.3198 102.885 24.9643 102.113C25.5961 101.356 26.2923 100.953 27.053 100.906ZM27.0681 102.007C26.5912 102.17 26.168 102.461 25.8448 102.848C25.5217 103.235 25.3109 103.704 25.2356 104.203C25.2283 104.41 25.2704 104.617 25.3584 104.805C25.4465 104.993 25.578 105.158 25.7421 105.285C25.8969 105.424 26.0823 105.525 26.2832 105.579C26.4841 105.633 26.6949 105.639 26.8986 105.596C27.3777 105.437 27.8031 105.146 28.127 104.758C28.4507 104.37 28.6604 103.9 28.7323 103.399C28.7379 103.191 28.6945 102.984 28.6056 102.796C28.5166 102.608 28.3845 102.443 28.2202 102.315C28.0662 102.176 27.8816 102.076 27.6813 102.022C27.481 101.969 27.2708 101.964 27.0681 102.007Z" fill="black"/>
<path d="M19.2284 100.119L18.4141 99.2479L23.7003 96.8608L24.4405 97.6525L21.7008 102.764L20.8639 101.869L23.0924 98.1475L19.2284 100.119Z" fill="black"/>
<path d="M16.9947 97.4888L16.3086 96.569L19.9152 93.8715L18.2755 91.6736L19.0661 91.0825L21.3919 94.2L16.9947 97.4888Z" fill="black"/>
<path d="M17.5618 88.6836L18.1651 89.6511L13.5096 92.5615L12.9062 91.594L17.5618 88.6836Z" fill="black"/>
<path d="M11.5949 89.408L11.0542 88.3333L13.4923 84.6614L10.0745 86.3853L9.59375 85.4299L14.4954 82.9575L15.0111 83.9826L12.5381 87.7346L16.0159 85.9803L16.4966 86.9356L11.5949 89.408Z" fill="black"/>
<path d="M8.90958 78.8777C8.75751 78.9671 8.62974 79.0927 8.53753 79.2432C8.44532 79.3937 8.39149 79.5646 8.3808 79.7409C8.3677 79.9567 8.39948 80.173 8.47415 80.3759C8.53875 80.5734 8.6474 80.7536 8.7919 80.9029C8.93638 81.0521 9.11291 81.1665 9.3081 81.2373C9.82308 81.3903 10.3756 81.3554 10.8674 81.1388C11.5029 80.9141 11.9014 80.6099 12.063 80.2261C12.2234 79.869 12.24 79.4638 12.1093 79.0948C12.0073 78.7636 11.7831 78.4838 11.4824 78.3124C11.1858 78.153 10.8425 78.1035 10.513 78.1726L10.9356 79.3714L10.0718 79.6768L9.31103 77.5183L12.0885 76.5366L12.3412 77.2537L11.7335 77.5912C11.9902 77.6798 12.2315 77.8077 12.449 77.9705C12.7454 78.2259 12.9649 78.559 13.0829 78.9323C13.2041 79.2449 13.2563 79.5801 13.236 79.9148C13.2157 80.2495 13.1233 80.5759 12.9653 80.8716C12.5978 81.54 11.9806 82.0353 11.249 82.249C10.5265 82.545 9.71817 82.552 8.99076 82.2686C8.65758 82.1254 8.3595 81.9114 8.11716 81.6415C7.87482 81.3715 7.69402 81.0519 7.5873 80.705C7.35768 80.1431 7.33675 79.5174 7.5283 78.9413C7.61369 78.6962 7.7465 78.4704 7.91912 78.2768C8.09174 78.0832 8.30078 77.9255 8.5343 77.8129L8.90958 78.8777Z" fill="black"/>
<path d="M11.327 73.4956L11.6013 74.603L6.27426 75.9259L6 74.8189L11.327 73.4956Z" fill="black"/>
<path d="M9.97106 72.0024L6.02431 69.7909L6.45608 72.494L5.49653 72.6479L4.83984 68.5363L5.74799 68.3908L9.75199 70.6302L9.30211 67.8135L10.2581 67.6606L10.9268 71.8495L9.97106 72.0024Z" fill="black"/>
<path d="M7.1973 61.1315C7.30653 61.127 7.41551 61.1449 7.51762 61.184C7.61973 61.2231 7.71282 61.2825 7.79124 61.3588C7.94339 61.5171 8.02931 61.7276 8.03141 61.9473C8.03351 62.167 7.95162 62.3792 7.80252 62.5404C7.72553 62.6182 7.63351 62.6795 7.53207 62.7205C7.43064 62.7615 7.32193 62.7814 7.21257 62.779C7.10381 62.7837 6.99526 62.7659 6.89366 62.7268C6.79207 62.6877 6.69962 62.6281 6.62206 62.5516C6.50266 62.4376 6.42027 62.2902 6.38557 62.1287C6.35088 61.9672 6.3655 61.7989 6.42753 61.6458C6.48954 61.4927 6.5961 61.3618 6.73337 61.2701C6.87064 61.1783 7.03228 61.13 7.1973 61.1315Z" fill="black"/>
<path d="M8.63139 54.8388C8.83479 54.8506 9.03753 54.8063 9.21759 54.7109C9.35911 54.6016 9.47489 54.4625 9.55668 54.3034C9.63847 54.1443 9.68426 53.9691 9.69083 53.7903C9.72979 53.5656 9.73193 53.336 9.69719 53.1105C9.68372 52.9647 9.62064 52.8279 9.51851 52.7231C9.41637 52.6183 9.28135 52.5517 9.13607 52.5346C9.05189 52.5206 8.96546 52.5298 8.88613 52.5613C8.8068 52.5928 8.73756 52.6454 8.6859 52.7135C8.52871 52.9329 8.40656 53.1755 8.32383 53.4325L8.11101 54.0031C7.98253 54.412 7.78419 54.7955 7.5248 55.1366C7.36602 55.3027 7.16724 55.4251 6.94759 55.492C6.72793 55.559 6.49477 55.5683 6.27052 55.519C6.04069 55.4912 5.81979 55.4131 5.62348 55.2903C5.42718 55.1675 5.26028 55.0029 5.13461 54.8083C4.84681 54.3097 4.75487 53.7216 4.87673 53.1588C4.93726 52.625 5.17145 52.126 5.54316 51.7386C5.72612 51.5564 5.94953 51.4201 6.19514 51.3408C6.44076 51.2615 6.70161 51.2415 6.95639 51.2825L6.80104 52.3749C6.65543 52.3548 6.50709 52.376 6.3729 52.436C6.23869 52.4961 6.12402 52.5927 6.04188 52.7148C5.91414 52.9128 5.83444 53.1379 5.80914 53.3723C5.76056 53.6223 5.78645 53.881 5.88361 54.1164C5.92289 54.2082 5.98574 54.2879 6.06576 54.3475C6.14578 54.407 6.24015 54.4443 6.33924 54.4556C6.42918 54.4713 6.52175 54.4605 6.60566 54.4244C6.68958 54.3884 6.76123 54.3287 6.81184 54.2526C6.94741 54.0359 7.05741 53.8042 7.13963 53.5621L7.50036 52.6395C7.612 52.3105 7.79206 52.009 8.02866 51.7548C8.18514 51.6105 8.37361 51.5055 8.57854 51.4484C8.78348 51.3914 8.999 51.3839 9.20738 51.4265C9.44423 51.4562 9.67125 51.5393 9.87129 51.6696C10.0713 51.8 10.2391 51.9741 10.3621 52.179C10.6503 52.6953 10.7427 53.2984 10.6223 53.8776C10.5709 54.4844 10.3152 55.0557 9.89712 55.4981C9.71128 55.677 9.48549 55.809 9.23848 55.883C8.99149 55.9571 8.73043 55.9711 8.47698 55.9238L8.63139 54.8388Z" fill="black"/>
<path d="M11.4431 48.8688L11.1842 49.9798L5.83984 48.7327L6.09843 47.6216L11.4431 48.8688Z" fill="black"/>
<path d="M10.9111 46.9288L8.39959 43.1627L7.55717 45.7674L6.63281 45.4679L7.91414 41.5063L8.78906 41.7898L11.3389 45.6064L12.2164 42.8926L13.1375 43.1909L11.8322 47.2271L10.9111 46.9288Z" fill="black"/>
<path d="M8.77734 39.2682L9.27769 38.1737L13.6639 37.7843L10.1844 36.1903L10.6291 35.2173L15.6194 37.5035L15.1421 38.5473L10.6716 38.9593L14.2121 40.5815L13.7674 41.5543L8.77734 39.2682Z" fill="black"/>
<path d="M17.1584 34.7947L16.5908 35.784L11.832 33.0479L12.3997 32.0586L17.1584 34.7947Z" fill="black"/>
<path d="M13.7109 29.8614L14.403 28.877L18.7862 29.298L15.6568 27.0932L16.2721 26.2183L20.7598 29.3803L20.0996 30.3191L15.6297 29.905L18.8135 32.1485L18.1986 33.0234L13.7109 29.8614Z" fill="black"/>
<path d="M21.7228 22.5157C21.5724 22.4236 21.4016 22.3699 21.2255 22.3595C21.0494 22.3491 20.8735 22.3822 20.7132 22.4559C20.517 22.5464 20.3416 22.6766 20.1981 22.8383C20.0546 22.9884 19.9471 23.1694 19.8838 23.3673C19.8205 23.5653 19.803 23.7751 19.8328 23.9808C19.9406 24.5078 20.232 24.9792 20.655 25.3109C21.1525 25.7659 21.6083 25.9741 22.0224 25.9355C22.4125 25.9088 22.7773 25.7323 23.0407 25.4429C23.2842 25.1964 23.4248 24.8665 23.4342 24.52C23.4347 24.183 23.3163 23.8565 23.0998 23.5984L22.2436 24.537L21.5672 23.9186L23.1093 22.2285L25.2835 24.2169L24.7714 24.7785L24.1877 24.4013C24.2305 24.6698 24.2315 24.9432 24.1909 25.212C24.1057 25.5943 23.9158 25.9452 23.6425 26.2254C23.4245 26.48 23.154 26.6844 22.8497 26.8244C22.5453 26.9645 22.2143 27.0369 21.8794 27.0368C21.1174 27.0277 20.3901 26.7166 19.8568 26.1716C19.2556 25.6735 18.8683 24.9633 18.7748 24.1875C18.7438 23.8258 18.7917 23.4617 18.9151 23.1204C19.0386 22.779 19.2347 22.4686 19.4898 22.2107C19.8764 21.7426 20.4178 21.4288 21.0156 21.3261C21.2717 21.2859 21.5331 21.2966 21.785 21.3576C22.0369 21.4186 22.2743 21.5286 22.4837 21.6815L21.7228 22.5157Z" fill="black"/>
<path d="M28.7887 18.8924C28.9248 19.0442 29.0998 19.1557 29.2948 19.2147C29.4722 19.2368 29.6523 19.2196 29.8223 19.1642C29.9923 19.1088 30.148 19.0166 30.2784 18.8941C30.464 18.7619 30.6269 18.6004 30.7606 18.4158C30.8536 18.3028 30.905 18.1612 30.9062 18.0147C30.9074 17.8682 30.8583 17.7258 30.7672 17.6113C30.7172 17.542 30.6494 17.4876 30.5708 17.4541C30.4923 17.4205 30.4062 17.409 30.3216 17.4208C30.0558 17.4661 29.7985 17.5525 29.5591 17.6767L29.0067 17.9321C28.628 18.1321 28.2174 18.2648 27.7934 18.3243C27.5639 18.3304 27.3366 18.2773 27.1336 18.17C26.9305 18.0628 26.7584 17.9051 26.6338 17.712C26.4901 17.5303 26.388 17.3191 26.335 17.0935C26.2819 16.8678 26.2791 16.6333 26.3267 16.4064C26.473 15.8495 26.8211 15.367 27.3031 15.053C27.7214 14.7164 28.2385 14.5269 28.7749 14.5137C29.033 14.5131 29.2875 14.5737 29.5177 14.6905C29.7479 14.8072 29.9472 14.9769 30.0994 15.1856L29.2207 15.8521C29.1315 15.7352 29.0113 15.6457 28.8738 15.5938C28.7363 15.5418 28.587 15.5296 28.4428 15.5584C28.2129 15.6094 27.998 15.7133 27.8151 15.8617C27.605 16.0053 27.4415 16.2074 27.345 16.443C27.3084 16.5359 27.297 16.6368 27.312 16.7355C27.327 16.8342 27.3679 16.9272 27.4304 17.0049C27.4832 17.0795 27.5565 17.137 27.6414 17.1706C27.7262 17.2041 27.819 17.2123 27.9085 17.1939C28.1571 17.1353 28.3981 17.0482 28.6268 16.9342L29.5317 16.5329C29.8423 16.3778 30.1822 16.2905 30.5289 16.2767C30.7415 16.2845 30.9492 16.3427 31.1349 16.4466C31.3205 16.5505 31.4789 16.6971 31.5969 16.8742C31.7443 17.0622 31.847 17.2812 31.8974 17.5148C31.9478 17.7484 31.9444 17.9904 31.8876 18.2225C31.7294 18.7923 31.3711 19.2859 30.8787 19.6126C30.4155 20.0076 29.8321 20.2334 29.224 20.2531C28.9662 20.2492 28.7131 20.1839 28.4856 20.0624C28.2582 19.9409 28.063 19.7668 27.9163 19.5546L28.7887 18.8924Z" fill="black"/>
<path d="M34.0378 17.1807L31.2656 12.4392L32.2488 11.8627L33.3059 13.6707L35.1471 12.5912L34.09 10.7834L35.0736 10.207L37.8455 14.9487L36.8622 15.5251L35.6247 13.4083L33.7835 14.4877L35.021 16.6044L34.0378 17.1807Z" fill="black"/>
<path d="M38.9492 8.35601L40.141 7.84229L44.0942 12.1201L42.952 12.6127L42.1733 11.7185L40.3171 12.5188L40.4212 13.7036L39.3196 14.1786L38.9492 8.35601ZM40.2296 11.5257L41.5206 10.9691L40.0302 9.25776L40.2296 11.5257Z" fill="black"/>
<path d="M45.648 11.5906L44.1172 6.31415L45.2111 5.99572L45.7948 8.00751L47.8435 7.41124L47.26 5.39948L48.3539 5.08105L49.8847 10.3575L48.7908 10.676L48.1075 8.32051L46.0586 8.91676L46.7419 11.2722L45.648 11.5906Z" fill="black"/>
<path d="M52.5798 4.23557L53.8612 4.03027L56.6448 9.14872L55.4167 9.34542L54.8811 8.28743L52.8855 8.60726L52.6963 9.78142L51.5117 9.97122L52.5798 4.23557ZM53.0441 7.62292L54.432 7.40047L53.4064 5.3753L53.0441 7.62292Z" fill="black"/>
<path d="M61.611 3.54463C61.8133 3.62266 61.994 3.74806 62.138 3.91032C62.2586 4.04466 62.3571 4.19726 62.43 4.36248C62.5069 4.54419 62.5482 4.73897 62.5518 4.93628C62.5592 5.20509 62.5008 5.47162 62.3816 5.71264C62.2528 5.975 62.0253 6.17551 61.749 6.2702C61.9758 6.3403 62.1712 6.48694 62.302 6.68515C62.4336 6.9498 62.4983 7.24275 62.4905 7.53831L62.5034 7.90719C62.5037 8.07812 62.5198 8.24865 62.5516 8.4166C62.5648 8.4804 62.5915 8.54063 62.6299 8.59328C62.6682 8.64593 62.7173 8.68979 62.7739 8.72194L62.7789 8.85975L61.5136 8.9046C61.4746 8.78419 61.4464 8.68698 61.429 8.61294C61.3935 8.45801 61.3718 8.30024 61.3641 8.14148L61.3387 7.63138C61.3554 7.38277 61.2823 7.13646 61.1327 6.93735C60.9401 6.80512 60.7047 6.75084 60.4737 6.78544L59.3545 6.82499L59.43 8.97833L58.3102 9.01794L58.1172 3.52665L60.7405 3.43368C61.035 3.41663 61.3302 3.45425 61.611 3.54463ZM59.2707 4.44071L59.3226 5.91596L60.5561 5.87234C60.7444 5.87583 60.9313 5.83867 61.104 5.76338C61.2122 5.70129 61.2991 5.60788 61.3532 5.49544C61.4074 5.383 61.4263 5.25678 61.4074 5.1334C61.4191 5.00273 61.3936 4.87142 61.3338 4.75471C61.274 4.63799 61.1824 4.54065 61.0695 4.47397C60.9005 4.40555 60.7175 4.37876 60.536 4.39586L59.2707 4.44071Z" fill="black"/>
<path d="M68.4414 3.85453C68.8079 4.01299 69.112 4.2881 69.3064 4.63722C69.4685 4.92058 69.5722 5.23354 69.6116 5.55768C69.6504 5.86127 69.6563 6.16818 69.6293 6.47306C69.5882 7.11897 69.3764 7.74237 69.0154 8.27935C68.8055 8.58747 68.5132 8.83022 68.172 8.97982C67.8308 9.12937 67.4544 9.17987 67.0859 9.12527L64.7305 8.90083L65.2514 3.43066L67.6068 3.65526C67.8934 3.67974 68.1746 3.7469 68.4414 3.85453ZM66.2692 4.48638L65.9291 8.05641L66.9834 8.15679C67.232 8.18984 67.4845 8.1402 67.7021 8.01549C67.9198 7.89079 68.0905 7.69793 68.1879 7.46661C68.3432 7.14496 68.4361 6.79672 68.4616 6.4404C68.5287 5.99989 68.4807 5.54951 68.3221 5.1332C68.176 4.81847 67.8432 4.63638 67.3235 4.58693L66.2692 4.48638Z" fill="black"/>
<path d="M73.8437 4.55762L75.1132 4.82674L75.8745 10.6051L74.658 10.3472L74.5377 9.16708L72.5605 8.74776L71.9627 9.77568L70.7891 9.52688L73.8437 4.55762ZM73.0618 7.88614L74.4368 8.17763L74.2062 5.91871L73.0618 7.88614Z" fill="black"/>
<path d="M82.1762 8.71146C82.2017 8.53674 82.1839 8.35842 82.1243 8.19225C82.0646 8.02608 81.9651 7.87716 81.8344 7.75866C81.6743 7.6135 81.4859 7.50318 81.281 7.43467C81.0867 7.3616 80.8782 7.33378 80.6715 7.35331C80.4648 7.37284 80.2652 7.4392 80.0879 7.54738C79.6466 7.85415 79.3282 8.30768 79.1895 8.82732C78.9671 9.46429 78.9549 9.96589 79.1531 10.3321C79.3309 10.6807 79.6364 10.9472 80.0057 11.0758C80.3276 11.2031 80.6859 11.2029 81.0076 11.0751C81.3174 10.943 81.5706 10.7057 81.7228 10.405L80.5244 9.98569L80.8268 9.11989L82.9847 9.87499L82.0127 12.6586L81.2955 12.4077L81.4128 11.7221C81.1831 11.8671 80.9323 11.9757 80.6694 12.0438C80.2849 12.1159 79.8881 12.0791 79.5234 11.9376C79.2039 11.837 78.91 11.6683 78.6618 11.4432C78.4136 11.2181 78.217 10.9419 78.0854 10.6336C77.7945 9.92839 77.7945 9.13659 78.0853 8.43133C78.3066 7.6818 78.8068 7.04587 79.4827 6.65479C79.8026 6.48397 80.1559 6.38487 80.5179 6.36435C80.8799 6.34383 81.2421 6.40239 81.5792 6.53597C82.1609 6.7077 82.6618 7.08259 82.9909 7.59257C83.1284 7.81253 83.2213 8.05747 83.2642 8.31339C83.3071 8.56932 83.2993 8.83121 83.241 9.08409L82.1762 8.71146Z" fill="black"/>
<path d="M84.8626 13.9688L83.8281 13.4906L86.1298 8.50195L87.164 8.98014L84.8626 13.9688Z" fill="black"/>
<path d="M89.4688 16.4007L92.5005 11.8198L93.4501 12.4497L92.2942 14.1964L94.0725 15.3759L95.2284 13.6292L96.178 14.2592L93.1467 18.8402L92.1971 18.2103L93.5501 16.1653L91.7719 14.9858L90.4186 17.0307L89.4688 16.4007Z" fill="black"/>
<path d="M98.3017 22.4686C97.9735 22.4818 97.6461 22.4273 97.3399 22.3084C97.0337 22.1896 96.7552 22.0089 96.5218 21.7776C96.2591 21.5802 96.0399 21.3308 95.8777 21.0449C95.7156 20.759 95.614 20.4427 95.5793 20.1158C95.5005 19.3551 95.7832 18.6013 96.4273 17.8543C97.0844 17.0924 97.7879 16.7023 98.538 16.6841C98.8661 16.6708 99.1935 16.7254 99.4996 16.8442C99.8058 16.9631 100.084 17.1438 100.318 17.3751C100.58 17.5725 100.8 17.8219 100.962 18.1078C101.124 18.3937 101.226 18.7099 101.261 19.0369C101.35 19.7809 101.066 20.5339 100.41 21.2958C99.7654 22.0428 99.0628 22.4338 98.3017 22.4686ZM98.3039 21.3675C98.7975 21.242 99.2338 20.9522 99.5412 20.5457C99.8972 20.182 100.12 19.7082 100.172 19.2016C100.182 18.9941 100.144 18.7871 100.059 18.5975C99.9735 18.408 99.8447 18.2415 99.6827 18.1116C99.5301 17.9699 99.3463 17.8662 99.1463 17.8089C98.9462 17.7515 98.7354 17.7421 98.531 17.7814C98.0358 17.9035 97.5975 18.1925 97.2897 18.5997C96.9322 18.9641 96.7107 19.4404 96.6624 19.9489C96.6535 20.157 96.6936 20.3643 96.7795 20.5541C96.8654 20.7438 96.9947 20.9106 97.157 21.041C97.3087 21.1825 97.4918 21.2858 97.6912 21.3426C97.8906 21.3993 98.1006 21.4079 98.3039 21.3675Z" fill="black"/>
<path d="M106.115 23.3872L106.914 24.2713L101.591 26.5723L100.863 25.7684L103.686 20.7021L104.508 21.6109L102.22 25.2957L106.115 23.3872Z" fill="black"/>
<path d="M108.309 26.0537L108.98 26.9845L105.33 29.6231L106.934 31.8474L106.134 32.4257L103.859 29.2707L108.309 26.0537Z" fill="black"/>
<path d="M107.592 34.8424L107.004 33.8652L111.706 31.0303L112.293 32.0075L107.592 34.8424Z" fill="black"/>
<path d="M113.569 34.208L114.092 35.2914L111.596 38.9237L115.041 37.2547L115.506 38.2179L110.566 40.6114L110.067 39.5781L112.599 35.8662L109.094 37.5645L108.629 36.6015L113.569 34.208Z" fill="black"/>
<path d="M116.089 44.7871C116.243 44.7003 116.373 44.5769 116.467 44.428C116.562 44.279 116.619 44.1089 116.632 43.9328C116.649 43.7172 116.62 43.5006 116.549 43.2965C116.488 43.0979 116.382 42.9159 116.24 42.7643C116.098 42.6126 115.923 42.4954 115.729 42.4214C115.217 42.2601 114.664 42.286 114.169 42.4947C113.53 42.7089 113.126 43.0067 112.958 43.3879C112.792 43.7423 112.769 44.1472 112.893 44.5183C112.99 44.8511 113.21 45.1345 113.508 45.3108C113.802 45.475 114.144 45.53 114.475 45.4661L114.072 44.2608L114.94 43.9695L115.666 46.1399L112.873 47.0763L112.632 46.3552L113.245 46.0278C112.99 45.9349 112.75 45.803 112.536 45.6366C112.243 45.3765 112.029 45.0399 111.918 44.6647C111.801 44.3502 111.755 44.0143 111.78 43.6799C111.806 43.3456 111.904 43.0208 112.067 42.7277C112.445 42.0653 113.07 41.5801 113.805 41.3783C114.532 41.094 115.341 41.1002 116.063 41.3956C116.394 41.544 116.689 41.7628 116.926 42.0367C117.164 42.3106 117.34 42.633 117.441 42.9816C117.662 43.5472 117.672 44.1733 117.471 44.7462C117.382 44.9898 117.246 45.2134 117.07 45.4042C116.894 45.595 116.683 45.7493 116.447 45.8582L116.089 44.7871Z" fill="black"/>
<path d="M113.581 50.1271L113.324 49.0156L118.672 47.7793L118.928 48.8909L113.581 50.1271Z" fill="black"/>
<path d="M114.915 51.6411L118.825 53.9164L118.438 51.2065L119.399 51.0684L119.989 55.19L119.079 55.3207L115.112 53.0168L115.516 55.8402L114.558 55.9777L113.957 51.7787L114.915 51.6411Z" fill="black"/>
<path d="M117.517 62.2477C117.407 62.251 117.298 62.232 117.197 62.1919C117.095 62.1517 117.002 62.0911 116.925 62.014C116.774 61.8541 116.691 61.6426 116.691 61.4229C116.691 61.2033 116.776 60.992 116.926 60.8324C117.004 60.7554 117.097 60.6951 117.199 60.6552C117.3 60.6152 117.409 60.5964 117.519 60.6C117.627 60.5964 117.736 60.6153 117.837 60.6554C117.938 60.6956 118.03 60.7561 118.106 60.8333C118.255 60.9944 118.337 61.2054 118.337 61.4245C118.337 61.6435 118.254 61.8545 118.105 62.0152C118.028 62.0923 117.936 62.1526 117.835 62.1926C117.734 62.2326 117.625 62.2513 117.517 62.2477Z" fill="black"/>
</g>
<defs>
<clipPath id="clip0_222_1495">
<rect width="125" height="125" fill="white"/>
</clipPath>
</defs>
</svg>
