<svg width="149" height="55" viewBox="0 0 149 55" fill="none" xmlns="http://www.w3.org/2000/svg">
<path d="M22.7706 54.8305H22.1527V49.8548H20.582V49.2339H24.3487V49.8548H22.7706V54.8305Z" fill="#212121"/>
<path d="M28.6983 54.327C28.3559 54.7298 27.8547 54.9311 27.1946 54.9311C26.5346 54.9311 26.0309 54.7298 25.6835 54.327C25.3411 53.9187 25.1699 53.3621 25.1699 52.6573V49.2339H25.7877V52.6405C25.7877 53.1607 25.9093 53.5691 26.1525 53.8655C26.3957 54.162 26.743 54.3102 27.1946 54.3102C27.6463 54.3102 27.9936 54.162 28.2368 53.8655C28.48 53.5691 28.6016 53.1607 28.6016 52.6405V49.2339H29.2194V52.6489C29.2194 53.3593 29.0457 53.9187 28.6983 54.327Z" fill="#212121"/>
<path d="M33.9851 54.8305H33.2555L31.9901 52.6069H31V54.8305H30.3821V49.2339H32.3771C32.8387 49.2339 33.2134 49.3877 33.5012 49.6954C33.789 50.003 33.9329 50.4114 33.9329 50.9204C33.9329 51.4015 33.8089 51.7847 33.5607 52.0699C33.3126 52.3552 33.0074 52.5146 32.6451 52.5482L33.9851 54.8305ZM32.3027 51.9944C32.5955 51.9944 32.8337 51.8937 33.0173 51.6924C33.2009 51.491 33.2928 51.2337 33.2928 50.9204C33.2928 50.6072 33.2009 50.3527 33.0173 50.1569C32.8337 49.9555 32.5955 49.8548 32.3027 49.8548H31V51.9944H32.3027Z" fill="#212121"/>
<path d="M39.1616 54.8305H38.4544L38.0152 53.5886H35.5438L35.1046 54.8305H34.3974L36.3924 49.2339H37.1592L39.1616 54.8305ZM37.8291 52.9677L36.7795 49.9555L35.7225 52.9677H37.8291Z" fill="#212121"/>
<path d="M43.4137 54.8305H42.6841L41.4187 52.6069H40.4286V54.8305H39.8108V49.2339H41.8057C42.2673 49.2339 42.642 49.3877 42.9298 49.6954C43.2176 50.003 43.3616 50.4114 43.3616 50.9204C43.3616 51.4015 43.2375 51.7847 42.9894 52.0699C42.7412 52.3552 42.436 52.5146 42.0737 52.5482L43.4137 54.8305ZM41.7313 51.9944C42.0241 51.9944 42.2623 51.8937 42.4459 51.6924C42.6296 51.491 42.7214 51.2337 42.7214 50.9204C42.7214 50.6072 42.6296 50.3527 42.4459 50.1569C42.2623 49.9555 42.0241 49.8548 41.7313 49.8548H40.4286V51.9944H41.7313Z" fill="#212121"/>
<path d="M47.0554 54.9311C46.5194 54.9311 46.0876 54.7158 45.7601 54.2851L46.0802 53.7565C46.3531 54.1256 46.6658 54.3102 47.0181 54.3102C47.3209 54.3102 47.5616 54.204 47.7402 53.9914C47.9238 53.7732 48.0156 53.488 48.0156 53.1355V49.2339H48.6335V53.1439C48.6335 53.7257 48.4871 54.1704 48.1943 54.478C47.9015 54.7801 47.5218 54.9311 47.0554 54.9311Z" fill="#212121"/>
<path d="M52.0548 54.9311C51.3253 54.9311 50.7323 54.657 50.2757 54.1089C49.8191 53.5607 49.5909 52.8698 49.5909 52.0364C49.5909 51.2029 49.8191 50.5121 50.2757 49.9639C50.7323 49.4157 51.3253 49.1416 52.0548 49.1416C52.7794 49.1416 53.3699 49.4157 53.8265 49.9639C54.288 50.5121 54.5188 51.2029 54.5188 52.0364C54.5188 52.8698 54.288 53.5607 53.8265 54.1089C53.3699 54.657 52.7794 54.9311 52.0548 54.9311ZM52.0548 54.3102C52.6007 54.3102 53.0399 54.0977 53.3724 53.6725C53.7099 53.2418 53.8786 52.6964 53.8786 52.0364C53.8786 51.3707 53.7099 50.8253 53.3724 50.4002C53.0399 49.9751 52.6007 49.7625 52.0548 49.7625C51.504 49.7625 51.0623 49.9751 50.7298 50.4002C50.3973 50.8253 50.231 51.3707 50.231 52.0364C50.231 52.6964 50.3973 53.2418 50.7298 53.6725C51.0623 54.0977 51.504 54.3102 52.0548 54.3102Z" fill="#212121"/>
<path d="M57.2479 54.8305H56.63V52.4643L54.6722 49.2339H55.3943L56.9352 51.835L58.4761 49.2339H59.1982L57.2479 52.4643V54.8305Z" fill="#212121"/>
<path d="M66.6257 54.8305H66.0079V50.224L64.3181 54.8305H64.065L62.3827 50.224V54.8305H61.7648V49.2339H62.6506L64.1916 53.446L65.7399 49.2339H66.6257V54.8305Z" fill="#212121"/>
<path d="M72.0345 54.8305H71.3273L70.8881 53.5886H68.4167L67.9775 54.8305H67.2704L69.2654 49.2339H70.0321L72.0345 54.8305ZM70.702 52.9677L69.6524 49.9555L68.5954 52.9677H70.702Z" fill="#212121"/>
<path d="M73.5456 54.9311C73.0096 54.9311 72.5779 54.7158 72.2503 54.2851L72.5704 53.7565C72.8434 54.1256 73.156 54.3102 73.5084 54.3102C73.8111 54.3102 74.0518 54.204 74.2305 53.9914C74.4141 53.7732 74.5059 53.488 74.5059 53.1355V49.2339H75.1237V53.1439C75.1237 53.7257 74.9773 54.1704 74.6845 54.478C74.3917 54.7801 74.0121 54.9311 73.5456 54.9311Z" fill="#212121"/>
<path d="M81.143 54.8305H80.5252V50.224L78.8354 54.8305H78.5823L76.8999 50.224V54.8305H76.2821V49.2339H77.1679L78.7089 53.446L80.2572 49.2339H81.143V54.8305Z" fill="#212121"/>
<path d="M85.8298 54.327C85.4873 54.7298 84.9861 54.9311 84.3261 54.9311C83.666 54.9311 83.1623 54.7298 82.8149 54.327C82.4725 53.9187 82.3013 53.3621 82.3013 52.6573V49.2339H82.9191V52.6405C82.9191 53.1607 83.0407 53.5691 83.2839 53.8655C83.5271 54.162 83.8745 54.3102 84.3261 54.3102C84.7777 54.3102 85.1251 54.162 85.3682 53.8655C85.6114 53.5691 85.733 53.1607 85.733 52.6405V49.2339H86.3508V52.6489C86.3508 53.3593 86.1771 53.9187 85.8298 54.327Z" fill="#212121"/>
<path d="M91.5678 54.8305H90.8606L90.4214 53.5886H87.95L87.5108 54.8305H86.8036L88.7986 49.2339H89.5654L91.5678 54.8305ZM90.2353 52.9677L89.1857 49.9555L88.1287 52.9677H90.2353Z" fill="#212121"/>
<path d="M93.7231 54.9311C92.9191 54.9311 92.2839 54.6347 91.8174 54.0417L92.1822 53.5131C92.604 54.0445 93.1251 54.3102 93.7454 54.3102C94.1474 54.3102 94.4427 54.2151 94.6313 54.025C94.8198 53.8292 94.9141 53.6026 94.9141 53.3453C94.9141 53.1495 94.8596 52.9845 94.7504 52.8503C94.6412 52.716 94.4998 52.6125 94.3261 52.5398C94.1573 52.4615 93.9663 52.3916 93.7529 52.33C93.5444 52.2685 93.336 52.2014 93.1276 52.1287C92.9191 52.0504 92.7281 51.9581 92.5544 51.8518C92.3857 51.7455 92.2467 51.5945 92.1375 51.3987C92.0283 51.2029 91.9737 50.9708 91.9737 50.7023C91.9737 50.2436 92.135 49.8716 92.4576 49.5863C92.7802 49.2954 93.1871 49.15 93.6784 49.15C94.4179 49.15 95.0059 49.4101 95.4427 49.9303L95.0705 50.4422C94.7082 49.9946 94.2293 49.7709 93.6338 49.7709C93.336 49.7709 93.0904 49.8548 92.8968 50.0226C92.7082 50.1848 92.6139 50.3974 92.6139 50.6603C92.6139 50.8561 92.6859 51.0183 92.8298 51.147C92.9787 51.2756 93.1598 51.3707 93.3732 51.4322C93.5916 51.4938 93.8273 51.5721 94.0804 51.6672C94.3385 51.7567 94.5742 51.8546 94.7876 51.9609C95.006 52.0615 95.1871 52.2266 95.331 52.4559C95.4799 52.6852 95.5543 52.9621 95.5543 53.2866C95.5543 53.7453 95.403 54.134 95.1002 54.4529C94.8025 54.7717 94.3434 54.9311 93.7231 54.9311Z" fill="#212121"/>
<path d="M97.0948 54.8305H96.4769V49.2339H97.0948V54.8305Z" fill="#212121"/>
<path fill-rule="evenodd" clip-rule="evenodd" d="M39.4867 14.5375C43.7384 14.8358 46.4078 17.4853 46.4078 22.627V29.8356C46.4078 35.1342 43.5733 37.7856 39.0809 37.9463L34.8191 37.9461C30.3413 37.7858 27.4609 35.1484 27.4609 29.8356V22.627C27.4609 17.4717 30.1735 14.8348 34.426 14.5373L39.4867 14.5375ZM56.5576 33.5223C56.6364 33.8299 56.7499 34.131 56.8621 34.4258C56.9076 34.4898 56.9371 34.5542 56.9523 34.6309C57.8586 36.4738 59.4787 37.2478 61.2834 37.2144L61.654 37.2077L61.7331 37.8556L61.3697 37.9372C59.9385 38.26 58.0388 38.1719 56.65 37.7364C53.2548 36.6722 51.8603 33.6643 51.8603 29.8356V25.5894C51.8603 24.5691 51.8603 23.5485 51.8603 22.5282V7.29542C51.9569 6.30095 51.7909 5.02629 51.4594 4.09881C50.6632 1.87158 48.9219 1.11184 46.8869 1.16163L46.5163 1.17072L46.4336 0.340053L46.7968 0.25629C48.2313 -0.0750674 50.1394 0.0308428 51.5258 0.495771C54.9995 1.66096 56.3078 4.91623 56.3078 8.80182V10.1844C56.3078 11.6967 56.3025 13.5258 56.3025 15.0381C57.1145 14.7465 57.9601 14.5827 58.8123 14.5373L58.8315 14.5367L62.9626 14.5369C67.4912 14.704 70.1063 17.3116 70.1063 22.5282C70.1063 25.804 70.0625 28.5329 70.0625 30.8591C70.1074 31.721 70.1386 32.6821 70.3123 33.5223C70.3912 33.8299 70.5048 34.1308 70.617 34.4256C70.6626 34.4898 70.6918 34.5542 70.7071 34.6309C71.6134 36.4738 73.2333 37.2478 75.038 37.2144L75.4086 37.2077L75.4876 37.8556L75.1242 37.9372C73.6933 38.26 71.7936 38.1719 70.4045 37.7364C67.0095 36.6722 65.6152 33.6643 65.6152 29.8356V21.5039C65.5726 20.638 65.5346 20.0018 65.36 19.1581C65.2751 18.8265 65.15 18.5029 65.0294 18.1861L65.0232 18.1697L65.0017 18.1251C64.3464 16.7613 63.2899 16.3802 61.9506 16.1136H59.9617C58.6399 16.3768 57.5936 16.742 56.9364 18.0717C56.9196 18.1324 56.8938 18.1901 56.8615 18.2425C56.7465 18.5446 56.6298 18.852 56.553 19.1535C56.376 19.9528 56.3507 20.5803 56.3078 21.4059V30.8591C56.3526 31.721 56.3837 32.6821 56.5576 33.5223ZM87.6927 38.1294C80.7876 37.787 78.1432 32.6849 78.1432 25.0957V13.295C78.1432 5.63032 80.8072 0.49121 87.9671 0.24699H94.0203C101.175 0.56333 103.617 5.89351 103.617 13.295V25.0957C103.617 32.6829 101.035 37.8212 94.0105 38.1373L87.6927 38.1294ZM114.393 14.4669H118.073V16.1138L117.649 16.0929C116.568 16.0393 115.477 16.0162 114.393 16.0352V30.8591C114.436 31.6882 114.464 32.657 114.64 33.4606C114.719 33.7273 114.798 33.9933 114.908 34.2464C114.973 34.3533 115.038 34.4438 115.071 34.559C116.002 36.4013 117.744 37.1308 119.538 37.0666L119.912 37.0532L119.995 37.7106L119.627 37.79C118.145 38.1097 116.207 38.0372 114.763 37.6149C111.354 36.6175 109.814 33.7738 109.814 29.885V11.8702L114.393 8.86961V14.4669ZM127.331 32.2683C127.854 33.5995 128.645 34.7767 129.729 35.5857C131.061 36.2104 132.652 36.5347 134.039 35.9083C134.341 35.7811 134.61 35.5638 134.876 35.3638L134.978 35.2869H135.012C135.894 34.54 136.552 33.5788 137.063 32.479L137.249 32.0798L137.388 31.6084C138.067 29.3148 137.718 22.968 137.718 20.2365C137.35 17.0255 135.426 15.821 132.613 15.8854L132.24 15.8941L132.162 14.8749L132.528 14.7961C134.01 14.4764 135.948 14.5503 137.392 14.9743C140.806 15.9775 142.34 18.8338 142.34 22.7258V31.3351C142.595 34.15 143.826 36.6248 146.541 37.0105L148.999 37.359L146.571 37.9125C145.743 38.1012 144.695 38.1202 143.863 38.0342C142.209 37.8639 140.623 37.2231 139.467 35.8627C138.508 36.5967 137.362 37.0455 136.251 37.3237C136.089 37.3693 135.936 37.4239 135.77 37.4343C135.619 37.4727 135.459 37.4768 135.305 37.4772C133.57 37.755 130.661 38.0719 129.006 37.5149C126.861 37.0899 124.736 36.1154 123.432 34.053C123.234 33.7736 123.053 33.4624 122.911 33.1429L122.891 33.0978L122.844 32.8872L122.561 32.1433V32.0988C122.479 31.8757 122.436 31.6345 122.394 31.3986L122.386 31.3541V31.2553L122.255 30.5147V30.4071C122.213 30.0994 122.211 29.7927 122.211 29.4817V29.3829C122.211 29.1077 122.212 28.8226 122.255 28.5503V28.4944C122.255 28.2022 122.305 27.916 122.348 27.6291L122.351 27.6086L122.49 26.8793L122.503 26.8433C122.585 26.6112 122.629 26.3691 122.725 26.1419C123.63 23.3924 125.686 21.9976 128.167 21.5667C129.051 21.4132 129.967 21.3839 130.859 21.4574C131.142 21.4807 131.426 21.5141 131.707 21.5633C131.965 21.6088 132.353 21.6432 132.353 22.0838V22.7329L131.939 22.7242C128.979 22.66 127.015 24.0551 126.789 27.4426C126.673 29.1792 126.702 30.6675 127.331 32.2683ZM35.7005 36.5525C36.1112 36.555 36.5217 36.6017 36.9344 36.6017C37.3472 36.6017 37.7583 36.555 38.1692 36.5525C39.4327 36.3013 40.5483 35.8058 41.1776 34.5049L41.2597 34.3505V34.3197L41.3023 34.2233C41.418 33.9623 41.5004 33.6872 41.582 33.4112C41.76 32.6005 41.829 31.6564 41.829 30.8232V21.59C41.829 20.7544 41.7495 19.8153 41.5812 18.9992C41.4742 18.6382 41.3705 18.2636 41.1741 17.9502C40.558 16.6191 39.4492 16.3128 38.1699 16.0585H35.6999C34.4255 16.3185 33.3772 16.6327 32.7186 17.9042C32.6694 18.0194 32.5938 18.1111 32.5418 18.2474C32.4392 18.4902 32.3633 18.7441 32.2878 18.999C32.1174 19.8275 32.0841 20.755 32.0399 21.6035V30.8105C32.0811 31.6455 32.1098 32.6025 32.2871 33.4112C32.3686 33.687 32.4508 33.9623 32.5665 34.2231L32.5882 34.2721C32.6552 34.3624 32.7039 34.4551 32.7265 34.5701C33.3995 35.7999 34.4471 36.2968 35.7005 36.5525ZM83.7605 31.1026C83.887 31.5738 84.0518 32.0312 84.2462 32.4721C84.3127 32.5894 84.381 32.7443 84.4126 32.8919C85.5068 35.1369 87.2659 36.1751 89.4904 36.6017H92.3539C94.5425 36.1371 96.3074 35.1148 97.3914 32.8917C97.423 32.7443 97.4915 32.5892 97.558 32.4719C97.7524 32.031 97.917 31.5738 98.0436 31.1026C98.3151 29.7155 98.3817 28.1298 98.425 26.7252L98.4252 11.6285C98.3806 10.2243 98.3121 8.66036 98.0436 7.2881C97.917 6.81685 97.7524 6.35962 97.558 5.9186C97.4915 5.80123 97.423 5.64632 97.3914 5.49872C96.2972 3.25371 94.5381 2.21557 92.3138 1.78898H89.4498C87.235 2.25173 85.5064 3.25391 84.4126 5.49872C84.381 5.64612 84.3127 5.80103 84.2462 5.9186C84.0518 6.35942 83.887 6.81685 83.7605 7.2881C83.4919 8.66036 83.4234 10.2282 83.379 11.6242V26.7621C83.4234 28.1666 83.4919 29.7303 83.7605 31.1026Z" fill="#212121"/>
<path fill-rule="evenodd" clip-rule="evenodd" d="M8.68215 14.4995L11.7593 14.4997C16.288 14.6669 18.9031 17.2745 18.9031 22.491C18.9031 25.7669 18.8592 28.4958 18.8592 30.822C18.9041 31.6839 18.9353 32.645 19.109 33.4851C19.1879 33.7927 19.3015 34.0937 19.4137 34.3885C19.4593 34.4527 19.4886 34.5171 19.5038 34.5938C20.4101 36.4367 22.03 37.2106 23.8347 37.1772L24.2053 37.1705L24.2844 37.8184L23.921 37.9C22.49 38.2229 20.5903 38.1348 19.2012 37.6993C15.8063 36.6351 14.4119 33.6272 14.4119 29.7985V21.4667C14.3693 20.6009 14.3313 19.9646 14.1567 19.1209C14.0719 18.7894 13.9467 18.4657 13.8261 18.149L13.82 18.1326L13.7984 18.0879C13.1431 16.7242 12.0866 16.343 10.7473 16.0765H8.7584C7.43666 16.3397 6.3903 16.7048 5.73311 18.0346C5.71628 18.0952 5.69051 18.1529 5.65826 18.2053C5.54326 18.5074 5.42652 18.8149 5.34974 19.1164C5.17269 19.9156 5.14744 20.5432 5.1045 21.3687V38.0945H0V0H5.1045V14.8732L20.8235 0H23.069L8.68215 14.4995Z" fill="#212121"/>
</svg>
