<svg width="179" height="49" viewBox="0 0 179 49" fill="none" xmlns="http://www.w3.org/2000/svg">
<path d="M79.7873 18.4701C79.8855 18.2099 80.1146 17.7218 80.3437 17.7218C80.4746 17.7218 80.7365 17.7869 80.7365 18.4051L80.6056 36.1359H84.926V16.0952C84.926 14.013 83.5186 13.1021 81.2274 13.1021C78.609 13.1021 77.8234 14.4359 77.2016 16.0301L71.2773 31.2234C71.0482 31.7114 70.8845 32.0692 70.6554 32.0692C70.4263 32.0692 70.2626 31.7114 70.0335 31.2234L64.1092 16.0301C63.4873 14.4359 62.7018 13.1021 60.0833 13.1021C57.7922 13.1021 56.3848 14.013 56.3848 16.0952V36.1359H60.7052L60.607 18.4051C60.607 18.3075 60.607 17.7218 60.9671 17.7218C61.1962 17.7218 61.4253 18.2099 61.5235 18.4701L67.3823 33.6634C68.0697 35.4202 68.6915 36.3962 70.6554 36.3962C72.6192 36.3962 73.2411 35.4202 73.9285 33.6634L79.7873 18.4701Z" fill="#212121"/>
<path d="M86.3723 36.1359H90.9219L93.2458 30.3775H104.276L106.633 36.1359H111.182L102.541 15.6722C101.723 13.7527 100.741 13.1021 98.7773 13.1021C96.7153 13.1021 95.8315 13.7527 95.0132 15.6722L86.3723 36.1359ZM98.1227 18.0472C98.2536 17.6893 98.4827 17.1037 98.7773 17.1037C99.0719 17.1037 99.301 17.6893 99.4319 18.0472L103.163 27.3193H94.3586L98.1227 18.0472Z" fill="#212121"/>
<path d="M116.929 36.1359V18.4051C116.929 17.1037 117.257 16.7784 118.566 16.7784H125.538C128.287 16.7784 128.778 17.9496 128.778 20.5523C128.778 23.155 128.418 24.7491 126.028 24.7491H121.577C120.301 24.7491 119.646 25.3998 119.646 26.3108V26.8313C119.646 27.482 120.235 28.2302 120.726 28.7508L128.123 36.1359H133.688L125.636 28.3278V28.1652H127.927C131.756 28.1652 133.229 25.2371 133.229 20.5523C133.229 15.9976 131.756 13.3623 127.501 13.3623H115.947C113.984 13.3623 112.609 14.1757 112.609 16.7784V36.1359H116.929Z" fill="#212121"/>
<path d="M147.938 36.1359V16.7784H156.906V13.3623H134.682V16.7784H143.617V36.1359H147.938Z" fill="#212121"/>
<path d="M153.432 36.1359H157.982L160.306 30.3775H171.336L173.692 36.1359H178.242L169.601 15.6722C168.783 13.7527 167.801 13.1021 165.837 13.1021C163.775 13.1021 162.891 13.7527 162.073 15.6722L153.432 36.1359ZM165.182 18.0472C165.313 17.6893 165.543 17.1037 165.837 17.1037C166.132 17.1037 166.361 17.6893 166.492 18.0472L170.223 27.3193H161.418L165.182 18.0472Z" fill="#212121"/>
<path fill-rule="evenodd" clip-rule="evenodd" d="M23.8096 0.608981C22.4037 -0.202994 20.6712 -0.202994 19.2652 0.608981L2.27225 10.4198C0.866024 11.2314 -9.0373e-05 12.7318 7.07277e-09 14.3555V33.9773C-9.0373e-05 35.6008 0.866024 37.1014 2.27225 37.913L19.2652 47.7238C20.6712 48.5358 22.4037 48.5358 23.8096 47.7238L40.8026 37.913C42.2087 37.1014 43.0749 35.6008 43.0749 33.9773V14.3555C43.0749 12.7318 42.2087 11.2314 40.8026 10.4198L23.8096 0.608981ZM23.8096 9.93504C22.4037 9.12306 20.6712 9.12306 19.2652 9.93504L10.3489 15.0829C8.94266 15.8945 8.07654 17.3949 8.07664 19.0185V29.3143C8.07654 30.9377 8.94266 32.4383 10.3489 33.2499L19.2652 38.3977C20.6712 39.2098 22.4037 39.2098 23.8096 38.3977L32.726 33.2499C34.132 32.4383 34.9983 30.9377 34.9983 29.3143V19.0185C34.9983 17.3949 34.132 15.8945 32.726 15.0829L23.8096 9.93504Z" fill="#212121"/>
</svg>
