<svg width="212" height="63" viewBox="0 0 212 63" fill="none" xmlns="http://www.w3.org/2000/svg">
<path d="M1.64645 31.0584L1.29289 31.4119L1.64645 31.7655L31.0584 61.1774L31.4119 61.531L31.7655 61.1774L61.1774 31.7655L61.531 31.4119L61.1774 31.0584L31.7655 1.64645L31.4119 1.29289L31.0584 1.64645L1.64645 31.0584Z" fill="black" stroke="white"/>
<path d="M4.49411 31.0567L4.14055 31.4103L4.49409 31.7638L31.0575 58.3289L31.411 58.6824L31.7646 58.3289L58.3296 31.7655L58.6832 31.412L58.3296 31.0584L31.7662 4.49338L31.4127 4.13982L31.0591 4.49336L4.49411 31.0567Z" fill="white" stroke="#7E7E7E"/>
<rect x="21.127" y="18.2539" width="4.32378" height="4.31142" transform="rotate(-44.9982 21.127 18.2539)" fill="black"/>
<rect x="24.5264" y="14.8562" width="4.31142" height="4.31142" transform="rotate(-44.9982 24.5264 14.8562)" fill="black"/>
<rect x="27.918" y="11.4656" width="4.31142" height="4.31142" transform="rotate(-44.9982 27.918 11.4656)" fill="black"/>
<rect x="14.6543" y="24.6758" width="4.31142" height="4.31142" transform="rotate(-44.9982 14.6543 24.6758)" fill="#7E7E7E"/>
<rect x="11.2539" y="28.0737" width="4.32378" height="4.31142" transform="rotate(-44.9982 11.2539 28.0737)" fill="#7E7E7E"/>
<rect x="7.86816" y="31.4639" width="4.32378" height="4.31142" transform="rotate(-44.9982 7.86816 31.4639)" fill="#7E7E7E"/>
<rect x="11.2539" y="34.8542" width="4.32378" height="4.31142" transform="rotate(-44.9982 11.2539 34.8542)" fill="#7E7E7E"/>
<rect x="14.6484" y="38.2417" width="4.32378" height="4.31142" transform="rotate(-44.9982 14.6484 38.2417)" fill="#7E7E7E"/>
<rect x="18.04" y="34.8542" width="4.32378" height="4.31142" transform="rotate(-44.9982 18.04 34.8542)" fill="#7E7E7E"/>
<rect x="21.4346" y="31.4536" width="4.31142" height="4.31142" transform="rotate(-44.9982 21.4346 31.4536)" fill="black"/>
<rect x="24.8242" y="34.844" width="4.31142" height="4.31142" transform="rotate(-44.9982 24.8242 34.844)" fill="#7E7E7E"/>
<rect x="28.2109" y="38.2344" width="4.31142" height="4.32378" transform="rotate(-44.9982 28.2109 38.2344)" fill="#7E7E7E"/>
<rect x="31.5996" y="41.6243" width="4.31142" height="4.32378" transform="rotate(-44.9982 31.5996 41.6243)" fill="black"/>
<rect x="34.9902" y="45.012" width="4.31142" height="4.32378" transform="rotate(-44.9982 34.9902 45.012)" fill="black"/>
<rect x="31.5957" y="48.4102" width="4.32378" height="4.32378" transform="rotate(-44.9982 31.5957 48.4102)" fill="black"/>
<rect x="28.1992" y="51.8005" width="4.32378" height="4.32378" transform="rotate(-44.9982 28.1992 51.8005)" fill="black"/>
<rect x="24.8154" y="48.4102" width="4.32378" height="4.32378" transform="rotate(-44.9982 24.8154 48.4102)" fill="black"/>
<rect x="21.4268" y="45.0212" width="4.32378" height="4.32378" transform="rotate(-44.9982 21.4268 45.0212)" fill="black"/>
<rect x="24.8154" y="41.6323" width="4.32378" height="4.32378" transform="rotate(-44.9982 24.8154 41.6323)" fill="black"/>
<rect x="31.3076" y="14.8562" width="4.31142" height="4.31142" transform="rotate(-44.9982 31.3076 14.8562)" fill="black"/>
<rect x="34.6982" y="18.196" width="4.31142" height="4.31142" transform="rotate(-44.9982 34.6982 18.196)" fill="#7E7E7E"/>
<rect x="31.3076" y="21.584" width="4.31142" height="4.31142" transform="rotate(-44.9982 31.3076 21.584)" fill="black"/>
<rect x="27.9082" y="25.0322" width="4.32378" height="4.31142" transform="rotate(-44.9982 27.9082 25.0322)" fill="black"/>
<rect x="31.3008" y="28.3718" width="4.32378" height="4.31142" transform="rotate(-44.9982 31.3008 28.3718)" fill="black"/>
<rect x="34.6826" y="31.7622" width="4.32378" height="4.32378" transform="rotate(-44.9982 34.6826 31.7622)" fill="#7E7E7E"/>
<rect x="38.084" y="28.3633" width="4.31142" height="4.32378" transform="rotate(-44.9982 38.084 28.3633)" fill="#7E7E7E"/>
<rect x="41.4678" y="24.9736" width="4.31142" height="4.32378" transform="rotate(-44.9982 41.4678 24.9736)" fill="#7E7E7E"/>
<rect x="44.8584" y="28.364" width="4.31142" height="4.32378" transform="rotate(-44.9982 44.8584 28.364)" fill="#7E7E7E"/>
<rect x="48.2529" y="31.8025" width="4.31142" height="4.32378" transform="rotate(-44.9982 48.2529 31.8025)" fill="black"/>
<rect x="44.8584" y="35.1423" width="4.31142" height="4.32378" transform="rotate(-44.9982 44.8584 35.1423)" fill="#7E7E7E"/>
<rect x="41.4619" y="38.5398" width="4.32378" height="4.32378" transform="rotate(-44.9982 41.4619 38.5398)" fill="#7E7E7E"/>
<rect x="24.5176" y="21.6418" width="4.32378" height="4.31142" transform="rotate(-44.9982 24.5176 21.6418)" fill="black"/>
<path d="M77.4735 24.4609V14.0609H74.0371V11.5518H83.6008V14.0609H80.1281V24.4609H77.4735Z" fill="black"/>
<path d="M91.0483 23.2973C90.1149 24.2064 88.9877 24.6609 87.6664 24.6609C86.3452 24.6609 85.2179 24.2064 84.2846 23.2973C83.3513 22.3761 82.8846 21.2488 82.8846 19.9154C82.8846 18.5942 83.3513 17.473 84.2846 16.5518C85.2179 15.6306 86.3452 15.17 87.6664 15.17C88.9877 15.17 90.1149 15.6306 91.0483 16.5518C91.9816 17.473 92.4483 18.5942 92.4483 19.9154C92.4483 21.2488 91.9816 22.3761 91.0483 23.2973ZM87.6664 22.3336C88.3089 22.3336 88.8422 22.1094 89.2665 21.6609C89.7028 21.2003 89.921 20.6185 89.921 19.9154C89.921 19.2124 89.7028 18.6366 89.2665 18.1882C88.8422 17.7275 88.3089 17.4972 87.6664 17.4972C87.0119 17.4972 86.4664 17.7275 86.0301 18.1882C85.6058 18.6366 85.3937 19.2124 85.3937 19.9154C85.3937 20.6185 85.6058 21.2003 86.0301 21.6609C86.4664 22.1094 87.0119 22.3336 87.6664 22.3336Z" fill="black"/>
<path d="M94.2446 27.9882V15.37H96.7355V16.0245C97.3295 15.4548 98.1052 15.17 99.0628 15.17C100.372 15.17 101.445 15.6366 102.281 16.57C103.13 17.4912 103.554 18.6063 103.554 19.9154C103.554 21.2245 103.13 22.3458 102.281 23.2791C101.445 24.2003 100.372 24.6609 99.0628 24.6609C98.0931 24.6609 97.3174 24.37 96.7355 23.7882V27.9882H94.2446ZM98.6992 22.3882C99.378 22.3882 99.9295 22.1518 100.354 21.6791C100.778 21.1942 100.99 20.6064 100.99 19.9154C100.99 19.2245 100.778 18.6427 100.354 18.17C99.9295 17.6851 99.378 17.4427 98.6992 17.4427C97.8749 17.4427 97.2204 17.77 96.7355 18.4245V21.3882C97.2204 22.0548 97.8749 22.3882 98.6992 22.3882Z" fill="black"/>
<path d="M105.377 24.4609V15.37H111.65V17.5518H107.868V24.4609H105.377Z" fill="black"/>
<path d="M120.47 23.2973C119.536 24.2064 118.409 24.6609 117.088 24.6609C115.767 24.6609 114.639 24.2064 113.706 23.2973C112.773 22.3761 112.306 21.2488 112.306 19.9154C112.306 18.5942 112.773 17.473 113.706 16.5518C114.639 15.6306 115.767 15.17 117.088 15.17C118.409 15.17 119.536 15.6306 120.47 16.5518C121.403 17.473 121.87 18.5942 121.87 19.9154C121.87 21.2488 121.403 22.3761 120.47 23.2973ZM117.088 22.3336C117.73 22.3336 118.264 22.1094 118.688 21.6609C119.124 21.2003 119.342 20.6185 119.342 19.9154C119.342 19.2124 119.124 18.6366 118.688 18.1882C118.264 17.7275 117.73 17.4972 117.088 17.4972C116.433 17.4972 115.888 17.7275 115.451 18.1882C115.027 18.6366 114.815 19.2124 114.815 19.9154C114.815 20.6185 115.027 21.2003 115.451 21.6609C115.888 22.1094 116.433 22.3336 117.088 22.3336Z" fill="black"/>
<path d="M123.666 24.4609V15.37H128.011C129.114 15.37 129.951 15.6366 130.521 16.17C131.102 16.7033 131.393 17.3457 131.393 18.0972C131.393 18.6548 131.193 19.1639 130.793 19.6245C131.581 20.1215 131.975 20.8124 131.975 21.6973C131.975 22.4609 131.696 23.1155 131.139 23.6609C130.593 24.1943 129.763 24.4609 128.648 24.4609H123.666ZM126.157 22.4245H128.521C128.811 22.4245 129.048 22.3458 129.23 22.1882C129.411 22.0306 129.502 21.8064 129.502 21.5155C129.502 21.2367 129.411 21.0185 129.23 20.8609C129.048 20.7033 128.811 20.6245 128.521 20.6245H126.157V22.4245ZM126.157 18.9518H128.011C128.254 18.9518 128.466 18.8851 128.648 18.7518C128.83 18.6185 128.921 18.4063 128.921 18.1154C128.921 17.8245 128.83 17.6124 128.648 17.4791C128.466 17.3457 128.254 17.2791 128.011 17.2791H126.157V18.9518Z" fill="black"/>
<path d="M137.696 24.6609C136.387 24.6609 135.308 24.2003 134.46 23.2791C133.624 22.3458 133.205 21.2245 133.205 19.9154C133.205 18.6063 133.624 17.4912 134.46 16.57C135.308 15.6366 136.387 15.17 137.696 15.17C138.654 15.17 139.43 15.4548 140.024 16.0245V15.37H142.514V24.4609H140.024V23.7882C139.442 24.37 138.666 24.6609 137.696 24.6609ZM138.06 22.3882C138.884 22.3882 139.539 22.0548 140.024 21.3882V18.4245C139.539 17.77 138.884 17.4427 138.06 17.4427C137.381 17.4427 136.83 17.6851 136.405 18.17C135.981 18.6427 135.769 19.2245 135.769 19.9154C135.769 20.6064 135.981 21.1942 136.405 21.6791C136.83 22.1518 137.381 22.3882 138.06 22.3882Z" fill="black"/>
<path d="M143.52 24.4609L146.647 21.0064C145.544 20.4609 144.992 19.6003 144.992 18.4245C144.992 17.5275 145.289 16.7942 145.883 16.2245C146.477 15.6548 147.295 15.37 148.338 15.37H152.356V24.4609H149.865V21.5882H148.992L146.338 24.4609H143.52ZM148.483 19.5882H149.865V17.3882H148.465C147.714 17.3882 147.338 17.77 147.338 18.5336C147.338 18.8609 147.447 19.1215 147.665 19.3154C147.883 19.4973 148.156 19.5882 148.483 19.5882Z" fill="black"/>
<path d="M74.8553 38.3647V29.2738H83.4008V38.3647H80.9099V31.4556H77.3462V38.3647H74.8553Z" fill="black"/>
<path d="M85.7929 41.892V29.2738H88.2838V29.9283C88.8777 29.3586 89.6535 29.0738 90.6111 29.0738C91.9202 29.0738 92.9929 29.5405 93.8293 30.4738C94.6778 31.395 95.102 32.5102 95.102 33.8193C95.102 35.1284 94.6778 36.2496 93.8293 37.1829C92.9929 38.1041 91.9202 38.5647 90.6111 38.5647C89.6414 38.5647 88.8656 38.2738 88.2838 37.692V41.892H85.7929ZM90.2474 36.292C90.9262 36.292 91.4777 36.0556 91.902 35.5829C92.3262 35.0981 92.5384 34.5102 92.5384 33.8193C92.5384 33.1283 92.3262 32.5465 91.902 32.0738C91.4777 31.5889 90.9262 31.3465 90.2474 31.3465C89.4232 31.3465 88.7686 31.6738 88.2838 32.3283V35.292C88.7686 35.9587 89.4232 36.292 90.2474 36.292Z" fill="black"/>
<path d="M104.489 37.2011C103.556 38.1102 102.429 38.5647 101.108 38.5647C99.7864 38.5647 98.6591 38.1102 97.7257 37.2011C96.7924 36.2799 96.3257 35.1526 96.3257 33.8193C96.3257 32.498 96.7924 31.3768 97.7257 30.4556C98.6591 29.5344 99.7864 29.0738 101.108 29.0738C102.429 29.0738 103.556 29.5344 104.489 30.4556C105.423 31.3768 105.889 32.498 105.889 33.8193C105.889 35.1526 105.423 36.2799 104.489 37.2011ZM101.108 36.2375C101.75 36.2375 102.283 36.0132 102.708 35.5647C103.144 35.1041 103.362 34.5223 103.362 33.8193C103.362 33.1162 103.144 32.5405 102.708 32.092C102.283 31.6314 101.75 31.4011 101.108 31.4011C100.453 31.4011 99.9076 31.6314 99.4712 32.092C99.047 32.5405 98.8348 33.1162 98.8348 33.8193C98.8348 34.5223 99.047 35.1041 99.4712 35.5647C99.9076 36.0132 100.453 36.2375 101.108 36.2375Z" fill="black"/>
<path d="M107.686 29.2738H109.813L112.795 33.6374L115.777 29.2738H117.886V38.3647H115.395V33.4374L113.504 36.2375H112.068L110.177 33.4374V38.3647H107.686V29.2738Z" fill="black"/>
<path d="M129.056 38.3647V29.2738H131.547V38.3647H129.056ZM120.292 38.3647V29.2738H122.783V31.9829H124.492C125.595 31.9829 126.426 32.3102 126.983 32.9647C127.553 33.6071 127.838 34.3284 127.838 35.1284C127.838 35.9405 127.553 36.6859 126.983 37.3647C126.426 38.0314 125.595 38.3647 124.492 38.3647H120.292ZM122.783 34.1102V36.2375H124.201C125.062 36.2375 125.492 35.8738 125.492 35.1465C125.492 34.4556 125.062 34.1102 124.201 34.1102H122.783Z" fill="black"/>
<path d="M133.964 38.3647V29.2738H136.455V36.1829H139.092V29.2738H141.583V36.1829H144.219V29.2738H146.71V38.3647H133.964Z" fill="black"/>
<path d="M149.419 38.5466C149.019 38.5466 148.577 38.5041 148.092 38.4193L148.401 36.3465C148.619 36.3708 148.777 36.3829 148.874 36.3829C149.249 36.3829 149.528 36.2678 149.71 36.0375C149.892 35.795 149.983 35.3768 149.983 34.7829V29.2738H157.765V38.3647H155.274V31.4556H152.474V35.092C152.474 36.2193 152.171 37.0799 151.565 37.6738C150.971 38.2556 150.255 38.5466 149.419 38.5466Z" fill="black"/>
<path d="M164.408 38.5647C163.026 38.5647 161.875 38.1284 160.954 37.2556C160.045 36.3829 159.59 35.2374 159.59 33.8193C159.59 32.4617 160.045 31.3344 160.954 30.4374C161.863 29.5283 163.002 29.0738 164.372 29.0738C165.632 29.0738 166.693 29.4677 167.554 30.2556C168.414 31.0314 168.845 32.1283 168.845 33.5465C168.845 33.9465 168.832 34.2314 168.808 34.4011H162.008C162.081 34.995 162.342 35.4617 162.79 35.8011C163.251 36.1284 163.796 36.292 164.426 36.292C165.493 36.292 166.275 35.9102 166.772 35.1465L168.626 36.5284C167.693 37.886 166.287 38.5647 164.408 38.5647ZM162.099 32.7102H166.354C166.245 32.1889 165.996 31.795 165.608 31.5283C165.232 31.2617 164.796 31.1283 164.299 31.1283C163.79 31.1283 163.323 31.2617 162.899 31.5283C162.475 31.795 162.208 32.1889 162.099 32.7102Z" fill="black"/>
<path d="M170.683 38.3647V29.2738H173.174V32.7102H176.92V29.2738H179.411V38.3647H176.92V34.8738H173.174V38.3647H170.683Z" fill="black"/>
<path d="M181.816 38.3647V29.2738H184.307V32.7102H188.053V29.2738H190.543V38.3647H188.053V34.8738H184.307V38.3647H181.816Z" fill="black"/>
<path d="M196.876 38.5647C195.567 38.5647 194.488 38.1041 193.64 37.1829C192.804 36.2496 192.385 35.1284 192.385 33.8193C192.385 32.5102 192.804 31.395 193.64 30.4738C194.488 29.5405 195.567 29.0738 196.876 29.0738C197.834 29.0738 198.61 29.3586 199.204 29.9283V29.2738H201.695V38.3647H199.204V37.692C198.622 38.2738 197.846 38.5647 196.876 38.5647ZM197.24 36.292C198.064 36.292 198.719 35.9587 199.204 35.292V32.3283C198.719 31.6738 198.064 31.3465 197.24 31.3465C196.561 31.3465 196.01 31.5889 195.585 32.0738C195.161 32.5465 194.949 33.1283 194.949 33.8193C194.949 34.5102 195.161 35.0981 195.585 35.5829C196.01 36.0556 196.561 36.292 197.24 36.292Z" fill="black"/>
<path d="M202.7 38.3647L205.827 34.9102C204.724 34.3647 204.172 33.5041 204.172 32.3283C204.172 31.4314 204.469 30.698 205.063 30.1283C205.657 29.5586 206.475 29.2738 207.518 29.2738H211.536V38.3647H209.045V35.492H208.172L205.518 38.3647H202.7ZM207.663 33.492H209.045V31.292H207.645C206.894 31.292 206.518 31.6738 206.518 32.4374C206.518 32.7647 206.627 33.0253 206.845 33.2193C207.063 33.4011 207.336 33.492 207.663 33.492Z" fill="black"/>
<path d="M74.8553 52.2686V43.1776H83.4008V52.2686H80.9099V45.3594H77.3462V52.2686H74.8553Z" fill="black"/>
<path d="M89.7202 52.4686C88.4111 52.4686 87.3323 52.008 86.4838 51.0867C85.6474 50.1534 85.2292 49.0322 85.2292 47.7231C85.2292 46.414 85.6474 45.2988 86.4838 44.3776C87.3323 43.4443 88.4111 42.9776 89.7202 42.9776C90.6777 42.9776 91.4535 43.2625 92.0474 43.8322V43.1776H94.5384V52.2686H92.0474V51.5958C91.4656 52.1777 90.6899 52.4686 89.7202 52.4686ZM90.0838 50.1958C90.908 50.1958 91.5626 49.8625 92.0474 49.1958V46.2322C91.5626 45.5776 90.908 45.2503 90.0838 45.2503C89.405 45.2503 88.8535 45.4928 88.4292 45.9776C88.005 46.4503 87.7929 47.0322 87.7929 47.7231C87.7929 48.414 88.005 49.0019 88.4292 49.4867C88.8535 49.9595 89.405 50.1958 90.0838 50.1958Z" fill="black"/>
<path d="M97.2526 52.4504C96.8526 52.4504 96.4102 52.408 95.9253 52.3231L96.2344 50.2504C96.4526 50.2746 96.6102 50.2867 96.7071 50.2867C97.0829 50.2867 97.3617 50.1716 97.5435 49.9413C97.7253 49.6989 97.8162 49.2807 97.8162 48.6867V43.1776H105.598V52.2686H103.107V45.3594H100.307V48.9958C100.307 50.1231 100.004 50.9837 99.398 51.5776C98.8041 52.1595 98.089 52.4504 97.2526 52.4504Z" fill="black"/>
<path d="M111.933 52.4686C110.624 52.4686 109.545 52.008 108.696 51.0867C107.86 50.1534 107.442 49.0322 107.442 47.7231C107.442 46.414 107.86 45.2988 108.696 44.3776C109.545 43.4443 110.624 42.9776 111.933 42.9776C112.89 42.9776 113.666 43.2625 114.26 43.8322V43.1776H116.751V52.2686H114.26V51.5958C113.678 52.1777 112.902 52.4686 111.933 52.4686ZM112.296 50.1958C113.121 50.1958 113.775 49.8625 114.26 49.1958V46.2322C113.775 45.5776 113.121 45.2503 112.296 45.2503C111.617 45.2503 111.066 45.4928 110.642 45.9776C110.217 46.4503 110.005 47.0322 110.005 47.7231C110.005 48.414 110.217 49.0019 110.642 49.4867C111.066 49.9595 111.617 50.1958 112.296 50.1958Z" fill="black"/>
<path d="M120.792 52.2686V45.3594H118.283V43.1776H125.974V45.3594H123.283V52.2686H120.792Z" fill="black"/>
<path d="M131.198 52.4686C129.889 52.4686 128.81 52.008 127.961 51.0867C127.125 50.1534 126.707 49.0322 126.707 47.7231C126.707 46.414 127.125 45.2988 127.961 44.3776C128.81 43.4443 129.889 42.9776 131.198 42.9776C132.155 42.9776 132.931 43.2625 133.525 43.8322V43.1776H136.016V52.2686H133.525V51.5958C132.943 52.1777 132.167 52.4686 131.198 52.4686ZM131.561 50.1958C132.386 50.1958 133.04 49.8625 133.525 49.1958V46.2322C133.04 45.5776 132.386 45.2503 131.561 45.2503C130.883 45.2503 130.331 45.4928 129.907 45.9776C129.482 46.4503 129.27 47.0322 129.27 47.7231C129.27 48.414 129.482 49.0019 129.907 49.4867C130.331 49.9595 130.883 50.1958 131.561 50.1958Z" fill="black"/>
</svg>
