<svg width="114" height="110" viewBox="0 0 114 110" fill="none" xmlns="http://www.w3.org/2000/svg">
<path fill-rule="evenodd" clip-rule="evenodd" d="M83.4253 5.4771C79.0797 7.06135 72.2657 8.19391 68.0543 8.62137C56.3211 9.81341 40.7918 9.35951 29.751 5.09591C29.7477 5.09591 29.7457 5.09473 29.7431 5.09323C29.7422 5.09268 29.7411 5.09209 29.74 5.0915L29.4762 4.97913C29.3553 4.92625 29.2894 4.80065 29.3135 4.67285C29.3399 4.54506 29.4498 4.45251 29.5795 4.45031C33.4986 4.39743 38.6091 3.70776 42.5151 2.6369C42.8184 2.55537 43.0206 2.28876 43.0206 1.97367V0.345351C43.0206 0.237384 43.0646 0.147044 43.1481 0.0787379C43.2316 0.0104321 43.3305 -0.0138054 43.4339 0.00822869C52.1118 1.83926 60.4116 1.67842 68.4301 0.00822869C68.5334 -0.0138054 68.6324 0.00822869 68.7159 0.0765345C68.7994 0.14484 68.8412 0.237384 68.8412 0.343147V2.00011C68.8412 2.30198 69.028 2.55978 69.316 2.65453C71.3118 3.30674 73.3714 3.77606 75.398 4.1242C77.5389 4.49217 80.8338 4.87116 83.3373 4.94387C83.4714 4.94828 83.5791 5.04303 83.6011 5.17523C83.6231 5.30744 83.5484 5.43083 83.4253 5.4771ZM73.7634 9.4496V11.7279C73.7634 11.8778 73.6403 12.0012 73.4887 12.0012H39.4232C39.2715 12.0012 39.1484 11.8778 39.1484 11.7279V9.29536C39.1484 9.21163 39.1814 9.13892 39.2473 9.08604C39.3111 9.03095 39.3902 9.01112 39.4715 9.02655C43.2808 9.73604 47.3538 10.1591 51.2114 10.3508C53.6007 10.4698 56.1988 10.4962 58.5968 10.4588C61.6521 10.4103 65.5559 10.1922 68.598 9.84181C70.2421 9.65452 71.8203 9.4496 73.4425 9.17858C73.526 9.16536 73.6008 9.18739 73.6645 9.24028C73.7282 9.29536 73.7634 9.36587 73.7634 9.4496ZM74.1192 44.3782V22.4455C74.3082 22.1128 74.6863 21.8836 75.1259 21.8836H75.1479C75.7765 21.8836 76.2887 21.4099 76.2887 20.8304V20.5417C76.2887 20.1539 76.5129 19.819 76.847 19.6383C77.702 19.5193 78.5417 19.3938 79.3638 19.2593C82.2344 18.7944 87.5845 17.7214 90.9343 16.613C91.0596 16.5712 91.1343 16.4478 91.1124 16.32C91.0926 16.19 90.9849 16.0952 90.8552 16.0952C86.8745 16.0534 82.6652 15.4827 78.9022 14.1518L76.8997 13.3057C76.8646 13.2903 76.8338 13.2837 76.7964 13.2837H36.1236C36.0818 13.2837 36.0467 13.2925 36.0093 13.3101C35.928 13.3476 35.8468 13.3872 35.7655 13.4268L35.7653 13.4269C34.4047 14.0637 32.7474 14.6256 31.3143 14.9693C27.8721 15.7956 25.3114 16.0247 22.0846 16.071C21.9549 16.0732 21.8472 16.1658 21.8275 16.2936C21.8077 16.4214 21.8802 16.5447 22.0011 16.5866L22.4121 16.7298C22.4128 16.7298 22.4136 16.73 22.4145 16.7303C22.4167 16.7309 22.4194 16.732 22.4209 16.732C26.4917 17.9748 31.0417 18.9244 35.8379 19.6053H35.7807C35.8049 19.6053 35.8291 19.6053 35.8532 19.6075L36.0665 19.6361C36.561 19.7507 36.9237 20.1605 36.9237 20.6563V20.9428C36.9237 21.5245 37.438 21.9982 38.0645 21.9982H38.0887C38.5986 21.9982 39.0294 22.3067 39.1723 22.7319V48.3246C40.612 48.1196 42.0408 47.7296 43.5003 47.2559C44.263 47.0091 45.0037 46.6896 45.7313 46.3283V23.7499C45.8764 23.3246 46.305 23.014 46.8171 23.014H46.8391C47.4678 23.014 47.9799 22.5402 47.9799 21.9607V21.6721C47.9799 21.2953 48.1909 20.9692 48.5118 20.7841C53.9828 21.0485 59.5087 21.0287 64.7928 20.7555C65.1072 20.9428 65.3116 21.2667 65.3116 21.639V21.9255C65.3116 22.5072 65.8259 22.9809 66.4524 22.9809H66.4766C66.9865 22.9809 67.4173 23.2916 67.5602 23.7146V41.4455C67.7756 41.5094 67.991 41.5755 68.2042 41.6438C70.2154 42.285 72.1959 43.2655 74.1192 44.3782ZM57.436 92.3203C58.5197 92.0074 59.544 91.5822 60.4913 91.0489L61.9157 90.2866C62.8652 89.7269 63.7313 89.0593 64.505 88.2837C65.2787 87.5059 65.9491 86.6355 66.503 85.6726C67.0547 84.7119 67.4855 83.6807 67.7845 82.59C68.0834 81.5015 68.2373 80.3646 68.2373 79.1769C68.2373 77.4142 67.901 75.7506 67.2438 74.1862C66.5843 72.6174 65.6766 71.2513 64.5204 70.0923C63.362 68.9333 61.9992 68.0123 60.4386 67.3424C58.878 66.6704 57.1899 66.3311 55.3853 66.3311C54.1587 66.3311 53.0004 66.4831 51.9145 66.785C50.8265 67.089 49.7956 67.5297 48.8219 68.107L47.4723 68.876C45.549 70.035 44.0059 71.5796 42.8475 73.5054C41.6914 75.4289 41.1133 77.5883 41.1133 79.979C41.1133 81.7439 41.4474 83.4009 42.1068 84.9565C42.764 86.5121 43.674 87.8716 44.8302 89.0306C45.9842 90.1874 47.3536 91.1106 48.9274 91.7827C50.499 92.4547 52.1915 92.7896 53.9983 92.7896C55.2006 92.7896 56.348 92.6332 57.436 92.3203ZM10.7331 91.7837C9.55055 92.4557 8.27788 92.7906 6.91069 92.7906C5.65999 92.7906 4.44007 92.6011 3.24653 92.2155C2.05298 91.8321 0.973739 91.257 0 90.4969L1.07705 87.7073C2.11893 88.6107 3.22894 89.3026 4.4115 89.7807C5.58965 90.2567 6.87332 90.4969 8.26469 90.4969C8.89113 90.4969 9.46043 90.3669 9.98137 90.1135C10.5023 89.8513 10.9463 89.5075 11.3024 89.069C11.6651 88.6284 11.9398 88.1304 12.1377 87.5862C12.3333 87.0419 12.4322 86.4668 12.4322 85.8631C12.4322 84.9575 12.2717 84.2061 11.9464 83.6024C11.6211 82.9986 11.1925 82.5007 10.6606 82.1063C10.1264 81.7074 9.51318 81.3857 8.8186 81.1301C8.12401 80.8746 7.42283 80.6322 6.70407 80.3964C5.91277 80.1408 5.13905 79.8632 4.37413 79.5635C3.6136 79.2617 2.92122 78.8694 2.30796 78.3781C1.6947 77.8933 1.20673 77.283 0.835261 76.5537C0.46379 75.8221 0.276955 74.8967 0.276955 73.784C0.276955 72.506 0.575891 71.3712 1.18255 70.3753C1.78262 69.3749 2.57172 68.6104 3.53887 68.0771L4.96321 67.2376C6.02927 66.6361 7.17665 66.332 8.40536 66.332C9.58572 66.332 10.7155 66.5259 11.8058 66.9071C12.896 67.2927 13.9005 67.8304 14.8281 68.531L13.7532 71.2412C12.8235 70.4304 11.8014 69.7914 10.6804 69.3309C9.55715 68.866 8.368 68.6302 7.11511 68.6302C6.56339 68.6302 6.05344 68.7536 5.58965 68.9938C5.13026 69.2405 4.73461 69.5622 4.4115 69.9522C4.08618 70.3511 3.83561 70.805 3.66416 71.3139C3.49051 71.8229 3.40259 72.3341 3.40259 72.8431C3.40259 73.7245 3.55865 74.445 3.87297 75.0047C4.1851 75.5577 4.60053 76.0248 5.12147 76.395C5.64241 76.7674 6.24028 77.0759 6.91069 77.316C7.57889 77.5606 8.28667 77.8008 9.02961 78.03C9.81651 78.2855 10.6034 78.572 11.3903 78.8827C12.1772 79.1956 12.885 79.612 13.5092 80.121C14.1291 80.6322 14.6369 81.2668 15.0171 82.0358C15.3974 82.8003 15.593 83.7632 15.593 84.9244C15.593 86.176 15.2897 87.3482 14.6874 88.4389C14.0851 89.5296 13.2323 90.3911 12.1201 91.0125L10.7331 91.7837ZM21.5635 68.2435L20.7656 66.8906H36.3213L35.4574 69.224H24.6562V77.9606H35.9718L35.1057 80.2565H24.6562V89.8987H36.6686L35.8047 92.2321H21.5635V68.2435ZM60.1812 89.3416C61.7067 88.3919 62.9002 87.0875 63.7575 85.4261C64.6125 83.7692 65.0411 81.9514 65.0411 79.9793C65.0411 78.4259 64.7532 76.965 64.1883 75.5945C63.6234 74.2262 62.8387 73.0209 61.8452 71.9897C60.8538 70.9585 59.6779 70.1411 58.3415 69.5528C56.9963 68.9622 55.5477 68.667 53.9981 68.667C53.1167 68.667 52.2638 68.7441 51.444 68.8939C50.6241 69.0416 49.8636 69.3501 49.169 69.815C47.6391 70.7668 46.45 72.0757 45.5927 73.7326C44.7355 75.3918 44.3047 77.2096 44.3047 79.1773C44.3047 80.7307 44.5926 82.2003 45.1575 83.5687C45.7224 84.937 46.5049 86.1378 47.4853 87.1668C48.4722 88.198 49.6372 89.0111 50.9956 89.6038C52.343 90.1943 53.8135 90.4962 55.3851 90.4962C56.2643 90.4962 57.1128 90.4169 57.9194 90.2648C58.7305 90.115 59.4867 89.8065 60.1812 89.3416ZM85.8051 92.3885C86.7766 92.1219 87.6954 91.7451 88.5482 91.256L89.9704 90.4561C90.3682 90.2292 90.8013 89.9515 91.276 89.6409C91.7508 89.3302 92.219 89.0063 92.6784 88.6824V66.8906H88.7944L89.555 68.2435V88.5083C89.2582 88.7132 88.9593 88.9159 88.6713 89.0988C88.3834 89.2839 88.0845 89.4492 87.7833 89.5858C86.6997 90.1675 85.4226 90.4561 83.9653 90.4561C83.0157 90.4561 82.1189 90.2754 81.2727 89.9163C80.433 89.5615 79.6945 89.0658 79.0702 88.4378C78.446 87.812 77.9492 87.0849 77.5931 86.263C77.2393 85.4434 77.0546 84.5598 77.0546 83.6344V66.8906H73.1641L73.962 68.2435V84.5378C73.962 85.699 74.184 86.7808 74.6236 87.7746C75.0654 88.7727 75.672 89.6497 76.4458 90.39C77.2173 91.1304 78.1339 91.7187 79.1735 92.1461C80.2132 92.5736 81.3386 92.7895 82.5388 92.7895C83.7477 92.7895 84.8335 92.6529 85.8051 92.3885ZM99.9676 68.2435L99.1719 66.8906H103.06V89.9361H113.998L113.092 92.2321H99.9676V68.2435ZM38.3993 101.557L38.0234 101.059H39.2478L42.4327 105.289L45.6111 101.059H46.4222V109.191H45.4331V102.621L42.5229 106.486H42.0679L39.1818 102.645V109.191H38.3993V101.557ZM59.5853 108.876C59.3127 109.033 59.016 109.152 58.7038 109.238C58.3917 109.324 58.0444 109.365 57.6598 109.365C57.2729 109.365 56.9124 109.297 56.5783 109.161C56.2442 109.024 55.9497 108.837 55.7013 108.596C55.4551 108.358 55.2551 108.079 55.1166 107.757C54.9781 107.44 54.9034 107.092 54.9034 106.721V101.49L54.6484 101.059H55.8969V106.431C55.8969 106.724 55.9585 107.008 56.0706 107.27C56.1849 107.537 56.3431 107.768 56.5454 107.973C56.7432 108.173 56.9784 108.332 57.2509 108.444C57.5235 108.559 57.8092 108.618 58.1104 108.618C58.5852 108.618 58.9918 108.526 59.3413 108.339C59.4358 108.297 59.5325 108.24 59.6204 108.182L59.6444 108.167L59.6773 108.146L59.6965 108.133L59.6966 108.133C59.7673 108.088 59.839 108.042 59.9084 107.991V101.49L59.6622 101.059H60.9085V108.048C60.7634 108.154 60.6118 108.257 60.4623 108.356C60.3106 108.455 60.17 108.546 60.0447 108.618L59.5853 108.876ZM69.0508 101.059L69.4267 101.557V109.191H70.2158V102.652L75.124 109.191H75.9703V101.059H74.9306L75.179 101.49V107.572L70.2993 101.059H69.0508ZM54.3777 54.752C51.5071 56.4134 46.8142 57.1581 43.3633 57.0942C47.311 57.6936 52.1115 57.4402 56.2285 56.0322C57.3069 55.665 58.3661 55.2116 59.4262 54.7578C61.413 53.9073 63.403 53.0555 65.5285 52.7667C68.0588 52.418 70.3441 52.6659 72.7742 52.9294L72.7747 52.9295C73.2006 52.9757 73.631 53.0224 74.0679 53.0664C77.0705 53.3683 80.3434 53.3418 83.2668 52.5376C86.8144 51.5571 90.2852 49.9155 93.3602 47.9082C93.0086 48.0536 92.6547 48.1991 92.2964 48.3401C89.151 49.5828 85.9022 50.4157 82.5041 50.4576C79.6095 50.4905 76.9378 49.8022 74.1912 49.0947L74.1908 49.0946C73.8152 48.9978 73.4382 48.9007 73.059 48.805C69.8125 47.9853 66.8429 48.2321 63.7766 49.6092C62.0215 50.3937 60.3697 51.3707 58.7177 52.3477C57.2933 53.1902 55.8687 54.0327 54.3777 54.752ZM19.5781 45.9905C22.9288 45.6739 26.918 47.0348 30.1192 48.1268L30.1193 48.1268C31.4414 48.5779 32.6291 48.983 33.5819 49.2052C37.2461 50.0602 40.563 49.4212 44.0996 48.2754C46.2455 47.5765 48.2184 46.3829 50.1845 45.1936L50.1845 45.1936C51.8072 44.2119 53.4252 43.2331 55.1317 42.5377C59.2574 40.8609 63.4777 41.3501 67.6078 42.6655C71.2349 43.821 75.0751 46.3667 78.3769 48.5554C78.6388 48.729 78.8973 48.9004 79.152 49.0686C78.1459 49.0391 76.7077 48.6544 75.1073 48.2262C72.76 47.5982 70.0637 46.8769 67.8694 47.0459C64.5802 47.2988 61.593 49.0385 58.4231 50.8846C55.1024 52.8185 51.5812 54.8691 47.3022 55.4497C43.7194 55.9411 39.7101 55.3307 36.3339 54.24C34.0782 53.5114 32.8912 52.6741 31.2617 51.5246L31.2616 51.5246C30.4569 50.957 29.5443 50.3132 28.3418 49.5688C23.794 46.7594 19.5781 45.9905 19.5781 45.9905Z" fill="#DFB567"/>
</svg>
