<svg width="177" height="50" viewBox="0 0 177 50" fill="none" xmlns="http://www.w3.org/2000/svg">
<path d="M58.2472 17.2286C58.2472 14.2287 58.2472 11.2291 58.2474 8.22931C58.2474 8.11142 58.242 7.99274 58.2531 7.87602C58.2706 7.69014 58.3661 7.59229 58.5419 7.57323C58.6289 7.5638 58.7174 7.56773 58.8054 7.56773C60.0737 7.56753 61.3422 7.56675 62.6106 7.56793C63.1094 7.56832 63.1469 7.60742 63.1469 8.12792C63.1474 13.7344 63.1484 19.3408 63.1452 24.9475C63.1448 25.4929 63.2356 26.0146 63.4402 26.5151C63.6144 26.9414 63.8523 27.3238 64.1765 27.6435C64.5855 28.0467 65.0628 28.2695 65.6349 28.2668C66.7778 28.2613 67.9205 28.2601 69.0633 28.2676C69.5774 28.2709 70.0297 28.1031 70.4138 27.7598C71.1954 27.0613 71.6337 26.1789 71.671 25.095C71.6759 24.9512 71.6721 24.8068 71.6721 24.6627C71.6721 19.1872 71.6721 13.7118 71.6725 8.23619C71.6725 8.10533 71.6686 7.97328 71.6848 7.84419C71.7051 7.6815 71.8033 7.59111 71.9621 7.57343C72.0491 7.5638 72.1376 7.56773 72.2256 7.56773C73.4939 7.56753 74.7624 7.57578 76.0308 7.5636C76.5631 7.55849 76.575 7.70901 76.5748 8.12301C76.5723 13.664 76.5729 19.205 76.5727 24.7461C76.5727 25.9468 76.4175 27.1218 76.0219 28.2544C75.5402 29.6336 74.7568 30.7769 73.5785 31.6036C72.7314 32.1979 71.7912 32.5447 70.7892 32.7175C70.1812 32.8224 69.5674 32.8609 68.9511 32.8601C67.7078 32.8583 66.4645 32.8695 65.2213 32.8566C63.7721 32.8414 62.4154 32.4693 61.1923 31.6383C59.787 30.6834 58.8468 29.3722 58.4366 27.6647C58.3047 27.1161 58.2457 26.5583 58.2461 25.9922C58.2482 23.0708 58.2472 20.1496 58.2472 17.2286Z" fill="black"/>
<path d="M132.897 20.1808C132.897 16.1989 132.897 12.2168 132.898 8.23487C132.898 8.10417 132.894 7.97189 132.91 7.84277C132.93 7.67826 133.026 7.5906 133.186 7.57016C133.249 7.5621 133.312 7.56407 133.375 7.56407C134.434 7.56368 135.494 7.56387 136.553 7.56387C136.604 7.56387 136.654 7.5621 136.704 7.56604C136.929 7.58313 137.026 7.67806 137.042 7.90252C137.05 8.00668 137.045 8.11203 137.045 8.21678C137.045 10.0898 137.045 11.9631 137.046 13.8361C137.046 13.9538 137.042 14.0725 137.053 14.1893C137.068 14.353 137.161 14.4528 137.318 14.4715C137.43 14.4849 137.544 14.4798 137.658 14.4798C139.714 14.4802 141.769 14.4819 143.825 14.4792C144.447 14.4784 145.059 14.5533 145.654 14.7388C146.584 15.0289 147.353 15.5824 147.992 16.3349C148.67 17.1327 149.131 18.0582 149.459 19.0588C149.744 19.9295 149.914 20.8255 150.008 21.7404C150.084 22.4857 150.098 23.2316 150.06 23.9768C149.972 25.7039 149.633 27.3735 148.935 28.9531C148.57 29.7793 148.11 30.5427 147.507 31.207C146.862 31.9175 146.106 32.437 145.184 32.6781C144.729 32.7972 144.267 32.8595 143.8 32.8601C140.344 32.8643 136.889 32.8629 133.434 32.8619C132.965 32.8617 132.898 32.7876 132.898 32.2843C132.898 28.5512 132.898 24.818 132.898 21.0849C132.897 20.7834 132.897 20.4821 132.897 20.1808ZM140.302 18.7874V18.7878C139.382 18.7878 138.461 18.7862 137.541 18.7884C137.091 18.7893 137.046 18.8367 137.046 19.3108C137.045 22.217 137.046 25.1233 137.046 28.0293C137.046 28.1207 137.045 28.2135 137.058 28.3033C137.077 28.433 137.162 28.5107 137.281 28.5403C137.341 28.5555 137.406 28.5525 137.469 28.5525C139.322 28.5531 141.174 28.5537 143.027 28.5515C143.139 28.5513 143.253 28.537 143.364 28.5154C143.925 28.4061 144.354 28.0804 144.701 27.6243C145.009 27.2188 145.22 26.7599 145.376 26.2726C145.727 25.1754 145.817 24.0462 145.726 22.9008C145.671 22.2082 145.544 21.5281 145.305 20.8746C145.143 20.4314 144.94 20.0126 144.648 19.6449C144.198 19.0773 143.637 18.7671 142.91 18.7827C142.041 18.8015 141.171 18.7874 140.302 18.7874Z" fill="black"/>
<path d="M163.55 25.727C161.568 25.727 159.585 25.727 157.603 25.727C157.503 25.727 157.402 25.723 157.302 25.7287C157.039 25.7437 156.954 25.8399 156.95 26.1244C156.946 26.4181 157.01 26.6959 157.14 26.9558C157.287 27.2509 157.494 27.4929 157.746 27.6959C158.181 28.0464 158.677 28.2577 159.204 28.3947C159.619 28.5023 160.04 28.555 160.47 28.5544C163.029 28.5505 165.588 28.5524 168.147 28.5528C168.26 28.5528 168.374 28.5479 168.486 28.5591C168.643 28.5748 168.735 28.6681 168.761 28.832C168.773 28.9088 168.771 28.9886 168.772 29.0669C168.772 30.1538 168.767 31.2406 168.775 32.3274C168.778 32.6814 168.723 32.8647 168.271 32.8629C166.302 32.8551 164.332 32.8692 162.362 32.8537C161.359 32.8458 160.357 32.7853 159.362 32.636C158.579 32.5185 157.806 32.3557 157.062 32.0677C155.089 31.304 153.825 29.8471 153.214 27.7579C153.004 27.0424 152.887 26.3087 152.817 25.5637C152.754 24.8842 152.743 24.204 152.762 23.5237C152.792 22.4339 152.911 21.3544 153.244 20.3161C154.033 17.8576 155.598 16.1589 157.903 15.2045C158.747 14.8554 159.626 14.6573 160.528 14.5544C161.066 14.4929 161.605 14.4675 162.144 14.4886C164.259 14.5711 166.184 15.2267 167.836 16.639C168.916 17.5627 169.637 18.7354 169.956 20.165C170.064 20.6519 170.119 21.1461 170.122 21.6438C170.131 22.8221 170.126 24.0007 170.125 25.1792C170.124 25.6635 170.064 25.7266 169.61 25.7268C167.589 25.7276 165.57 25.727 163.55 25.727ZM161.62 21.6139C162.962 21.6139 164.305 21.6141 165.648 21.6137C165.761 21.6137 165.874 21.6196 165.986 21.6068C166.209 21.5813 166.294 21.4799 166.303 21.2499C166.304 21.2237 166.303 21.1974 166.302 21.1713C166.258 20.4249 166.019 19.7672 165.493 19.2415C165.199 18.9482 164.857 18.7334 164.483 18.571C163.97 18.348 163.434 18.2264 162.883 18.1588C161.864 18.034 160.855 18.0704 159.859 18.3405C159.161 18.5299 158.505 18.8138 157.938 19.2928C157.55 19.6208 157.254 20.0198 157.082 20.5134C156.996 20.7613 156.943 21.0167 156.95 21.2819C156.955 21.4772 157.03 21.5703 157.216 21.5988C157.327 21.6157 157.441 21.6131 157.554 21.6133C158.909 21.6143 160.265 21.6139 161.62 21.6139Z" fill="black"/>
<path d="M123.878 32.8617C122.003 32.8617 120.129 32.8635 118.254 32.8594C118.029 32.859 117.802 32.8386 117.578 32.8075C117.115 32.743 116.719 32.529 116.385 32.1891C115.937 31.7342 115.606 31.1973 115.355 30.6052C115.038 29.8561 114.868 29.0699 114.795 28.2549C114.687 27.0486 114.828 25.8766 115.215 24.7388C115.487 23.9405 115.894 23.2254 116.473 22.6188C117.026 22.0397 117.691 21.7565 118.468 21.7439C118.657 21.741 118.846 21.7428 119.035 21.7428C120.871 21.7428 122.708 21.743 124.545 21.7422C124.683 21.7422 124.822 21.7406 124.959 21.7298C125.375 21.6972 125.706 21.4979 125.933 21.1385C126.301 20.5562 126.34 19.9355 126.053 19.3094C125.857 18.8812 125.517 18.6226 125.058 18.5601C124.884 18.5365 124.707 18.5306 124.532 18.5304C121.777 18.5286 119.022 18.5294 116.266 18.5282C116.128 18.5282 115.99 18.5235 115.853 18.5072C115.726 18.4923 115.65 18.4062 115.635 18.2738C115.625 18.1832 115.624 18.091 115.623 17.9996C115.623 17.0045 115.623 16.0092 115.623 15.014C115.623 14.9227 115.623 14.8301 115.636 14.7399C115.656 14.5919 115.74 14.507 115.884 14.4894C115.971 14.4787 116.059 14.4823 116.147 14.4823C119.267 14.4821 122.387 14.4829 125.507 14.4813C125.886 14.4811 126.26 14.5192 126.629 14.6092C127.55 14.8334 128.272 15.3792 128.856 16.1316C129.445 16.8895 129.791 17.7701 129.992 18.7139C130.148 19.4442 130.225 20.1838 130.224 20.9339C130.22 24.7052 130.223 28.4764 130.222 32.2476C130.222 32.3392 130.226 32.4314 130.22 32.5226C130.204 32.7309 130.116 32.8303 129.916 32.8543C129.804 32.8676 129.69 32.8615 129.576 32.8615C127.677 32.8619 125.777 32.8617 123.878 32.8617ZM122.761 28.7228C123.679 28.7228 124.598 28.723 125.516 28.7226C125.616 28.7226 125.718 28.7266 125.817 28.716C125.978 28.6989 126.058 28.6092 126.079 28.4363C126.085 28.3846 126.086 28.3318 126.086 28.2795C126.086 27.4023 126.088 26.5251 126.085 25.6476C126.083 25.2581 126.012 25.189 125.645 25.1795C125.632 25.1791 125.62 25.1793 125.607 25.1793C123.733 25.1793 121.859 25.179 119.984 25.1809C119.872 25.1811 119.757 25.19 119.648 25.2155C119.249 25.3094 118.98 25.5759 118.826 25.9569C118.558 26.6184 118.573 27.2879 118.856 27.9382C119.083 28.4583 119.462 28.7413 120.044 28.7279C120.949 28.7075 121.855 28.7228 122.761 28.7228Z" fill="black"/>
<path d="M85.3907 14.4831C87.1639 14.4831 88.9373 14.4807 90.7105 14.4841C91.6409 14.4858 92.4783 14.7794 93.2032 15.3978C93.6687 15.7949 94.0116 16.2873 94.1995 16.8886C94.425 17.6101 94.3547 18.3093 94.0281 18.9815C93.8624 19.3226 93.6383 19.6195 93.3797 19.8895C92.7427 20.5548 92.1076 21.2223 91.4718 21.889C89.6349 23.8149 87.7975 25.7402 85.9624 27.6678C85.8487 27.7873 85.735 27.9144 85.6536 28.0581C85.506 28.3182 85.6173 28.5249 85.904 28.5493C86.0157 28.5587 86.1287 28.5528 86.2411 28.5528C88.6263 28.553 91.0114 28.5528 93.3966 28.553C93.509 28.553 93.6218 28.5483 93.7335 28.5577C93.9115 28.5729 94.003 28.6662 94.029 28.8515C94.038 28.9158 94.0365 28.982 94.0365 29.0474C94.0369 30.1474 94.0315 31.2474 94.0399 32.3474C94.0425 32.6964 93.964 32.8775 93.5576 32.862C93.358 32.8543 93.1581 32.8608 92.9581 32.8608C89.574 32.8608 86.1897 32.8618 82.8056 32.8598C82.1537 32.8595 81.5104 32.7877 80.888 32.5671C80.5188 32.4362 80.1716 32.2607 79.8621 32.0116C79.3018 31.5606 78.9512 30.9809 78.877 30.2315C78.8375 29.8316 78.9068 29.4491 79.0305 29.0753C79.2008 28.5599 79.4873 28.1174 79.8364 27.7185C79.9797 27.5546 80.1321 27.3992 80.2825 27.242C82.7073 24.7101 85.1323 22.1787 87.5571 19.647C87.6367 19.5639 87.7235 19.4863 87.7915 19.3935C87.8426 19.3236 87.8824 19.2371 87.9028 19.1514C87.9292 19.041 87.888 18.9388 87.7889 18.8858C87.7132 18.8453 87.6277 18.8127 87.5439 18.8038C87.3953 18.7881 87.2449 18.7899 87.095 18.7899C84.7224 18.7891 82.3495 18.7895 79.9769 18.7887C79.8523 18.7887 79.726 18.7922 79.6033 18.7742C79.4399 18.7502 79.3644 18.6574 79.3464 18.4873C79.3394 18.4224 79.3408 18.3566 79.3408 18.2912C79.3404 17.1912 79.3404 16.0912 79.3406 14.9912C79.3406 14.9258 79.3385 14.86 79.3447 14.7949C79.3646 14.5843 79.4493 14.4994 79.6587 14.485C79.7582 14.4782 79.8585 14.4829 79.9584 14.4829C81.769 14.4829 83.5799 14.4829 85.3906 14.4829L85.3907 14.4831Z" fill="black"/>
<path d="M96.8137 20.198C96.8137 16.2298 96.8137 12.2614 96.8137 8.29323C96.8137 8.18847 96.8109 8.08352 96.8147 7.97896C96.8262 7.65388 96.9074 7.57506 97.2362 7.56406C97.2617 7.56327 97.2874 7.56386 97.3129 7.56386C98.3727 7.56386 99.4323 7.56268 100.492 7.56445C100.937 7.56524 101.006 7.63678 101.012 8.08116C101.012 8.13344 101.012 8.18592 101.012 8.23839C101.012 16.2143 101.012 24.19 101.012 32.1658C101.012 32.2838 101.017 32.4023 101.007 32.5192C100.988 32.7299 100.897 32.827 100.699 32.8561C100.636 32.8653 100.571 32.8624 100.507 32.8626C99.4476 32.863 98.388 32.8632 97.3282 32.8624C97.2518 32.8624 97.1742 32.8634 97.0992 32.8506C96.9161 32.8192 96.8325 32.7272 96.8187 32.5351C96.8093 32.4048 96.8139 32.2734 96.8139 32.1425C96.8137 28.1607 96.8137 24.1793 96.8137 20.198Z" fill="black"/>
<path d="M172.801 20.2248C172.801 16.23 172.801 12.2352 172.801 8.24037C172.801 8.10947 172.797 7.97778 172.809 7.84786C172.824 7.68532 172.92 7.59098 173.082 7.57152C173.17 7.5609 173.26 7.56385 173.349 7.56385C174.384 7.56346 175.418 7.56346 176.452 7.56385C176.541 7.56385 176.631 7.56189 176.72 7.57171C176.864 7.58764 176.95 7.67667 176.98 7.81976C176.993 7.88324 176.997 7.94928 176.999 8.01434C177.002 8.10593 177 8.19771 177 8.28931C177 16.2396 177 24.1899 176.999 32.1402C176.999 32.2839 177.002 32.4291 176.984 32.571C176.963 32.7396 176.873 32.8255 176.709 32.8513C176.622 32.865 176.531 32.8623 176.442 32.8623C175.433 32.8629 174.424 32.8633 173.416 32.8625C172.83 32.8621 172.8 32.8299 172.8 32.2086C172.801 28.2144 172.801 24.2196 172.801 20.2248Z" fill="black"/>
<path d="M113.232 32.7946C113.116 32.825 113.047 32.8565 112.978 32.8584C112.742 32.8651 112.505 32.8616 112.269 32.8616C111.187 32.8616 110.105 32.8616 109.023 32.8616C108.924 32.8616 108.824 32.8659 108.725 32.859C108.504 32.8439 108.317 32.751 108.177 32.5667C108.122 32.4954 108.071 32.4213 108.019 32.3476C106.115 29.6307 104.21 26.9147 102.309 24.1955C102.177 24.0069 102.057 23.8048 101.962 23.5936C101.713 23.0417 101.718 22.481 101.958 21.924C102.087 21.6234 102.266 21.3579 102.473 21.111C103.961 19.3339 105.448 17.5557 106.936 15.7778C107.199 15.4635 107.471 15.1568 107.723 14.8332C107.911 14.5917 108.133 14.4807 108.432 14.4825C109.813 14.4904 111.193 14.4853 112.574 14.487C112.681 14.4872 112.821 14.4452 112.869 14.586C112.911 14.7122 112.802 14.8006 112.729 14.8876C112.074 15.6753 111.417 16.4619 110.761 17.2486C109.341 18.9498 107.921 20.6506 106.501 22.3519C106.468 22.3912 106.434 22.4293 106.404 22.4711C106.266 22.6654 106.266 22.8028 106.407 23.0043C108.533 26.0363 110.66 29.0676 112.785 32.1005C112.931 32.3083 113.097 32.504 113.232 32.7946Z" fill="black"/>
<path d="M107.312 46.5459C107.318 46.2542 107.283 45.9855 107.337 45.703C107.407 45.7127 107.458 45.7123 107.504 45.7273C107.973 45.8787 108.456 45.9489 108.943 45.9985C109.357 46.0408 109.766 46.0067 110.165 45.8822C110.651 45.7302 110.942 45.394 111.057 44.9013C111.087 44.7756 111.107 44.6464 111.117 44.5176C111.127 44.389 111.119 44.259 111.119 44.101C111.069 44.1241 111.019 44.1323 110.992 44.1619C110.426 44.791 109.695 44.9246 108.909 44.831C107.98 44.7203 107.362 44.1889 107.022 43.3164C106.879 42.9504 106.813 42.5692 106.776 42.1814C106.711 41.5191 106.729 40.86 106.888 40.2115C106.937 40.0114 107.003 39.8122 107.088 39.6254C107.457 38.8188 108.093 38.3693 108.96 38.2409C109.28 38.1934 109.599 38.1798 109.921 38.2376C110.295 38.3049 110.64 38.4328 110.93 38.6871C110.975 38.7258 111.025 38.7577 111.107 38.8182C111.122 38.6645 111.133 38.5538 111.144 38.4443C111.428 38.383 111.932 38.382 112.262 38.4452C112.266 38.5149 112.276 38.59 112.276 38.6653C112.277 40.4027 112.28 42.1404 112.274 43.8778C112.272 44.3185 112.229 44.7563 112.091 45.1813C111.811 46.0435 111.229 46.5765 110.364 46.7944C110.129 46.8537 109.882 46.8796 109.639 46.8888C109.02 46.9123 108.403 46.8851 107.797 46.736C107.636 46.6969 107.473 46.6617 107.312 46.5459ZM111.063 41.4568C111.063 41.198 111.074 40.9384 111.06 40.6804C111.044 40.3817 110.979 40.0922 110.848 39.8196C110.7 39.5096 110.46 39.3012 110.138 39.2062C109.814 39.1109 109.485 39.0842 109.148 39.1689C108.777 39.2619 108.495 39.4645 108.299 39.789C108.17 40.0009 108.087 40.2321 108.047 40.4771C107.938 41.1464 107.952 41.8175 108.023 42.4894C108.048 42.7358 108.11 42.9728 108.207 43.2002C108.311 43.4439 108.465 43.6468 108.687 43.7935C109.343 44.2276 110.271 44.0317 110.697 43.3688C110.838 43.1489 110.924 42.9064 110.987 42.6537C111.084 42.2598 111.084 41.8584 111.063 41.4568Z" fill="black"/>
<path d="M163.102 44.3767C163.079 44.4773 163.093 44.593 163.09 44.7061C163.088 44.8248 163.09 44.9434 163.09 45.0621C163.09 45.1807 163.09 45.2994 163.09 45.4182C163.09 45.5371 163.09 45.6555 163.09 45.7742C163.09 45.8928 163.09 46.0115 163.09 46.1303C163.09 46.2492 163.09 46.3676 163.09 46.4865C163.09 46.6036 163.09 46.7204 163.09 46.8585C162.706 46.9254 162.339 46.8813 161.951 46.889C161.939 46.8048 161.919 46.7311 161.919 46.6574C161.917 43.9804 161.918 41.3035 161.918 38.6264C161.918 38.5628 161.925 38.4992 161.929 38.4206C162.117 38.3655 162.297 38.3974 162.472 38.3915C162.638 38.3859 162.803 38.3903 162.975 38.3903C163.065 38.6302 162.99 38.8793 163.109 39.1244C163.173 39.0465 163.217 38.9859 163.267 38.931C163.765 38.3845 164.378 38.1399 165.104 38.2118C165.295 38.2306 165.487 38.2619 165.673 38.3103C166.38 38.4941 166.876 38.9415 167.173 39.6198C167.311 39.9341 167.398 40.2651 167.422 40.6102C167.466 41.2425 167.467 41.8755 167.414 42.507C167.381 42.9034 167.279 43.2849 167.106 43.643C166.785 44.3076 166.278 44.7402 165.572 44.9185C165.077 45.0435 164.581 45.0579 164.086 44.9119C163.785 44.8232 163.512 44.6835 163.282 44.4617C163.245 44.4258 163.204 44.3941 163.163 44.3631C163.157 44.3579 163.141 44.367 163.102 44.3767ZM166.232 41.5277C166.232 41.4808 166.238 41.3748 166.231 41.2696C166.206 40.8877 166.179 40.506 166.033 40.1459C165.884 39.7792 165.656 39.4884 165.295 39.3215C164.71 39.0505 163.743 39.139 163.233 39.9117C163.144 40.046 163.091 40.1821 163.093 40.3517C163.1 41.1702 163.098 41.9886 163.095 42.8071C163.094 43.0274 163.15 43.2274 163.272 43.4025C163.631 43.9213 164.139 44.1374 164.744 44.0976C165.321 44.0598 165.733 43.7534 165.97 43.2118C166.028 43.0803 166.074 42.942 166.11 42.8028C166.215 42.4048 166.237 41.9968 166.232 41.5277Z" fill="black"/>
<path d="M141.489 38.395C141.802 38.3932 142.073 38.3904 142.345 38.391C142.404 38.3912 142.464 38.4031 142.535 38.4108C142.559 38.6461 142.58 38.8641 142.607 39.137C142.683 39.0583 142.724 39.0205 142.76 38.9775C143.248 38.391 143.859 38.1361 144.592 38.2128C144.741 38.2283 144.891 38.243 145.035 38.2796C145.95 38.5113 146.493 39.143 146.729 40.0861C146.786 40.3139 146.822 40.5533 146.827 40.7883C146.838 41.3288 146.84 41.8705 146.816 42.4103C146.796 42.8888 146.672 43.3456 146.45 43.7679C146.07 44.4905 145.479 44.8782 144.716 44.9858C144.343 45.0383 143.972 45.0342 143.606 44.9202C143.302 44.8259 143.026 44.6842 142.797 44.4493C142.763 44.4146 142.724 44.3853 142.692 44.357C142.603 44.3984 142.627 44.4727 142.627 44.5322C142.625 45.1919 142.626 45.8519 142.626 46.5117C142.625 46.6276 142.621 46.7436 142.618 46.8773C142.535 46.8855 142.475 46.8962 142.416 46.8962C142.12 46.8966 141.824 46.894 141.558 46.8926C141.519 46.8559 141.507 46.8486 141.502 46.8377C141.496 46.827 141.495 46.8125 141.495 46.7997C141.493 44.1209 141.491 41.442 141.489 38.7632C141.489 38.6584 141.489 38.5535 141.489 38.395ZM142.635 41.5722C142.635 41.9684 142.645 42.3649 142.633 42.7607C142.621 43.1347 142.765 43.4257 143.014 43.6686C143.301 43.9481 143.646 44.0914 144.031 44.1045C144.667 44.1263 145.137 43.8423 145.409 43.2229C145.467 43.0921 145.517 42.9546 145.547 42.8144C145.708 42.071 145.703 41.3209 145.593 40.5717C145.554 40.3109 145.463 40.0633 145.323 39.839C145.182 39.6127 145.001 39.4396 144.768 39.3259C144.219 39.0579 143.298 39.1275 142.791 39.8719C142.686 40.0257 142.626 40.1854 142.632 40.3836C142.644 40.7794 142.635 41.176 142.635 41.5722Z" fill="black"/>
<path d="M81.7079 44.9139C81.3375 44.9139 81.0101 44.9149 80.6827 44.9126C80.6471 44.9124 80.6115 44.8917 80.5497 44.872C80.5497 44.7453 80.5497 44.6148 80.5497 44.4846C80.5497 43.0954 80.5504 41.7064 80.5491 40.3172C80.5486 39.6431 80.2907 39.3301 79.66 39.2064C79.4419 39.1637 79.2331 39.1877 79.0232 39.2394C78.6344 39.3351 78.2913 39.5224 78.0024 39.8127C77.8324 39.9833 77.7455 40.1768 77.7481 40.4427C77.7616 41.792 77.7546 43.1414 77.7538 44.4909C77.7538 44.6208 77.7479 44.7507 77.7443 44.9036C77.3603 44.9294 76.9977 44.9177 76.6335 44.9123C76.5449 44.7674 76.5829 44.618 76.5828 44.4782C76.5797 42.4805 76.5807 40.4828 76.5807 38.4851C76.5807 37.8766 76.5799 37.2679 76.5812 36.6594C76.5814 36.5289 76.5884 36.3982 76.593 36.2495C76.9702 36.2078 77.3298 36.2239 77.711 36.2403C77.721 36.3402 77.7371 36.4282 77.7375 36.5164C77.7396 37.2441 77.7381 37.9717 77.7394 38.6994C77.7396 38.7995 77.7269 38.9036 77.7737 39.043C77.8561 38.9703 77.9101 38.924 77.9628 38.8761C78.6483 38.2527 79.4448 38.0537 80.3261 38.218C81.0614 38.355 81.5692 38.927 81.6834 39.7267C81.7115 39.9224 81.7268 40.122 81.7272 40.3198C81.731 41.7751 81.7297 43.2304 81.7287 44.6856C81.7289 44.7483 81.7177 44.8117 81.7079 44.9139Z" fill="black"/>
<path d="M152.991 43.6124C153.013 43.6531 153.035 43.6747 153.035 43.6965C153.037 43.9865 153.037 44.2765 153.037 44.5574C152.955 44.6847 152.831 44.7225 152.719 44.7683C151.894 45.1047 151.044 45.2149 150.174 45.024C148.994 44.7652 148.196 43.839 148.039 42.5563C147.948 41.8181 147.956 41.082 148.115 40.3529C148.134 40.2633 148.16 40.1747 148.187 40.0873C148.472 39.1628 149.142 38.3286 150.475 38.2109C150.835 38.1791 151.193 38.2142 151.541 38.3139C152.53 38.5974 153.112 39.312 153.374 40.3438C153.507 40.8687 153.535 41.4081 153.507 41.9437C153.408 42.0569 153.291 42.0139 153.186 42.0141C151.975 42.0173 150.765 42.0159 149.554 42.0167C149.433 42.0167 149.312 42.0244 149.194 42.0286C149.116 43.167 149.759 43.9917 150.779 44.0838C151.405 44.1403 152.008 44.021 152.592 43.7807C152.726 43.7252 152.86 43.6678 152.991 43.6124ZM152.333 41.0261C152.358 40.7722 152.306 40.528 152.238 40.2919C152.087 39.7602 151.763 39.4125 151.248 39.2785C150.955 39.2022 150.659 39.1967 150.368 39.2565C149.855 39.3624 149.51 39.6974 149.326 40.2168C149.233 40.4758 149.192 40.7472 149.188 41.0275C149.231 41.0436 149.265 41.0678 149.299 41.068C150.273 41.0701 151.246 41.0703 152.22 41.0684C152.254 41.0684 152.288 41.044 152.333 41.0261Z" fill="black"/>
<path d="M176.981 41.9965C176.613 42.0294 176.258 42.0092 175.905 42.0126C175.547 42.0161 175.19 42.0134 174.833 42.0134C174.476 42.0134 174.118 42.0102 173.761 42.0144C173.407 42.0185 173.051 41.9946 172.7 42.0312C172.583 43.0653 173.214 43.9426 174.153 44.0658C174.737 44.1424 175.307 44.0575 175.863 43.8573C176.07 43.7826 176.273 43.6945 176.495 43.6056C176.552 43.7656 176.523 43.924 176.527 44.0778C176.532 44.2356 176.528 44.3938 176.528 44.5685C176.457 44.6158 176.39 44.6732 176.314 44.7081C175.428 45.1151 174.505 45.2347 173.57 44.9936C172.489 44.7152 171.81 43.9596 171.579 42.7964C171.411 41.9498 171.424 41.0864 171.64 40.2479C171.89 39.2791 172.452 38.6037 173.378 38.3254C174.013 38.1347 174.647 38.163 175.267 38.3947C175.848 38.6119 176.287 39.0201 176.584 39.6C176.745 39.9151 176.856 40.2503 176.913 40.6027C176.986 41.0557 177.028 41.5119 176.981 41.9965ZM172.677 41.0436C172.754 41.0561 172.801 41.0703 172.848 41.0703C173.783 41.0717 174.718 41.0721 175.652 41.0695C175.709 41.0693 175.767 41.043 175.849 41.0224C175.809 40.7749 175.791 40.5373 175.731 40.3122C175.584 39.7624 175.253 39.3963 174.721 39.2789C174.519 39.2344 174.306 39.2227 174.1 39.2306C173.467 39.2549 173.011 39.6295 172.804 40.2712C172.728 40.5098 172.698 40.7565 172.677 41.0436Z" fill="black"/>
<path d="M68.6425 43.5942C68.6425 43.9551 68.6425 44.2703 68.6425 44.5909C68.558 44.6383 68.483 44.6894 68.4014 44.7247C67.5428 45.0963 66.6515 45.2156 65.737 45.0333C64.4739 44.7814 63.6458 43.8975 63.4671 42.5805C63.3694 41.8611 63.3721 41.1302 63.5291 40.4142C63.5823 40.172 63.6662 39.9318 63.77 39.7072C64.1098 38.9726 64.6749 38.5058 65.4356 38.3041C65.9902 38.157 66.5503 38.1677 67.1047 38.3197C67.9108 38.5407 68.4759 39.0544 68.817 39.8362C68.9708 40.1884 69.0521 40.5614 69.099 40.9419C69.1406 41.2816 69.1282 41.6231 69.1226 41.9917C68.9951 42.0006 68.8849 42.0147 68.7748 42.0149C67.5345 42.0165 66.2941 42.0155 65.0538 42.0165C64.9281 42.0165 64.8024 42.0236 64.6811 42.0272C64.5601 43.0849 65.1986 43.9464 66.1806 44.0703C66.8546 44.1553 67.5048 44.0374 68.1375 43.799C68.2918 43.7409 68.4434 43.6751 68.6425 43.5942ZM64.6678 41.0279C64.9471 41.084 66.9865 41.1124 67.7662 41.0711C67.8131 41.0688 67.8587 41.045 67.9006 41.0325C67.9246 40.7626 67.8835 40.5166 67.81 40.2774C67.6712 39.8255 67.3978 39.4944 66.9594 39.3301C66.6031 39.1965 66.2327 39.1862 65.866 39.2603C65.4756 39.3392 65.1565 39.5469 64.9475 39.908C64.7477 40.2534 64.6471 40.6254 64.6678 41.0279Z" fill="black"/>
<path d="M160.581 41.5551C160.583 42.0061 160.553 42.4506 160.42 42.8864C160.04 44.1275 159.021 44.8411 157.877 44.9105C157.479 44.9347 157.084 44.9161 156.699 44.7947C155.733 44.4896 155.106 43.8224 154.831 42.8256C154.609 42.0215 154.61 41.1995 154.812 40.3875C155.098 39.234 156.021 38.2609 157.504 38.2025C157.841 38.1892 158.174 38.2204 158.5 38.301C159.552 38.561 160.198 39.2532 160.469 40.3308C160.57 40.7323 160.584 41.1432 160.581 41.5551ZM159.432 41.5983C159.432 41.4315 159.44 41.2641 159.43 41.0979C159.41 40.7625 159.343 40.4359 159.206 40.1302C158.956 39.5712 158.529 39.2611 157.938 39.1987C157.791 39.1831 157.641 39.1811 157.493 39.1883C156.824 39.2207 156.348 39.5548 156.078 40.1916C156.018 40.3316 155.972 40.4795 155.937 40.6281C155.814 41.1596 155.828 41.6991 155.886 42.236C155.921 42.5551 156.012 42.8636 156.165 43.1481C156.402 43.5896 156.758 43.8667 157.236 43.9607C157.392 43.9913 157.557 43.9909 157.717 43.9882C158.509 43.9747 159.048 43.5559 159.293 42.7757C159.413 42.3923 159.447 41.9982 159.432 41.5983Z" fill="black"/>
<path d="M125.833 41.5813C125.832 41.2083 125.842 40.8373 125.929 40.4713C126.22 39.2451 127.164 38.2632 128.642 38.2026C129.029 38.1868 129.41 38.2312 129.784 38.3384C130.65 38.5869 131.236 39.1503 131.528 40.0271C131.616 40.2919 131.677 40.5725 131.707 40.8508C131.777 41.4918 131.778 42.1335 131.609 42.763C131.27 44.0266 130.269 44.8509 129.002 44.9128C128.615 44.9318 128.231 44.9169 127.858 44.7996C126.83 44.476 126.207 43.7538 125.935 42.6907C125.841 42.3267 125.831 41.9547 125.833 41.5813ZM126.967 41.5516C126.997 41.8318 127.017 42.1136 127.059 42.3918C127.104 42.6851 127.208 42.9588 127.35 43.219C127.936 44.2929 129.685 44.2179 130.228 43.2576C130.333 43.0714 130.422 42.8672 130.475 42.6595C130.598 42.1854 130.63 41.6991 130.591 41.2083C130.564 40.8744 130.522 40.5444 130.401 40.2308C130.199 39.7059 129.841 39.3595 129.303 39.2324C128.985 39.1572 128.66 39.1545 128.342 39.2222C127.88 39.3206 127.526 39.5889 127.303 40.0228C127.227 40.1688 127.169 40.3264 127.121 40.485C127.019 40.8306 126.979 41.1872 126.967 41.5516Z" fill="black"/>
<path d="M105.785 41.5928C105.793 42 105.761 42.4445 105.624 42.8804C105.253 44.0557 104.261 44.8295 103.001 44.9093C102.59 44.9354 102.182 44.9174 101.785 44.7965C100.803 44.4977 100.155 43.8467 99.864 42.8673C99.618 42.0394 99.6184 41.1919 99.8404 40.3558C100.153 39.179 101.141 38.2432 102.643 38.2012C102.979 38.1917 103.31 38.2224 103.634 38.2995C104.754 38.5666 105.422 39.2868 105.689 40.3998C105.78 40.7783 105.788 41.163 105.785 41.5928ZM100.898 41.5708C100.908 41.763 100.91 41.9561 100.93 42.1471C100.967 42.5077 101.063 42.8525 101.242 43.1701C101.482 43.5974 101.845 43.8621 102.322 43.9581C102.471 43.988 102.627 43.9886 102.78 43.9878C103.671 43.983 104.245 43.5428 104.485 42.6755C104.649 42.0852 104.658 41.4825 104.571 40.8813C104.535 40.63 104.467 40.3766 104.369 40.1427C104.17 39.6641 103.806 39.356 103.298 39.2374C102.957 39.158 102.61 39.1536 102.27 39.2278C101.81 39.3282 101.452 39.587 101.231 40.0091C101.137 40.189 101.066 40.384 101.006 40.5787C100.906 40.9007 100.903 41.236 100.898 41.5708Z" fill="black"/>
<path d="M95.6672 41.5408C95.6642 41.992 95.6389 42.4363 95.5064 42.8734C95.156 44.0279 94.2135 44.8237 92.9724 44.9086C92.5748 44.9358 92.1791 44.9182 91.7947 44.7983C90.844 44.5017 90.2142 43.853 89.931 42.8738C89.6916 42.0462 89.6931 41.1989 89.9044 40.3622C90.1957 39.2089 91.1343 38.2467 92.612 38.2014C92.9486 38.1909 93.2811 38.2249 93.6066 38.3076C94.6757 38.5791 95.3081 39.2982 95.5642 40.3929C95.5962 40.5298 95.624 40.6698 95.6346 40.8098C95.6534 41.0527 95.6573 41.2971 95.6672 41.5408ZM90.9302 41.551C90.9395 41.7433 90.9419 41.9361 90.9594 42.1276C90.9936 42.5019 91.0897 42.859 91.2722 43.1864C91.5016 43.5979 91.8421 43.8586 92.2908 43.9525C92.4468 43.9851 92.6103 43.9847 92.7705 43.9876C93.4438 44.0002 94.1343 43.6554 94.388 42.7308C94.5568 42.1152 94.5731 41.4893 94.4811 40.8618C94.4462 40.6233 94.3871 40.3817 94.2969 40.1597C94.0601 39.5768 93.6213 39.2577 93.0153 39.1979C92.8315 39.1798 92.6434 39.1794 92.4598 39.1971C91.9317 39.248 91.5219 39.5095 91.2613 39.9916C91.1655 40.1686 91.0973 40.3647 91.0386 40.5591C90.941 40.8809 90.9352 41.2163 90.9302 41.551Z" fill="black"/>
<path d="M88.398 44.9051C88.2715 44.9112 88.1728 44.9197 88.0743 44.9197C87.8103 44.9197 87.5461 44.9161 87.2579 44.914C87.2498 44.7778 87.2372 44.6644 87.237 44.551C87.2357 43.2076 87.2361 41.864 87.2361 40.5206C87.2361 40.4153 87.2285 40.3092 87.237 40.2046C87.2731 39.7594 87.029 39.3161 86.4058 39.2065C85.7227 39.0861 85.1341 39.3144 84.6453 39.823C84.4959 39.9783 84.4289 40.1554 84.4306 40.3862C84.4405 41.7559 84.4357 43.1258 84.435 44.4956C84.435 44.6245 84.4285 44.7535 84.4249 44.8883C84.3551 44.9011 84.3063 44.9175 84.2575 44.9179C83.9426 44.9203 83.6277 44.9191 83.2947 44.9191C83.2799 44.8405 83.2583 44.7796 83.2583 44.7187C83.2566 42.6772 83.257 40.6356 83.2579 38.5943C83.2579 38.5431 83.2684 38.4919 83.2761 38.4204C83.6302 38.3642 83.9773 38.3992 84.3279 38.3957C84.424 38.6364 84.3275 38.8877 84.4416 39.1272C84.5158 39.0557 84.5775 38.9938 84.6413 38.9345C85.3315 38.2923 86.1374 38.0726 87.0357 38.269C87.764 38.4281 88.2689 39.0257 88.3758 39.8044C88.4006 39.9863 88.4097 40.172 88.4101 40.356C88.413 41.8049 88.412 43.2536 88.4114 44.7025C88.4114 44.7541 88.4048 44.8061 88.398 44.9051Z" fill="black"/>
<path d="M75.0419 38.6483C75.0419 39.0175 75.0419 39.3848 75.0419 39.7551C74.9272 39.8056 74.8539 39.7131 74.7728 39.6679C74.2155 39.3581 73.6229 39.2389 72.9989 39.3031C72.4649 39.3581 72.0636 39.6349 71.7993 40.1332C71.6627 40.3908 71.5827 40.6692 71.5504 40.9565C71.4899 41.4946 71.4775 42.0349 71.5967 42.5687C71.6196 42.6711 71.6462 42.7733 71.6807 42.8717C71.9469 43.6333 72.5161 44.0535 73.2874 44.0438C73.779 44.0376 74.2525 43.9285 74.6984 43.7022C74.7979 43.6517 74.8976 43.6013 74.9846 43.5573C75.014 43.567 75.0288 43.5674 75.0357 43.5753C75.0434 43.584 75.047 43.5997 75.047 43.6123C75.0475 43.941 75.0474 44.2697 75.0474 44.5979C74.8987 44.7373 74.7242 44.81 74.5494 44.8767C73.7991 45.163 73.0341 45.1941 72.2689 44.9686C71.3563 44.6997 70.7531 44.0648 70.4808 43.1154C70.2069 42.1609 70.2047 41.1856 70.4789 40.2303C70.8369 38.9833 71.813 38.2321 73.0506 38.2014C73.5147 38.1899 73.9734 38.2291 74.4221 38.3618C74.6376 38.4259 74.847 38.5067 75.0419 38.6483Z" fill="black"/>
<path d="M60.6245 37.2437C59.9444 37.2367 59.3064 37.2451 58.675 37.2385C58.6108 36.8858 58.6129 36.5262 58.6776 36.223C60.3601 36.223 62.045 36.223 63.7269 36.223C63.7952 36.5007 63.8009 36.8051 63.7447 37.2252C63.1125 37.2656 62.4741 37.22 61.837 37.2499C61.7386 37.3839 61.7848 37.5358 61.7845 37.6751C61.7811 39.9307 61.7823 42.1865 61.7819 44.4421C61.7819 44.5856 61.778 44.7293 61.776 44.8661C61.4607 44.9358 60.9891 44.9376 60.6465 44.8711C60.6182 44.2436 60.637 43.6099 60.6337 42.9768C60.6304 42.34 60.633 41.7031 60.633 41.0663C60.633 40.4427 60.6343 39.819 60.6326 39.1955C60.6308 38.5608 60.6407 37.9258 60.6245 37.2437Z" fill="black"/>
<path d="M124.031 44.8714C123.711 44.9339 123.218 44.9357 122.882 44.8771C122.864 44.518 122.877 44.1536 122.875 43.7896C122.872 43.4236 122.874 43.0577 122.874 42.6917C122.874 42.3258 122.874 41.9598 122.874 41.5939C122.874 41.2279 122.875 40.862 122.874 40.496C122.873 40.1322 122.871 39.7684 122.87 39.3995C122.588 39.3001 122.313 39.3989 122.044 39.3236C121.996 39.064 122.02 38.809 122.026 38.5274C122.322 38.516 122.597 38.5052 122.873 38.4946C122.901 38.2216 122.914 37.9736 122.956 37.7306C122.988 37.5394 123.04 37.3475 123.112 37.1681C123.3 36.7015 123.644 36.3946 124.124 36.2895C124.783 36.1452 125.418 36.233 126.024 36.5807C126.009 36.7539 125.909 36.8782 125.85 37.0167C125.794 37.1455 125.723 37.2673 125.648 37.4132C125.539 37.3664 125.448 37.3248 125.356 37.2881C125.175 37.216 124.987 37.1863 124.792 37.1924C124.465 37.2024 124.243 37.367 124.129 37.6882C124.05 37.9073 124.033 38.115 124.067 38.4713C124.274 38.5488 124.493 38.4999 124.707 38.5088C124.909 38.5172 125.112 38.5105 125.308 38.5105C125.38 38.8198 125.381 39.0222 125.316 39.3591C124.907 39.3893 124.487 39.3521 124.048 39.3825C124.019 39.8588 124.037 40.3134 124.034 40.7672C124.031 41.2246 124.033 41.6821 124.033 42.1397C124.033 42.5972 124.033 43.0545 124.033 43.5121C124.032 43.9673 124.032 44.4225 124.031 44.8714Z" fill="black"/>
<path d="M137.433 40.0992C137.127 40.0992 136.831 40.0992 136.53 40.0992C136.506 39.9694 136.488 39.854 136.462 39.7407C136.398 39.4596 136.227 39.2779 135.978 39.2108C135.478 39.0762 135.024 39.1824 134.643 39.5799C134.481 39.7498 134.389 39.9441 134.397 40.2059C134.411 40.7311 134.401 41.2573 134.401 41.7829C134.401 42.6766 134.401 43.5703 134.401 44.4641C134.401 44.5949 134.401 44.7257 134.401 44.8504C134.152 44.935 133.605 44.9431 133.279 44.8695C133.279 42.7334 133.279 40.5948 133.279 38.4345C133.455 38.3656 133.635 38.4023 133.81 38.3978C133.975 38.3936 134.143 38.384 134.329 38.4163C134.34 38.5976 134.349 38.7633 134.358 38.9233C134.443 38.9774 134.47 38.9064 134.508 38.8612C135.047 38.2263 135.722 38.0821 136.455 38.2855C137.018 38.4418 137.341 38.89 137.446 39.5123C137.478 39.7019 137.507 39.9001 137.433 40.0992Z" fill="black"/>
<path d="M169.937 44.9029C169.527 44.926 169.168 44.9234 168.791 44.9065C168.791 42.034 168.791 39.2019 168.792 36.3697C168.792 36.3331 168.812 36.2968 168.828 36.2404C168.926 36.2348 169.023 36.2249 169.12 36.2247C169.381 36.2239 169.642 36.2199 169.911 36.2282C169.922 36.3216 169.936 36.386 169.936 36.4504C169.937 39.2551 169.937 42.0596 169.937 44.9029Z" fill="black"/>
<path d="M97.2703 36.2231C97.5871 36.2231 97.9132 36.2225 98.2391 36.2245C98.2607 36.2247 98.2824 36.2452 98.3203 36.2646C98.3258 36.304 98.3392 36.3539 98.3392 36.4038C98.3401 39.2228 98.3401 42.0418 98.3401 44.8707C98.1418 44.9477 97.9539 44.9095 97.7709 44.9151C97.5967 44.9202 97.4224 44.9125 97.2771 44.9107C97.1781 44.828 97.1988 44.7437 97.1988 44.6689C97.1977 41.9545 97.1975 39.2401 97.199 36.5257C97.1992 36.4251 97.1675 36.3122 97.2703 36.2231Z" fill="black"/>
<path d="M24.6104 0C38.1779 0.0407739 49.1742 10.9835 49.1659 24.6019C49.1576 38.2281 38.1304 49.1948 24.5367 49.1659C10.8245 49.1366 -0.0190843 37.994 2.52184e-05 24.5495C0.0191348 11.1264 10.8768 0.0203869 24.6104 0ZM3.13993 24.5648C3.09641 36.3206 12.6418 46.0152 24.5516 46.0341C36.3793 46.0528 45.9893 36.5022 46.0343 24.6714C46.0797 12.7599 36.4422 3.14171 24.5944 3.1381C12.679 3.13449 3.11934 12.8147 3.13993 24.5648Z" fill="#F66F2A"/>
<path d="M33.0594 21.6811C33.102 22.5123 32.4858 23.5438 31.1911 23.6143C30.7925 23.6361 30.4097 23.5135 30.0668 23.2962C29.7338 23.0853 29.3994 22.8769 29.0652 22.6677C25.7004 20.5623 22.3353 18.4569 18.9703 16.352C18.3498 15.9639 17.7299 15.5746 17.1062 15.1913C16.6168 14.8907 16.2758 14.4882 16.1492 13.9208C15.9314 12.9464 16.4915 11.9841 17.4597 11.6853C17.971 11.5276 18.466 11.5728 18.9351 11.8268C19.17 11.9539 19.3963 12.0977 19.623 12.2393C22.6782 14.1497 25.7326 16.0614 28.7876 17.9722C29.8973 18.6663 31.0066 19.3613 32.1185 20.0521C32.4247 20.2422 32.6709 20.4832 32.8421 20.7985C32.9988 21.0878 33.0838 21.3931 33.0594 21.6811Z" fill="#F66F2A"/>
<path d="M33.0615 28.7719C33.106 29.6138 32.4347 30.6142 31.2167 30.6981C30.7946 30.7272 30.4095 30.5859 30.0548 30.3626C29.5881 30.0689 29.1232 29.7721 28.6582 29.4758C25.6049 27.5311 22.5521 25.5862 19.4986 23.6417C18.6876 23.1253 17.877 22.608 17.0635 22.0955C16.6531 21.8368 16.3652 21.4875 16.2043 21.0254C15.8249 19.9364 16.5272 18.5781 17.9357 18.4691C18.3419 18.4376 18.7187 18.5549 19.0636 18.7701C19.4475 19.0096 19.8293 19.2527 20.2108 19.4956C23.8724 21.8272 27.5341 24.1594 31.1957 26.4911C31.4818 26.6733 31.771 26.8512 32.055 27.0368C32.1848 27.1216 32.3136 27.2112 32.4285 27.3146C32.8518 27.6952 33.0644 28.1731 33.0615 28.7719Z" fill="#F66F2A"/>
<path d="M33.0625 35.8896C33.1088 37.2308 31.5582 38.2923 30.1979 37.5335C29.8403 37.3342 29.502 37.0994 29.1561 36.879C26.1027 34.9317 23.0501 32.9834 19.9965 31.0365C19.0543 30.4358 18.1111 29.8363 17.1664 29.2393C16.8264 29.0246 16.5297 28.7737 16.3361 28.4087C15.6704 27.1526 16.5174 25.7498 17.7355 25.5722C18.2364 25.4993 18.6876 25.5993 19.1088 25.8654C19.6589 26.2129 20.2064 26.5646 20.7551 26.9145C24.4893 29.2939 28.2234 31.6733 31.9572 34.053C32.0644 34.1214 32.1736 34.1883 32.2745 34.2655C32.7908 34.6603 33.0664 35.1788 33.0625 35.8896Z" fill="#F66F2A"/>
<path d="M18.0355 37.7869C17.0013 37.7878 16.1374 36.9792 16.1036 35.9567C16.0874 35.4674 16.2305 35.0184 16.5656 34.6456C16.659 34.5418 16.7616 34.4454 16.8657 34.352C17.2722 33.9872 17.6803 33.6241 18.0896 33.2625C18.1945 33.1698 18.3014 33.0783 18.4147 32.9966C19.4769 32.2296 21.0825 32.7164 21.4128 34.1122C21.5745 34.7957 21.3887 35.3905 20.9028 35.8788C20.5382 36.2454 20.1342 36.5733 19.7469 36.9175C19.5901 37.0571 19.4353 37.1995 19.272 37.3316C18.9129 37.6227 18.5041 37.7867 18.0355 37.7869Z" fill="#F66F2A"/>
<path d="M29.6352 16.7452C28.8093 16.7759 28.1043 16.2457 27.8458 15.5594C27.5574 14.7939 27.6786 14.0851 28.2706 13.5104C28.8139 12.9831 29.3795 12.4736 29.9731 12.0037C31.0408 11.1585 32.6383 11.6841 32.9864 12.9939C33.1748 13.702 33.0238 14.3614 32.4708 14.8832C32.0933 15.2396 31.697 15.5762 31.3085 15.9213C31.1825 16.0331 31.0532 16.1413 30.9278 16.2537C30.556 16.5866 30.1238 16.7595 29.6352 16.7452Z" fill="#F66F2A"/>
</svg>
