<svg width="110" height="120" viewBox="0 0 110 120" fill="none" xmlns="http://www.w3.org/2000/svg">
<path fill-rule="evenodd" clip-rule="evenodd" d="M61.3647 97.6039C62.7174 97.3989 64.0701 97.2841 65.0539 97.3579C66.6772 97.5055 68.3743 98.2354 69.7516 99.1786C71.0879 100.138 72.1947 101.254 72.621 102.238C70.1533 103.115 66.6444 103.673 63.7996 103.648C61.1925 103.673 58.2903 101.491 57.2081 99.0637C56.7162 97.9648 55.8308 98.0878 56.3719 96.8904C57.0851 95.3075 58.0771 93.29 59.1019 91.9532C61.2909 89.1976 65.9885 86.7208 68.2431 85.8432C67.2183 87.7869 66.0951 90.1817 64.439 92.6421C63.8242 93.5525 62.9059 94.471 61.832 95.3157C60.5612 96.3163 59.7496 96.751 58.3641 97.5301L56.8064 98.3994L58.1263 98.1862C59.2003 98.0058 60.2743 97.7679 61.3647 97.6039Z" fill="#D19E4D"/>
<path fill-rule="evenodd" clip-rule="evenodd" d="M72.2767 93.6511C73.4655 93.2246 74.6788 92.8719 75.5888 92.7653C77.0891 92.6095 78.7616 92.9703 80.1881 93.5772C81.5736 94.2087 82.787 95.0289 83.3445 95.849C81.2539 97.0956 78.1713 98.2192 75.5724 98.7113C73.2031 99.1952 70.1697 97.7353 68.7596 95.726C68.1201 94.8157 67.3331 95.0863 67.6118 93.9053C67.9808 92.3389 68.5219 90.3213 69.2187 88.9271C70.7108 86.032 74.5395 82.9401 76.4415 81.7345C75.8512 83.6865 75.2691 86.0648 74.1951 88.599C73.8016 89.534 73.1293 90.5346 72.3013 91.4941C71.3257 92.6341 70.6698 93.1672 69.5467 94.1267L68.2841 95.1929L69.4401 94.7582C70.3829 94.4056 71.3175 93.9955 72.2767 93.6511Z" fill="#D19E4D"/>
<path fill-rule="evenodd" clip-rule="evenodd" d="M81.8113 89.3204C82.8853 88.656 84.0003 88.0574 84.8693 87.7703C86.304 87.3028 88.0175 87.311 89.5342 87.6063C91.0263 87.9343 92.3708 88.4838 93.0922 89.1727C91.305 90.8212 88.5176 92.5681 86.0827 93.585C83.8609 94.5528 80.598 93.7573 78.7943 92.076C77.9827 91.3215 77.2612 91.7479 77.2858 90.5341C77.3186 88.9267 77.4252 86.8436 77.8187 85.3345C78.6796 82.1852 81.7785 78.3716 83.3854 76.7969C83.2132 78.8227 83.1395 81.2748 82.6148 83.9731C82.418 84.9654 81.9671 86.089 81.3604 87.2044C80.639 88.5248 80.1143 89.1809 79.2124 90.3537L78.204 91.6577L79.2452 90.9934C80.1143 90.4521 80.9505 89.8534 81.8113 89.3204Z" fill="#D19E4D"/>
<path fill-rule="evenodd" clip-rule="evenodd" d="M89.7146 82.4722C90.6574 81.7505 91.6412 81.078 92.4201 80.7253C93.7154 80.1512 95.3223 79.9954 96.7652 80.1266C98.1917 80.2907 99.5034 80.6761 100.241 81.2502C98.7328 82.9643 96.2979 84.867 94.1171 86.0562C92.1413 87.1716 89.0096 86.7369 87.1649 85.3509C86.3287 84.7194 85.7056 85.1951 85.6072 84.0469C85.4843 82.546 85.3859 80.5859 85.6072 79.1343C86.1073 76.108 88.6406 72.2452 89.9934 70.6131C90.0261 72.524 90.1901 74.8286 89.9606 77.3956C89.8786 78.3469 89.567 79.4377 89.0997 80.5367C88.5504 81.8407 88.1241 82.505 87.3945 83.686L86.5746 85.0064L87.4847 84.2847C88.2389 83.686 88.9522 83.0545 89.7146 82.4722Z" fill="#D19E4D"/>
<path fill-rule="evenodd" clip-rule="evenodd" d="M96.4782 74.304C97.2243 73.3772 98.0277 72.5079 98.7 71.983C99.8313 71.1219 101.348 70.597 102.791 70.3837C104.209 70.2115 105.578 70.2771 106.431 70.6626C105.365 72.6801 103.439 75.0913 101.594 76.7562C99.9297 78.3062 96.7815 78.6179 94.6664 77.6911C93.7072 77.2729 93.2071 77.8798 92.8545 76.789C92.379 75.3537 91.8297 73.4756 91.7068 72.0158C91.4854 68.9567 93.0513 64.61 93.9859 62.7073C94.4696 64.5608 95.1583 66.7588 95.5354 69.3094C95.6748 70.2525 95.6256 71.3843 95.4288 72.5571C95.1993 73.9513 94.9369 74.7058 94.5024 76.0181L94.0105 77.4943L94.7319 76.5839C95.3222 75.8294 95.8715 75.0503 96.4782 74.304Z" fill="#D19E4D"/>
<path fill-rule="evenodd" clip-rule="evenodd" d="M100.946 63.8391C101.422 62.7483 101.963 61.6904 102.479 61.0097C103.34 59.8861 104.668 58.9757 105.996 58.3934C107.325 57.8521 108.661 57.5569 109.587 57.6963C109.087 59.9271 107.866 62.7647 106.529 64.8561C105.332 66.7916 102.381 67.9152 100.094 67.5871C99.0606 67.4395 98.7409 68.153 98.1014 67.1935C97.2652 65.9387 96.2404 64.2656 95.7403 62.8878C94.7237 59.9927 95.0844 55.3835 95.4861 53.3086C96.4372 54.9653 97.6915 56.909 98.7245 59.271C99.1098 60.1403 99.3558 61.2475 99.4787 62.4367C99.6263 63.8391 99.5689 64.6346 99.4951 66.0207L99.4132 67.5707L99.8641 66.5045C100.241 65.6188 100.561 64.7167 100.946 63.8391Z" fill="#D19E4D"/>
<path fill-rule="evenodd" clip-rule="evenodd" d="M102.578 51.9803C102.717 50.7993 102.922 49.6347 103.217 48.8227C103.709 47.4941 104.717 46.2311 105.816 45.288C106.923 44.3776 108.12 43.7051 109.046 43.5739C109.218 45.8539 108.882 48.9212 108.218 51.3159C107.636 53.5139 105.152 55.4576 102.865 55.8103C101.832 55.9743 101.733 56.7452 100.848 56.0235C99.6837 55.064 98.208 53.7682 97.3226 52.6036C95.5025 50.135 94.5023 45.6242 94.2728 43.5247C95.6665 44.8287 97.4291 46.3213 99.1098 48.2733C99.7329 48.995 100.299 49.9791 100.758 51.0781C101.307 52.3739 101.487 53.153 101.823 54.4981L102.201 56.0071L102.324 54.8507C102.422 53.883 102.463 52.9316 102.578 51.9803Z" fill="#D19E4D"/>
<path fill-rule="evenodd" clip-rule="evenodd" d="M101.332 40.1785C101.143 39.0057 101.028 37.8247 101.086 36.9718C101.2 35.5611 101.824 34.0767 102.627 32.8629C103.447 31.6901 104.414 30.7142 105.267 30.3369C106.054 32.4774 106.562 35.5283 106.57 38.0133C106.611 40.2851 104.742 42.8357 102.635 43.7953C101.684 44.2299 101.799 45.0091 100.75 44.5416C99.3722 43.9347 97.6013 43.09 96.429 42.2042C94.0105 40.3261 91.8133 36.25 91.0263 34.2899C92.7233 35.1675 94.8221 36.1188 96.9701 37.5459C97.7653 38.0708 98.577 38.8663 99.323 39.793C100.208 40.892 100.586 41.5891 101.274 42.7947L102.045 44.1479L101.848 42.9997C101.701 42.0566 101.487 41.1216 101.332 40.1785Z" fill="#D19E4D"/>
<path fill-rule="evenodd" clip-rule="evenodd" d="M96.3799 28.6471C95.9372 27.6383 95.5601 26.6049 95.4125 25.8258C95.1911 24.53 95.4043 23.0538 95.8388 21.7826C96.3061 20.536 96.9456 19.437 97.6178 18.9039C98.823 20.6426 99.9872 23.2588 100.569 25.4814C101.135 27.5071 100.045 30.2299 98.3885 31.5749C97.6342 32.19 97.9212 32.8544 96.8718 32.6821C95.4945 32.4607 93.7072 32.108 92.4611 31.5913C89.854 30.4678 86.9436 27.3267 85.7876 25.752C87.5175 26.1457 89.6162 26.5147 91.879 27.2939C92.7152 27.5809 93.6252 28.1058 94.5107 28.7619C95.5601 29.541 96.0601 30.0823 96.962 31.0009L97.9622 32.0342L97.5194 31.0501C97.1505 30.2545 96.7406 29.459 96.3799 28.6471Z" fill="#D19E4D"/>
<path fill-rule="evenodd" clip-rule="evenodd" d="M89.3539 19.5685C88.616 18.7565 87.9274 17.8954 87.542 17.2065C86.9108 16.0501 86.6484 14.5821 86.6566 13.237C86.6976 11.9084 86.9518 10.67 87.4273 9.9401C89.1243 11.2031 91.0673 13.3026 92.3299 15.23C93.5104 16.9686 93.3547 19.8965 92.2151 21.709C91.6986 22.5291 92.1823 23.0704 91.1329 23.2427C89.7556 23.4723 87.952 23.7183 86.5992 23.6199C83.7708 23.3903 80.0078 21.3481 78.4009 20.2246C80.1635 20.0441 82.2705 19.7161 84.6644 19.7325C85.5499 19.7407 86.5746 19.9457 87.624 20.282C88.8702 20.6838 89.5179 21.0283 90.6574 21.6188L91.9364 22.2749L91.1985 21.4876C90.5918 20.8315 89.9524 20.2164 89.3539 19.5685Z" fill="#D19E4D"/>
<path fill-rule="evenodd" clip-rule="evenodd" d="M81.2538 13.6797C80.4504 13.081 79.6797 12.4248 79.2124 11.8672C78.45 10.9404 77.9581 9.66921 77.7285 8.46361C77.5399 7.26622 77.5481 6.10163 77.8433 5.37171C79.5813 6.20824 81.6883 7.7665 83.1558 9.26734C84.5168 10.6288 84.8857 13.2778 84.1724 15.0985C83.8527 15.9268 84.3774 16.3287 83.4674 16.6649C82.2704 17.1078 80.6963 17.6409 79.4666 17.7885C76.8923 18.0756 73.1538 16.8864 71.5224 16.1565C73.0719 15.689 74.9083 15.0329 77.0563 14.631C77.8515 14.4834 78.8107 14.4916 79.8109 14.6146C80.9997 14.7622 81.6391 14.9591 82.7623 15.2871L84.0248 15.6562L83.2296 15.0739C82.5819 14.6064 81.9015 14.1635 81.2538 13.6797Z" fill="#D19E4D"/>
<path fill-rule="evenodd" clip-rule="evenodd" d="M72.4981 9.3908C71.8176 8.88232 71.1618 8.33283 70.7682 7.85715C70.1206 7.06983 69.7025 5.99545 69.5139 4.97029C69.3499 3.95332 69.3581 2.96917 69.6123 2.34587C71.088 3.05938 72.8752 4.37159 74.1132 5.651C75.2691 6.79919 75.5807 9.04635 74.974 10.5964C74.7034 11.2935 75.1461 11.638 74.3755 11.925C73.3589 12.3023 72.0226 12.7533 70.9814 12.8764C68.8006 13.1142 65.6361 12.1136 64.2505 11.4985C65.5623 11.1049 67.12 10.5472 68.94 10.2027C69.6123 10.0797 70.4239 10.0797 71.2765 10.1863C72.2767 10.3094 72.826 10.4816 73.777 10.7604L74.8428 11.0721L74.1705 10.58C73.6213 10.1781 73.0474 9.80907 72.4981 9.3908Z" fill="#D19E4D"/>
<path fill-rule="evenodd" clip-rule="evenodd" d="M64.4391 5.69172C63.7341 5.37186 63.0454 5.01101 62.6027 4.66655C61.873 4.09246 61.291 3.22312 60.922 2.34558C60.5777 1.47624 60.3974 0.598697 60.4957 0C61.9468 0.344456 63.7915 1.16459 65.1442 2.05033C66.3985 2.84586 67.1118 4.78137 66.874 6.27401C66.7675 6.94652 67.2348 7.16795 66.6035 7.56982C65.7755 8.10291 64.6769 8.76722 63.7751 9.07887C61.8813 9.71857 58.8725 9.44793 57.5197 9.16908C58.6101 8.56218 59.8809 7.75845 61.4385 7.10234C62.0124 6.8563 62.7339 6.70048 63.5127 6.63487C64.4309 6.54465 64.9474 6.59387 65.8493 6.65128L66.8577 6.71688L66.1608 6.41344C65.5951 6.1674 65.0048 5.94596 64.4391 5.69172Z" fill="#D19E4D"/>
<path fill-rule="evenodd" clip-rule="evenodd" d="M48.2227 97.6039C46.87 97.3989 45.5173 97.2841 44.5335 97.3579C42.9102 97.5055 41.2132 98.2354 39.8358 99.1786C38.4995 100.138 37.3927 101.254 36.9664 102.238C39.4341 103.115 42.943 103.673 45.796 103.648C48.4031 103.673 51.3053 101.491 52.3875 99.0637C52.8794 97.9648 53.7648 98.0878 53.2237 96.8904C52.5105 95.3075 51.5185 93.29 50.4937 91.9532C48.3129 89.1976 43.6153 86.7208 41.3525 85.8432C42.3773 87.7869 43.5005 90.1817 45.1566 92.6421C45.7714 93.5525 46.6897 94.471 47.7636 95.3157C49.0344 96.3163 49.846 96.751 51.2315 97.5301L52.7892 98.3994L51.4693 98.1862C50.3871 98.0058 49.3131 97.7679 48.2227 97.6039Z" fill="#D19E4D"/>
<path fill-rule="evenodd" clip-rule="evenodd" d="M37.3107 93.6511C36.1219 93.2246 34.9086 92.8719 33.9986 92.7653C32.4983 92.6095 30.8258 92.9703 29.3993 93.5772C28.0056 94.2087 26.8004 95.0289 26.2429 95.849C28.3335 97.0956 31.4161 98.2192 34.015 98.7113C36.3843 99.1952 39.4177 97.7353 40.8278 95.726C41.4673 94.8157 42.2543 95.0863 41.9756 93.9053C41.6066 92.3389 41.0737 90.3213 40.3687 88.9271C38.8766 86.032 35.0479 82.9401 33.1459 81.7345C33.7362 83.6865 34.3183 86.0648 35.3923 88.599C35.7858 89.534 36.4581 90.5346 37.2861 91.4941C38.2617 92.6341 38.9176 93.1672 40.0407 94.1267L41.3033 95.1929L40.1473 94.7582C39.2045 94.4056 38.2699 93.9955 37.3107 93.6511Z" fill="#D19E4D"/>
<path fill-rule="evenodd" clip-rule="evenodd" d="M27.7759 89.3204C26.7019 88.656 25.5869 88.0574 24.7261 87.7703C23.2914 87.3028 21.578 87.311 20.0613 87.6063C18.5692 87.9343 17.2246 88.4838 16.5032 89.1727C18.2904 90.8212 21.0697 92.5681 23.5128 93.585C25.7345 94.5528 28.9975 93.7573 30.8011 92.076C31.6127 91.3215 32.3342 91.7479 32.3096 90.5341C32.2768 88.9267 32.1702 86.8436 31.7767 85.3345C30.9159 82.1852 27.8087 78.3716 26.21 76.7969C26.3822 78.8227 26.456 81.2748 26.9807 83.9731C27.1692 84.9654 27.6201 86.089 28.235 87.2044C28.9565 88.5248 29.4812 89.1809 30.3912 90.3537L31.3996 91.6577L30.3584 90.9934C29.473 90.4521 28.6449 89.8534 27.7759 89.3204Z" fill="#D19E4D"/>
<path fill-rule="evenodd" clip-rule="evenodd" d="M19.8727 82.4722C18.9299 81.7505 17.9461 81.078 17.1673 80.7253C15.8719 80.1512 14.265 79.9954 12.8221 80.1266C11.3956 80.2907 10.0839 80.6761 9.34604 81.2502C10.8545 82.9643 13.2894 84.867 15.4702 86.0562C17.446 87.1716 20.5778 86.7369 22.4224 85.3509C23.2586 84.7194 23.8817 85.1951 23.9801 84.0469C24.1031 82.546 24.2014 80.5859 23.9801 79.1343C23.48 76.108 20.9467 72.2452 19.594 70.6131C19.553 72.524 19.3972 74.8286 19.6268 77.3956C19.7087 78.3469 20.0203 79.4377 20.4876 80.5367C21.0369 81.8407 21.4632 82.505 22.1928 83.686L23.0127 85.0064L22.1027 84.2847C21.3484 83.686 20.6352 83.0545 19.8727 82.4722Z" fill="#D19E4D"/>
<path fill-rule="evenodd" clip-rule="evenodd" d="M13.1093 74.304C12.3632 73.3772 11.5598 72.5079 10.8875 71.983C9.75612 71.1219 8.23943 70.597 6.80472 70.3837C5.37821 70.2115 4.00908 70.2771 3.16465 70.6626C4.23044 72.6801 6.15705 75.0913 8.00168 76.7562C9.66594 78.3062 12.8141 78.6179 14.9293 77.6911C15.8885 77.2729 16.3886 77.8798 16.7411 76.789C17.2084 75.3537 17.7659 73.4756 17.8807 72.0158C18.102 68.9567 16.5362 64.61 15.6015 62.7073C15.1178 64.5608 14.4292 66.7588 14.0521 69.3094C13.9127 70.2525 13.9619 71.3843 14.1586 72.5571C14.3882 73.9513 14.6505 74.7058 15.085 76.0181L15.5769 77.4943L14.8555 76.5839C14.2652 75.8294 13.7159 75.0503 13.1093 74.304Z" fill="#D19E4D"/>
<path fill-rule="evenodd" clip-rule="evenodd" d="M8.64106 63.8391C8.16555 62.7483 7.62447 61.6904 7.10797 61.0097C6.24715 59.8861 4.91901 58.9757 3.59088 58.3934C2.26275 57.8521 0.926413 57.5569 0 57.6963C0.500099 59.9271 1.72166 62.7647 3.05799 64.8561C4.25494 66.7916 7.20635 67.9152 9.49369 67.5871C10.5267 67.4395 10.8464 68.153 11.4859 67.1935C12.3221 65.9387 13.3469 64.2656 13.847 62.8878C14.8636 59.9927 14.5029 55.3835 14.1012 53.3086C13.1502 54.9653 11.904 56.909 10.8628 59.271C10.4857 60.1403 10.2315 61.2475 10.1086 62.4367C9.96099 63.8391 10.0184 64.6346 10.0922 66.0207L10.1742 67.5707L9.72324 66.5045C9.34612 65.6188 9.02638 64.7167 8.64106 63.8391Z" fill="#D19E4D"/>
<path fill-rule="evenodd" clip-rule="evenodd" d="M7.00956 51.9803C6.87019 50.7993 6.66523 49.6347 6.37009 48.8227C5.87819 47.4941 4.86979 46.2311 3.77122 45.288C2.66444 44.3776 1.46748 43.7051 0.541064 43.5739C0.368899 45.8539 0.696835 48.9212 1.3691 51.3159C1.95118 53.5139 4.44348 55.4576 6.72262 55.8103C7.75561 55.9743 7.85399 56.7452 8.73941 56.0235C9.90358 55.064 11.3793 53.7682 12.2647 52.6036C14.0847 50.135 15.0931 45.6242 15.3145 43.5247C13.9126 44.8287 12.1581 46.3213 10.4775 48.2733C9.85438 48.995 9.2887 49.9791 8.82139 51.0781C8.27211 52.3739 8.09174 53.153 7.75561 54.4981L7.37848 56.0071L7.26371 54.8507C7.16533 53.883 7.12434 52.9316 7.00956 51.9803Z" fill="#D19E4D"/>
<path fill-rule="evenodd" clip-rule="evenodd" d="M8.25574 40.1785C8.4443 39.0057 8.55908 37.8247 8.50169 36.9718C8.38692 35.5611 7.76384 34.0767 6.96041 32.8629C6.14057 31.6901 5.17317 30.7142 4.32054 30.3369C3.5335 32.4774 3.0252 35.5283 3.017 38.0133C2.97601 40.2851 4.84523 42.8357 6.95221 43.7953C7.90321 44.2299 7.78843 45.0091 8.83782 44.5416C10.2233 43.9347 11.986 43.09 13.1584 42.2042C15.5769 40.3261 17.7658 36.25 18.5611 34.2899C16.864 35.1675 14.7652 36.1188 12.6091 37.5459C11.8138 38.0708 11.0022 38.8663 10.2561 39.793C9.37072 40.892 8.9936 41.5891 8.30493 42.7947L7.53429 44.1479L7.73105 42.9997C7.88682 42.0566 8.10817 41.1216 8.25574 40.1785Z" fill="#D19E4D"/>
<path fill-rule="evenodd" clip-rule="evenodd" d="M13.2075 28.6471C13.6502 27.6383 14.0273 26.6049 14.1749 25.8258C14.3963 24.53 14.1831 23.0538 13.7486 21.7826C13.2813 20.536 12.6418 19.437 11.9695 18.9039C10.7644 20.6426 9.60022 23.2588 9.01814 25.4814C8.45245 27.5071 9.54283 30.2299 11.1989 31.5749C11.9531 32.19 11.6662 32.8544 12.7156 32.6821C14.0929 32.4607 15.8802 32.108 17.1263 31.5913C19.7334 30.4678 22.6438 27.3267 23.808 25.752C22.0781 26.1457 19.9793 26.5147 17.7166 27.2939C16.8804 27.5809 15.9703 28.1058 15.0849 28.7619C14.0355 29.541 13.5354 30.0823 12.6418 31.0009L11.6416 32.0342L12.0843 31.0501C12.4369 30.2545 12.8468 29.459 13.2075 28.6471Z" fill="#D19E4D"/>
<path fill-rule="evenodd" clip-rule="evenodd" d="M20.2336 19.5685C20.9714 18.7565 21.6683 17.8954 22.0536 17.2065C22.6767 16.0501 22.9472 14.5821 22.939 13.237C22.898 11.9084 22.6439 10.67 22.1766 9.9401C20.4795 11.2031 18.5365 13.3026 17.274 15.23C16.0934 16.9686 16.2492 19.8965 17.3887 21.709C17.9052 22.5291 17.4215 23.0704 18.4709 23.2427C19.8482 23.4723 21.6519 23.7183 23.0046 23.6199C25.833 23.3903 29.5961 21.3481 31.2029 20.2246C29.4403 20.0441 27.3333 19.7161 24.9476 19.7325C24.0622 19.7407 23.0374 19.9457 21.988 20.282C20.7419 20.6838 20.0942 21.0283 18.9546 21.6188L17.6757 22.2749L18.4053 21.4876C18.9956 20.8315 19.6351 20.2164 20.2336 19.5685Z" fill="#D19E4D"/>
<path fill-rule="evenodd" clip-rule="evenodd" d="M28.3335 13.6797C29.1369 13.081 29.9076 12.4248 30.3749 11.8672C31.1373 10.9404 31.6374 9.66921 31.8588 8.46361C32.0473 7.26622 32.0391 6.10163 31.744 5.37171C30.006 6.20824 27.899 7.7665 26.4315 9.26734C25.0705 10.6288 24.7016 13.2778 25.4149 15.0985C25.7346 15.9268 25.2099 16.3287 26.1199 16.6649C27.3169 17.1078 28.891 17.6409 30.1207 17.7885C32.695 18.0756 36.4335 16.8864 38.0649 16.1565C36.5154 15.689 34.679 15.0329 32.531 14.631C31.7358 14.4834 30.7766 14.4916 29.7764 14.6146C28.5876 14.7622 27.9482 14.9591 26.8168 15.2871L25.5542 15.6562L26.3495 15.0739C27.0054 14.6064 27.6858 14.1635 28.3335 13.6797Z" fill="#D19E4D"/>
<path fill-rule="evenodd" clip-rule="evenodd" d="M37.0894 9.3908C37.7698 8.88232 38.4257 8.33283 38.8192 7.85715C39.4669 7.06983 39.885 5.99545 40.0736 4.97029C40.2375 3.95332 40.2293 2.96917 39.9752 2.34587C38.4995 3.05938 36.7122 4.37159 35.4743 5.651C34.3183 6.79919 34.015 9.04635 34.6135 10.5964C34.884 11.2935 34.4413 11.638 35.2119 11.925C36.2285 12.3023 37.5649 12.7533 38.6061 12.8764C40.795 13.1142 43.9514 12.1136 45.3369 11.4985C44.0252 11.1049 42.4675 10.5472 40.6474 10.2027C39.9752 10.0797 39.1636 10.0797 38.3109 10.1863C37.3025 10.3094 36.7614 10.4816 35.8104 10.7604L34.7446 11.0721L35.4169 10.58C35.9662 10.1781 36.5401 9.80907 37.0894 9.3908Z" fill="#D19E4D"/>
<path fill-rule="evenodd" clip-rule="evenodd" d="M45.1566 5.69172C45.8616 5.37186 46.5503 5.01101 46.993 4.66655C47.7226 4.09246 48.3047 3.22312 48.6737 2.34558C49.018 1.47624 49.1983 0.598697 49.1 0C47.6488 0.344456 45.8042 1.16459 44.4515 2.05033C43.1972 2.84586 42.4839 4.78137 42.7216 6.27401C42.8282 6.94652 42.3609 7.16795 42.9922 7.56982C43.8202 8.10291 44.9188 8.76722 45.8206 9.07887C47.7144 9.71857 50.7232 9.44793 52.076 9.16908C50.9856 8.56218 49.7148 7.75845 48.1572 7.10234C47.5833 6.8563 46.8618 6.70048 46.083 6.63487C45.1648 6.54465 44.6483 6.59387 43.7464 6.65128L42.738 6.71688L43.4349 6.41344C44.0006 6.1674 44.5827 5.94596 45.1566 5.69172Z" fill="#D19E4D"/>
<path d="M32.7605 74.0822L61.4793 27.9497C55.7897 27.9497 52.3955 28.0071 51.3052 28.1137C50.2148 28.2204 49.2146 28.368 48.3046 28.5648C45.1154 29.1881 42.6149 30.6808 40.7949 33.0345C39.7127 34.4534 38.4912 36.9794 37.1138 40.6044H35.0642L36.6137 25.3991H75.81V26.5883L47.2798 72.7208C57.4703 72.7208 64.3487 71.9498 67.9068 70.4162C71.4649 68.8825 74.1867 64.5768 76.0642 57.5155H78.0072L76.0642 75.2878H32.7605V74.0822Z" fill="#D19E4D"/>
<path d="M11.3981 118.883L11.6637 116.553H11.4754C11.3691 117.066 11.1775 117.476 10.9005 117.782C10.6236 118.088 10.2935 118.298 9.91023 118.412C9.67514 118.485 9.26293 118.522 8.67359 118.522H7.4273L11.2773 112.435H6.10371L5.92497 114.322H6.10371C6.17778 114.012 6.28003 113.755 6.41045 113.552C6.54088 113.349 6.70512 113.187 6.90317 113.065C7.10123 112.943 7.31297 112.861 7.5384 112.82C7.65756 112.798 7.90553 112.786 8.28231 112.786H9.25327L5.39844 118.883H11.3981ZM14.885 118.883V118.707C14.5436 118.682 14.3295 118.644 14.2425 118.593C14.0944 118.507 14.0203 118.374 14.0203 118.193C14.0203 118.057 14.0654 117.884 14.1556 117.675L14.4309 117.047H16.7448L17.0926 117.851C17.1828 118.06 17.2311 118.179 17.2375 118.208C17.2568 118.268 17.2665 118.327 17.2665 118.384C17.2665 118.479 17.2311 118.552 17.1602 118.602C17.0572 118.672 16.8784 118.707 16.624 118.707H16.4936V118.883H19.6625V118.707C19.4628 118.691 19.3082 118.634 19.1987 118.536C19.0538 118.406 18.8686 118.09 18.6432 117.589L16.281 112.301H16.1893L13.8464 117.447C13.6242 117.938 13.4374 118.262 13.2861 118.419C13.1347 118.576 12.9415 118.672 12.7064 118.707V118.883H14.885ZM16.5805 116.695H14.6L15.6048 114.475L16.5805 116.695ZM24.101 118.883V118.707C23.8015 118.707 23.597 118.68 23.4875 118.626C23.378 118.572 23.3016 118.5 23.2581 118.41C23.2146 118.319 23.1929 118.1 23.1929 117.751V115.944H23.6228L25.7338 118.883H27.7965V118.707C27.6226 118.697 27.4696 118.644 27.3375 118.545C27.2506 118.476 27.1041 118.3 26.898 118.017L25.3232 115.835C25.7225 115.736 26.0333 115.589 26.2555 115.392C26.6033 115.082 26.7772 114.689 26.7772 114.213C26.7772 113.823 26.6613 113.483 26.4294 113.193C26.1975 112.903 25.898 112.704 25.5309 112.596C25.1638 112.488 24.5841 112.435 23.7919 112.435H20.7486V112.61C21.0481 112.61 21.2526 112.637 21.3621 112.691C21.4716 112.745 21.5481 112.817 21.5915 112.908C21.635 112.998 21.6567 113.218 21.6567 113.566V117.751C21.6567 118.1 21.635 118.319 21.5915 118.407C21.5481 118.496 21.4724 118.568 21.3645 118.624C21.2566 118.679 21.0513 118.707 20.7486 118.707V118.883H24.101ZM23.4682 115.606H23.1929V112.782H23.7098C24.2282 112.782 24.6042 112.899 24.8377 113.134C25.0712 113.368 25.1879 113.731 25.1879 114.223C25.1879 114.562 25.1243 114.837 24.9971 115.048C24.8699 115.258 24.6952 115.404 24.473 115.485C24.2508 115.566 23.9159 115.606 23.4682 115.606ZM30.7568 118.883V118.707C30.4155 118.682 30.2013 118.644 30.1144 118.593C29.9662 118.507 29.8922 118.374 29.8922 118.193C29.8922 118.057 29.9373 117.884 30.0274 117.675L30.3028 117.047H32.6166L32.9644 117.851C33.0546 118.06 33.1029 118.179 33.1094 118.208C33.1287 118.268 33.1383 118.327 33.1383 118.384C33.1383 118.479 33.1029 118.552 33.0321 118.602C32.929 118.672 32.7503 118.707 32.4959 118.707H32.3654V118.883H35.5343V118.707C35.3347 118.691 35.1801 118.634 35.0706 118.536C34.9257 118.406 34.7405 118.09 34.5151 117.589L32.1529 112.301H32.0611L29.7183 117.447C29.4961 117.938 29.3093 118.262 29.1579 118.419C29.0066 118.576 28.8133 118.672 28.5782 118.707V118.883H30.7568ZM32.4524 116.695H30.4718L31.4766 114.475L32.4524 116.695ZM40.084 118.883V118.707H39.8666C39.6831 118.707 39.5373 118.676 39.4294 118.614C39.3216 118.552 39.2491 118.48 39.2121 118.398C39.175 118.315 39.1565 118.109 39.1565 117.78V115.806H39.3449C39.6895 115.806 39.9978 115.904 40.27 116.099C40.5421 116.294 40.7088 116.697 40.7699 117.309H40.939V114.07H40.7699C40.7313 114.416 40.6484 114.69 40.5212 114.893C40.394 115.096 40.2386 115.24 40.055 115.326C39.8714 115.411 39.6347 115.454 39.3449 115.454H39.1565V112.805H39.7652C40.2869 112.805 40.6443 112.829 40.8376 112.877C41.1886 112.962 41.4567 113.11 41.6419 113.319C41.827 113.528 41.9422 113.85 41.9873 114.284H42.1853V112.435H36.6591V112.61H36.8765C37.06 112.61 37.2057 112.641 37.3136 112.703C37.4215 112.765 37.4932 112.837 37.5286 112.92C37.564 113.002 37.5817 113.208 37.5817 113.538V117.78C37.5817 118.103 37.564 118.303 37.5286 118.379C37.4835 118.487 37.4191 118.563 37.3354 118.607C37.2194 118.674 37.0665 118.707 36.8765 118.707H36.6591V118.883H40.084ZM46.1118 119.035C46.7688 119.035 47.3106 118.841 47.7373 118.453C48.164 118.064 48.3774 117.601 48.3774 117.062C48.3774 116.637 48.2453 116.259 47.9813 115.93C47.714 115.6 47.1971 115.25 46.4306 114.879C45.8832 114.613 45.5338 114.427 45.3824 114.322C45.1763 114.177 45.0265 114.029 44.9332 113.88C44.8655 113.769 44.8317 113.642 44.8317 113.5C44.8317 113.275 44.9275 113.076 45.1191 112.903C45.3107 112.73 45.5708 112.644 45.8993 112.644C46.3244 112.644 46.7197 112.808 47.0852 113.136C47.4507 113.464 47.6802 113.898 47.7736 114.437H47.9716L47.9185 112.287H47.7736C47.7317 112.48 47.6866 112.603 47.6383 112.653C47.59 112.704 47.524 112.729 47.4402 112.729C47.3533 112.729 47.2011 112.678 46.9838 112.575C46.7664 112.472 46.582 112.401 46.4306 112.363C46.231 112.312 46.0249 112.287 45.8123 112.287C45.2294 112.287 44.7464 112.468 44.3631 112.829C43.9799 113.191 43.7883 113.628 43.7883 114.142C43.7883 114.443 43.8583 114.719 43.9984 114.969C44.1385 115.22 44.339 115.446 44.5998 115.649C44.8607 115.852 45.289 116.098 45.8848 116.386C46.3099 116.592 46.6062 116.76 46.7736 116.888C46.9411 117.016 47.0659 117.152 47.148 117.295C47.2301 117.437 47.2712 117.585 47.2712 117.737C47.2712 117.994 47.1641 118.219 46.9499 118.412C46.7358 118.606 46.4484 118.702 46.0877 118.702C45.6207 118.702 45.1852 118.522 44.781 118.162C44.3768 117.803 44.1039 117.28 43.9622 116.596H43.7835V119.03H43.9622C44.0202 118.9 44.0958 118.804 44.1892 118.74C44.2826 118.677 44.3712 118.645 44.4549 118.645C44.5548 118.645 44.682 118.677 44.8365 118.74C45.1135 118.854 45.3438 118.932 45.5273 118.973C45.7109 119.014 45.9057 119.035 46.1118 119.035ZM53.1976 118.883V118.707H52.9802C52.7966 118.707 52.6509 118.676 52.543 118.614C52.4351 118.552 52.3627 118.48 52.3256 118.398C52.2886 118.315 52.2701 118.109 52.2701 117.78V115.782H54.584V117.78C54.584 118.103 54.5662 118.303 54.5308 118.379C54.4825 118.487 54.4165 118.563 54.3328 118.607C54.22 118.674 54.0671 118.707 53.8739 118.707H53.6613V118.883H57.0814V118.707H56.8688C56.6853 118.707 56.5387 118.676 56.4292 118.614C56.3198 118.552 56.2473 118.48 56.2119 118.398C56.1764 118.315 56.1587 118.109 56.1587 117.78V113.538C56.1587 113.214 56.1764 113.015 56.2119 112.939C56.2602 112.831 56.3262 112.755 56.4099 112.71C56.5226 112.644 56.6756 112.61 56.8688 112.61H57.0814V112.435H53.6613V112.61H53.8739C54.0574 112.61 54.2039 112.641 54.3134 112.703C54.4229 112.765 54.4954 112.837 54.5308 112.92C54.5662 113.002 54.584 113.208 54.584 113.538V115.364H52.2701V113.538C52.2701 113.214 52.2878 113.015 52.3232 112.939C52.3715 112.831 52.4375 112.755 52.5213 112.71C52.6372 112.644 52.7902 112.61 52.9802 112.61H53.1976V112.435H49.7727V112.61H49.99C50.1736 112.61 50.3193 112.641 50.4272 112.703C50.5351 112.765 50.6067 112.837 50.6422 112.92C50.6776 113.002 50.6953 113.208 50.6953 113.538V117.78C50.6953 118.103 50.6776 118.303 50.6422 118.379C50.5971 118.487 50.5327 118.563 50.4489 118.607C50.333 118.674 50.18 118.707 49.99 118.707H49.7727V118.883H53.1976ZM60.3075 118.883V118.707C59.9661 118.682 59.7519 118.644 59.665 118.593C59.5168 118.507 59.4428 118.374 59.4428 118.193C59.4428 118.057 59.4879 117.884 59.578 117.675L59.8534 117.047H62.1672L62.515 117.851C62.6052 118.06 62.6535 118.179 62.66 118.208C62.6793 118.268 62.6889 118.327 62.6889 118.384C62.6889 118.479 62.6535 118.552 62.5827 118.602C62.4796 118.672 62.3009 118.707 62.0465 118.707H61.916V118.883H65.0849V118.707C64.8853 118.691 64.7307 118.634 64.6212 118.536C64.4763 118.406 64.2911 118.09 64.0657 117.589L61.7035 112.301H61.6117L59.2689 117.447C59.0467 117.938 58.8599 118.262 58.7085 118.419C58.5572 118.576 58.3639 118.672 58.1288 118.707V118.883H60.3075ZM62.003 116.695H60.0224L61.0272 114.475L62.003 116.695ZM72.0402 119.03V113.661C72.0402 113.357 72.0668 113.142 72.1199 113.017C72.1731 112.892 72.2472 112.801 72.3422 112.746C72.4372 112.691 72.6231 112.645 72.9001 112.61V112.435H70.736V112.61C71.0999 112.604 71.3591 112.693 71.5137 112.877C71.6264 113.013 71.6828 113.275 71.6828 113.661V116.434L68.4511 112.435H66.1276V112.61C66.3272 112.617 66.4802 112.647 66.5865 112.701C66.6928 112.755 66.8151 112.867 66.9536 113.038L67.0937 113.21V117.761C67.0937 118.103 67.0229 118.346 66.8811 118.488C66.7395 118.631 66.4883 118.704 66.1276 118.707V118.883H68.4511V118.707H68.2965C68.0743 118.707 67.8771 118.642 67.7048 118.512C67.5325 118.382 67.4463 118.132 67.4463 117.761V113.661L71.876 119.03H72.0402ZM81.1396 119.03C81.6709 119.03 82.1355 118.946 82.5332 118.776C82.9309 118.606 83.3134 118.333 83.6805 117.956V117.399C83.3005 117.834 82.939 118.139 82.596 118.317C82.253 118.495 81.8754 118.583 81.4632 118.583C80.9608 118.583 80.5518 118.462 80.2363 118.22C79.9207 117.977 79.6888 117.619 79.5406 117.145C79.3925 116.671 79.3184 116.145 79.3184 115.568C79.3184 114.982 79.4199 114.449 79.6228 113.971C79.7806 113.596 80.0302 113.294 80.3715 113.062C80.7129 112.831 81.0881 112.715 81.497 112.715C81.9865 112.715 82.4245 112.87 82.811 113.181C83.1974 113.492 83.4615 113.939 83.6032 114.522H83.7916V112.287H83.6032C83.5807 112.449 83.5315 112.567 83.4559 112.641C83.3802 112.716 83.2908 112.753 83.1878 112.753C83.1073 112.753 82.9189 112.696 82.6226 112.582C82.1105 112.385 81.6243 112.287 81.1637 112.287C80.539 112.287 79.9488 112.439 79.3933 112.744C78.8378 113.048 78.3966 113.476 78.0697 114.028C77.7429 114.579 77.5794 115.163 77.5794 115.778C77.5794 116.361 77.7268 116.911 78.0214 117.428C78.3161 117.945 78.7347 118.341 79.2774 118.617C79.82 118.892 80.4408 119.03 81.1396 119.03ZM88.747 118.883V118.707H88.5296C88.3461 118.707 88.2004 118.676 88.0925 118.614C87.9846 118.552 87.9121 118.48 87.8751 118.398C87.8381 118.315 87.8195 118.109 87.8195 117.78V113.538C87.8195 113.214 87.8373 113.015 87.8727 112.939C87.921 112.831 87.987 112.755 88.0707 112.71C88.1867 112.644 88.3396 112.61 88.5296 112.61H88.747V112.435H85.3221V112.61H85.5395C85.7231 112.61 85.8688 112.641 85.9767 112.703C86.0845 112.765 86.1562 112.837 86.1916 112.92C86.2271 113.002 86.2448 113.208 86.2448 113.538V117.78C86.2448 118.103 86.2271 118.303 86.1916 118.379C86.1465 118.487 86.0821 118.563 85.9984 118.607C85.8825 118.674 85.7295 118.707 85.5395 118.707H85.3221V118.883H88.747ZM94.7749 118.883V118.707H94.5575C94.3707 118.707 94.2234 118.676 94.1155 118.614C94.0076 118.552 93.9351 118.48 93.8981 118.398C93.8611 118.315 93.8426 118.109 93.8426 117.78V112.805H94.3304C94.6364 112.805 94.8505 112.834 94.9729 112.891C95.1919 112.996 95.3642 113.136 95.4898 113.312C95.6154 113.488 95.7297 113.777 95.8328 114.18H96.0067V112.435H90.123V114.18H90.3065C90.3806 113.704 90.5577 113.338 90.8379 113.081C91.0376 112.897 91.358 112.805 91.7992 112.805H92.2726V117.78C92.2726 118.103 92.2549 118.303 92.2195 118.379C92.1712 118.487 92.1051 118.563 92.0214 118.607C91.9055 118.674 91.7525 118.707 91.5625 118.707H91.3451V118.883H94.7749ZM102.556 118.883V118.707H102.189C102.015 118.707 101.876 118.676 101.771 118.614C101.667 118.552 101.597 118.481 101.561 118.4C101.526 118.319 101.508 118.113 101.508 117.78V116.22L102.928 113.885C103.276 113.292 103.53 112.929 103.691 112.796C103.807 112.701 103.973 112.639 104.189 112.61V112.435H102.189V112.61C102.482 112.626 102.683 112.674 102.793 112.753C102.877 112.81 102.919 112.882 102.919 112.967C102.919 113.122 102.772 113.438 102.479 113.913L101.3 115.858L100.117 113.723C99.8591 113.264 99.7303 112.977 99.7303 112.863C99.7303 112.802 99.7681 112.745 99.8438 112.691C99.9195 112.637 100.052 112.61 100.242 112.61H100.382V112.435H97.2425V112.61C97.4519 112.614 97.6193 112.664 97.7449 112.76C97.8705 112.857 98.0863 113.178 98.3922 113.723L99.9332 116.486V117.78C99.9332 118.103 99.9155 118.303 99.8801 118.379C99.8317 118.487 99.7657 118.563 99.682 118.607C99.5693 118.674 99.4163 118.707 99.2231 118.707H98.8801V118.883H102.556Z" fill="#D19E4D"/>
</svg>
