<svg width="6395" height="1079" viewBox="0 0 6395 1079" fill="none" xmlns="http://www.w3.org/2000/svg">
<g clip-path="url(#clip0_1936_8133)">
<path d="M6367.02 -7.30198C6367.02 -7.30198 6144.54 180.507 6311.67 575.952C6356.63 682.327 6393.18 781.916 6396.19 852.952C6404.35 1045.72 6240.14 1121.52 6240.14 1121.52L5586.61 1094.72L5570.35 -22.751L6367.02 -7.30198Z" fill="#CCFCFF"/>
<path d="M5600.09 1081.48V1079.88H0.291016V-0.301242H5600.09V-0.323242H6359.79C6359.79 -0.323242 6171.95 197.125 6268.17 488.521C6317.33 637.421 6364.47 744.81 6372.85 850.639C6380.83 951.491 6314.87 1052.35 6204.2 1104.92C6138.35 1136.21 6059.65 1147.31 5981.18 1147.31C5789.99 1147.31 5600.09 1081.48 5600.09 1081.48Z" fill="#CCFCFF"/>
</g>
<defs>
<clipPath id="clip0_1936_8133">
<rect width="6395" height="1079" fill="white"/>
</clipPath>
</defs>
</svg>
