<svg width="114" height="151" viewBox="0 0 114 151" fill="none" xmlns="http://www.w3.org/2000/svg">
<path fill-rule="evenodd" clip-rule="evenodd" d="M20.798 14.0887V49.3977L10.399 60.8442L0 49.3977V14.0887V12.5625H5.0269V14.0887H7.87475V12.5625H12.9016V14.0887H15.7495V12.5625H20.798V14.0887ZM15.2101 20.9154H17.044V24.174H15.2101V20.9154ZM3.75399 20.9154H5.58784V24.174H3.75399V20.9154ZM9.47127 20.9154H11.3051V24.174H9.47127V20.9154ZM10.8952 0.00219727V10.6856H9.88119V0.00219727H10.8952Z" fill="#605F54"/>
<path d="M14.1739 78.7241C15.0153 78.7241 15.8351 78.8891 16.5687 79.1984C17.3238 79.5284 17.971 79.9615 18.532 80.5184C19.0713 81.0546 19.5244 81.7146 19.848 82.4365C20.1716 83.1789 20.3227 83.9627 20.3227 84.8083C20.3227 85.6539 20.1716 86.4376 19.8696 87.1801C19.546 87.9019 19.1145 88.5413 18.5751 89.0982C18.0142 89.6344 17.3669 90.0675 16.6118 90.3975C15.8567 90.7275 15.0584 90.8719 14.1739 90.8719H9.72949V78.7241H14.1739ZM13.9581 89.325C14.6054 89.325 15.2095 89.2013 15.7488 88.9538C16.2882 88.7269 16.7628 88.3969 17.1512 87.9844C17.5395 87.5719 17.8631 87.0976 18.0789 86.5613C18.2946 86.0045 18.4025 85.427 18.4025 84.8083C18.4025 84.1895 18.2946 83.5914 18.0789 83.0552C17.8631 82.4983 17.5395 82.024 17.1512 81.6115C16.7413 81.199 16.2666 80.869 15.7272 80.6421C15.1879 80.3946 14.6054 80.2709 13.9581 80.2709H11.5849V89.325H13.9581ZM26.1694 90.8719V78.7241H28.0464V90.8719H26.1694ZM33.8931 90.8719L39.071 78.7034L44.2705 90.8719H42.372L41.9836 89.9025H36.18L35.7701 90.8719H33.8931ZM36.8057 88.3351H41.358L39.071 82.7665L36.8057 88.3351ZM56.6328 87.0976L60.8183 78.7241L63.1915 90.8925H61.2929L60.0632 84.1483L56.6328 91.1193L53.2456 84.1483L52.0158 90.8925H50.1173L52.4689 78.7241L56.6328 87.0976ZM75.3596 78.6622C76.2442 78.6622 77.064 78.8272 77.8407 79.1572C78.6174 79.4665 79.3078 79.8997 79.8687 80.4565C80.4512 81.0134 80.9043 81.6734 81.2279 82.4158C81.5516 83.1583 81.7242 83.9627 81.7242 84.8083C81.7242 85.6539 81.5516 86.4376 81.2279 87.1801C80.9043 87.9226 80.4512 88.5619 79.8687 89.1188C79.3078 89.6756 78.6174 90.1088 77.8407 90.4387C77.064 90.7481 76.2442 90.9131 75.3596 90.9131C74.4966 90.9131 73.6552 90.7481 72.9001 90.4387C72.1234 90.1088 71.4546 89.6756 70.8721 89.1188C70.3111 88.5619 69.8581 87.9226 69.5345 87.1801C69.1893 86.4376 69.0382 85.6539 69.0382 84.8083C69.0382 83.9627 69.1893 83.1583 69.5345 82.4158C69.8581 81.6734 70.3111 81.0134 70.8721 80.4565C71.4546 79.8997 72.1234 79.4665 72.9001 79.1572C73.6552 78.8272 74.4966 78.6622 75.3596 78.6622ZM75.3596 89.2013C75.9637 89.2013 76.5462 89.0775 77.0856 88.8507C77.625 88.6238 78.078 88.3144 78.4879 87.9226C78.8763 87.5101 79.1999 87.0563 79.4372 86.5201C79.653 85.9839 79.7824 85.4064 79.7824 84.8083C79.7824 84.2102 79.653 83.6327 79.4372 83.0964C79.1999 82.5396 78.8763 82.0858 78.4879 81.6734C78.078 81.2815 77.625 80.9515 77.0856 80.7246C76.5462 80.4978 75.9637 80.374 75.3596 80.374C74.7555 80.374 74.1946 80.4978 73.6768 80.7246C73.1374 80.9515 72.6628 81.2815 72.2744 81.6734C71.8645 82.0858 71.5625 82.5396 71.3252 83.0964C71.0878 83.6327 70.98 84.2102 70.98 84.8083C70.98 85.4064 71.0878 85.9839 71.3252 86.5201C71.5625 87.0563 71.8645 87.5101 72.2744 87.9226C72.6628 88.3144 73.1374 88.6238 73.6768 88.8507C74.1946 89.0775 74.7555 89.2013 75.3596 89.2013ZM89.3184 83.2408V90.9131H87.5709V78.5178L95.7908 87.9226V78.7447H97.5384V90.9131H95.8556L89.3184 83.2408ZM107.851 78.7241C108.692 78.7241 109.491 78.8891 110.246 79.1984C111.001 79.5284 111.648 79.9615 112.188 80.5184C112.749 81.0546 113.202 81.7146 113.525 82.4365C113.849 83.1789 114 83.9627 114 84.8083C114 85.6539 113.849 86.4376 113.525 87.1801C113.223 87.9019 112.792 88.5413 112.231 89.0982C111.691 89.6344 111.044 90.0675 110.289 90.3975C109.534 90.7275 108.714 90.8719 107.851 90.8719H103.407V78.7241H107.851ZM107.635 89.325C108.283 89.325 108.887 89.2013 109.426 88.9538C109.965 88.7269 110.44 88.3969 110.828 87.9844C111.217 87.5719 111.519 87.0976 111.756 86.5613C111.972 86.0045 112.08 85.427 112.08 84.8083C112.08 84.1895 111.972 83.5914 111.756 83.0552C111.519 82.4983 111.217 82.024 110.828 81.6115C110.418 81.199 109.944 80.869 109.404 80.6421C108.865 80.3946 108.261 80.2709 107.635 80.2709H105.262V89.325H107.635ZM16.0077 111.125C16.7413 111.125 17.4316 110.96 18.0573 110.609C18.6614 110.279 19.1792 109.826 19.5675 109.269L21.0778 110.341C20.4952 111.104 19.7617 111.703 18.8987 112.136C18.0142 112.569 17.0649 112.796 16.0077 112.796C15.1447 112.796 14.3249 112.631 13.5698 112.321C12.7931 111.991 12.1243 111.558 11.5633 111.022C11.0024 110.465 10.5493 109.826 10.2257 109.083C9.88051 108.361 9.72949 107.578 9.72949 106.732C9.72949 105.886 9.88051 105.103 10.2257 104.36C10.5493 103.618 11.0024 102.978 11.5633 102.442C12.1243 101.885 12.7931 101.452 13.5698 101.143C14.3249 100.813 15.1447 100.648 16.0077 100.648C17.0649 100.648 18.0142 100.875 18.8987 101.328C19.7617 101.762 20.4952 102.36 21.0778 103.102L19.5675 104.195C19.1792 103.618 18.6614 103.185 18.0573 102.834C17.4316 102.504 16.7413 102.339 16.0077 102.339C15.4036 102.339 14.8427 102.442 14.3249 102.69C13.7855 102.917 13.3325 103.226 12.9441 103.618C12.5342 104.03 12.2322 104.484 11.9948 105.02C11.7575 105.556 11.6496 106.113 11.6496 106.732C11.6496 107.33 11.7575 107.908 11.9948 108.444C12.2322 108.959 12.5342 109.434 12.9441 109.826C13.3325 110.238 13.7855 110.548 14.3249 110.774C14.8427 111.001 15.4036 111.125 16.0077 111.125ZM26.9245 112.775L32.124 100.627L37.3019 112.775H35.4033L35.0366 111.826H29.2114L28.8231 112.775H26.9245ZM29.8371 110.259H34.3893L32.124 104.69L29.8371 110.259ZM50.1388 106.753C50.2036 106.794 50.2899 106.856 50.3546 106.938C50.4193 107 50.484 107.083 50.5488 107.145C50.8077 107.454 51.0234 107.805 51.1744 108.196C51.3254 108.568 51.3902 108.98 51.3902 109.393C51.3902 109.496 51.3902 109.578 51.3902 109.64C51.347 110.259 51.1528 110.816 50.7861 111.311C50.4625 111.764 50.0525 112.136 49.5347 112.404C49.0385 112.672 48.456 112.816 47.8303 112.816H46.6869C46.0612 112.816 45.5003 112.672 45.0041 112.404C44.4863 112.136 44.0764 111.764 43.7527 111.311C43.6449 111.166 43.5586 111.022 43.4723 110.836L45.0904 109.64C45.1119 109.867 45.1982 110.053 45.3061 110.238C45.414 110.424 45.5434 110.589 45.716 110.713C45.8671 110.857 46.0612 110.96 46.2554 111.043C46.4711 111.125 46.6869 111.166 46.9242 111.166H47.6146C48.0892 111.166 48.4992 111.001 48.8444 110.713C49.1896 110.424 49.4053 110.053 49.47 109.64C49.47 109.578 49.47 109.537 49.47 109.496C49.4916 109.454 49.4916 109.413 49.4916 109.372C49.4916 109.124 49.4485 108.898 49.3406 108.691C49.2543 108.485 49.1248 108.299 48.9738 108.135C48.8012 107.97 48.607 107.846 48.3913 107.743C48.1755 107.64 47.9382 107.578 47.7009 107.578H46.7085H46.6437C46.2122 107.557 45.8023 107.475 45.4356 107.33C45.0688 107.186 44.7236 106.98 44.4216 106.732C44.249 106.608 44.1195 106.485 44.0116 106.32C43.7312 106.01 43.537 105.66 43.386 105.268C43.2349 104.896 43.1486 104.484 43.1486 104.071V103.845C43.2134 103.205 43.4075 102.648 43.7527 102.174C44.0764 101.7 44.5079 101.328 45.0041 101.06C45.5219 100.792 46.0828 100.648 46.7085 100.648H47.8303C48.456 100.648 49.0385 100.792 49.5563 101.06C50.0741 101.328 50.484 101.7 50.8077 102.174C50.8508 102.215 50.8724 102.277 50.9155 102.339C50.9587 102.422 51.0018 102.483 51.0234 102.525L49.4485 103.7C49.3406 103.308 49.1248 102.978 48.8012 102.71C48.456 102.442 48.0677 102.318 47.6362 102.318H46.9458C46.7085 102.318 46.4927 102.36 46.277 102.422C46.0612 102.504 45.8671 102.607 45.716 102.752C45.5434 102.896 45.414 103.061 45.3061 103.247C45.1982 103.432 45.1119 103.638 45.0904 103.845C45.0688 103.886 45.0688 103.927 45.0688 103.968C45.0688 104.01 45.0688 104.071 45.0688 104.113C45.0688 104.34 45.1119 104.566 45.1982 104.793C45.2845 105 45.414 105.185 45.5866 105.35C45.7376 105.495 45.9318 105.639 46.1475 105.742C46.3848 105.825 46.6006 105.886 46.8595 105.907H47.8303H47.9166C48.3481 105.907 48.7365 105.99 49.1248 106.134C49.4916 106.278 49.8368 106.485 50.1388 106.753ZM57.2369 102.339V100.648H65.3706V102.339H62.2207V112.775H60.3868V102.339H57.2369ZM73.0727 100.648V111.084H78.2722V112.816H71.2173V100.648H73.0727ZM85.9528 108.135V111.022H91.6053V112.775H84.1189V100.648H91.4975V102.36H85.9528V104.278V105.268V106.485H90.9365V108.135H85.9528Z" fill="#605F54"/>
<path d="M48.607 123.54H9.72949V122.509H48.607V123.54Z" fill="#D2AE6D"/>
<path d="M11.8438 133.337C12.2537 133.337 12.6421 133.419 12.9873 133.564C13.354 133.708 13.6561 133.935 13.915 134.182C14.1954 134.45 14.3896 134.76 14.5622 135.11C14.7132 135.461 14.778 135.832 14.778 136.245C14.778 136.637 14.7132 137.008 14.5622 137.359C14.4112 137.709 14.217 138.019 13.9366 138.287C13.6777 138.555 13.3756 138.761 13.0088 138.905C12.6636 139.07 12.2753 139.132 11.8438 139.132H9.72949V133.337H11.8438ZM11.7359 138.39C12.0596 138.39 12.34 138.328 12.5989 138.225C12.8578 138.101 13.0736 137.957 13.2677 137.75C13.4619 137.565 13.6129 137.338 13.6992 137.07C13.8071 136.802 13.8718 136.534 13.8718 136.245C13.8718 135.935 13.8071 135.667 13.6992 135.399C13.6129 135.131 13.4619 134.904 13.2677 134.719C13.0736 134.512 12.8578 134.368 12.5989 134.244C12.34 134.141 12.0596 134.079 11.7359 134.079H10.6141V138.39H11.7359ZM18.4672 136.905V138.287H21.1641V139.112H17.5827V133.337H21.0993V134.162H18.4672V135.069V135.544V136.121H20.8404V136.905H18.4672ZM26.4283 136.987L27.9601 133.337H28.8878L26.4283 139.173L23.9472 133.337H24.8749L26.4283 136.987ZM32.5555 136.905V138.287H35.2523V139.112H31.6709V133.337H35.2092V134.162H32.5555V135.069V135.544V136.121H34.9287V136.905H32.5555ZM38.9416 133.337V138.307H41.4227V139.153H38.057V133.337H38.9416ZM47.2263 133.316C47.6577 133.316 48.0461 133.378 48.4129 133.543C48.7796 133.687 49.1033 133.894 49.3837 134.162C49.6426 134.43 49.8584 134.739 50.031 135.09C50.182 135.461 50.2683 135.832 50.2683 136.245C50.2683 136.637 50.182 137.029 50.031 137.379C49.8584 137.73 49.6426 138.039 49.3837 138.307C49.1033 138.555 48.7796 138.761 48.4129 138.926C48.0461 139.07 47.6577 139.153 47.2263 139.153C46.8163 139.153 46.4064 139.07 46.0396 138.926C45.6729 138.761 45.3708 138.555 45.0904 138.307C44.8099 138.039 44.5941 137.73 44.4431 137.379C44.2921 137.029 44.2058 136.637 44.2058 136.245C44.2058 135.832 44.2921 135.461 44.4431 135.09C44.5941 134.739 44.8099 134.43 45.0904 134.162C45.3708 133.894 45.6729 133.687 46.0396 133.543C46.4064 133.378 46.8163 133.316 47.2263 133.316ZM47.2263 138.328C47.5067 138.328 47.7872 138.287 48.0461 138.163C48.305 138.06 48.5207 137.915 48.7149 137.73C48.9091 137.524 49.0601 137.317 49.168 137.049C49.2758 136.802 49.3406 136.534 49.3406 136.245C49.3406 135.956 49.2758 135.667 49.168 135.42C49.0601 135.152 48.9091 134.945 48.7149 134.739C48.5207 134.554 48.305 134.409 48.0461 134.285C47.7872 134.182 47.5067 134.12 47.2263 134.12C46.9458 134.12 46.6653 134.182 46.4064 134.285C46.1691 134.409 45.9318 134.554 45.7592 134.739C45.565 134.945 45.414 135.152 45.3061 135.42C45.1982 135.667 45.1335 135.956 45.1335 136.245C45.1335 136.534 45.1982 136.802 45.3061 137.049C45.414 137.317 45.565 137.524 45.7592 137.73C45.9318 137.915 46.1691 138.06 46.4064 138.163C46.6653 138.287 46.9458 138.328 47.2263 138.328ZM57.3016 135.172C57.3016 135.193 57.3016 135.234 57.3232 135.275C57.3232 135.296 57.3232 135.337 57.3232 135.379C57.3232 135.42 57.3232 135.461 57.3232 135.482C57.3016 135.523 57.3016 135.544 57.3016 135.585L57.28 135.77C57.28 135.791 57.2585 135.791 57.2585 135.812C57.2585 135.832 57.2585 135.853 57.2585 135.874C57.2369 135.894 57.2369 135.935 57.2369 135.956C57.1506 136.204 57.0427 136.41 56.8917 136.595C56.7407 136.802 56.5465 136.946 56.3308 137.09C56.1582 137.194 55.9424 137.276 55.7267 137.338C55.5109 137.4 55.2736 137.42 55.0147 137.42H53.936V139.153H53.0514V133.316H55.0147C55.5109 133.316 55.964 133.44 56.3308 133.667C56.5465 133.791 56.7407 133.955 56.8917 134.141C57.0427 134.347 57.1506 134.554 57.2369 134.78C57.2585 134.842 57.2585 134.904 57.2585 134.945C57.2585 134.966 57.28 134.966 57.28 134.966C57.28 135.007 57.28 135.028 57.28 135.069C57.3016 135.09 57.3016 135.131 57.3016 135.152V135.172ZM55.1226 136.678C55.3168 136.678 55.4894 136.637 55.6404 136.575C55.7914 136.492 55.9208 136.41 56.0287 136.286C56.1366 136.162 56.2229 136.018 56.2876 135.874C56.3523 135.709 56.3955 135.544 56.3955 135.379C56.3955 135.214 56.3523 135.049 56.2876 134.884C56.2229 134.739 56.1366 134.595 56.0287 134.471C55.9208 134.347 55.7914 134.244 55.6404 134.182C55.4894 134.1 55.3168 134.079 55.1226 134.079H53.9576V136.678H55.1226ZM63.2347 137.338L65.2195 133.337L66.3414 139.153H65.4353L64.8528 135.915L63.2347 139.256L61.595 135.915L61.0125 139.153H60.1063L61.2282 133.337L63.2347 137.338ZM70.0091 136.905V138.287H72.7275V139.112H69.1461V133.337H72.6628V134.162H70.0091V135.069V135.544V136.121H72.4039V136.905H70.0091ZM76.3521 135.482V139.153H75.5106V133.234L79.4372 137.73V133.337H80.2786V139.153H79.4588L76.3521 135.482ZM83.0618 134.141V133.337H86.9452V134.141H85.435V139.132H84.572V134.141H83.0618ZM12.7284 149.692C13.0736 149.692 13.3972 149.609 13.6992 149.444C14.0013 149.279 14.2386 149.073 14.4112 148.805L15.1447 149.321C14.8643 149.671 14.5191 149.96 14.1091 150.166C13.6777 150.373 13.2246 150.496 12.7284 150.496C12.3185 150.496 11.9301 150.414 11.5633 150.249C11.1966 150.104 10.8729 149.898 10.6141 149.63C10.3336 149.383 10.1178 149.073 9.96681 148.723C9.79422 148.372 9.72949 148.001 9.72949 147.588C9.72949 147.196 9.79422 146.804 9.96681 146.454C10.1178 146.103 10.3336 145.794 10.6141 145.546C10.8729 145.278 11.1966 145.072 11.5633 144.928C11.9301 144.763 12.3185 144.701 12.7284 144.701C13.2246 144.701 13.6777 144.804 14.1091 145.01C14.5191 145.216 14.8643 145.505 15.1447 145.856L14.4112 146.371C14.2386 146.103 14.0013 145.897 13.6992 145.732C13.3972 145.567 13.0736 145.485 12.7284 145.485C12.4263 145.485 12.1674 145.546 11.9085 145.65C11.6712 145.773 11.4555 145.918 11.2613 146.103C11.0671 146.289 10.9161 146.516 10.8082 146.784C10.7004 147.031 10.6356 147.299 10.6356 147.588C10.6356 147.877 10.7004 148.145 10.8082 148.413C10.9161 148.661 11.0671 148.888 11.2613 149.073C11.4555 149.259 11.6712 149.403 11.9085 149.527C12.1674 149.63 12.4263 149.692 12.7284 149.692ZM20.9483 144.66C21.3798 144.66 21.7682 144.742 22.1349 144.886C22.5233 145.051 22.8253 145.258 23.1058 145.505C23.3863 145.773 23.602 146.083 23.753 146.454C23.904 146.804 23.9903 147.176 23.9903 147.588C23.9903 148.001 23.904 148.372 23.753 148.723C23.602 149.073 23.3863 149.383 23.1058 149.651C22.8253 149.919 22.5233 150.125 22.1349 150.269C21.7682 150.434 21.3798 150.496 20.9483 150.496C20.5384 150.496 20.1501 150.434 19.7833 150.269C19.4165 150.125 19.0929 149.919 18.8124 149.651C18.5535 149.383 18.3378 149.073 18.1652 148.723C18.0142 148.372 17.9279 148.001 17.9279 147.588C17.9279 147.176 18.0142 146.804 18.1652 146.454C18.3378 146.083 18.5535 145.773 18.8124 145.505C19.0929 145.258 19.4165 145.051 19.7833 144.886C20.1501 144.742 20.5384 144.66 20.9483 144.66ZM20.9483 149.692C21.2504 149.692 21.5093 149.63 21.7682 149.527C22.0271 149.403 22.2644 149.259 22.437 149.073C22.6311 148.888 22.7822 148.661 22.89 148.413C22.9979 148.145 23.0626 147.877 23.0626 147.588C23.0626 147.299 22.9979 147.031 22.89 146.763C22.7822 146.516 22.6311 146.289 22.437 146.103C22.2644 145.897 22.0271 145.753 21.7682 145.65C21.5093 145.526 21.2504 145.485 20.9483 145.485C20.6678 145.485 20.409 145.526 20.1501 145.65C19.8912 145.753 19.6754 145.897 19.4812 146.103C19.2871 146.289 19.136 146.516 19.0282 146.763C18.9203 147.031 18.8556 147.299 18.8556 147.588C18.8556 147.877 18.9203 148.145 19.0282 148.413C19.136 148.661 19.2871 148.888 19.4812 149.073C19.6754 149.259 19.8912 149.403 20.1501 149.527C20.409 149.63 20.6678 149.692 20.9483 149.692ZM29.9018 148.681L31.8867 144.68L33.0301 150.496H32.124L31.5199 147.279L29.9018 150.599L28.2837 147.279L27.6796 150.496H26.7735L27.9169 144.68L29.9018 148.681ZM40.0635 146.516C40.0635 146.557 40.0635 146.578 40.0635 146.619C40.085 146.639 40.085 146.681 40.085 146.722V146.743C40.085 146.763 40.085 146.804 40.0635 146.846C40.0635 146.866 40.0635 146.908 40.0635 146.928V146.949L40.0419 147.134L40.0203 147.155C40.0203 147.196 40.0203 147.217 40.0203 147.238C39.9987 147.258 39.9987 147.279 39.9772 147.299C39.9124 147.547 39.8046 147.774 39.6535 147.959C39.481 148.145 39.3084 148.31 39.0926 148.434C38.92 148.537 38.7043 148.619 38.4885 148.681C38.2728 148.743 38.0354 148.784 37.7766 148.784H36.6978V150.496H35.8133V144.68H37.7766C38.2728 144.68 38.7258 144.783 39.0926 145.01C39.3084 145.155 39.481 145.299 39.6535 145.505C39.8046 145.691 39.9124 145.897 39.9772 146.145C39.9987 146.206 40.0203 146.248 40.0203 146.289C40.0203 146.31 40.0419 146.31 40.0419 146.33C40.0419 146.351 40.0419 146.392 40.0419 146.413C40.0419 146.454 40.0635 146.475 40.0635 146.495V146.516ZM37.8844 148.042C38.0786 148.042 38.2512 148.001 38.4022 147.918C38.5532 147.856 38.6827 147.753 38.7906 147.629C38.8984 147.506 38.9847 147.361 39.0495 147.217C39.1142 147.052 39.1573 146.887 39.1573 146.722C39.1573 146.557 39.1142 146.392 39.0495 146.248C38.9847 146.083 38.8984 145.938 38.7906 145.815C38.6827 145.711 38.5532 145.608 38.4022 145.526C38.2512 145.464 38.0786 145.423 37.8844 145.423H36.6978V148.042H37.8844ZM42.8682 150.476L45.3493 144.68L47.8303 150.476H46.9242L46.73 150.022H43.9685L43.7743 150.476H42.8682ZM44.2705 149.279H46.428L45.3493 146.619L44.2705 149.279ZM51.4549 146.846V150.496H50.6135V144.598L54.5401 149.073V144.701H55.3815V150.496H54.5616L51.4549 146.846ZM61.8323 144.68H62.8247L60.9477 148.599V150.496H60.0416V148.599L58.1646 144.68H58.1862H58.1646H59.157L60.4947 147.774L61.8323 144.68Z" fill="#605F54"/>
<path fill-rule="evenodd" clip-rule="evenodd" d="M2.32586 50.5917C2.8868 50.7567 3.53404 50.8804 4.28915 51.0042C4.54805 51.0454 4.82852 51.0867 5.13057 51.1073L8.53936 57.4596L2.32586 50.5917ZM12.7248 0L20.2544 3.17616V4.26925H12.7248V0ZM14.7313 44.7344V36.5671C14.7313 34.2778 12.7896 32.401 10.3948 32.401C8 32.401 6.0367 34.2778 6.0367 36.5671V44.7344C6.25245 44.6725 6.48977 44.6106 6.74867 44.5694C7.67638 44.3837 8.97086 44.2806 10.3948 44.2806C11.7971 44.2806 13.0916 44.3837 14.0409 44.5694C14.2998 44.6106 14.5371 44.6725 14.7313 44.7344ZM5.28159 46.3224C5.60521 46.5287 6.10143 46.7143 6.74867 46.838C6.87811 46.8587 7.02914 46.8793 7.18016 46.8999L5.28159 50.2205C4.97954 50.1792 4.69907 50.1586 4.4186 50.1173C3.232 49.9317 2.30429 49.7048 1.7002 49.4367L5.28159 46.3224ZM19.0678 49.4367C18.4853 49.7048 17.536 49.9317 16.3278 50.1173C16.0689 50.1586 15.7885 50.1998 15.508 50.2205L13.6094 46.8999C13.7604 46.8793 13.8899 46.8587 14.0409 46.838C14.6666 46.7143 15.1628 46.5287 15.4864 46.3224L19.0678 49.4367ZM12.2502 57.4596L15.6374 51.1279C15.9395 51.0867 16.2199 51.0454 16.4788 51.0042C17.234 50.9011 17.8812 50.7567 18.4421 50.6123L12.2502 57.4596ZM12.5954 47.0237C11.9266 47.1062 11.1715 47.1268 10.3948 47.1268C9.59652 47.1268 8.84141 47.0855 8.17259 47.0237L6.2956 50.3236C7.52535 50.4473 8.92771 50.5092 10.3948 50.5092C11.8619 50.5092 13.2426 50.4473 14.4724 50.3236L12.5954 47.0237ZM6.25245 51.231L10.3948 58.9446L14.5155 51.231C13.2642 51.3548 11.8619 51.4167 10.3948 51.4167C8.92771 51.4167 7.50378 51.3548 6.25245 51.231Z" fill="#D2AE6D"/>
</svg>
