<svg width="114" height="151" viewBox="0 0 114 151" fill="none" xmlns="http://www.w3.org/2000/svg">
<path fill-rule="evenodd" clip-rule="evenodd" d="M20.798 14.0974V49.4276L10.399 60.881L0 49.4276V14.0974V12.5703H5.02691V14.0974H7.87477V12.5703H12.9017V14.0974H15.7495V12.5703H20.798V14.0974ZM15.2102 20.9282H17.044V24.1888H15.2102V20.9282ZM3.754 20.9282H5.58785V24.1888H3.754V20.9282ZM9.4713 20.9282H11.3051V24.1888H9.4713V20.9282ZM10.8952 0.00244141V10.6923H9.88122V0.00244141H10.8952Z" fill="#212121"/>
<path d="M14.1749 78.7728C15.0163 78.7728 15.8361 78.9379 16.5697 79.2474C17.3248 79.5776 17.972 80.011 18.533 80.5682C19.0723 81.1047 19.5254 81.7651 19.849 82.4874C20.1726 83.2303 20.3237 84.0145 20.3237 84.8606C20.3237 85.7067 20.1726 86.4909 19.8706 87.2339C19.547 87.9562 19.1155 88.5959 18.5761 89.1531C18.0152 89.6897 17.3679 90.123 16.6128 90.4532C15.8577 90.7834 15.0594 90.9279 14.1749 90.9279H9.73047V78.7728H14.1749ZM13.9591 89.3801C14.6064 89.3801 15.2104 89.2563 15.7498 89.0086C16.2892 88.7816 16.7638 88.4514 17.1522 88.0387C17.5405 87.626 17.8641 87.1513 18.0799 86.6148C18.2956 86.0576 18.4035 85.4797 18.4035 84.8606C18.4035 84.2415 18.2956 83.6431 18.0799 83.1065C17.8641 82.5493 17.5405 82.0747 17.1522 81.6619C16.7423 81.2492 16.2676 80.919 15.7282 80.692C15.1889 80.4444 14.6064 80.3205 13.9591 80.3205H11.5859V89.3801H13.9591ZM26.1704 90.9279V78.7728H28.0474V90.9279H26.1704ZM33.8942 90.9279L39.0721 78.7521L44.2716 90.9279H42.373L41.9847 89.9579H36.1811L35.7712 90.9279H33.8942ZM36.8067 88.3895H41.359L39.0721 82.8176L36.8067 88.3895ZM56.6339 87.1513L60.8194 78.7728L63.1926 90.9485H61.294L60.0643 84.2003L56.6339 91.1755L53.2467 84.2003L52.0169 90.9485H50.1183L52.47 78.7728L56.6339 87.1513ZM75.3608 78.7109C76.2453 78.7109 77.0652 78.876 77.8419 79.2061C78.6185 79.5157 79.3089 79.9491 79.8699 80.5063C80.4524 81.0635 80.9055 81.7238 81.2291 82.4668C81.5527 83.2097 81.7253 84.0145 81.7253 84.8606C81.7253 85.7067 81.5527 86.4909 81.2291 87.2339C80.9055 87.9768 80.4524 88.6165 79.8699 89.1737C79.3089 89.7309 78.6185 90.1643 77.8419 90.4945C77.0652 90.804 76.2453 90.9691 75.3608 90.9691C74.4978 90.9691 73.6564 90.804 72.9012 90.4945C72.1245 90.1643 71.4557 89.7309 70.8732 89.1737C70.3123 88.6165 69.8592 87.9768 69.5356 87.2339C69.1904 86.4909 69.0394 85.7067 69.0394 84.8606C69.0394 84.0145 69.1904 83.2097 69.5356 82.4668C69.8592 81.7238 70.3123 81.0635 70.8732 80.5063C71.4557 79.9491 72.1245 79.5157 72.9012 79.2061C73.6564 78.876 74.4978 78.7109 75.3608 78.7109ZM75.3608 89.2563C75.9649 89.2563 76.5474 89.1325 77.0867 88.9055C77.6261 88.6785 78.0792 88.3689 78.4891 87.9768C78.8774 87.5641 79.2011 87.1101 79.4384 86.5735C79.6541 86.0369 79.7836 85.4591 79.7836 84.8606C79.7836 84.2622 79.6541 83.6843 79.4384 83.1478C79.2011 82.5906 78.8774 82.1366 78.4891 81.7238C78.0792 81.3317 77.6261 81.0016 77.0867 80.7745C76.5474 80.5475 75.9649 80.4237 75.3608 80.4237C74.7567 80.4237 74.1957 80.5475 73.6779 80.7745C73.1386 81.0016 72.6639 81.3317 72.2756 81.7238C71.8657 82.1366 71.5636 82.5906 71.3263 83.1478C71.089 83.6843 70.9811 84.2622 70.9811 84.8606C70.9811 85.4591 71.089 86.0369 71.3263 86.5735C71.5636 87.1101 71.8657 87.5641 72.2756 87.9768C72.6639 88.3689 73.1386 88.6785 73.6779 88.9055C74.1957 89.1325 74.7567 89.2563 75.3608 89.2563ZM89.3196 83.2922V90.9691H87.572V78.5664L95.792 87.9768V78.7934H97.5396V90.9691H95.8567L89.3196 83.2922ZM107.852 78.7728C108.694 78.7728 109.492 78.9379 110.247 79.2474C111.002 79.5776 111.649 80.011 112.189 80.5682C112.75 81.1047 113.203 81.7651 113.526 82.4874C113.85 83.2303 114.001 84.0145 114.001 84.8606C114.001 85.7067 113.85 86.4909 113.526 87.2339C113.224 87.9562 112.793 88.5959 112.232 89.1531C111.693 89.6897 111.045 90.123 110.29 90.4532C109.535 90.7834 108.715 90.9279 107.852 90.9279H103.408V78.7728H107.852ZM107.637 89.3801C108.284 89.3801 108.888 89.2563 109.427 89.0086C109.967 88.7816 110.441 88.4514 110.83 88.0387C111.218 87.626 111.52 87.1513 111.757 86.6148C111.973 86.0576 112.081 85.4797 112.081 84.8606C112.081 84.2415 111.973 83.6431 111.757 83.1065C111.52 82.5493 111.218 82.0747 110.83 81.6619C110.42 81.2492 109.945 80.919 109.406 80.692C108.866 80.4444 108.262 80.3205 107.637 80.3205H105.263V89.3801H107.637ZM16.0087 111.193C16.7423 111.193 17.4326 111.028 18.0583 110.677C18.6624 110.347 19.1802 109.893 19.5685 109.336L21.0788 110.409C20.4963 111.173 19.7627 111.771 18.8997 112.204C18.0152 112.638 17.0659 112.865 16.0087 112.865C15.1457 112.865 14.3259 112.7 13.5708 112.39C12.7941 112.06 12.1253 111.627 11.5643 111.09C11.0034 110.533 10.5503 109.893 10.2267 109.15C9.88149 108.428 9.73047 107.644 9.73047 106.798C9.73047 105.951 9.88149 105.167 10.2267 104.424C10.5503 103.681 11.0034 103.042 11.5643 102.505C12.1253 101.948 12.7941 101.515 13.5708 101.205C14.3259 100.875 15.1457 100.71 16.0087 100.71C17.0659 100.71 18.0152 100.937 18.8997 101.391C19.7627 101.824 20.4963 102.423 21.0788 103.166L19.5685 104.259C19.1802 103.681 18.6624 103.248 18.0583 102.897C17.4326 102.567 16.7423 102.402 16.0087 102.402C15.4046 102.402 14.8437 102.505 14.3259 102.753C13.7865 102.98 13.3334 103.289 12.9451 103.681C12.5352 104.094 12.2331 104.548 11.9958 105.085C11.7585 105.621 11.6506 106.178 11.6506 106.798C11.6506 107.396 11.7585 107.974 11.9958 108.51C12.2331 109.026 12.5352 109.501 12.9451 109.893C13.3334 110.306 13.7865 110.615 14.3259 110.842C14.8437 111.069 15.4046 111.193 16.0087 111.193ZM26.9255 112.844L32.125 100.689L37.303 112.844H35.4044L35.0376 111.895H29.2124L28.8241 112.844H26.9255ZM29.8381 110.326H34.3904L32.125 104.755L29.8381 110.326ZM50.1399 106.818C50.2046 106.859 50.2909 106.921 50.3557 107.004C50.4204 107.066 50.4851 107.148 50.5498 107.21C50.8087 107.52 51.0245 107.871 51.1755 108.263C51.3265 108.634 51.3912 109.047 51.3912 109.46C51.3912 109.563 51.3912 109.645 51.3912 109.707C51.3481 110.326 51.1539 110.884 50.7872 111.379C50.4635 111.833 50.0536 112.204 49.5358 112.473C49.0396 112.741 48.4571 112.885 47.8314 112.885H46.688C46.0623 112.885 45.5014 112.741 45.0051 112.473C44.4873 112.204 44.0774 111.833 43.7538 111.379C43.6459 111.235 43.5596 111.09 43.4733 110.904L45.0914 109.707C45.113 109.934 45.1993 110.12 45.3072 110.306C45.4151 110.492 45.5445 110.657 45.7171 110.78C45.8681 110.925 46.0623 111.028 46.2565 111.111C46.4722 111.193 46.688 111.235 46.9253 111.235H47.6157C48.0903 111.235 48.5002 111.069 48.8454 110.78C49.1906 110.492 49.4064 110.12 49.4711 109.707C49.4711 109.645 49.4711 109.604 49.4711 109.563C49.4927 109.522 49.4927 109.48 49.4927 109.439C49.4927 109.191 49.4495 108.964 49.3416 108.758C49.2554 108.552 49.1259 108.366 48.9749 108.201C48.8023 108.036 48.6081 107.912 48.3924 107.809C48.1766 107.706 47.9393 107.644 47.702 107.644H46.7095H46.6448C46.2133 107.623 45.8034 107.541 45.4366 107.396C45.0699 107.252 44.7247 107.045 44.4226 106.798C44.25 106.674 44.1206 106.55 44.0127 106.385C43.7322 106.075 43.5381 105.724 43.387 105.332C43.236 104.961 43.1497 104.548 43.1497 104.135V103.908C43.2144 103.269 43.4086 102.711 43.7538 102.237C44.0774 101.762 44.5089 101.391 45.0051 101.122C45.5229 100.854 46.0839 100.71 46.7095 100.71H47.8314C48.4571 100.71 49.0396 100.854 49.5574 101.122C50.0752 101.391 50.4851 101.762 50.8087 102.237C50.8519 102.278 50.8735 102.34 50.9166 102.402C50.9598 102.484 51.0029 102.546 51.0245 102.588L49.4495 103.764C49.3416 103.372 49.1259 103.042 48.8023 102.773C48.4571 102.505 48.0687 102.381 47.6372 102.381H46.9469C46.7095 102.381 46.4938 102.423 46.278 102.484C46.0623 102.567 45.8681 102.67 45.7171 102.815C45.5445 102.959 45.4151 103.124 45.3072 103.31C45.1993 103.496 45.113 103.702 45.0914 103.908C45.0699 103.95 45.0699 103.991 45.0699 104.032C45.0699 104.074 45.0699 104.135 45.0699 104.177C45.0699 104.404 45.113 104.631 45.1993 104.858C45.2856 105.064 45.4151 105.25 45.5877 105.415C45.7387 105.559 45.9328 105.704 46.1486 105.807C46.3859 105.89 46.6017 105.951 46.8606 105.972H47.8314H47.9177C48.3492 105.972 48.7376 106.055 49.1259 106.199C49.4927 106.344 49.8379 106.55 50.1399 106.818ZM57.238 102.402V100.71H65.3717V102.402H62.2218V112.844H60.3879V102.402H57.238ZM73.0738 100.71V111.152H78.2733V112.885H71.2184V100.71H73.0738ZM85.9539 108.201V111.09H91.6065V112.844H84.1201V100.71H91.4986V102.423H85.9539V104.342V105.332V106.55H90.9377V108.201H85.9539Z" fill="#212121"/>
<path d="M48.6081 123.616H9.73047V122.584H48.6081V123.616Z" fill="#979797"/>
<path d="M11.8448 133.418C12.2547 133.418 12.6431 133.5 12.9883 133.645C13.355 133.789 13.6571 134.016 13.916 134.264C14.1964 134.532 14.3906 134.842 14.5632 135.192C14.7142 135.543 14.779 135.915 14.779 136.327C14.779 136.72 14.7142 137.091 14.5632 137.442C14.4122 137.793 14.218 138.102 13.9375 138.37C13.6786 138.639 13.3766 138.845 13.0098 138.99C12.6646 139.155 12.2763 139.217 11.8448 139.217H9.73047V133.418H11.8448ZM11.7369 138.474C12.0605 138.474 12.341 138.412 12.5999 138.309C12.8588 138.185 13.0745 138.04 13.2687 137.834C13.4629 137.648 13.6139 137.421 13.7002 137.153C13.8081 136.885 13.8728 136.616 13.8728 136.327C13.8728 136.018 13.8081 135.75 13.7002 135.481C13.6139 135.213 13.4629 134.986 13.2687 134.8C13.0745 134.594 12.8588 134.449 12.5999 134.326C12.341 134.222 12.0605 134.161 11.7369 134.161H10.615V138.474H11.7369ZM18.4682 136.988V138.37H21.1651V139.196H17.5837V133.418H21.1003V134.243H18.4682V135.151V135.626V136.204H20.8414V136.988H18.4682ZM26.4293 137.07L27.9611 133.418H28.8888L26.4293 139.258L23.9482 133.418H24.8759L26.4293 137.07ZM32.5565 136.988V138.37H35.2534V139.196H31.672V133.418H35.2102V134.243H32.5565V135.151V135.626V136.204H34.9297V136.988H32.5565ZM38.9426 133.418V138.391H41.4237V139.237H38.0581V133.418H38.9426ZM47.2273 133.397C47.6588 133.397 48.0472 133.459 48.4139 133.624C48.7807 133.768 49.1043 133.975 49.3848 134.243C49.6437 134.511 49.8594 134.821 50.032 135.172C50.1831 135.543 50.2694 135.915 50.2694 136.327C50.2694 136.72 50.1831 137.112 50.032 137.462C49.8594 137.813 49.6437 138.123 49.3848 138.391C49.1043 138.639 48.7807 138.845 48.4139 139.01C48.0472 139.155 47.6588 139.237 47.2273 139.237C46.8174 139.237 46.4075 139.155 46.0407 139.01C45.6739 138.845 45.3719 138.639 45.0914 138.391C44.811 138.123 44.5952 137.813 44.4442 137.462C44.2932 137.112 44.2069 136.72 44.2069 136.327C44.2069 135.915 44.2932 135.543 44.4442 135.172C44.5952 134.821 44.811 134.511 45.0914 134.243C45.3719 133.975 45.6739 133.768 46.0407 133.624C46.4075 133.459 46.8174 133.397 47.2273 133.397ZM47.2273 138.412C47.5078 138.412 47.7883 138.37 48.0472 138.247C48.3061 138.143 48.5218 137.999 48.716 137.813C48.9102 137.607 49.0612 137.401 49.1691 137.132C49.2769 136.885 49.3416 136.616 49.3416 136.327C49.3416 136.039 49.2769 135.75 49.1691 135.502C49.0612 135.234 48.9102 135.027 48.716 134.821C48.5218 134.635 48.3061 134.491 48.0472 134.367C47.7883 134.264 47.5078 134.202 47.2273 134.202C46.9469 134.202 46.6664 134.264 46.4075 134.367C46.1702 134.491 45.9328 134.635 45.7602 134.821C45.5661 135.027 45.4151 135.234 45.3072 135.502C45.1993 135.75 45.1346 136.039 45.1346 136.327C45.1346 136.616 45.1993 136.885 45.3072 137.132C45.4151 137.401 45.5661 137.607 45.7602 137.813C45.9328 137.999 46.1702 138.143 46.4075 138.247C46.6664 138.37 46.9469 138.412 47.2273 138.412ZM57.3027 135.254C57.3027 135.275 57.3027 135.316 57.3243 135.357C57.3243 135.378 57.3243 135.419 57.3243 135.461C57.3243 135.502 57.3243 135.543 57.3243 135.564C57.3027 135.605 57.3027 135.626 57.3027 135.667L57.2811 135.853C57.2811 135.873 57.2596 135.873 57.2596 135.894C57.2596 135.915 57.2596 135.935 57.2596 135.956C57.238 135.977 57.238 136.018 57.238 136.039C57.1517 136.286 57.0438 136.493 56.8928 136.678C56.7418 136.885 56.5476 137.029 56.3319 137.174C56.1593 137.277 55.9435 137.359 55.7278 137.421C55.512 137.483 55.2747 137.504 55.0158 137.504H53.9371V139.237H53.0525V133.397H55.0158C55.512 133.397 55.9651 133.521 56.3319 133.748C56.5476 133.872 56.7418 134.037 56.8928 134.222C57.0438 134.429 57.1517 134.635 57.238 134.862C57.2596 134.924 57.2596 134.986 57.2596 135.027C57.2596 135.048 57.2811 135.048 57.2811 135.048C57.2811 135.089 57.2811 135.11 57.2811 135.151C57.3027 135.172 57.3027 135.213 57.3027 135.234V135.254ZM55.1237 136.761C55.3178 136.761 55.4904 136.72 55.6415 136.658C55.7925 136.575 55.9219 136.493 56.0298 136.369C56.1377 136.245 56.224 136.1 56.2887 135.956C56.3534 135.791 56.3966 135.626 56.3966 135.461C56.3966 135.296 56.3534 135.13 56.2887 134.965C56.224 134.821 56.1377 134.676 56.0298 134.553C55.9219 134.429 55.7925 134.326 55.6415 134.264C55.4904 134.181 55.3178 134.161 55.1237 134.161H53.9586V136.761H55.1237ZM63.2358 137.421L65.2206 133.418L66.3425 139.237H65.4364L64.8539 135.997L63.2358 139.34L61.5961 135.997L61.0136 139.237H60.1074L61.2293 133.418L63.2358 137.421ZM70.0102 136.988V138.37H72.7286V139.196H69.1472V133.418H72.6639V134.243H70.0102V135.151V135.626V136.204H72.405V136.988H70.0102ZM76.3532 135.564V139.237H75.5118V133.314L79.4384 137.813V133.418H80.2798V139.237H79.46L76.3532 135.564ZM83.0629 134.222V133.418H86.9464V134.222H85.4361V139.217H84.5732V134.222H83.0629ZM12.7294 149.783C13.0745 149.783 13.3982 149.7 13.7002 149.535C14.0023 149.37 14.2396 149.164 14.4122 148.895L15.1457 149.411C14.8653 149.762 14.5201 150.051 14.1101 150.257C13.6786 150.464 13.2256 150.587 12.7294 150.587C12.3194 150.587 11.9311 150.505 11.5643 150.34C11.1975 150.195 10.8739 149.989 10.615 149.721C10.3346 149.473 10.1188 149.164 9.96779 148.813C9.79519 148.462 9.73047 148.09 9.73047 147.678C9.73047 147.286 9.79519 146.893 9.96779 146.543C10.1188 146.192 10.3346 145.882 10.615 145.635C10.8739 145.366 11.1975 145.16 11.5643 145.016C11.9311 144.85 12.3194 144.789 12.7294 144.789C13.2256 144.789 13.6786 144.892 14.1101 145.098C14.5201 145.304 14.8653 145.593 15.1457 145.944L14.4122 146.46C14.2396 146.192 14.0023 145.985 13.7002 145.82C13.3982 145.655 13.0745 145.573 12.7294 145.573C12.4273 145.573 12.1684 145.635 11.9095 145.738C11.6722 145.862 11.4564 146.006 11.2623 146.192C11.0681 146.378 10.9171 146.605 10.8092 146.873C10.7013 147.12 10.6366 147.389 10.6366 147.678C10.6366 147.967 10.7013 148.235 10.8092 148.503C10.9171 148.751 11.0681 148.978 11.2623 149.164C11.4564 149.349 11.6722 149.494 11.9095 149.618C12.1684 149.721 12.4273 149.783 12.7294 149.783ZM20.9493 144.747C21.3808 144.747 21.7692 144.83 22.1359 144.974C22.5243 145.139 22.8263 145.346 23.1068 145.593C23.3873 145.862 23.603 146.171 23.754 146.543C23.9051 146.893 23.9914 147.265 23.9914 147.678C23.9914 148.09 23.9051 148.462 23.754 148.813C23.603 149.164 23.3873 149.473 23.1068 149.741C22.8263 150.01 22.5243 150.216 22.1359 150.36C21.7692 150.526 21.3808 150.587 20.9493 150.587C20.5394 150.587 20.1511 150.526 19.7843 150.36C19.4175 150.216 19.0939 150.01 18.8134 149.741C18.5545 149.473 18.3388 149.164 18.1662 148.813C18.0152 148.462 17.9289 148.09 17.9289 147.678C17.9289 147.265 18.0152 146.893 18.1662 146.543C18.3388 146.171 18.5545 145.862 18.8134 145.593C19.0939 145.346 19.4175 145.139 19.7843 144.974C20.1511 144.83 20.5394 144.747 20.9493 144.747ZM20.9493 149.783C21.2514 149.783 21.5103 149.721 21.7692 149.618C22.0281 149.494 22.2654 149.349 22.438 149.164C22.6321 148.978 22.7832 148.751 22.891 148.503C22.9989 148.235 23.0636 147.967 23.0636 147.678C23.0636 147.389 22.9989 147.12 22.891 146.852C22.7832 146.605 22.6321 146.378 22.438 146.192C22.2654 145.985 22.0281 145.841 21.7692 145.738C21.5103 145.614 21.2514 145.573 20.9493 145.573C20.6688 145.573 20.41 145.614 20.1511 145.738C19.8922 145.841 19.6764 145.985 19.4822 146.192C19.2881 146.378 19.137 146.605 19.0292 146.852C18.9213 147.12 18.8566 147.389 18.8566 147.678C18.8566 147.967 18.9213 148.235 19.0292 148.503C19.137 148.751 19.2881 148.978 19.4822 149.164C19.6764 149.349 19.8922 149.494 20.1511 149.618C20.41 149.721 20.6688 149.783 20.9493 149.783ZM29.9028 148.771L31.8877 144.768L33.0312 150.587H32.125L31.5209 147.368L29.9028 150.691L28.2847 147.368L27.6806 150.587H26.7745L27.918 144.768L29.9028 148.771ZM40.0645 146.605C40.0645 146.646 40.0645 146.666 40.0645 146.708C40.0861 146.728 40.0861 146.77 40.0861 146.811V146.832C40.0861 146.852 40.0861 146.893 40.0645 146.935C40.0645 146.955 40.0645 146.997 40.0645 147.017V147.038L40.0429 147.224L40.0214 147.244C40.0214 147.286 40.0214 147.306 40.0214 147.327C39.9998 147.347 39.9998 147.368 39.9782 147.389C39.9135 147.636 39.8056 147.863 39.6546 148.049C39.482 148.235 39.3094 148.4 39.0937 148.524C38.9211 148.627 38.7053 148.71 38.4896 148.771C38.2738 148.833 38.0365 148.875 37.7776 148.875H36.6989V150.587H35.8143V144.768H37.7776C38.2738 144.768 38.7269 144.871 39.0937 145.098C39.3094 145.243 39.482 145.387 39.6546 145.593C39.8056 145.779 39.9135 145.985 39.9782 146.233C39.9998 146.295 40.0214 146.336 40.0214 146.378C40.0214 146.398 40.0429 146.398 40.0429 146.419C40.0429 146.439 40.0429 146.481 40.0429 146.501C40.0429 146.543 40.0645 146.563 40.0645 146.584V146.605ZM37.8855 148.132C38.0796 148.132 38.2522 148.09 38.4033 148.008C38.5543 147.946 38.6837 147.843 38.7916 147.719C38.8995 147.595 38.9858 147.451 39.0505 147.306C39.1152 147.141 39.1584 146.976 39.1584 146.811C39.1584 146.646 39.1152 146.481 39.0505 146.336C38.9858 146.171 38.8995 146.027 38.7916 145.903C38.6837 145.8 38.5543 145.697 38.4033 145.614C38.2522 145.552 38.0796 145.511 37.8855 145.511H36.6989V148.132H37.8855ZM42.8692 150.567L45.3503 144.768L47.8314 150.567H46.9253L46.7311 150.113H43.9695L43.7754 150.567H42.8692ZM44.2716 149.37H46.4291L45.3503 146.708L44.2716 149.37ZM51.456 146.935V150.587H50.6146V144.685L54.5412 149.164V144.789H55.3826V150.587H54.5627L51.456 146.935ZM61.8334 144.768H62.8258L60.9488 148.689V150.587H60.0427V148.689L58.1657 144.768H58.1873H58.1657H59.1581L60.4958 147.863L61.8334 144.768Z" fill="#212121"/>
<path fill-rule="evenodd" clip-rule="evenodd" d="M2.32879 50.6221C2.88973 50.7872 3.53698 50.911 4.29209 51.0348C4.55099 51.0761 4.83146 51.1174 5.1335 51.138L8.54231 57.4942L2.32879 50.6221ZM12.7278 0L20.2574 3.17807V4.27182H12.7278V0ZM14.7343 44.7612V36.5891C14.7343 34.2984 12.7925 32.4204 10.3977 32.4204C8.00294 32.4204 6.03964 34.2984 6.03964 36.5891V44.7612C6.25539 44.6993 6.49271 44.6374 6.75161 44.5961C7.67932 44.4104 8.9738 44.3072 10.3977 44.3072C11.8001 44.3072 13.0946 44.4104 14.0439 44.5961C14.3028 44.6374 14.5401 44.6993 14.7343 44.7612ZM5.28453 46.3503C5.60815 46.5566 6.10437 46.7424 6.75161 46.8662C6.88106 46.8868 7.03208 46.9075 7.1831 46.9281L5.28453 50.2506C4.98248 50.2094 4.70201 50.1887 4.42154 50.1475C3.23493 49.9617 2.30722 49.7347 1.70312 49.4664L5.28453 46.3503ZM19.0708 49.4664C18.4883 49.7347 17.539 49.9617 16.3308 50.1475C16.0719 50.1887 15.7914 50.23 15.5109 50.2506L13.6124 46.9281C13.7634 46.9075 13.8928 46.8868 14.0439 46.8662C14.6695 46.7424 15.1657 46.5566 15.4894 46.3503L19.0708 49.4664ZM12.2532 57.4942L15.6404 51.1587C15.9424 51.1174 16.2229 51.0761 16.4818 51.0348C17.2369 50.9317 17.8842 50.7872 18.4451 50.6427L12.2532 57.4942ZM12.5984 47.0519C11.9295 47.1345 11.1744 47.1551 10.3977 47.1551C9.59947 47.1551 8.84436 47.1138 8.17554 47.0519L6.29854 50.3538C7.5283 50.4776 8.93065 50.5396 10.3977 50.5396C11.8648 50.5396 13.2456 50.4776 14.4754 50.3538L12.5984 47.0519ZM6.25539 51.2618L10.3977 58.98L14.5185 51.2618C13.2672 51.3857 11.8648 51.4476 10.3977 51.4476C8.93065 51.4476 7.50672 51.3857 6.25539 51.2618Z" fill="#979797"/>
</svg>
