<svg width="87" height="107" viewBox="0 0 87 107" fill="none" xmlns="http://www.w3.org/2000/svg">
<path d="M52.5203 100.796L53.0407 103.949L53.5611 100.796H54.9486V106.335H53.9807V103.846L53.5638 106.335H53.0407H52.5172L52.1003 103.846V106.335H51.1328V100.796H52.5203Z" fill="#23785A"/>
<path d="M43.2222 35.7993C44.9075 36.581 46.5752 37.398 48.2244 38.2481C56.1252 35.3094 64.2017 32.9104 72.4986 31.2594V33.1546C64.2002 34.8216 56.0767 37.2815 48.1865 40.2569C41.0583 42.9445 34.0543 46.093 27.4613 49.8444H23.7513C25.6934 48.6929 27.6225 47.5741 29.6214 46.5133C24.918 44.6902 20.1554 43.1726 15.2617 41.902V39.9796C20.9389 41.4408 26.3931 43.2011 31.822 45.3726C33.8949 44.3232 35.9967 43.3265 38.1202 42.3766C30.7306 39.231 23.1524 36.8331 15.2617 35.0859V33.1824C24.0434 35.1087 32.2894 37.7495 40.4573 41.3533C42.2446 40.5874 44.0467 39.8523 45.8606 39.1472C36.1164 34.2746 25.9697 30.7274 15.2617 28.4038V26.5044C17.3313 26.9485 19.3823 27.4242 21.4291 27.96V6.71869C24.2299 4.47717 27.0333 2.23928 29.8362 0C32.64 2.23341 35.4482 4.46276 38.2457 6.70331V25.923H43.7832V21.845H52.3069V17.6087L59.3187 12.0858L62.8456 14.864L66.3305 17.615V26.2582C68.3767 25.7807 70.4296 25.3624 72.4986 24.9875V26.8776C62.4447 28.723 52.5864 31.8423 43.2222 35.7993ZM54.2367 26.071L57.4862 23.474V24.4193L54.2367 28.153V29.6733C55.6065 29.2278 56.9733 28.7966 58.3538 28.3816V15.2203L54.2367 18.5101V19.6208L57.4862 17.0242V17.9694L54.2367 21.7032V22.8459L57.4862 20.2492V21.1942L54.2367 24.9284V26.071ZM36.3159 32.8341V7.60643L30.8024 3.13877V30.7953C32.6566 31.4408 34.4915 32.112 36.3159 32.8341ZM38.2457 27.7855V33.6157C39.1397 33.9859 40.027 34.3674 40.9128 34.7552C44.6443 33.1304 48.451 31.6518 52.3069 30.3239V23.7077H45.7129V27.7855H38.2457ZM23.3589 8.7023L28.0046 4.98979V5.96844L23.3589 11.0396V11.984L28.0046 8.2122V9.16568L23.3589 14.2632V15.1524L28.0046 11.4399V12.4088L23.3589 17.4875V18.3772L28.0046 14.6647V15.6228L23.3589 20.7192V21.6861L28.0046 17.8853V18.8208L23.3589 23.9366V24.8491L28.0046 21.114V22.0458L23.3589 27.1636V28.0526L28.0046 24.3398V25.2703L24.7684 28.8817C26.1434 29.2811 27.5126 29.7033 28.8726 30.1478V3.18549L23.3589 7.59189V8.7023ZM60.2836 15.2203V27.8213C61.6498 27.4349 63.0227 27.0677 64.4011 26.7243V18.5101L60.2836 15.2203ZM55.3489 49.8444C60.96 47.6701 66.6392 45.8383 72.4986 44.391V46.3097C68.4924 47.31 64.5547 48.4909 60.6619 49.8444H55.3489ZM38.6795 49.8444C49.537 44.6535 60.6191 40.6941 72.4986 38.308V40.2054C62.2962 42.2548 52.4632 45.5467 43.0485 49.8444H38.6795Z" fill="#23785A"/>
<path d="M0 72.2449V55.5441H4.30633C5.02277 55.5441 5.6392 55.6311 6.16358 55.8038C6.70691 55.9832 7.15024 56.2542 7.5018 56.6164C7.85134 56.9763 8.10231 57.4177 8.26427 57.9402C8.42044 58.4434 8.49353 59.0213 8.49353 59.6736V60.4349C8.49353 60.8993 8.45807 61.3242 8.37977 61.7104C8.29886 62.1074 8.1715 62.4649 7.98927 62.7822C7.84251 63.038 7.66232 63.2645 7.44521 63.4615C7.3863 63.5152 7.32465 63.5667 7.26039 63.6156C7.363 63.6852 7.46056 63.7595 7.55232 63.8383C7.80503 64.0557 8.01605 64.3076 8.18742 64.5904C8.39671 64.9355 8.54607 65.3234 8.64189 65.748C8.73582 66.1641 8.7791 66.617 8.7791 67.1012V68.4621C8.7791 69.1417 8.68835 69.7535 8.50381 70.291C8.3171 70.8356 8.0353 71.3 7.65595 71.6767C7.27964 72.0507 6.81286 72.3351 6.25461 72.5243C5.71909 72.7056 5.10208 72.799 4.40127 72.799H0V72.2449ZM2.9982 58.29V62.3953H3.85461C4.17259 62.3953 4.44585 62.3725 4.66976 62.3186C4.86834 62.2714 5.02783 62.1995 5.14536 62.0976C5.25956 61.9971 5.34857 61.855 5.41124 61.6624C5.48274 61.4418 5.51936 61.159 5.51936 60.8037V59.8581C5.51936 59.5505 5.49432 59.2871 5.44077 59.069C5.39431 58.8762 5.32483 58.7223 5.23003 58.6072C5.14666 58.5067 5.03464 58.4305 4.89135 58.379C4.72736 58.3199 4.51735 58.29 4.259 58.29H2.9982ZM2.9982 65.1411V70.053H4.40127C4.66845 70.053 4.89366 70.0217 5.07661 69.9587C5.23857 69.9028 5.36854 69.8207 5.46682 69.7124C5.57378 69.5926 5.65555 69.4323 5.71171 69.2306C5.77409 69.0073 5.80449 68.7361 5.80449 68.4158V66.9858C5.80449 66.5957 5.76787 66.2775 5.69304 66.0239C5.62632 65.797 5.53007 65.625 5.40386 65.5015C5.28011 65.3805 5.11352 65.2939 4.90524 65.2357C4.67019 65.1704 4.38289 65.1411 4.0445 65.1411H2.9982ZM14.8567 72.2449V55.5441H17.855V72.799H14.8567V72.2449ZM27.2038 70.053H32.5932V72.799H23.8847V70.5193L29.3002 58.29H24.1466V55.5441H32.6405V57.8256L27.2038 70.053ZM44.6206 72.4113L41.4787 62.7788V72.799H38.6701V55.5441H42.0125L44.8791 64.2272V55.5441H47.6637V72.799H44.7462L44.6206 72.4113ZM53.9552 72.2449V55.5441H56.9536V72.799H53.9552V72.2449ZM69.1714 72.4113L66.0298 62.7788V72.799H63.2212V55.5441H66.5633L69.4301 64.2272V55.5441H72.2147V72.799H69.2976L69.1714 72.4113ZM79.4791 56.6173C79.8501 56.2144 80.311 55.8998 80.8642 55.6886C81.3861 55.4889 81.9877 55.3828 82.6698 55.3828C83.3564 55.3828 83.9617 55.4889 84.4871 55.6876C85.0422 55.8981 85.5049 56.2115 85.8771 56.6134C86.2569 57.0256 86.538 57.5221 86.7233 58.0893C86.9088 58.6581 87 59.2992 87 59.9968V61.9344H84.0965V59.9042C84.0965 59.5787 84.064 59.292 83.9969 59.0497C83.9362 58.8306 83.849 58.6493 83.733 58.511C83.6314 58.3895 83.5004 58.2952 83.3395 58.2315C83.1719 58.1636 82.9649 58.1288 82.7176 58.1288C82.4757 58.1288 82.2712 58.1641 82.1031 58.2315C81.9429 58.2956 81.8109 58.3918 81.7069 58.516C81.5901 58.6552 81.5009 58.8375 81.4393 59.0578C81.3719 59.2992 81.3384 59.5829 81.3384 59.9042V68.4387C81.3384 68.7599 81.3719 69.0441 81.4393 69.2855C81.5009 69.5058 81.5901 69.6881 81.7069 69.8273C81.8109 69.9515 81.9426 70.0474 82.1031 70.1118C82.2712 70.179 82.4757 70.2145 82.7176 70.2145C82.9649 70.2145 83.1719 70.1797 83.3395 70.1131C83.5004 70.0481 83.6314 69.9535 83.733 69.8322C83.849 69.6937 83.9367 69.5127 83.9969 69.2936C84.064 69.0513 84.0965 68.7643 84.0965 68.4387V65.7638H82.3839V63.041H87V68.3468C87 69.0447 86.9088 69.6862 86.7233 70.2549C86.5373 70.8234 86.2565 71.3204 85.8771 71.7299C85.5049 72.1315 85.0422 72.4452 84.4871 72.6554C83.9617 72.8544 83.3564 72.9601 82.6698 72.9601C81.9877 72.9601 81.3864 72.8541 80.8638 72.6547C80.3113 72.4435 79.8501 72.1289 79.4791 71.7259C79.1038 71.3177 78.8245 70.8212 78.6395 70.252C78.4542 69.6842 78.3635 69.0437 78.3635 68.3468V59.9968C78.3635 59.2999 78.4542 58.6591 78.6392 58.0913C78.8245 57.5221 79.1038 57.0259 79.4791 56.6173ZM10.0994 78.1883H12.503V91.0829C12.503 91.4084 12.5354 91.6951 12.6021 91.9374C12.6628 92.1565 12.7505 92.3378 12.8664 92.4765C12.9686 92.599 13.0995 92.6936 13.2597 92.7573C13.43 92.8232 13.637 92.8585 13.8819 92.8585C14.1207 92.8585 14.3225 92.8232 14.4878 92.7569C14.646 92.6931 14.7754 92.5983 14.8764 92.4765C14.9919 92.3368 15.0789 92.1555 15.1388 91.9372C15.2052 91.6955 15.2374 91.4091 15.2374 91.0829V78.1883H18.1172V90.9907C18.1172 91.6899 18.0267 92.3346 17.8422 92.9073C17.6585 93.4768 17.3805 93.9757 17.0034 94.3879C16.6322 94.7937 16.1722 95.11 15.6208 95.3212C15.0988 95.5209 14.4963 95.6276 13.8107 95.6276C13.1319 95.6276 12.5328 95.5205 12.0118 95.3193C11.46 95.1061 11.0018 94.7902 10.6349 94.3862C10.261 93.973 9.98388 93.4745 9.80137 92.9056C9.6177 92.3329 9.52767 91.6892 9.52767 90.9907V78.1883H10.0994ZM29.6901 95.443H27.2869V89.187L23.5481 78.1883H26.6836L28.8612 84.8545L31.0597 78.1883H34.0242L30.2618 89.1814V95.443H29.6901ZM47.2833 93.2511V95.443H39.5266V78.1883H42.5253V92.6971H47.2833V93.2511ZM59.8188 94.9927L59.2653 92.1907H55.997L55.3548 95.443H52.4802L53.1969 91.8239C54.0887 87.3207 54.9805 82.818 55.8277 78.4878L55.8863 78.1883H59.5177L61.2113 86.7461C61.7284 89.3649 62.2654 92.0889 62.8381 95.0086L62.9235 95.443H59.9072L59.8188 94.9927ZM58.7813 89.5367L57.6023 83.6899L56.4529 89.5367H58.7813ZM68.6453 94.889V78.1883H72.9278C73.6519 78.1883 74.2789 78.2815 74.8144 78.4642C75.3648 78.652 75.818 78.936 76.1804 79.3111C76.5395 79.6822 76.7992 80.1364 76.9682 80.6694C77.1322 81.187 77.2105 81.7758 77.2105 82.433V83.748C77.2105 84.2324 77.1648 84.6779 77.0708 85.0837C76.975 85.4981 76.829 85.868 76.6308 86.1918C76.47 86.4549 76.2759 86.687 76.0483 86.888C75.9802 86.9482 75.9088 87.0056 75.8346 87.0602C75.924 87.1245 76.009 87.1925 76.0892 87.2644C76.3267 87.4792 76.5239 87.7236 76.6831 87.9965C76.8785 88.3328 77.0174 88.7091 77.1064 89.122C77.1939 89.5279 77.2345 89.9673 77.2345 90.4367V92.9514C77.2345 93.1411 77.2358 93.3182 77.2413 93.4557C77.2474 93.6138 77.2588 93.7655 77.2785 93.9097C77.2968 94.044 77.3228 94.1734 77.3594 94.2955C77.394 94.4104 77.4395 94.5219 77.4981 94.627L77.9533 95.443H74.749L74.5966 95.1139C74.5329 94.977 74.4783 94.8444 74.4333 94.7045C74.3876 94.5623 74.3494 94.4089 74.3191 94.2308C74.2907 94.064 74.2701 93.8782 74.2562 93.6623C74.2426 93.4427 74.2359 93.2019 74.2359 92.9284V90.3909C74.2359 90.0011 74.1925 89.6859 74.1088 89.4359C74.033 89.21 73.9243 89.0379 73.7853 88.9125C73.6455 88.7866 73.4633 88.6974 73.2434 88.6386C73.0026 88.5744 72.7133 88.5459 72.3807 88.5459H71.644V95.443H68.6453V94.889ZM71.644 80.9341V85.8H72.4525C72.7736 85.8 73.0554 85.7774 73.2902 85.7218C73.5022 85.6719 73.6779 85.5954 73.8121 85.4844C73.9408 85.378 74.0424 85.2288 74.1132 85.0283C74.1935 84.8002 74.2359 84.508 74.2359 84.1395V82.5943C74.2359 82.281 74.2084 82.0103 74.1505 81.7854C74.098 81.5802 74.0211 81.4143 73.9167 81.2892C73.8237 81.1769 73.6996 81.0909 73.5435 81.0323C73.3694 80.9669 73.1492 80.9341 72.8803 80.9341H71.644Z" fill="#23785A"/>
<path d="M20.1279 106.276H18.6992V100.856H20.1279C20.5728 100.856 20.9085 100.979 21.1363 101.215C21.3668 101.454 21.4811 101.803 21.4811 102.252V104.88C21.4811 105.328 21.3668 105.677 21.1363 105.916C20.9085 106.152 20.5728 106.276 20.1279 106.276ZM20.3395 101.896C20.2908 101.843 20.2131 101.821 20.113 101.821H19.7573V105.31H20.113C20.2131 105.31 20.2908 105.288 20.3399 105.235C20.3936 105.175 20.423 105.074 20.423 104.917V102.214C20.423 102.058 20.3932 101.956 20.3395 101.896ZM25.9231 101.821H24.6V103.046H25.7416V104.011H24.6V105.31H26.0367V106.276H23.5418V100.856H26.0367V101.821H25.9231ZM27.9758 100.856H28.9129L29.4499 104.443L29.9875 100.856H30.9807C30.6977 102.663 30.4158 104.47 30.1295 106.276H28.6955L27.8436 100.856H27.9758ZM35.2608 101.821H33.9374V103.046H35.079V104.011H33.9374V105.31H35.3741V106.276H32.8793V100.856H35.3741V101.821H35.2608ZM39.7325 106.276H37.4193V100.856H38.4774V105.31H39.8458V106.276H39.7325ZM42.8173 101.842C42.7615 101.902 42.73 102.006 42.73 102.162V104.969C42.73 105.125 42.7615 105.229 42.8173 105.29C42.8683 105.346 42.948 105.37 43.0478 105.37C43.1485 105.37 43.228 105.346 43.2784 105.291C43.3341 105.229 43.3656 105.126 43.3656 104.969V102.162C43.3656 102.006 43.3341 101.902 43.2784 101.842C43.228 101.785 43.1485 101.761 43.0478 101.761C42.948 101.761 42.8683 101.785 42.8173 101.842ZM42.0313 105.961C41.7953 105.718 41.6719 105.364 41.6719 104.917V102.214C41.6719 101.768 41.7953 101.414 42.0313 101.17C42.2666 100.927 42.609 100.796 43.0478 100.796C43.487 100.796 43.8293 100.927 44.0646 101.17C44.3002 101.414 44.4238 101.768 44.4238 102.214V104.917C44.4238 105.364 44.3002 105.718 44.0646 105.962C43.8293 106.205 43.487 106.335 43.0478 106.335C42.609 106.335 42.2666 106.205 42.0313 105.961ZM46.6054 100.856H47.8302C48.2751 100.856 48.6104 100.979 48.8384 101.215C49.0689 101.454 49.1835 101.803 49.1835 102.252V102.927C49.1835 103.376 49.0689 103.725 48.8384 103.963C48.6104 104.199 48.2751 104.323 47.8302 104.323H47.5503V106.276H46.4923V100.856H46.6054ZM48.0489 101.889C48.0043 101.84 47.93 101.821 47.8302 101.821H47.5503V103.358H47.8302C47.93 103.358 48.0043 103.339 48.0489 103.29C48.0991 103.235 48.1251 103.136 48.1251 102.979V102.2C48.1251 102.043 48.0991 101.944 48.0489 101.889ZM59.3676 101.821H58.0445V103.046H59.1861V104.011H58.0445V105.31H59.4809V106.276H56.9864V100.856H59.4809V101.821H59.3676ZM64.2707 106.276H63.3295L62.4943 103.238V106.276H61.519V100.856H62.762L63.4165 103.239V100.856H64.3841V106.276H64.2707ZM67.1401 101.821H66.2706V100.856H69.0676V101.821H68.1982V106.276H67.1401V101.821Z" fill="#23785A"/>
</svg>
