<svg width="177" height="50" viewBox="0 0 177 50" fill="none" xmlns="http://www.w3.org/2000/svg">
<path d="M58.2453 17.2292C58.2453 14.2293 58.2453 11.2297 58.2455 8.22981C58.2455 8.11191 58.24 7.99323 58.2511 7.87651C58.2687 7.69063 58.3642 7.59278 58.5399 7.57372C58.6269 7.56429 58.7155 7.56822 58.8035 7.56822C60.0718 7.56802 61.3403 7.56723 62.6087 7.56841C63.1075 7.56881 63.145 7.60791 63.145 8.12842C63.1456 13.735 63.1465 19.3415 63.1433 24.9482C63.1429 25.4937 63.2337 26.0154 63.4383 26.5158C63.6125 26.9422 63.8505 27.3246 64.1747 27.6443C64.5836 28.0475 65.061 28.2703 65.6331 28.2676C66.776 28.2621 67.9187 28.2609 69.0616 28.2684C69.5756 28.2717 70.0279 28.1039 70.412 27.7606C71.1936 27.0621 71.632 26.1796 71.6693 25.0958C71.6742 24.9519 71.6704 24.8075 71.6704 24.6635C71.6704 19.1878 71.6704 13.7124 71.6708 8.23669C71.6708 8.10582 71.6668 7.97378 71.683 7.84468C71.7034 7.68199 71.8015 7.5916 71.9603 7.57391C72.0473 7.56429 72.1359 7.56822 72.2238 7.56822C73.4922 7.56802 74.7607 7.57627 76.0291 7.56409C76.5614 7.55898 76.5733 7.7095 76.5731 8.12351C76.5707 13.6646 76.5712 19.2057 76.571 24.7468C76.571 25.9476 76.4158 27.1226 76.0202 28.2552C75.5385 29.6344 74.7551 30.7778 73.5768 31.6044C72.7296 32.1988 71.7894 32.5456 70.7875 32.7183C70.1794 32.8233 69.5656 32.8618 68.9493 32.861C67.706 32.8592 66.4627 32.8704 65.2194 32.8574C63.7702 32.8423 62.4135 32.4702 61.1904 31.6392C59.7851 30.6842 58.8449 29.373 58.4346 27.6655C58.3028 27.1169 58.2438 26.5591 58.2442 25.993C58.2462 23.0715 58.2453 20.1502 58.2453 17.2292Z" fill="#212121"/>
<path d="M132.897 20.1815C132.897 16.1995 132.896 12.2174 132.897 8.23536C132.897 8.10466 132.893 7.97239 132.909 7.84326C132.929 7.67875 133.026 7.59109 133.185 7.57065C133.248 7.56259 133.311 7.56456 133.374 7.56456C134.434 7.56417 135.493 7.56436 136.552 7.56436C136.603 7.56436 136.653 7.56259 136.704 7.56652C136.928 7.58362 137.026 7.67855 137.042 7.90301C137.049 8.00718 137.044 8.11252 137.044 8.21728C137.045 10.0904 137.044 11.9636 137.045 13.8367C137.045 13.9544 137.041 14.0731 137.052 14.1899C137.067 14.3536 137.16 14.4534 137.317 14.4721C137.429 14.4855 137.544 14.4804 137.657 14.4804C139.713 14.4808 141.769 14.4825 143.824 14.4798C144.446 14.479 145.058 14.5539 145.653 14.7394C146.583 15.0295 147.352 15.583 147.992 16.3355C148.669 17.1333 149.13 18.0588 149.458 19.0595C149.744 19.9301 149.914 20.8262 150.007 21.7411C150.083 22.4864 150.098 23.2323 150.06 23.9776C149.972 25.7046 149.633 27.3743 148.934 28.9539C148.569 29.7802 148.11 30.5435 147.507 31.2079C146.862 31.9184 146.105 32.4378 145.183 32.679C144.728 32.7981 144.266 32.8604 143.799 32.861C140.344 32.8651 136.888 32.8637 133.433 32.8628C132.965 32.8626 132.897 32.7885 132.897 32.2851C132.897 28.552 132.897 24.8188 132.897 21.0856C132.897 20.7841 132.897 20.4828 132.897 20.1815ZM140.301 18.788V18.7884C139.381 18.7884 138.461 18.7868 137.541 18.789C137.09 18.79 137.045 18.8374 137.045 19.3114C137.044 22.2177 137.045 25.124 137.045 28.0301C137.045 28.1215 137.044 28.2143 137.057 28.3041C137.076 28.4338 137.161 28.5115 137.28 28.5411C137.34 28.5563 137.405 28.5533 137.468 28.5533C139.321 28.5539 141.174 28.5545 143.026 28.5523C143.139 28.5522 143.253 28.5378 143.364 28.5162C143.924 28.4069 144.354 28.0812 144.7 27.6251C145.008 27.2196 145.219 26.7607 145.375 26.2734C145.727 25.1761 145.816 24.047 145.726 22.9015C145.671 22.2089 145.543 21.5288 145.304 20.8753C145.142 20.4321 144.939 20.0133 144.648 19.6455C144.198 19.0779 143.637 18.7678 142.909 18.7833C142.041 18.8022 141.171 18.788 140.301 18.788Z" fill="#212121"/>
<path d="M163.549 25.7277C161.567 25.7277 159.585 25.7277 157.603 25.7277C157.503 25.7277 157.402 25.7238 157.302 25.7295C157.039 25.7444 156.954 25.8407 156.949 26.1252C156.945 26.4189 157.01 26.6967 157.139 26.9566C157.286 27.2517 157.494 27.4937 157.745 27.6967C158.18 28.0471 158.676 28.2585 159.203 28.3955C159.618 28.5031 160.04 28.5558 160.469 28.5552C163.029 28.5513 165.588 28.5532 168.147 28.5536C168.26 28.5536 168.373 28.5487 168.485 28.5599C168.643 28.5756 168.735 28.6689 168.761 28.8328C168.773 28.9096 168.771 28.9894 168.771 29.0678C168.772 30.1546 168.767 31.2414 168.775 32.3282C168.777 32.6823 168.723 32.8656 168.271 32.8638C166.301 32.8559 164.331 32.8701 162.362 32.8546C161.359 32.8467 160.356 32.7862 159.361 32.6369C158.579 32.5194 157.805 32.3565 157.062 32.0685C155.089 31.3049 153.824 29.8479 153.213 27.7587C153.004 27.0432 152.886 26.3094 152.817 25.5645C152.753 24.8849 152.742 24.2048 152.761 23.5244C152.792 22.4346 152.91 21.3551 153.244 20.3168C154.033 17.8583 155.598 16.1595 157.903 15.2051C158.746 14.856 159.626 14.6579 160.528 14.555C161.066 14.4935 161.604 14.4681 162.143 14.4892C164.259 14.5717 166.183 15.2273 167.835 16.6396C168.915 17.5634 169.636 18.7361 169.955 20.1657C170.064 20.6525 170.119 21.1468 170.122 21.6445C170.131 22.8228 170.126 24.0014 170.125 25.18C170.124 25.6643 170.064 25.7273 169.609 25.7275C167.589 25.7283 165.569 25.7277 163.549 25.7277ZM161.619 21.6146C162.962 21.6146 164.305 21.6148 165.647 21.6144C165.76 21.6144 165.874 21.6203 165.986 21.6075C166.209 21.582 166.294 21.4806 166.303 21.2506C166.303 21.2244 166.303 21.1981 166.301 21.172C166.257 20.4256 166.019 19.7679 165.492 19.2421C165.199 18.9488 164.857 18.7341 164.483 18.5716C163.969 18.3486 163.434 18.227 162.883 18.1594C161.863 18.0347 160.855 18.071 159.858 18.3412C159.161 18.5306 158.504 18.8145 157.938 19.2934C157.55 19.6215 157.253 20.0205 157.082 20.514C156.995 20.762 156.943 21.0174 156.95 21.2826C156.955 21.4779 157.03 21.571 157.216 21.5995C157.327 21.6164 157.441 21.6138 157.553 21.614C158.909 21.615 160.264 21.6146 161.619 21.6146Z" fill="#212121"/>
<path d="M123.877 32.8626C122.002 32.8626 120.128 32.8644 118.253 32.8603C118.028 32.8599 117.801 32.8394 117.577 32.8084C117.114 32.7439 116.718 32.5299 116.384 32.1899C115.936 31.735 115.605 31.1981 115.354 30.606C115.037 29.8569 114.866 29.0707 114.794 28.2557C114.686 27.0493 114.827 25.8773 115.214 24.7395C115.486 23.9413 115.893 23.2262 116.472 22.6195C117.025 22.0404 117.69 21.7572 118.467 21.7446C118.656 21.7417 118.845 21.7435 119.034 21.7435C120.87 21.7435 122.707 21.7437 124.544 21.7429C124.682 21.7429 124.821 21.7413 124.958 21.7305C125.374 21.6979 125.705 21.4986 125.932 21.1392C126.3 20.5569 126.34 19.9361 126.052 19.31C125.856 18.8818 125.516 18.6232 125.057 18.5607C124.883 18.5371 124.706 18.5313 124.531 18.5311C121.776 18.5293 119.021 18.5301 116.265 18.5289C116.127 18.5289 115.989 18.5242 115.852 18.5079C115.725 18.4929 115.649 18.4069 115.634 18.2744C115.624 18.1838 115.622 18.0917 115.622 18.0003C115.621 17.0051 115.621 16.0098 115.622 15.0146C115.622 14.9233 115.622 14.8307 115.635 14.7405C115.655 14.5925 115.739 14.5076 115.883 14.4899C115.97 14.4793 116.058 14.4829 116.146 14.4829C119.266 14.4827 122.386 14.4835 125.506 14.4819C125.885 14.4817 126.259 14.5198 126.628 14.6098C127.549 14.834 128.271 15.3798 128.855 16.1322C129.444 16.8902 129.79 17.7707 129.991 18.7146C130.147 19.4448 130.224 20.1845 130.224 20.9346C130.22 24.7059 130.222 28.4772 130.222 32.2485C130.222 32.3401 130.226 32.4322 130.219 32.5234C130.203 32.7317 130.115 32.8312 129.915 32.8551C129.803 32.8685 129.689 32.8624 129.576 32.8624C127.676 32.8628 125.777 32.8626 123.877 32.8626ZM122.76 28.7236C123.678 28.7236 124.597 28.7238 125.515 28.7234C125.616 28.7234 125.717 28.7274 125.816 28.7168C125.977 28.6997 126.057 28.6101 126.078 28.4371C126.084 28.3854 126.085 28.3326 126.085 28.2803C126.085 27.4031 126.088 26.5258 126.084 25.6484C126.082 25.2589 126.011 25.1897 125.644 25.1803C125.632 25.1799 125.619 25.1801 125.606 25.1801C123.732 25.1801 121.858 25.1797 119.983 25.1817C119.871 25.1819 119.756 25.1907 119.647 25.2163C119.248 25.3102 118.979 25.5767 118.825 25.9577C118.557 26.6192 118.572 27.2887 118.855 27.939C119.082 28.4591 119.461 28.7421 120.043 28.7287C120.948 28.7083 121.854 28.7236 122.76 28.7236Z" fill="#212121"/>
<path d="M85.3892 14.4837C87.1624 14.4837 88.9358 14.4813 90.709 14.4846C91.6394 14.4864 92.4768 14.78 93.2018 15.3984C93.6673 15.7955 94.0102 16.2879 94.1981 16.8892C94.4236 17.6108 94.3533 18.3099 94.0267 18.9821C93.861 19.3233 93.6369 19.6202 93.3783 19.8902C92.7412 20.5555 92.1062 21.223 91.4704 21.8897C89.6334 23.8156 87.796 25.7409 85.9609 27.6686C85.8472 27.7881 85.7334 27.9152 85.6521 28.0589C85.5044 28.319 85.6157 28.5257 85.9024 28.5501C86.0141 28.5595 86.1271 28.5536 86.2395 28.5536C88.6248 28.5538 91.01 28.5536 93.3952 28.5538C93.5076 28.5538 93.6204 28.5491 93.7321 28.5585C93.9101 28.5737 94.0016 28.667 94.0276 28.8523C94.0366 28.9166 94.0351 28.9828 94.0351 29.0482C94.0355 30.1482 94.03 31.2482 94.0385 32.3482C94.0411 32.6972 93.9626 32.8784 93.5561 32.8629C93.3566 32.8552 93.1567 32.8617 92.9567 32.8617C89.5725 32.8617 86.1882 32.8627 82.804 32.8607C82.1521 32.8603 81.5088 32.7886 80.8864 32.5679C80.5172 32.4371 80.17 32.2616 79.8604 32.0124C79.3001 31.5615 78.9495 30.9818 78.8753 30.2323C78.8358 29.8325 78.9051 29.4499 79.0288 29.0761C79.1991 28.5607 79.4857 28.1182 79.8348 27.7193C79.9781 27.5554 80.1304 27.4 80.2809 27.2428C82.7057 24.7109 85.1308 22.1794 87.5555 19.6477C87.6352 19.5646 87.7219 19.4869 87.79 19.3942C87.8411 19.3242 87.8808 19.2378 87.9013 19.1521C87.9277 19.0417 87.8865 18.9395 87.7873 18.8864C87.7116 18.846 87.6262 18.8133 87.5424 18.8045C87.3938 18.7888 87.2434 18.7905 87.0935 18.7905C84.7208 18.7898 82.3479 18.7902 79.9753 18.7894C79.8507 18.7894 79.7244 18.7929 79.6016 18.7748C79.4382 18.7509 79.3627 18.6581 79.3447 18.4879C79.3378 18.4231 79.3391 18.3573 79.3391 18.2918C79.3387 17.1918 79.3387 16.0918 79.3389 14.9918C79.3389 14.9264 79.3369 14.8605 79.3431 14.7955C79.3629 14.5849 79.4476 14.5 79.6571 14.4856C79.7566 14.4787 79.8569 14.4835 79.9567 14.4835C81.7674 14.4835 83.5783 14.4835 85.389 14.4835L85.3892 14.4837Z" fill="#212121"/>
<path d="M96.8124 20.1987C96.8124 16.2304 96.8124 12.262 96.8124 8.29373C96.8124 8.18897 96.8095 8.08402 96.8133 7.97945C96.8248 7.65437 96.9061 7.57555 97.2349 7.56455C97.2604 7.56376 97.286 7.56435 97.3115 7.56435C98.3713 7.56435 99.4309 7.56317 100.491 7.56494C100.935 7.56573 101.004 7.63727 101.01 8.08166C101.011 8.13394 101.01 8.18642 101.01 8.23889C101.01 16.2149 101.01 24.1907 101.01 32.1667C101.01 32.2846 101.016 32.4031 101.006 32.5201C100.987 32.7308 100.895 32.8279 100.697 32.857C100.634 32.8662 100.57 32.8633 100.506 32.8635C99.4463 32.8638 98.3867 32.864 97.3268 32.8633C97.2504 32.8633 97.1728 32.8642 97.0979 32.8515C96.9147 32.82 96.8311 32.728 96.8173 32.536C96.808 32.4057 96.8126 32.2742 96.8126 32.1433C96.8124 28.1615 96.8124 24.1801 96.8124 20.1987Z" fill="#212121"/>
<path d="M172.801 20.2254C172.801 16.2306 172.801 12.2357 172.801 8.24086C172.801 8.10996 172.797 7.97827 172.809 7.84835C172.824 7.68581 172.92 7.59146 173.081 7.57201C173.17 7.56139 173.26 7.56434 173.349 7.56434C174.383 7.56395 175.418 7.56395 176.452 7.56434C176.541 7.56434 176.631 7.56238 176.72 7.5722C176.863 7.58812 176.95 7.67716 176.979 7.82025C176.992 7.88373 176.997 7.94977 176.999 8.01483C177.002 8.10642 177 8.19821 177 8.2898C177 16.2402 177 24.1906 176.999 32.141C176.999 32.2847 177.002 32.43 176.984 32.5719C176.963 32.7405 176.873 32.8264 176.709 32.8522C176.621 32.8659 176.531 32.8632 176.442 32.8632C175.433 32.8638 174.424 32.8641 173.415 32.8634C172.83 32.863 172.8 32.8307 172.8 32.2094C172.8 28.2152 172.801 24.2203 172.801 20.2254Z" fill="#212121"/>
<path d="M113.231 32.7955C113.115 32.8259 113.046 32.8573 112.977 32.8593C112.741 32.866 112.504 32.8625 112.268 32.8625C111.186 32.8625 110.104 32.8625 109.022 32.8625C108.923 32.8625 108.823 32.8668 108.724 32.8599C108.502 32.8448 108.316 32.7518 108.175 32.5676C108.121 32.4962 108.07 32.4222 108.018 32.3485C106.114 29.6315 104.209 26.9154 102.308 24.1963C102.176 24.0077 102.055 23.8055 101.96 23.5943C101.712 23.0424 101.717 22.4817 101.956 21.9247C102.086 21.6241 102.265 21.3586 102.472 21.1117C103.96 19.3346 105.447 17.5563 106.935 15.7784C107.198 15.4641 107.469 15.1574 107.722 14.8338C107.91 14.5923 108.132 14.4813 108.431 14.4831C109.812 14.491 111.192 14.4858 112.572 14.4876C112.679 14.4878 112.82 14.4458 112.867 14.5866C112.91 14.7128 112.8 14.8012 112.728 14.8882C112.073 15.6759 111.416 16.4626 110.76 17.2492C109.34 18.9505 107.92 20.6513 106.5 22.3526C106.467 22.3919 106.433 22.43 106.403 22.4718C106.265 22.6662 106.265 22.8035 106.406 23.0051C108.532 26.037 110.659 29.0684 112.784 32.1013C112.93 32.3092 113.096 32.5049 113.231 32.7955Z" fill="#212121"/>
<path d="M107.31 46.547C107.317 46.2553 107.282 45.9866 107.336 45.704C107.405 45.7138 107.457 45.7134 107.503 45.7284C107.972 45.8797 108.455 45.95 108.942 45.9996C109.356 46.0418 109.765 46.0078 110.164 45.8832C110.65 45.7313 110.941 45.395 111.056 44.9023C111.086 44.7766 111.106 44.6474 111.116 44.5186C111.126 44.39 111.118 44.26 111.118 44.102C111.068 44.1252 111.018 44.1333 110.991 44.1629C110.425 44.792 109.694 44.9257 108.908 44.8321C107.978 44.7214 107.36 44.19 107.02 43.3174C106.878 42.9514 106.812 42.5702 106.774 42.1824C106.71 41.5201 106.728 40.861 106.887 40.2124C106.935 40.0124 107.001 39.8131 107.087 39.6263C107.456 38.8198 108.091 38.3703 108.959 38.2419C109.279 38.1944 109.598 38.1808 109.92 38.2386C110.294 38.3059 110.638 38.4337 110.929 38.6881C110.974 38.7268 111.024 38.7587 111.106 38.8192C111.121 38.6655 111.132 38.5548 111.143 38.4452C111.427 38.3839 111.931 38.3829 112.26 38.4462C112.265 38.5158 112.275 38.591 112.275 38.6663C112.276 40.4037 112.279 42.1414 112.273 43.8788C112.271 44.3195 112.227 44.7574 112.09 45.1823C111.81 46.0446 111.228 46.5775 110.363 46.7955C110.128 46.8548 109.88 46.8807 109.638 46.8898C109.019 46.9134 108.402 46.8861 107.796 46.7371C107.635 46.698 107.471 46.6628 107.31 46.547ZM111.062 41.4578C111.062 41.199 111.073 40.9394 111.059 40.6814C111.043 40.3827 110.978 40.0932 110.847 39.8205C110.698 39.5106 110.459 39.3022 110.137 39.2072C109.813 39.1119 109.484 39.0852 109.147 39.1698C108.776 39.2629 108.494 39.4654 108.297 39.79C108.169 40.0019 108.086 40.2331 108.046 40.478C107.937 41.1474 107.951 41.8185 108.021 42.4904C108.047 42.7368 108.108 42.9738 108.206 43.2013C108.31 43.4449 108.463 43.6478 108.685 43.7946C109.342 44.2287 110.27 44.0327 110.696 43.3698C110.837 43.1499 110.923 42.9074 110.986 42.6547C111.083 42.2608 111.082 41.8594 111.062 41.4578Z" fill="#212121"/>
<path d="M163.102 44.3778C163.079 44.4784 163.092 44.5941 163.09 44.7072C163.088 44.8258 163.09 44.9445 163.09 45.0631C163.09 45.1818 163.09 45.3004 163.09 45.4193C163.09 45.5381 163.09 45.6566 163.09 45.7752C163.09 45.8939 163.09 46.0126 163.09 46.1314C163.09 46.2503 163.09 46.3687 163.09 46.4876C163.09 46.6046 163.09 46.7215 163.09 46.8596C162.706 46.9265 162.338 46.8823 161.951 46.8901C161.939 46.8059 161.919 46.7322 161.919 46.6585C161.917 43.9814 161.917 41.3045 161.918 38.6273C161.918 38.5638 161.925 38.5002 161.929 38.4215C162.117 38.3665 162.296 38.3984 162.472 38.3924C162.637 38.3869 162.803 38.3912 162.975 38.3912C163.065 38.6311 162.99 38.8803 163.109 39.1253C163.172 39.0475 163.217 38.9869 163.267 38.932C163.765 38.3855 164.377 38.1408 165.104 38.2128C165.295 38.2316 165.487 38.2629 165.673 38.3112C166.38 38.495 166.876 38.9425 167.173 39.6207C167.31 39.9351 167.398 40.2661 167.422 40.6112C167.466 41.2435 167.467 41.8765 167.414 42.508C167.38 42.9044 167.279 43.2859 167.106 43.6441C166.785 44.3086 166.278 44.7412 165.572 44.9195C165.077 45.0445 164.581 45.059 164.086 44.913C163.785 44.8242 163.512 44.6846 163.282 44.4627C163.245 44.4269 163.204 44.3952 163.163 44.3641C163.157 44.3589 163.141 44.368 163.102 44.3778ZM166.232 41.5287C166.232 41.4818 166.237 41.3758 166.231 41.2706C166.206 40.8887 166.179 40.507 166.032 40.1469C165.883 39.7802 165.655 39.4894 165.295 39.3224C164.709 39.0514 163.742 39.14 163.233 39.9127C163.144 40.047 163.091 40.1831 163.092 40.3527C163.099 41.1712 163.098 41.9896 163.094 42.8081C163.093 43.0284 163.15 43.2285 163.272 43.4036C163.631 43.9224 164.138 44.1385 164.744 44.0987C165.32 44.0608 165.733 43.7544 165.97 43.2128C166.027 43.0813 166.073 42.943 166.11 42.8038C166.214 42.4058 166.237 41.9978 166.232 41.5287Z" fill="#212121"/>
<path d="M141.488 38.3959C141.801 38.3941 142.072 38.3914 142.344 38.392C142.403 38.3922 142.463 38.4041 142.535 38.4118C142.558 38.647 142.579 38.8651 142.606 39.138C142.682 39.0593 142.724 39.0214 142.76 38.9784C143.247 38.392 143.859 38.1371 144.592 38.2138C144.74 38.2292 144.89 38.2439 145.035 38.2806C145.949 38.5123 146.492 39.1439 146.728 40.0871C146.785 40.3148 146.821 40.5543 146.826 40.7893C146.838 41.3298 146.839 41.8715 146.816 42.4113C146.795 42.8898 146.672 43.3466 146.449 43.769C146.069 44.4916 145.478 44.8792 144.715 44.9869C144.342 45.0394 143.971 45.0352 143.605 44.9213C143.302 44.8269 143.026 44.6852 142.796 44.4504C142.762 44.4157 142.724 44.3863 142.691 44.358C142.602 44.3994 142.627 44.4737 142.627 44.5332C142.625 45.193 142.626 45.853 142.625 46.5128C142.625 46.6287 142.62 46.7446 142.617 46.8784C142.534 46.8866 142.475 46.8973 142.416 46.8973C142.119 46.8977 141.823 46.8951 141.557 46.8937C141.519 46.857 141.507 46.8497 141.501 46.8388C141.495 46.8281 141.495 46.8136 141.495 46.8007C141.492 44.122 141.49 41.443 141.488 38.7642C141.488 38.6593 141.488 38.5545 141.488 38.3959ZM142.635 41.5732C142.635 41.9694 142.644 42.366 142.632 42.7617C142.62 43.1357 142.765 43.4267 143.014 43.6697C143.3 43.9491 143.645 44.0924 144.031 44.1055C144.666 44.1273 145.137 43.8433 145.409 43.2239C145.466 43.0931 145.516 42.9556 145.547 42.8155C145.708 42.072 145.702 41.3219 145.592 40.5727C145.553 40.3119 145.462 40.0643 145.322 39.84C145.182 39.6136 145 39.4406 144.767 39.3268C144.218 39.0589 143.297 39.1285 142.79 39.8729C142.685 40.0267 142.625 40.1864 142.631 40.3846C142.643 40.7804 142.634 41.177 142.635 41.5732Z" fill="#212121"/>
<path d="M81.7063 44.915C81.3359 44.915 81.0085 44.916 80.6811 44.9136C80.6455 44.9134 80.6098 44.8927 80.5481 44.8731C80.5481 44.7464 80.5481 44.6159 80.5481 44.4856C80.5481 43.0964 80.5488 41.7074 80.5475 40.3182C80.5469 39.6441 80.2891 39.3311 79.6583 39.2074C79.4403 39.1647 79.2315 39.1887 79.0216 39.2403C78.6328 39.3361 78.2897 39.5234 78.0007 39.8137C77.8308 39.9843 77.7438 40.1777 77.7465 40.4437C77.7599 41.793 77.7529 43.1425 77.7522 44.492C77.7522 44.6219 77.7463 44.7517 77.7427 44.9047C77.3586 44.9305 76.996 44.9188 76.6319 44.9134C76.5432 44.7684 76.5813 44.6191 76.5811 44.4793C76.578 42.4815 76.579 40.4838 76.579 38.4861C76.579 37.8775 76.5782 37.2688 76.5796 36.6603C76.5797 36.5298 76.5868 36.3992 76.5913 36.2504C76.9685 36.2087 77.3281 36.2248 77.7093 36.2413C77.7194 36.3412 77.7355 36.4291 77.7359 36.5173C77.7379 37.245 77.7364 37.9727 77.7378 38.7003C77.7379 38.8004 77.7252 38.9045 77.772 39.0439C77.8545 38.9712 77.9085 38.925 77.9611 38.8771C78.6466 38.2537 79.4431 38.0547 80.3245 38.2189C81.0598 38.356 81.5676 38.9279 81.6818 39.7277C81.7099 39.9233 81.7252 40.1229 81.7256 40.3207C81.7294 41.7761 81.7281 43.2314 81.7271 44.6866C81.7273 44.7494 81.7161 44.8127 81.7063 44.915Z" fill="#212121"/>
<path d="M152.991 43.6135C153.013 43.6541 153.034 43.6757 153.035 43.6975C153.037 43.9875 153.036 44.2776 153.036 44.5585C152.955 44.6857 152.831 44.7236 152.718 44.7694C151.893 45.1058 151.044 45.216 150.174 45.0251C148.993 44.7662 148.196 43.8401 148.038 42.5573C147.947 41.8191 147.955 41.083 148.114 40.3539C148.134 40.2643 148.159 40.1757 148.186 40.0883C148.472 39.1637 149.142 38.3296 150.475 38.2118C150.834 38.1801 151.192 38.2152 151.54 38.3149C152.529 38.5984 153.111 39.313 153.373 40.3448C153.507 40.8697 153.535 41.4091 153.507 41.9447C153.408 42.0579 153.29 42.0149 153.185 42.0151C151.975 42.0183 150.764 42.0169 149.554 42.0177C149.433 42.0177 149.312 42.0254 149.194 42.0296C149.115 43.168 149.758 43.9927 150.778 44.0849C151.405 44.1414 152.007 44.022 152.591 43.7818C152.726 43.7263 152.86 43.6688 152.991 43.6135ZM152.333 41.0271C152.358 40.7732 152.305 40.529 152.238 40.2929C152.086 39.7612 151.762 39.4135 151.248 39.2795C150.955 39.2032 150.658 39.1976 150.367 39.2575C149.854 39.3633 149.51 39.6984 149.325 40.2177C149.233 40.4768 149.192 40.7482 149.188 41.0285C149.23 41.0446 149.264 41.0687 149.298 41.0689C150.272 41.0711 151.246 41.0713 152.22 41.0693C152.253 41.0693 152.287 41.045 152.333 41.0271Z" fill="#212121"/>
<path d="M176.981 41.9976C176.613 42.0304 176.258 42.0102 175.904 42.0136C175.547 42.0172 175.19 42.0144 174.833 42.0144C174.475 42.0144 174.118 42.0112 173.761 42.0154C173.406 42.0195 173.051 41.9956 172.7 42.0322C172.583 43.0663 173.214 43.9436 174.153 44.0668C174.737 44.1434 175.307 44.0585 175.863 43.8583C176.07 43.7837 176.273 43.6956 176.495 43.6067C176.551 43.7666 176.522 43.925 176.527 44.0789C176.532 44.2367 176.528 44.3949 176.528 44.5695C176.457 44.6168 176.39 44.6743 176.314 44.7091C175.428 45.1162 174.505 45.2358 173.569 44.9946C172.488 44.7162 171.809 43.9607 171.579 42.7975C171.411 41.9508 171.423 41.0874 171.64 40.2489C171.889 39.2801 172.452 38.6047 173.378 38.3263C174.012 38.1356 174.647 38.164 175.267 38.3956C175.848 38.6128 176.286 39.0211 176.583 39.601C176.745 39.916 176.856 40.2512 176.912 40.6037C176.985 41.0567 177.028 41.5129 176.981 41.9976ZM172.677 41.0446C172.754 41.0571 172.801 41.0713 172.848 41.0713C173.783 41.0727 174.717 41.0731 175.652 41.0705C175.709 41.0703 175.767 41.044 175.849 41.0234C175.809 40.7759 175.79 40.5383 175.731 40.3132C175.584 39.7634 175.253 39.3973 174.721 39.2799C174.519 39.2353 174.306 39.2236 174.1 39.2316C173.467 39.2559 173.011 39.6305 172.804 40.2722C172.727 40.5108 172.698 40.7575 172.677 41.0446Z" fill="#212121"/>
<path d="M68.6407 43.5953C68.6407 43.9562 68.6407 44.2713 68.6407 44.592C68.5562 44.6393 68.4812 44.6905 68.3996 44.7257C67.541 45.0974 66.6497 45.2167 65.7352 45.0343C64.4721 44.7824 63.644 43.8985 63.4652 42.5815C63.3675 41.8621 63.3702 41.1312 63.5272 40.4151C63.5804 40.173 63.6643 39.9327 63.7682 39.7082C64.1079 38.9735 64.6731 38.5068 65.4338 38.305C65.9884 38.158 66.5485 38.1687 67.1029 38.3207C67.9089 38.5417 68.4741 39.0554 68.8152 39.8372C68.969 40.1894 69.0504 40.5624 69.0972 40.9429C69.1388 41.2826 69.1264 41.6241 69.1208 41.9927C68.9933 42.0016 68.8832 42.0157 68.773 42.0159C67.5327 42.0175 66.2923 42.0165 65.052 42.0175C64.9263 42.0175 64.8005 42.0246 64.6792 42.0282C64.5583 43.0859 65.1967 43.9475 66.1788 44.0713C66.8528 44.1563 67.5029 44.0384 68.1357 43.8C68.29 43.7419 68.4416 43.6761 68.6407 43.5953ZM64.666 41.0289C64.9453 41.085 66.9847 41.1134 67.7644 41.0721C67.8112 41.0698 67.8569 41.046 67.8988 41.0335C67.9228 40.7636 67.8817 40.5176 67.8082 40.2784C67.6694 39.8265 67.396 39.4953 66.9576 39.331C66.6013 39.1975 66.2308 39.1872 65.8642 39.2613C65.4737 39.3402 65.1547 39.5479 64.9456 39.909C64.7458 40.2544 64.6452 40.6264 64.666 41.0289Z" fill="#212121"/>
<path d="M160.581 41.5561C160.583 42.0071 160.553 42.4516 160.42 42.8874C160.04 44.1285 159.021 44.8422 157.877 44.9116C157.478 44.9357 157.083 44.9172 156.699 44.7957C155.733 44.4906 155.106 43.8234 154.831 42.8267C154.609 42.0225 154.61 41.2005 154.811 40.3885C155.098 39.2349 156.021 38.2619 157.503 38.2034C157.84 38.1901 158.174 38.2214 158.5 38.302C159.552 38.5619 160.198 39.2542 160.469 40.3318C160.57 40.7332 160.583 41.1442 160.581 41.5561ZM159.431 41.5993C159.431 41.4325 159.439 41.2651 159.43 41.0989C159.41 40.7635 159.342 40.4369 159.205 40.1312C158.955 39.5722 158.528 39.2621 157.938 39.1996C157.791 39.184 157.641 39.1821 157.493 39.1892C156.823 39.2216 156.348 39.5558 156.077 40.1925C156.018 40.3325 155.971 40.4804 155.937 40.6291C155.813 41.1606 155.827 41.7001 155.886 42.237C155.921 42.5561 156.012 42.8647 156.164 43.1491C156.401 43.5907 156.757 43.8678 157.236 43.9617C157.392 43.9923 157.556 43.992 157.716 43.9893C158.508 43.9758 159.047 43.5569 159.292 42.7767C159.413 42.3934 159.446 41.9992 159.431 41.5993Z" fill="#212121"/>
<path d="M125.832 41.5823C125.831 41.2092 125.842 40.8383 125.928 40.4722C126.219 39.2461 127.163 38.2642 128.641 38.2036C129.028 38.1878 129.409 38.2321 129.783 38.3394C130.65 38.5878 131.235 39.1512 131.527 40.028C131.616 40.2929 131.676 40.5735 131.707 40.8518C131.777 41.4928 131.777 42.1345 131.608 42.7641C131.269 44.0276 130.268 44.852 129.001 44.9139C128.614 44.9328 128.23 44.9179 127.857 44.8007C126.829 44.477 126.206 43.7549 125.934 42.6917C125.84 42.3278 125.83 41.9557 125.832 41.5823ZM126.966 41.5526C126.996 41.8328 127.016 42.1146 127.058 42.3928C127.103 42.6861 127.207 42.9598 127.349 43.22C127.935 44.294 129.685 44.2189 130.227 43.2586C130.333 43.0725 130.421 42.8682 130.474 42.6605C130.597 42.1864 130.629 41.7001 130.59 41.2092C130.563 40.8754 130.521 40.5454 130.4 40.2317C130.198 39.7069 129.84 39.3605 129.302 39.2334C128.984 39.1582 128.659 39.1555 128.341 39.2232C127.879 39.3215 127.525 39.5898 127.302 40.0238C127.226 40.1698 127.168 40.3274 127.12 40.4859C127.018 40.8316 126.978 41.1882 126.966 41.5526Z" fill="#212121"/>
<path d="M105.784 41.5938C105.791 42.001 105.76 42.4455 105.623 42.8815C105.252 44.0567 104.26 44.8306 103 44.9104C102.589 44.9364 102.181 44.9185 101.784 44.7976C100.801 44.4987 100.154 43.8477 99.8627 42.8684C99.6166 42.0404 99.617 41.1929 99.839 40.3568C100.152 39.18 101.14 38.2442 102.642 38.2021C102.977 38.1927 103.309 38.2234 103.632 38.3005C104.752 38.5675 105.42 39.2878 105.688 40.4007C105.779 40.7793 105.786 41.164 105.784 41.5938ZM100.897 41.5718C100.907 41.764 100.909 41.9571 100.929 42.1481C100.966 42.5087 101.062 42.8535 101.241 43.1711C101.481 43.5984 101.844 43.8631 102.321 43.9592C102.47 43.9891 102.626 43.9896 102.779 43.9889C103.669 43.9841 104.244 43.5438 104.484 42.6765C104.648 42.0862 104.657 41.4835 104.57 40.8822C104.533 40.631 104.466 40.3776 104.368 40.1437C104.168 39.6651 103.805 39.357 103.297 39.2384C102.956 39.1589 102.609 39.1545 102.269 39.2288C101.809 39.3292 101.451 39.588 101.23 40.0101C101.135 40.19 101.065 40.3849 101.004 40.5797C100.905 40.9017 100.902 41.237 100.897 41.5718Z" fill="#212121"/>
<path d="M95.6658 41.5418C95.6628 41.993 95.6375 42.4373 95.505 42.8745C95.1546 44.029 94.2121 44.8248 92.971 44.9096C92.5734 44.9368 92.1777 44.9193 91.7933 44.7993C90.8425 44.5028 90.2128 43.8541 89.9295 42.8749C89.6901 42.0472 89.6916 41.1999 89.9029 40.3632C90.1942 39.2099 91.1329 38.2476 92.6106 38.2023C92.9472 38.1919 93.2797 38.2258 93.6052 38.3086C94.6743 38.5801 95.3067 39.2991 95.5628 40.3939C95.5948 40.5308 95.6227 40.6708 95.6332 40.8108C95.652 41.0537 95.6559 41.2981 95.6658 41.5418ZM90.9288 41.552C90.9381 41.7443 90.9405 41.9371 90.9579 42.1286C90.9921 42.5029 91.0882 42.86 91.2708 43.1874C91.5001 43.5989 91.8407 43.8596 92.2894 43.9536C92.4453 43.9861 92.6089 43.9858 92.7691 43.9887C93.4423 44.0012 94.1329 43.6564 94.3866 42.7318C94.5554 42.1162 94.5717 41.4903 94.4797 40.8628C94.4448 40.6243 94.3857 40.3827 94.2955 40.1607C94.0587 39.5778 93.6199 39.2586 93.0139 39.1989C92.8301 39.1807 92.642 39.1804 92.4583 39.1981C91.9303 39.249 91.5204 39.5105 91.2598 39.9926C91.1641 40.1696 91.0959 40.3657 91.0371 40.5601C90.9395 40.8819 90.9338 41.2173 90.9288 41.552Z" fill="#212121"/>
<path d="M88.3965 44.9061C88.27 44.9123 88.1713 44.9207 88.0728 44.9207C87.8088 44.9207 87.5445 44.9172 87.2564 44.915C87.2482 44.7789 87.2357 44.6654 87.2355 44.552C87.2342 43.2086 87.2346 41.865 87.2346 40.5216C87.2346 40.4163 87.227 40.3101 87.2355 40.2056C87.2716 39.7604 87.0275 39.3171 86.4043 39.2074C85.7211 39.0871 85.1325 39.3153 84.6437 39.824C84.4943 39.9793 84.4273 40.1564 84.429 40.3872C84.4389 41.7569 84.4342 43.1268 84.4334 44.4967C84.4334 44.6255 84.427 44.7546 84.4234 44.8893C84.3535 44.9022 84.3047 44.9186 84.2559 44.919C83.941 44.9213 83.6261 44.9202 83.2932 44.9202C83.2784 44.8415 83.2567 44.7806 83.2567 44.7198C83.255 42.6782 83.2554 40.6366 83.2563 38.5952C83.2563 38.544 83.2668 38.4928 83.2746 38.4213C83.6286 38.3652 83.9758 38.4002 84.3264 38.3966C84.4224 38.6373 84.326 38.8887 84.4401 39.1282C84.5143 39.0566 84.576 38.9948 84.6397 38.9355C85.3299 38.2933 86.1359 38.0735 87.0341 38.2699C87.7625 38.429 88.2674 39.0266 88.3743 39.8054C88.3991 39.9872 88.4082 40.173 88.4086 40.357C88.4115 41.8059 88.4105 43.2546 88.4099 44.7036C88.4099 44.7551 88.4033 44.8071 88.3965 44.9061Z" fill="#212121"/>
<path d="M75.0402 38.6493C75.0402 39.0185 75.0402 39.3858 75.0402 39.756C74.9255 39.8065 74.8522 39.7141 74.7711 39.6689C74.2138 39.3591 73.6212 39.2399 72.9972 39.304C72.4632 39.3591 72.0619 39.6359 71.7976 40.1342C71.661 40.3918 71.5809 40.6702 71.5487 40.9575C71.4881 41.4956 71.4758 42.0359 71.595 42.5697C71.6178 42.6721 71.6445 42.7743 71.6789 42.8727C71.9451 43.6344 72.5143 44.0545 73.2856 44.0448C73.7773 44.0387 74.2507 43.9296 74.6967 43.7033C74.7962 43.6528 74.8959 43.6023 74.9829 43.5583C75.0123 43.568 75.0271 43.5684 75.034 43.5763C75.0417 43.5851 75.0453 43.6007 75.0453 43.6134C75.0458 43.942 75.0457 44.2707 75.0457 44.599C74.897 44.7384 74.7225 44.811 74.5476 44.8778C73.7973 45.1641 73.0324 45.1952 72.2671 44.9696C71.3545 44.7008 70.7513 44.0658 70.479 43.1164C70.2051 42.1619 70.2029 41.1866 70.4771 40.2312C70.8351 38.9843 71.8113 38.2331 73.0489 38.2024C73.513 38.1909 73.9717 38.2301 74.4204 38.3628C74.6359 38.4269 74.8453 38.5077 75.0402 38.6493Z" fill="#212121"/>
<path d="M60.6226 37.2446C59.9425 37.2377 59.3045 37.246 58.673 37.2395C58.6089 36.8867 58.6109 36.5271 58.6756 36.2239C60.3582 36.2239 62.0431 36.2239 63.7251 36.2239C63.7933 36.5017 63.799 36.8061 63.7428 37.2261C63.1107 37.2665 62.4722 37.2209 61.8351 37.2508C61.7367 37.3848 61.7829 37.5367 61.7826 37.6761C61.7792 39.9317 61.7804 42.1875 61.78 44.4431C61.78 44.5867 61.7761 44.7304 61.7741 44.8672C61.4588 44.9368 60.9872 44.9386 60.6446 44.8721C60.6163 44.2446 60.6351 43.6109 60.6318 42.9779C60.6285 42.341 60.6311 41.7041 60.6311 41.0672C60.6311 40.4437 60.6324 39.82 60.6307 39.1965C60.6288 38.5618 60.6388 37.9267 60.6226 37.2446Z" fill="#212121"/>
<path d="M124.03 44.8724C123.71 44.935 123.217 44.9367 122.881 44.8781C122.863 44.519 122.876 44.1546 122.874 43.7906C122.871 43.4247 122.873 43.0587 122.873 42.6927C122.873 42.3268 122.873 41.9608 122.873 41.5949C122.873 41.2289 122.874 40.8629 122.873 40.497C122.872 40.1332 122.87 39.7694 122.869 39.4005C122.587 39.301 122.312 39.3999 122.043 39.3246C121.995 39.0649 122.019 38.81 122.025 38.5283C122.321 38.517 122.596 38.5062 122.872 38.4956C122.9 38.2226 122.913 37.9745 122.955 37.7315C122.987 37.5403 123.039 37.3485 123.111 37.169C123.299 36.7025 123.643 36.3955 124.123 36.2904C124.782 36.1461 125.417 36.2339 126.023 36.5817C126.008 36.7548 125.908 36.8792 125.849 37.0176C125.793 37.1465 125.722 37.2683 125.647 37.4142C125.538 37.3673 125.447 37.3257 125.355 37.2891C125.174 37.2169 124.986 37.1873 124.791 37.1934C124.464 37.2034 124.243 37.3679 124.128 37.6891C124.049 37.9082 124.032 38.1159 124.066 38.4722C124.273 38.5497 124.492 38.5009 124.706 38.5097C124.908 38.5181 125.111 38.5115 125.308 38.5115C125.379 38.8208 125.38 39.0231 125.315 39.3601C124.906 39.3903 124.486 39.353 124.047 39.3834C124.018 39.8598 124.036 40.3144 124.033 40.7682C124.03 41.2256 124.032 41.6831 124.032 42.1407C124.032 42.5982 124.032 43.0556 124.032 43.5131C124.031 43.9683 124.031 44.4235 124.03 44.8724Z" fill="#212121"/>
<path d="M137.432 40.1002C137.126 40.1002 136.83 40.1002 136.529 40.1002C136.505 39.9704 136.487 39.8549 136.461 39.7417C136.397 39.4606 136.226 39.2788 135.977 39.2118C135.477 39.0772 135.023 39.1834 134.643 39.5809C134.48 39.7508 134.388 39.9451 134.396 40.2069C134.41 40.7321 134.4 41.2583 134.4 41.7839C134.4 42.6776 134.4 43.5714 134.4 44.4651C134.4 44.5959 134.4 44.7267 134.4 44.8514C134.151 44.936 133.604 44.9441 133.278 44.8705C133.278 42.7344 133.278 40.5958 133.278 38.4354C133.454 38.3666 133.634 38.4033 133.809 38.3987C133.974 38.3946 134.142 38.3849 134.329 38.4173C134.339 38.5986 134.348 38.7643 134.358 38.9243C134.442 38.9784 134.469 38.9073 134.507 38.8622C135.046 38.2273 135.721 38.083 136.454 38.2865C137.017 38.4427 137.34 38.891 137.445 39.5132C137.477 39.7028 137.506 39.9011 137.432 40.1002Z" fill="#212121"/>
<path d="M169.936 44.904C169.527 44.927 169.168 44.9244 168.791 44.9076C168.791 42.035 168.791 39.2028 168.792 36.3706C168.792 36.3341 168.811 36.2977 168.827 36.2413C168.925 36.2357 169.023 36.2258 169.12 36.2256C169.381 36.2248 169.642 36.2208 169.911 36.2292C169.922 36.3225 169.935 36.3869 169.935 36.4513C169.936 39.2561 169.936 42.0607 169.936 44.904Z" fill="#212121"/>
<path d="M97.2689 36.224C97.5857 36.224 97.9118 36.2234 98.2377 36.2254C98.2594 36.2256 98.2811 36.2461 98.319 36.2656C98.3244 36.3049 98.3378 36.3548 98.3378 36.4047C98.3387 39.2238 98.3387 42.0428 98.3387 44.8718C98.1405 44.9487 97.9525 44.9105 97.7695 44.9161C97.5954 44.9213 97.421 44.9135 97.2757 44.9117C97.1767 44.829 97.1975 44.7447 97.1975 44.67C97.1963 41.9555 97.1961 39.2411 97.1977 36.5266C97.1978 36.426 97.1662 36.3131 97.2689 36.224Z" fill="#212121"/>
<path d="M24.6107 0C38.1785 0.0407745 49.1749 10.9836 49.1667 24.6023C49.1584 38.2286 38.1309 49.1955 24.5371 49.1666C10.8247 49.1373 -0.0190846 37.9946 2.52188e-05 24.5499C0.0191351 11.1266 10.8769 0.0203872 24.6107 0ZM3.13998 24.5651C3.09645 36.3212 12.642 46.0159 24.5519 46.0348C36.3798 46.0535 45.99 36.5027 46.035 24.6718C46.0804 12.7601 36.4427 3.14176 24.5948 3.13815C12.6792 3.13454 3.11939 12.8149 3.13998 24.5651Z" fill="#212121"/>
<path d="M33.0599 21.6814C33.1025 22.5126 32.4863 23.5442 31.1916 23.6147C30.7929 23.6364 30.4101 23.5139 30.0672 23.2965C29.7343 23.0856 29.3998 22.8773 29.0656 22.668C25.7007 20.5626 22.3357 18.4572 18.9706 16.3522C18.35 15.9641 17.7302 15.5748 17.1065 15.1915C16.617 14.8909 16.276 14.4884 16.1494 13.9211C15.9316 12.9466 16.4917 11.9842 17.46 11.6855C17.9713 11.5278 18.4663 11.573 18.9354 11.8269C19.1703 11.9541 19.3966 12.0978 19.6233 12.2395C22.6786 14.1499 25.733 16.0616 28.788 17.9725C29.8978 18.6666 31.0071 19.3616 32.119 20.0524C32.4252 20.2425 32.6714 20.4835 32.8425 20.7988C32.9993 21.0881 33.0843 21.3934 33.0599 21.6814Z" fill="#212121"/>
<path d="M33.062 28.7723C33.1065 29.6142 32.4352 30.6147 31.2171 30.6985C30.7951 30.7277 30.4099 30.5863 30.0553 30.3631C29.5885 30.0693 29.1237 29.7726 28.6586 29.4763C25.6053 27.5315 22.5524 25.5866 19.4989 23.642C18.6879 23.1256 17.8773 22.6084 17.0637 22.0958C16.6533 21.8371 16.3655 21.4878 16.2046 21.0257C15.8251 19.9367 16.5274 18.5784 17.936 18.4694C18.3421 18.4379 18.719 18.5552 19.0639 18.7704C19.4478 19.0099 19.8296 19.253 20.2111 19.4958C23.8728 21.8276 27.5345 24.1597 31.1961 26.4915C31.4823 26.6737 31.7715 26.8516 32.0555 27.0372C32.1852 27.122 32.3141 27.2116 32.429 27.315C32.8523 27.6956 33.0649 28.1735 33.062 28.7723Z" fill="#212121"/>
<path d="M33.063 35.8901C33.1092 37.2313 31.5587 38.2928 30.1983 37.5341C29.8407 37.3347 29.5024 37.1 29.1565 36.8796C26.1031 34.9322 23.0504 32.9839 19.9968 31.037C19.0546 30.4362 18.1114 29.8367 17.1666 29.2398C16.8267 29.0251 16.5299 28.7741 16.3364 28.4092C15.6706 27.153 16.5176 25.7502 17.7358 25.5726C18.2366 25.4997 18.6879 25.5997 19.1091 25.8658C19.6592 26.2133 20.2067 26.565 20.7554 26.9149C24.4896 29.2943 28.2239 31.6738 31.9576 34.0535C32.0649 34.1219 32.174 34.1888 32.2749 34.266C32.7913 34.6609 33.0669 35.1793 33.063 35.8901Z" fill="#212121"/>
<path d="M18.0358 37.7875C17.0015 37.7883 16.1376 36.9798 16.1039 35.9572C16.0876 35.4679 16.2308 35.0189 16.5659 34.6461C16.6592 34.5424 16.7618 34.446 16.8659 34.3525C17.2724 33.9877 17.6806 33.6246 18.0898 33.263C18.1948 33.1703 18.3016 33.0788 18.415 32.9971C19.4772 32.2301 21.0828 32.7169 21.4131 34.1127C21.5748 34.7963 21.389 35.391 20.9031 35.8793C20.5385 36.246 20.1345 36.5738 19.7472 36.918C19.5903 37.0577 19.4356 37.2001 19.2723 37.3322C18.9131 37.6233 18.5043 37.7873 18.0358 37.7875Z" fill="#212121"/>
<path d="M29.6357 16.7455C28.8097 16.7761 28.1047 16.246 27.8462 15.5596C27.5578 14.7941 27.679 14.0853 28.2711 13.5106C28.8143 12.9833 29.38 12.4738 29.9735 12.0039C31.0413 11.1587 32.6388 11.6843 32.9869 12.9941C33.1753 13.7022 33.0243 14.3616 32.4713 14.8834C32.0938 15.2398 31.6975 15.5765 31.309 15.9215C31.1829 16.0333 31.0537 16.1415 30.9283 16.2539C30.5565 16.5868 30.1243 16.7597 29.6357 16.7455Z" fill="#212121"/>
</svg>
