<svg width="212" height="63" viewBox="0 0 212 63" fill="none" xmlns="http://www.w3.org/2000/svg">
<path d="M1.64645 31.059L1.29289 31.4125L1.64645 31.7661L31.059 61.1786L31.4125 61.5322L31.7661 61.1786L61.1786 31.7661L61.5322 31.4125L61.1786 31.059L31.7661 1.64645L31.4125 1.29289L31.059 1.64645L1.64645 31.059Z" fill="#113892" stroke="white"/>
<path d="M4.49411 31.0573L4.14055 31.4108L4.49409 31.7644L31.058 58.33L31.4116 58.6835L31.7651 58.33L58.3307 31.7661L58.6843 31.4125L58.3307 31.059L31.7668 4.49338L31.4133 4.13982L31.0597 4.49336L4.49411 31.0573Z" fill="white" stroke="#1BC5D4"/>
<rect x="21.1279" y="18.2544" width="4.32387" height="4.31151" transform="rotate(-44.9982 21.1279 18.2544)" fill="#113892"/>
<rect x="24.5264" y="14.8564" width="4.31151" height="4.31151" transform="rotate(-44.9982 24.5264 14.8564)" fill="#113892"/>
<rect x="27.918" y="11.4658" width="4.31151" height="4.31151" transform="rotate(-44.9982 27.918 11.4658)" fill="#113892"/>
<rect x="14.6553" y="24.6763" width="4.31151" height="4.31151" transform="rotate(-44.9982 14.6553 24.6763)" fill="#1BC5D4"/>
<rect x="11.2539" y="28.0742" width="4.32387" height="4.31151" transform="rotate(-44.9982 11.2539 28.0742)" fill="#1BC5D4"/>
<rect x="7.86816" y="31.4644" width="4.32387" height="4.31151" transform="rotate(-44.9982 7.86816 31.4644)" fill="#1BC5D4"/>
<rect x="11.2539" y="34.8547" width="4.32387" height="4.31151" transform="rotate(-44.9982 11.2539 34.8547)" fill="#1BC5D4"/>
<rect x="14.6484" y="38.2427" width="4.32387" height="4.31151" transform="rotate(-44.9982 14.6484 38.2427)" fill="#1BC5D4"/>
<rect x="18.04" y="34.8547" width="4.32387" height="4.31151" transform="rotate(-44.9982 18.04 34.8547)" fill="#1BC5D4"/>
<rect x="21.4346" y="31.4541" width="4.31151" height="4.31151" transform="rotate(-44.9982 21.4346 31.4541)" fill="#113892"/>
<rect x="24.8252" y="34.8447" width="4.31151" height="4.31151" transform="rotate(-44.9982 24.8252 34.8447)" fill="#1BC5D4"/>
<rect x="28.2109" y="38.2351" width="4.31151" height="4.32387" transform="rotate(-44.9982 28.2109 38.2351)" fill="#1BC5D4"/>
<rect x="31.6006" y="41.6252" width="4.31151" height="4.32387" transform="rotate(-44.9982 31.6006 41.6252)" fill="#113892"/>
<rect x="34.9912" y="45.0129" width="4.31151" height="4.32387" transform="rotate(-44.9982 34.9912 45.0129)" fill="#113892"/>
<rect x="31.5957" y="48.4111" width="4.32387" height="4.32387" transform="rotate(-44.9982 31.5957 48.4111)" fill="#113892"/>
<rect x="28.2002" y="51.8015" width="4.32387" height="4.32387" transform="rotate(-44.9982 28.2002 51.8015)" fill="#113892"/>
<rect x="24.8164" y="48.4111" width="4.32387" height="4.32387" transform="rotate(-44.9982 24.8164 48.4111)" fill="#113892"/>
<rect x="21.4277" y="45.022" width="4.32387" height="4.32387" transform="rotate(-44.9982 21.4277 45.022)" fill="#113892"/>
<rect x="24.8164" y="41.6331" width="4.32387" height="4.32387" transform="rotate(-44.9982 24.8164 41.6331)" fill="#113892"/>
<rect x="31.3086" y="14.8564" width="4.31151" height="4.31151" transform="rotate(-44.9982 31.3086 14.8564)" fill="#113892"/>
<rect x="34.6982" y="18.1963" width="4.31151" height="4.31151" transform="rotate(-44.9982 34.6982 18.1963)" fill="#1BC5D4"/>
<rect x="31.3086" y="21.5842" width="4.31151" height="4.31151" transform="rotate(-44.9982 31.3086 21.5842)" fill="#113892"/>
<rect x="27.9082" y="25.0327" width="4.32387" height="4.31151" transform="rotate(-44.9982 27.9082 25.0327)" fill="#113892"/>
<rect x="31.3008" y="28.3723" width="4.32387" height="4.31151" transform="rotate(-44.9982 31.3008 28.3723)" fill="#113892"/>
<rect x="34.6836" y="31.7627" width="4.32387" height="4.32387" transform="rotate(-44.9982 34.6836 31.7627)" fill="#1BC5D4"/>
<rect x="38.0859" y="28.364" width="4.31151" height="4.32387" transform="rotate(-44.9982 38.0859 28.364)" fill="#1BC5D4"/>
<rect x="41.4678" y="24.9741" width="4.31151" height="4.32387" transform="rotate(-44.9982 41.4678 24.9741)" fill="#1BC5D4"/>
<rect x="44.8594" y="28.3647" width="4.31151" height="4.32387" transform="rotate(-44.9982 44.8594 28.3647)" fill="#1BC5D4"/>
<rect x="48.2539" y="31.803" width="4.31151" height="4.32387" transform="rotate(-44.9982 48.2539 31.803)" fill="#113892"/>
<rect x="44.8594" y="35.1431" width="4.31151" height="4.32387" transform="rotate(-44.9982 44.8594 35.1431)" fill="#1BC5D4"/>
<rect x="41.4639" y="38.5405" width="4.32387" height="4.32387" transform="rotate(-44.9982 41.4639 38.5405)" fill="#1BC5D4"/>
<rect x="24.5176" y="21.6421" width="4.32387" height="4.31151" transform="rotate(-44.9982 24.5176 21.6421)" fill="#113892"/>
<path d="M77.4745 24.4617V14.0614H74.0381V11.5522H83.602V14.0614H80.1292V24.4617H77.4745Z" fill="#113892"/>
<path d="M91.0496 23.298C90.1163 24.2071 88.989 24.6617 87.6677 24.6617C86.3465 24.6617 85.2192 24.2071 84.2858 23.298C83.3524 22.3768 82.8858 21.2495 82.8858 19.9161C82.8858 18.5949 83.3524 17.4736 84.2858 16.5524C85.2192 15.6311 86.3465 15.1705 87.6677 15.1705C88.989 15.1705 90.1163 15.6311 91.0496 16.5524C91.983 17.4736 92.4496 18.5949 92.4496 19.9161C92.4496 21.2495 91.983 22.3768 91.0496 23.298ZM87.6677 22.3343C88.3101 22.3343 88.8435 22.1101 89.2677 21.6616C89.7041 21.201 89.9223 20.6192 89.9223 19.9161C89.9223 19.2131 89.7041 18.6373 89.2677 18.1888C88.8435 17.7282 88.3101 17.4979 87.6677 17.4979C87.0131 17.4979 86.4677 17.7282 86.0313 18.1888C85.607 18.6373 85.3949 19.2131 85.3949 19.9161C85.3949 20.6192 85.607 21.201 86.0313 21.6616C86.4677 22.1101 87.0131 22.3343 87.6677 22.3343Z" fill="#113892"/>
<path d="M94.246 27.989V15.3705H96.737V16.0251C97.3309 15.4554 98.1067 15.1705 99.0643 15.1705C100.373 15.1705 101.446 15.6372 102.283 16.5706C103.131 17.4918 103.555 18.607 103.555 19.9161C103.555 21.2252 103.131 22.3465 102.283 23.2798C101.446 24.2011 100.373 24.6617 99.0643 24.6617C98.0946 24.6617 97.3188 24.3708 96.737 23.7889V27.989H94.246ZM98.7007 22.3889C99.3795 22.3889 99.931 22.1525 100.355 21.6798C100.78 21.1949 100.992 20.607 100.992 19.9161C100.992 19.2252 100.78 18.6433 100.355 18.1706C99.931 17.6857 99.3795 17.4433 98.7007 17.4433C97.8764 17.4433 97.2218 17.7706 96.737 18.4252V21.3889C97.2218 22.0556 97.8764 22.3889 98.7007 22.3889Z" fill="#113892"/>
<path d="M105.379 24.4617V15.3705H111.652V17.5524H107.87V24.4617H105.379Z" fill="#113892"/>
<path d="M120.472 23.298C119.538 24.2071 118.411 24.6617 117.09 24.6617C115.768 24.6617 114.641 24.2071 113.708 23.298C112.774 22.3768 112.308 21.2495 112.308 19.9161C112.308 18.5949 112.774 17.4736 113.708 16.5524C114.641 15.6311 115.768 15.1705 117.09 15.1705C118.411 15.1705 119.538 15.6311 120.472 16.5524C121.405 17.4736 121.872 18.5949 121.872 19.9161C121.872 21.2495 121.405 22.3768 120.472 23.298ZM117.09 22.3343C117.732 22.3343 118.265 22.1101 118.69 21.6616C119.126 21.201 119.344 20.6192 119.344 19.9161C119.344 19.2131 119.126 18.6373 118.69 18.1888C118.265 17.7282 117.732 17.4979 117.09 17.4979C116.435 17.4979 115.89 17.7282 115.453 18.1888C115.029 18.6373 114.817 19.2131 114.817 19.9161C114.817 20.6192 115.029 21.201 115.453 21.6616C115.89 22.1101 116.435 22.3343 117.09 22.3343Z" fill="#113892"/>
<path d="M123.668 24.4617V15.3705H128.014C129.117 15.3705 129.953 15.6372 130.523 16.1705C131.104 16.7039 131.395 17.3463 131.395 18.0979C131.395 18.6555 131.195 19.1646 130.795 19.6252C131.583 20.1222 131.977 20.8131 131.977 21.698C131.977 22.4616 131.698 23.1162 131.141 23.6617C130.595 24.195 129.765 24.4617 128.65 24.4617H123.668ZM126.159 22.4253H128.523C128.814 22.4253 129.05 22.3465 129.232 22.1889C129.414 22.0313 129.504 21.8071 129.504 21.5161C129.504 21.2374 129.414 21.0192 129.232 20.8616C129.05 20.704 128.814 20.6252 128.523 20.6252H126.159V22.4253ZM126.159 18.9524H128.014C128.256 18.9524 128.468 18.8858 128.65 18.7524C128.832 18.6191 128.923 18.407 128.923 18.1161C128.923 17.8251 128.832 17.613 128.65 17.4797C128.468 17.3463 128.256 17.2797 128.014 17.2797H126.159V18.9524Z" fill="#113892"/>
<path d="M137.699 24.6617C136.389 24.6617 135.311 24.2011 134.462 23.2798C133.626 22.3465 133.208 21.2252 133.208 19.9161C133.208 18.607 133.626 17.4918 134.462 16.5706C135.311 15.6372 136.389 15.1705 137.699 15.1705C138.656 15.1705 139.432 15.4554 140.026 16.0251V15.3705H142.517V24.4617H140.026V23.7889C139.444 24.3708 138.668 24.6617 137.699 24.6617ZM138.062 22.3889C138.886 22.3889 139.541 22.0556 140.026 21.3889V18.4252C139.541 17.7706 138.886 17.4433 138.062 17.4433C137.383 17.4433 136.832 17.6857 136.408 18.1706C135.983 18.6433 135.771 19.2252 135.771 19.9161C135.771 20.607 135.983 21.1949 136.408 21.6798C136.832 22.1525 137.383 22.3889 138.062 22.3889Z" fill="#113892"/>
<path d="M143.522 24.4617L146.649 21.007C145.546 20.4616 144.995 19.6009 144.995 18.4252C144.995 17.5282 145.292 16.7948 145.886 16.2251C146.48 15.6554 147.298 15.3705 148.34 15.3705H152.359V24.4617H149.868V21.5889H148.995L146.34 24.4617H143.522ZM148.486 19.5888H149.868V17.3888H148.468C147.716 17.3888 147.34 17.7706 147.34 18.5342C147.34 18.8615 147.449 19.1221 147.668 19.3161C147.886 19.4979 148.159 19.5888 148.486 19.5888Z" fill="#113892"/>
<path d="M74.8563 38.3658V29.2746H83.402V38.3658H80.911V31.4565H77.3473V38.3658H74.8563Z" fill="#113892"/>
<path d="M85.7941 41.8932V29.2746H88.2851V29.9292C88.879 29.3595 89.6548 29.0746 90.6124 29.0746C91.9215 29.0746 92.9943 29.5413 93.8307 30.4747C94.6792 31.3959 95.1034 32.5111 95.1034 33.8202C95.1034 35.1293 94.6792 36.2506 93.8307 37.1839C92.9943 38.1052 91.9215 38.5658 90.6124 38.5658C89.6427 38.5658 88.8669 38.2749 88.2851 37.693V41.8932H85.7941ZM90.2487 36.293C90.9275 36.293 91.4791 36.0566 91.9033 35.5839C92.3276 35.099 92.5397 34.5111 92.5397 33.8202C92.5397 33.1293 92.3276 32.5474 91.9033 32.0747C91.4791 31.5898 90.9275 31.3474 90.2487 31.3474C89.4245 31.3474 88.7699 31.6747 88.2851 32.3293V35.293C88.7699 35.9597 89.4245 36.293 90.2487 36.293Z" fill="#113892"/>
<path d="M104.491 37.2021C103.558 38.1112 102.43 38.5658 101.109 38.5658C99.7879 38.5658 98.6606 38.1112 97.7272 37.2021C96.7938 36.2809 96.3272 35.1536 96.3272 33.8202C96.3272 32.499 96.7938 31.3777 97.7272 30.4565C98.6606 29.5352 99.7879 29.0746 101.109 29.0746C102.43 29.0746 103.558 29.5352 104.491 30.4565C105.424 31.3777 105.891 32.499 105.891 33.8202C105.891 35.1536 105.424 36.2809 104.491 37.2021ZM101.109 36.2385C101.752 36.2385 102.285 36.0142 102.709 35.5657C103.146 35.1051 103.364 34.5233 103.364 33.8202C103.364 33.1172 103.146 32.5414 102.709 32.0929C102.285 31.6323 101.752 31.402 101.109 31.402C100.455 31.402 99.9091 31.6323 99.4727 32.0929C99.0485 32.5414 98.8363 33.1172 98.8363 33.8202C98.8363 34.5233 99.0485 35.1051 99.4727 35.5657C99.9091 36.0142 100.455 36.2385 101.109 36.2385Z" fill="#113892"/>
<path d="M107.687 29.2746H109.815L112.797 33.6384L115.779 29.2746H117.888V38.3658H115.397V33.4384L113.506 36.2385H112.069L110.178 33.4384V38.3658H107.687V29.2746Z" fill="#113892"/>
<path d="M129.058 38.3658V29.2746H131.549V38.3658H129.058ZM120.294 38.3658V29.2746H122.785V31.9838H124.494C125.597 31.9838 126.428 32.3111 126.985 32.9656C127.555 33.6081 127.84 34.3293 127.84 35.1293C127.84 35.9415 127.555 36.687 126.985 37.3658C126.428 38.0324 125.597 38.3658 124.494 38.3658H120.294ZM122.785 34.1111V36.2385H124.203C125.064 36.2385 125.494 35.8748 125.494 35.1475C125.494 34.4566 125.064 34.1111 124.203 34.1111H122.785Z" fill="#113892"/>
<path d="M133.967 38.3658V29.2746H136.457V36.1839H139.094V29.2746H141.585V36.1839H144.221V29.2746H146.712V38.3658H133.967Z" fill="#113892"/>
<path d="M149.422 38.5476C149.022 38.5476 148.579 38.5052 148.094 38.4203L148.403 36.3476C148.622 36.3718 148.779 36.3839 148.876 36.3839C149.252 36.3839 149.531 36.2688 149.713 36.0385C149.894 35.796 149.985 35.3778 149.985 34.7839V29.2746H157.767V38.3658H155.276V31.4565H152.476V35.093C152.476 36.2203 152.173 37.0809 151.567 37.6749C150.973 38.2567 150.258 38.5476 149.422 38.5476Z" fill="#113892"/>
<path d="M164.411 38.5658C163.029 38.5658 161.878 38.1294 160.956 37.2567C160.047 36.3839 159.593 35.2384 159.593 33.8202C159.593 32.4626 160.047 31.3353 160.956 30.4383C161.866 29.5292 163.005 29.0746 164.375 29.0746C165.635 29.0746 166.696 29.4686 167.557 30.2565C168.417 31.0323 168.848 32.1293 168.848 33.5475C168.848 33.9475 168.835 34.2323 168.811 34.402H162.011C162.084 34.996 162.344 35.4627 162.793 35.8021C163.253 36.1294 163.799 36.293 164.429 36.293C165.496 36.293 166.278 35.9112 166.775 35.1475L168.629 36.5294C167.696 37.887 166.29 38.5658 164.411 38.5658ZM162.102 32.7111H166.357C166.247 32.1899 165.999 31.7959 165.611 31.5292C165.235 31.2626 164.799 31.1292 164.302 31.1292C163.793 31.1292 163.326 31.2626 162.902 31.5292C162.478 31.7959 162.211 32.1899 162.102 32.7111Z" fill="#113892"/>
<path d="M170.686 38.3658V29.2746H173.177V32.7111H176.923V29.2746H179.414V38.3658H176.923V34.8748H173.177V38.3658H170.686Z" fill="#113892"/>
<path d="M181.819 38.3658V29.2746H184.31V32.7111H188.056V29.2746H190.547V38.3658H188.056V34.8748H184.31V38.3658H181.819Z" fill="#113892"/>
<path d="M196.88 38.5658C195.571 38.5658 194.492 38.1052 193.643 37.1839C192.807 36.2506 192.389 35.1293 192.389 33.8202C192.389 32.5111 192.807 31.3959 193.643 30.4747C194.492 29.5413 195.571 29.0746 196.88 29.0746C197.837 29.0746 198.613 29.3595 199.207 29.9292V29.2746H201.698V38.3658H199.207V37.693C198.625 38.2749 197.85 38.5658 196.88 38.5658ZM197.243 36.293C198.068 36.293 198.722 35.9597 199.207 35.293V32.3293C198.722 31.6747 198.068 31.3474 197.243 31.3474C196.565 31.3474 196.013 31.5898 195.589 32.0747C195.165 32.5474 194.952 33.1293 194.952 33.8202C194.952 34.5111 195.165 35.099 195.589 35.5839C196.013 36.0566 196.565 36.293 197.243 36.293Z" fill="#113892"/>
<path d="M202.703 38.3658L205.831 34.9111C204.728 34.3657 204.176 33.5051 204.176 32.3293C204.176 31.4323 204.473 30.6989 205.067 30.1292C205.661 29.5595 206.479 29.2746 207.522 29.2746H211.54V38.3658H209.049V35.493H208.176L205.522 38.3658H202.703ZM207.667 33.4929H209.049V31.2929H207.649C206.897 31.2929 206.522 31.6747 206.522 32.4384C206.522 32.7656 206.631 33.0263 206.849 33.2202C207.067 33.402 207.34 33.4929 207.667 33.4929Z" fill="#113892"/>
<path d="M74.8563 52.2699V43.1787H83.402V52.2699H80.911V45.3606H77.3473V52.2699H74.8563Z" fill="#113892"/>
<path d="M89.7215 52.4699C88.4123 52.4699 87.3335 52.0093 86.485 51.088C85.6486 50.1547 85.2304 49.0334 85.2304 47.7243C85.2304 46.4152 85.6486 45.3 86.485 44.3788C87.3335 43.4454 88.4123 42.9787 89.7215 42.9787C90.6791 42.9787 91.4548 43.2636 92.0488 43.8333V43.1787H94.5398V52.2699H92.0488V51.5971C91.467 52.179 90.6912 52.4699 89.7215 52.4699ZM90.0851 50.1971C90.9094 50.1971 91.5639 49.8638 92.0488 49.1971V46.2334C91.5639 45.5788 90.9094 45.2515 90.0851 45.2515C89.4063 45.2515 88.8548 45.494 88.4305 45.9788C88.0063 46.4516 87.7941 47.0334 87.7941 47.7243C87.7941 48.4152 88.0063 49.0031 88.4305 49.488C88.8548 49.9607 89.4063 50.1971 90.0851 50.1971Z" fill="#113892"/>
<path d="M97.254 52.4517C96.854 52.4517 96.4116 52.4093 95.9267 52.3244L96.2358 50.2517C96.454 50.2759 96.6116 50.288 96.7086 50.288C97.0843 50.288 97.3631 50.1729 97.545 49.9426C97.7268 49.7001 97.8177 49.2819 97.8177 48.688V43.1787H105.6V52.2699H103.109V45.3606H100.309V48.9971C100.309 50.1244 100.006 50.985 99.3995 51.579C98.8056 52.1608 98.0904 52.4517 97.254 52.4517Z" fill="#113892"/>
<path d="M111.934 52.4699C110.625 52.4699 109.546 52.0093 108.698 51.088C107.862 50.1547 107.443 49.0334 107.443 47.7243C107.443 46.4152 107.862 45.3 108.698 44.3788C109.546 43.4454 110.625 42.9787 111.934 42.9787C112.892 42.9787 113.668 43.2636 114.262 43.8333V43.1787H116.753V52.2699H114.262V51.5971C113.68 52.179 112.904 52.4699 111.934 52.4699ZM112.298 50.1971C113.122 50.1971 113.777 49.8638 114.262 49.1971V46.2334C113.777 45.5788 113.122 45.2515 112.298 45.2515C111.619 45.2515 111.068 45.494 110.643 45.9788C110.219 46.4516 110.007 47.0334 110.007 47.7243C110.007 48.4152 110.219 49.0031 110.643 49.488C111.068 49.9607 111.619 50.1971 112.298 50.1971Z" fill="#113892"/>
<path d="M120.794 52.2699V45.3606H118.285V43.1787H125.976V45.3606H123.285V52.2699H120.794Z" fill="#113892"/>
<path d="M131.2 52.4699C129.891 52.4699 128.812 52.0093 127.963 51.088C127.127 50.1547 126.709 49.0334 126.709 47.7243C126.709 46.4152 127.127 45.3 127.963 44.3788C128.812 43.4454 129.891 42.9787 131.2 42.9787C132.157 42.9787 132.933 43.2636 133.527 43.8333V43.1787H136.018V52.2699H133.527V51.5971C132.945 52.179 132.17 52.4699 131.2 52.4699ZM131.563 50.1971C132.388 50.1971 133.042 49.8638 133.527 49.1971V46.2334C133.042 45.5788 132.388 45.2515 131.563 45.2515C130.885 45.2515 130.333 45.494 129.909 45.9788C129.485 46.4516 129.272 47.0334 129.272 47.7243C129.272 48.4152 129.485 49.0031 129.909 49.488C130.333 49.9607 130.885 50.1971 131.563 50.1971Z" fill="#113892"/>
</svg>
