<svg width="135" height="59" viewBox="0 0 135 59" fill="none" xmlns="http://www.w3.org/2000/svg">
<path fill-rule="evenodd" clip-rule="evenodd" d="M11.9978 29.4459C6.95469 29.4459 2.95544 27.9497 0 24.9573V24.8729L3.25292 20.3103C5.69788 22.8679 8.71317 24.1476 12.2988 24.1494C13.8619 24.1494 15.0773 23.8431 15.9451 23.2306C16.8129 22.618 17.2468 21.8717 17.2468 20.9915C17.2468 20.2223 16.8411 19.5825 16.0296 19.072C15.099 18.5148 14.0715 18.1385 13.0011 17.9631C11.6689 17.7055 10.3513 17.3776 9.05377 16.9808C7.70926 16.5824 6.39166 16.0982 5.10908 15.5313C3.88162 14.9749 2.83305 14.0882 2.0806 12.9701C1.26737 11.8084 0.861636 10.387 0.863396 8.70597C0.863396 6.25924 1.84473 4.20329 3.80739 2.53811C5.77005 0.872923 8.38664 0.0412113 11.6572 0.0429715C16.1792 0.0429715 19.8757 1.36315 22.7466 4.0035L19.3802 8.44986C17.1324 6.37278 14.3732 5.33424 11.1027 5.33424C9.823 5.33424 8.82758 5.59035 8.11645 6.10258C7.77943 6.33488 7.50613 6.64807 7.32161 7.01343C7.13708 7.37879 7.04723 7.78464 7.06031 8.19374C7.06031 8.87495 7.46516 9.45055 8.27487 9.92054C9.21861 10.4407 10.2434 10.7977 11.306 10.9767C12.6324 11.2341 13.9425 11.5691 15.2296 11.98C16.5684 12.3942 17.8797 12.8925 19.1558 13.4718C20.3817 14.0433 21.4274 14.9401 22.179 16.0646C23.0124 17.3207 23.4375 18.8035 23.3962 20.3103C23.3962 23.0404 22.4219 25.2407 20.4733 26.9112C18.5247 28.5817 15.6995 29.4266 11.9978 29.4459Z" fill="#212121"/>
<path fill-rule="evenodd" clip-rule="evenodd" d="M39.6013 28.9279H33.5021V5.80109H25.1797V0.470215H47.8788V5.80109H39.6013V28.9279Z" fill="#212121"/>
<path fill-rule="evenodd" clip-rule="evenodd" d="M64.1755 13.4819C65.2956 13.524 66.3913 13.1475 67.2489 12.4257C67.6413 12.0791 67.952 11.6496 68.1584 11.1684C68.3647 10.6871 68.4617 10.1661 68.4423 9.6428C68.4643 9.11765 68.3685 8.59424 68.162 8.1109C67.9555 7.62755 67.6435 7.1965 67.2489 6.84931C66.3923 6.12574 65.2959 5.74898 64.1755 5.79317H57.8228V13.4819H64.1755ZM74.8003 28.9174H67.8562L62.2665 18.8048H57.8228V28.9174H51.75V0.470215H65.0627C67.9917 0.470215 70.3161 1.32305 72.0358 3.02872C73.7556 4.73439 74.6163 6.93468 74.6181 9.6296C74.6181 11.9619 74.0135 13.8533 72.8042 15.3037C71.6927 16.7034 70.1406 17.686 68.4001 18.0919L74.8003 28.9174Z" fill="#212121"/>
<path fill-rule="evenodd" clip-rule="evenodd" d="M124.123 28.9279H118.063V17.2787L107.098 0.470215H114.01L121.092 11.9029L128.088 0.470215H135.001L124.123 17.2787V28.9279Z" fill="#212121"/>
<path fill-rule="evenodd" clip-rule="evenodd" d="M36.3603 58.2437H29.9601V42.9957C29.9601 40.4293 28.7605 39.1452 26.3613 39.1434C25.3434 39.1456 24.3484 39.4457 23.4991 40.0068C22.6792 40.5183 21.9627 41.1793 21.3869 41.9554V58.2543H14.9602V42.9957C14.9602 40.4293 13.7606 39.1452 11.3614 39.1434C10.3476 39.1505 9.35736 39.4503 8.50986 40.0068C7.6661 40.5215 6.93505 41.2013 6.36061 42.0056V58.2543H0V34.0951H6.36061V37.245C6.96085 36.379 8.00907 35.5393 9.50527 34.7261C10.9599 33.9213 12.5954 33.4997 14.2579 33.501C17.759 33.501 19.9928 34.9673 20.9591 37.8998C21.8926 36.5592 23.1325 35.4607 24.5759 34.6957C26.0192 33.9306 27.6243 33.521 29.2578 33.501C31.5249 33.501 33.2755 34.1091 34.5094 35.3255C35.7433 36.5418 36.3594 38.3671 36.3577 40.8016L36.3603 58.2437Z" fill="#212121"/>
<path fill-rule="evenodd" clip-rule="evenodd" d="M52.0146 54.5446C54.3803 54.5446 56.0807 53.8449 57.1157 52.4455V49.4435C56.0807 48.0353 54.3803 47.3312 52.0146 47.3312C50.8533 47.2881 49.7104 47.6307 48.7643 48.3055C48.3451 48.6112 48.0074 49.0153 47.7809 49.4821C47.5544 49.9489 47.446 50.4643 47.4652 50.9828C47.4484 51.4897 47.5584 51.9929 47.7852 52.4466C48.0121 52.9003 48.3486 53.2902 48.7643 53.5809C49.7164 54.241 50.8569 54.5745 52.0146 54.5314V54.5446ZM63.4631 58.2279H57.1263V55.7433C55.3907 57.8116 52.8384 58.8449 49.4693 58.8431C47.3375 58.8586 45.2709 58.1091 43.6447 56.7308C41.9284 55.3121 41.0703 53.3538 41.0703 50.856C41.0703 48.2544 41.9117 46.3041 43.5945 45.005C45.2745 43.7069 47.3465 43.0197 49.4693 43.0564C52.9017 43.0564 55.4541 44.0395 57.1263 46.0057V42.7449C57.1428 42.1722 57.0191 41.6041 56.766 41.0901C56.5129 40.5761 56.1381 40.1317 55.6741 39.7956C54.6972 39.0563 53.4087 38.6866 51.8086 38.6866C49.1683 38.6866 46.8184 39.6372 44.7589 41.5382L42.3588 37.2873C45.2262 34.7543 48.7467 33.4878 52.9202 33.4878C56.02 33.4878 58.553 34.2042 60.5192 35.637C62.4853 37.0699 63.4649 39.4066 63.4579 42.6472L63.4631 58.2279Z" fill="#212121"/>
<path fill-rule="evenodd" clip-rule="evenodd" d="M76.1079 58.2436H69.7578V34.095H76.1079V37.3954C77.0481 36.2297 78.2241 35.2759 79.5588 34.5966C80.8641 33.8865 82.3239 33.5084 83.8098 33.4956V39.6952C83.2334 39.5818 82.6465 39.5313 82.0592 39.5447C80.8826 39.5672 79.7239 39.8371 78.6584 40.3368C77.4597 40.8648 76.6069 41.5196 76.1079 42.2853V58.2436Z" fill="#212121"/>
<path fill-rule="evenodd" clip-rule="evenodd" d="M109.403 57.4139C109.094 57.7157 108.691 57.9014 108.261 57.9395C107.831 57.9775 107.401 57.8657 107.044 57.6229C106.687 57.38 106.426 57.0212 106.303 56.6073C106.181 56.1934 106.206 55.7499 106.373 55.3521C106.54 54.9543 106.84 54.6267 107.222 54.4249C107.603 54.2231 108.043 54.1596 108.466 54.245C108.889 54.3305 109.27 54.5598 109.543 54.8938C109.816 55.2279 109.965 55.6463 109.965 56.0779C109.968 56.3272 109.919 56.5743 109.822 56.8041C109.726 57.0338 109.583 57.2414 109.403 57.4139Z" fill="#212121"/>
<path fill-rule="evenodd" clip-rule="evenodd" d="M123.166 57.7205H120.188V56.2894C119.691 56.8509 119.076 57.2955 118.388 57.5913C117.699 57.8871 116.953 58.0268 116.204 58.0003C114.984 58.0003 114.069 57.6879 113.46 57.063C112.851 56.4381 112.547 55.5624 112.547 54.4359V46.396H115.523V53.2609C115.523 54.6515 116.219 55.3468 117.611 55.3468C118.112 55.3545 118.608 55.2414 119.057 55.0171C119.505 54.7929 119.893 54.464 120.188 54.0583V46.4013H123.166V57.7205Z" fill="#212121"/>
<path fill-rule="evenodd" clip-rule="evenodd" d="M134.865 57.7205H125.629V55.492L130.738 48.9967H125.629V46.396H134.772V48.5532L129.589 55.1171H134.865V57.7205Z" fill="#212121"/>
<path fill-rule="evenodd" clip-rule="evenodd" d="M87.6186 8.20622C87.618 7.20126 87.9156 6.21872 88.4736 5.38291C89.0316 4.54709 89.825 3.89556 90.7533 3.51074C91.6817 3.12592 92.7033 3.02509 93.689 3.22102C94.6747 3.41695 95.5801 3.90083 96.2907 4.61145C97.0013 5.32206 97.4852 6.22748 97.6812 7.21316C97.8771 8.19884 97.7763 9.22048 97.3914 10.1488C97.0066 11.0772 96.3551 11.8706 95.5193 12.4286C94.6835 12.9866 93.7009 13.2841 92.696 13.2836C91.3493 13.2836 90.0579 12.7487 89.1057 11.7965C88.1535 10.8443 87.6186 9.55283 87.6186 8.20622ZM103.363 25.2999C106.164 22.5433 107.564 19.0167 107.564 14.72C107.564 10.4232 106.164 6.89572 103.363 4.13743C100.562 1.38091 96.9997 0.00176024 92.6748 0C88.3799 0 84.8312 1.38707 82.0289 4.1612C79.2266 6.93533 77.8264 10.4558 77.8281 14.7226C77.8281 18.9894 79.2284 22.5099 82.0289 25.284C84.1246 27.3753 86.8295 28.7481 89.7546 29.205V58.064H95.6347V58.0376H101.388V52.1523H95.6347V40.2179H100.828V34.3378H95.6347V29.197C98.5575 28.7463 101.263 27.3821 103.363 25.2999Z" fill="#979797"/>
</svg>
