<svg width="170" height="74" viewBox="0 0 170 74" fill="none" xmlns="http://www.w3.org/2000/svg">
<path d="M6.83293 49.4373C4.86616 48.205 3.21445 46.5031 2.02912 44.4859C0.74074 42.2931 0 39.7321 0 37.0002C0 32.9703 1.60277 29.322 4.19404 26.681C4.98702 25.8728 5.87269 25.1591 6.83326 24.5576C6.2953 22.2604 6.31025 19.8571 6.87835 17.5681C7.49119 15.099 8.74295 12.7638 10.6331 10.8372C13.4292 7.98763 17.0939 6.56268 20.7581 6.56268C21.8798 6.56268 23.0013 6.69639 24.0981 6.96347C25.3198 4.93779 27.0134 3.23937 29.0227 2.02748C31.1585 0.739374 33.648 0 36.3036 0C40.2576 0 43.8375 1.63364 46.4286 4.27463C47.2218 5.08304 47.9222 5.98616 48.5125 6.96538C50.774 6.41474 53.1393 6.4311 55.3902 7.01447C57.8035 7.63986 60.0873 8.9144 61.9741 10.8372C64.7702 13.6868 66.1682 17.4217 66.1682 21.1564C66.1682 22.2999 66.0369 23.4432 65.7749 24.5612C67.7306 25.7864 69.3749 27.4753 70.5587 29.4768C71.8591 31.6756 72.6072 34.25 72.6072 37.0002C72.6072 41.03 71.0045 44.6786 68.4132 47.3195C67.62 48.1279 66.7339 48.8417 65.773 49.4433C66.3117 51.7411 66.2969 54.1452 65.7282 56.4345C65.1151 58.9028 63.8636 61.2373 61.974 63.163C59.178 66.0126 55.5134 67.4375 51.849 67.4375C50.7273 67.4375 49.6055 67.3038 48.5087 67.0368C47.2979 69.0437 45.6231 70.7297 43.6362 71.9395C41.4869 73.2481 38.9785 74.0002 36.3035 74.0002C32.3495 74.0002 28.7697 72.3667 26.1785 69.7257C25.3849 68.9169 24.684 68.0131 24.0936 67.0332C21.8508 67.5792 19.5066 67.5679 17.2737 66.9992C14.8387 66.3789 12.5336 65.1 10.6331 63.1629C7.83715 60.3134 6.43903 56.5784 6.43903 52.8437C6.43903 51.6998 6.57055 50.5556 6.83293 49.4372V49.4373ZM23.0192 64.8628C22.3521 63.1773 21.9846 61.3356 21.9846 59.4065V37.0002C21.9846 36.9402 21.9851 36.8801 21.9858 36.8202C21.9861 36.7913 21.9868 36.7626 21.9873 36.7338C21.9879 36.7025 21.9883 36.6713 21.989 36.6403C21.9899 36.6008 21.9913 36.5615 21.9925 36.5222L21.9943 36.4668C21.9962 36.4131 21.9985 36.3594 22.0009 36.3057L22.0013 36.2988C22.0379 35.5084 22.1363 34.7345 22.2916 33.9819L12.2714 44.1943C9.92796 46.5827 8.75626 49.7133 8.75626 52.844C8.75626 55.9746 9.92785 59.1051 12.2714 61.4935C13.8675 63.1201 15.7983 64.1929 17.8349 64.7118C19.5346 65.1447 21.3068 65.195 23.0194 64.8629L23.0192 64.8628ZM26.1534 26.7067L26.1554 26.7048L26.1573 26.7027L26.1592 26.7007L26.1612 26.6987L26.1632 26.6968L26.1651 26.6948L26.1671 26.6928L26.169 26.6907L26.1709 26.6888L26.1729 26.6868L26.1749 26.6848L26.1768 26.6828L26.1787 26.6809C26.2215 26.6373 26.2645 26.5941 26.3077 26.5511L26.3106 26.5484L26.3114 26.5475L26.3131 26.5458C26.3523 26.5067 26.3919 26.468 26.4316 26.4294L26.4585 26.4036C26.4909 26.3722 26.5237 26.3408 26.5566 26.3098L26.609 26.2604L26.6662 26.207C27.2437 25.6705 27.854 25.1908 28.4899 24.7679H14.3193C11.005 24.7679 8.0043 26.1371 5.83245 28.3506C3.66059 30.5641 2.31723 33.6222 2.31723 37.0002C2.31723 39.2997 2.93569 41.4466 4.01161 43.2775C4.9129 44.8116 6.13365 46.1273 7.57939 47.1288C8.27702 45.456 9.29499 43.889 10.6334 42.5247L26.1537 26.7068L26.1534 26.7067ZM44.7906 28.3506C44.7553 28.3146 44.7199 28.279 44.6844 28.2438L44.6341 28.1944C44.6158 28.1764 44.5978 28.1584 44.5794 28.1407C44.5549 28.1169 44.5303 28.0933 44.5054 28.0696L44.475 28.0404C44.4453 28.0124 44.4155 27.9845 44.3857 27.9567L44.3703 27.9424C43.381 27.0266 42.2412 26.277 40.9929 25.7366L40.9709 25.727C40.945 25.7159 40.9191 25.7049 40.893 25.694L40.8276 25.6665L40.7946 25.653C39.5396 25.1378 38.2163 24.8473 36.8844 24.782L36.8635 24.7811C36.8227 24.779 36.782 24.7774 36.7411 24.7758L36.7025 24.7746C36.6684 24.7733 36.6342 24.7722 36.6003 24.7713C36.577 24.7706 36.5535 24.7703 36.53 24.77L36.4498 24.7684C36.4013 24.7677 36.3526 24.7675 36.3038 24.7675C36.2551 24.7675 36.2064 24.7678 36.1579 24.7684C36.1311 24.7687 36.1045 24.7694 36.0776 24.77L36.0074 24.7713C35.9734 24.7722 35.9393 24.7733 35.9052 24.7746L35.8666 24.7758C35.8257 24.7774 35.7848 24.779 35.7437 24.7811L35.7234 24.782C34.3929 24.8471 33.0712 25.1369 31.8175 25.6511L31.7785 25.6671L31.7215 25.6911C31.6927 25.7031 31.6639 25.7152 31.6354 25.7276L31.6195 25.7345C30.3687 26.2754 29.2263 27.0263 28.2354 27.9438L28.2278 27.9511C28.1961 27.9806 28.1643 28.0103 28.1327 28.0402L28.1023 28.0694C28.0774 28.0931 28.0528 28.1167 28.0283 28.1405C28.0099 28.1582 27.9919 28.1762 27.9736 28.1941L27.9232 28.2436C27.8876 28.2789 27.8523 28.3145 27.8171 28.3504L27.8155 28.3521L27.8138 28.3536L27.8122 28.3555L27.8106 28.3572L27.809 28.3588L27.8071 28.3605L27.8056 28.3624L27.8039 28.3639L27.8023 28.3656L27.8006 28.3673L27.799 28.369L27.7973 28.3707C27.7688 28.3999 27.7404 28.4293 27.7122 28.4588L27.6638 28.5099C27.6462 28.5285 27.6285 28.5469 27.6111 28.5656C27.5878 28.5906 27.5646 28.6159 27.5414 28.641L27.5127 28.672C27.4834 28.7043 27.4542 28.7365 27.4253 28.769L27.4182 28.777C26.494 29.8136 25.7424 31.0128 25.2087 32.3274L25.1827 32.3919L25.1735 32.4153C24.6659 33.6969 24.38 35.0483 24.3159 36.4085L24.3149 36.4291C24.313 36.4708 24.3112 36.5127 24.3099 36.5544L24.3086 36.5938C24.3076 36.6285 24.3064 36.6634 24.3054 36.6979C24.3049 36.7217 24.3045 36.7456 24.3041 36.7695L24.3028 36.8513C24.3021 36.9008 24.3018 36.9504 24.3018 37.0001C24.3018 37.0497 24.3021 37.0994 24.3028 37.1488C24.3031 37.1761 24.3037 37.2033 24.3041 37.2306L24.3054 37.3022C24.3064 37.337 24.3076 37.3716 24.3086 37.4063L24.3099 37.4457C24.3112 37.4873 24.3131 37.5289 24.3149 37.5704L24.3159 37.5917C24.3801 38.954 24.6669 40.3072 25.1758 41.5905L25.1821 41.6065C25.1915 41.6305 25.2013 41.6543 25.2111 41.6783C25.2222 41.7058 25.2334 41.7333 25.2448 41.7607L25.2464 41.7647C25.7772 43.0425 26.5148 44.2093 27.4166 45.2213L27.4307 45.2369C27.4578 45.2673 27.4853 45.2977 27.5128 45.328L27.5415 45.359C27.5647 45.3843 27.5879 45.4094 27.6113 45.4344C27.6286 45.4531 27.6463 45.4715 27.6639 45.4901L27.7123 45.5415C27.747 45.5778 27.782 45.6138 27.8171 45.6496C27.8524 45.6854 27.8878 45.721 27.9232 45.7564L27.9736 45.8057C27.9919 45.8237 28.0099 45.8417 28.0283 45.8594C28.0554 45.8858 28.0828 45.9119 28.1101 45.9381L28.131 45.9581C28.1641 45.9893 28.1972 46.0205 28.2307 46.0515L28.235 46.0555C29.2225 46.9702 30.3607 47.7192 31.6065 48.2599L31.6392 48.2741L31.7051 48.302C31.731 48.313 31.7566 48.324 31.7826 48.3347L31.8055 48.3441C33.063 48.8614 34.389 49.1528 35.7235 49.2182L35.7438 49.2192C35.7847 49.2211 35.8258 49.2228 35.8667 49.2242L35.9053 49.2256C35.9394 49.2266 35.9736 49.2278 36.0075 49.2286C36.0308 49.2293 36.0543 49.2296 36.0777 49.2301L36.158 49.2315C36.2065 49.2322 36.2552 49.2325 36.304 49.2325C36.3527 49.2325 36.4014 49.2322 36.4499 49.2315C36.4767 49.2312 36.5033 49.2306 36.5302 49.2301L36.6004 49.2286C36.6344 49.2277 36.6685 49.2266 36.7026 49.2256L36.7412 49.2242C36.782 49.2226 36.8229 49.221 36.8636 49.2192L36.8845 49.2182C38.2212 49.1527 39.5492 48.8603 40.8084 48.3416L40.8235 48.3355C40.8522 48.3236 40.8808 48.3115 40.9095 48.2992L40.9668 48.2751L41.01 48.2562C42.2515 47.7163 43.3856 46.9694 44.3704 46.058L44.3858 46.0437C44.4156 46.0158 44.4454 45.988 44.4751 45.96L44.5055 45.9307C44.5304 45.9071 44.555 45.8834 44.5795 45.8596C44.5979 45.8419 44.6159 45.8239 44.6342 45.806L44.6846 45.7567C44.7202 45.7213 44.7555 45.6856 44.7907 45.6498C44.8258 45.6139 44.8607 45.5778 44.8954 45.5417L44.9439 45.4904C44.9615 45.4718 44.9792 45.4534 44.9965 45.4347C45.0198 45.4097 45.0431 45.3846 45.0663 45.3592L45.095 45.3282C45.1224 45.2979 45.1499 45.2675 45.1771 45.2372L45.1912 45.2215C46.0854 44.2179 46.8183 43.062 47.348 41.7966L47.3666 41.7526L47.3902 41.6942C47.4021 41.6649 47.4141 41.6359 47.4258 41.6065L47.4318 41.5912C47.9409 40.3079 48.2276 38.9543 48.2918 37.5919L48.2928 37.5706C48.2947 37.5291 48.2963 37.4876 48.2978 37.4459L48.2991 37.4066C48.3003 37.3718 48.3013 37.3372 48.302 37.3024C48.3027 37.2787 48.303 37.2547 48.3036 37.2308L48.3049 37.149C48.3056 37.0996 48.3059 37.0499 48.3059 37.0003C48.3059 36.9506 48.3056 36.901 48.3049 36.8516C48.3046 36.8242 48.304 36.7971 48.3036 36.7697L48.302 36.6981C48.3012 36.6635 48.3001 36.6287 48.2991 36.594L48.2978 36.5547C48.2962 36.513 48.2946 36.4713 48.2928 36.4294L48.2918 36.4087C48.2277 35.0486 47.9417 33.697 47.4342 32.4155L47.4249 32.3922L47.393 32.3132L47.3656 32.2461L47.3516 32.2128C46.8211 30.9428 46.0862 29.7831 45.1887 28.7764L45.1848 28.772C45.1543 28.7381 45.1237 28.7042 45.0931 28.6704L45.0735 28.6493C45.0479 28.6213 45.0222 28.5934 44.9963 28.5657C44.9789 28.547 44.9612 28.5286 44.9436 28.51C44.9276 28.4929 44.9115 28.4757 44.8951 28.4589C44.8605 28.4226 44.8255 28.3865 44.7905 28.3507L44.7906 28.3506ZM8.96795 23.46C10.6212 22.7806 12.4272 22.4064 14.3192 22.4064H36.3037C36.36 22.4064 36.4163 22.4069 36.4725 22.4076H36.4784C37.4327 22.4193 38.3645 22.5263 39.2654 22.7194L29.2451 12.5069C26.9015 10.1186 23.83 8.92426 20.7583 8.92426C17.6866 8.92426 14.6149 10.1186 12.2715 12.5069C10.6843 14.1248 9.63468 16.0789 9.12311 18.14C8.69083 19.8819 8.63914 21.7012 8.96805 23.4601L8.96795 23.46ZM46.4289 26.681C46.4714 26.7244 46.514 26.7683 46.5561 26.8123L46.5589 26.8153L46.5598 26.8162L46.5614 26.8178C46.5998 26.858 46.6377 26.8982 46.6756 26.9387L46.7009 26.966C46.7319 26.9993 46.7625 27.0325 46.7932 27.066L46.84 27.1178L46.8993 27.1838C46.9239 27.2115 46.9485 27.2391 46.973 27.267L47.004 27.3025C47.4861 27.854 47.92 28.4338 48.306 29.0364V14.5939C48.306 11.216 46.9626 8.15777 44.7908 5.94424C42.6189 3.73083 39.6183 2.36169 36.304 2.36169C34.0725 2.36169 31.9855 2.9798 30.1997 4.05697C28.6725 4.9778 27.3632 6.23385 26.3684 7.7256C28.0089 8.43673 29.5456 9.47389 30.8836 10.8373L46.4291 26.6811L46.4289 26.681ZM50.3158 40.0185L60.3362 29.806C62.6796 27.4177 63.8513 24.287 63.8513 21.1564C63.8513 18.0259 62.6795 14.8953 60.3362 12.5068C58.7537 10.894 56.8404 9.8257 54.8204 9.30207C53.1067 8.85814 51.3177 8.80378 49.5889 9.139C50.2555 10.8242 50.6229 12.6653 50.6229 14.5937V37.0001C50.6229 37.0574 50.6226 37.1148 50.6219 37.1721L50.6217 37.178C50.6103 38.1506 50.5052 39.1004 50.3158 40.0185ZM65.0275 26.8734C64.3299 28.5456 63.3123 30.1119 61.9742 31.4757L46.4289 47.3195C45.7109 48.0511 44.9356 48.6886 44.1177 49.2325H58.2883C61.6026 49.2325 64.6033 47.8634 66.7751 45.6498C68.947 43.4363 70.2903 40.3781 70.2903 37.0002C70.2903 34.6915 69.6644 32.5338 68.5764 30.6944C67.6768 29.1731 66.463 27.8682 65.0273 26.8734H65.0275ZM36.3037 51.594C36.2445 51.594 36.185 51.5936 36.1257 51.5927H36.1188L36.1174 51.5925H36.1118C36.0573 51.5916 36.0029 51.5906 35.9485 51.5893L35.9197 51.5886C35.8719 51.5872 35.8238 51.5857 35.776 51.5839L35.7177 51.5816L35.6198 51.577C35.5841 51.5754 35.5483 51.5735 35.5125 51.5714L35.466 51.5688C34.7424 51.5262 34.0333 51.429 33.3423 51.2808L43.3625 61.4933C45.7059 63.8817 48.7777 65.076 51.8494 65.076C54.9209 65.076 57.9926 63.8817 60.3362 61.4933C61.9229 59.8761 62.9721 57.9227 63.4839 55.8625C63.9169 54.1196 63.969 52.2996 63.6404 50.54C61.9869 51.2194 60.1805 51.5939 58.2884 51.5939H36.3038L36.3037 51.594ZM24.3016 44.964V59.4065C24.3016 62.7844 25.6449 65.8427 27.8168 68.0562C29.9886 70.2697 32.9893 71.6389 36.3036 71.6389C38.5551 71.6389 40.6572 71.0112 42.4507 69.9194C43.9592 69.0008 45.2537 67.7536 46.2395 66.2749C44.599 65.5638 43.062 64.5267 41.724 63.1629L26.1785 47.3193C25.4606 46.5876 24.8351 45.7974 24.3015 44.9638L24.3016 44.964Z" fill="black"/>
<path d="M82.4503 51.4361V23.7998H92.2455C94.4474 23.7998 96.3774 24.1631 98.0352 24.8897C99.6931 25.6162 101.079 26.6023 102.192 27.848C103.306 29.0934 104.142 30.5531 104.698 32.2269C105.255 33.9007 105.534 35.6847 105.534 37.579C105.534 39.6808 105.223 41.5817 104.603 43.2814C103.983 44.981 103.091 46.4342 101.927 47.6408C100.762 48.8475 99.3641 49.7817 97.7314 50.4433C96.099 51.1052 94.2703 51.436 92.2454 51.436H82.4502L82.4503 51.4361ZM100.256 37.5791C100.256 36.2556 100.079 35.036 99.7249 33.9202C99.3704 32.8043 98.8516 31.8441 98.1683 31.0398C97.4848 30.2352 96.6433 29.6126 95.6433 29.1714C94.6436 28.7302 93.511 28.5098 92.2455 28.5098H87.6895V46.7263H92.2455C93.5364 46.7263 94.6817 46.4927 95.6814 46.0258C96.6812 45.5587 97.5165 44.9163 98.1873 44.0989C98.8578 43.2816 99.3704 42.315 99.7249 41.1991C100.079 40.0832 100.256 38.8767 100.256 37.5792V37.5791ZM118.366 51.8254C116.772 51.8254 115.329 51.5464 114.038 50.9886C112.747 50.4305 111.646 49.6717 110.735 48.7115C109.824 47.7513 109.122 46.6356 108.628 45.3639C108.134 44.0923 107.888 42.7561 107.888 41.3547C107.888 39.9015 108.128 38.5327 108.609 37.2481C109.09 35.9636 109.786 34.835 110.697 33.8617C111.608 32.8887 112.716 32.1166 114.019 31.5457C115.323 30.9749 116.784 30.6893 118.404 30.6893C120.024 30.6893 121.473 30.9749 122.751 31.5457C124.029 32.1166 125.118 32.8823 126.016 33.8423C126.915 34.8025 127.598 35.9184 128.066 37.1899C128.535 38.4614 128.769 39.7848 128.769 41.1602C128.769 41.4974 128.762 41.8218 128.75 42.1332C128.737 42.4445 128.706 42.704 128.655 42.9117H113.279C113.354 43.7162 113.544 44.4297 113.848 45.0525C114.152 45.6754 114.544 46.2073 115.025 46.6484C115.506 47.0896 116.05 47.427 116.658 47.6605C117.265 47.8939 117.898 48.0109 118.556 48.0109C119.568 48.0109 120.524 47.7578 121.422 47.2518C122.321 46.7457 122.935 46.0775 123.264 45.2471L127.63 46.4926C126.896 48.0496 125.725 49.3276 124.118 50.3266C122.511 51.3257 120.593 51.8252 118.366 51.8252L118.366 51.8254ZM123.53 39.5253C123.403 37.9942 122.853 36.7681 121.878 35.8469C120.904 34.9258 119.72 34.4651 118.328 34.4651C117.645 34.4651 117.006 34.5885 116.411 34.835C115.816 35.0814 115.291 35.4252 114.835 35.8664C114.38 36.3075 114.007 36.8395 113.715 37.4623C113.424 38.0851 113.253 38.7728 113.203 39.5251H123.53V39.5253ZM131.768 55.4063C132.199 55.5361 132.616 55.6333 133.021 55.6984C133.426 55.7632 133.768 55.7956 134.046 55.7956C134.375 55.7956 134.679 55.7308 134.958 55.6009C135.236 55.4713 135.489 55.2442 135.717 54.9198C135.945 54.5956 136.172 54.1477 136.4 53.5771C136.628 53.006 136.869 52.2925 137.122 51.4362L129.263 31.0399H134.502L139.893 46.9209L144.677 31.0399H149.461L141.108 55.4844C140.627 56.9115 139.805 58.0793 138.64 58.9876C137.476 59.8958 136.033 60.3498 134.312 60.3498C133.907 60.3498 133.496 60.3175 133.078 60.2526C132.661 60.1877 132.224 60.0775 131.769 59.9217V55.4064L131.768 55.4063ZM157.168 51.8252C156.206 51.8252 155.307 51.6632 154.472 51.3387C153.637 51.0143 152.915 50.5602 152.308 49.9763C151.7 49.3926 151.226 48.7114 150.884 47.9329C150.542 47.1542 150.372 46.298 150.372 45.3638C150.372 44.4036 150.58 43.5149 150.998 42.6975C151.416 41.8802 151.998 41.1859 152.745 40.615C153.491 40.0442 154.383 39.5964 155.421 39.272C156.459 38.9478 157.598 38.7855 158.838 38.7855C159.724 38.7855 160.591 38.8634 161.439 39.0191C162.287 39.1747 163.04 39.3952 163.698 39.6807V38.5131C163.698 37.1637 163.324 36.1256 162.578 35.399C161.831 34.6724 160.724 34.3092 159.256 34.3092C158.193 34.3092 157.155 34.5038 156.143 34.893C155.13 35.2823 154.092 35.8532 153.029 36.6058L151.473 33.2969C154.029 31.5584 156.788 30.689 159.749 30.689C162.609 30.689 164.83 31.4092 166.412 32.8494C167.994 34.2896 168.785 36.3721 168.785 39.0966V45.4412C168.785 45.9863 168.88 46.3755 169.07 46.6092C169.26 46.8427 169.57 46.9723 170 46.9983V51.4358C169.14 51.6174 168.393 51.7081 167.76 51.7081C166.798 51.7081 166.058 51.4876 165.539 51.0464C165.02 50.6052 164.698 50.0214 164.571 49.2949L164.457 48.1661C163.571 49.3598 162.496 50.2679 161.23 50.8906C159.964 51.5134 158.61 51.8248 157.168 51.8248V51.8252ZM158.61 48.0108C159.471 48.0108 160.287 47.8549 161.059 47.5435C161.831 47.2321 162.432 46.817 162.863 46.298C163.42 45.8567 163.698 45.3638 163.698 44.819V42.4834C163.09 42.2499 162.432 42.0618 161.724 41.9191C161.015 41.7762 160.332 41.705 159.674 41.705C158.357 41.705 157.282 42.0099 156.446 42.6197C155.611 43.2295 155.193 44.0015 155.193 44.9357C155.193 45.8181 155.523 46.5512 156.181 47.135C156.839 47.7188 157.649 48.0109 158.61 48.0109L158.61 48.0108Z" fill="black"/>
</svg>
