<svg width="169" height="78" viewBox="0 0 169 78" fill="none" xmlns="http://www.w3.org/2000/svg">
<path fill-rule="evenodd" clip-rule="evenodd" d="M43.9066 0C42.5148 0 41.4213 0.977543 41.4213 2.22018V14.3483C41.4213 15.591 42.5148 16.5685 43.9066 16.5685C45.2983 16.5685 46.3919 15.591 46.3919 14.3483V2.22018C46.3919 0.977543 45.2983 0 43.9066 0ZM19.0538 6.62741C17.662 6.62741 16.5685 7.62152 16.5685 8.89729V66.4895C16.5685 67.757 17.662 68.7594 19.0538 68.7594C20.4456 68.7594 21.5391 67.7653 21.5391 66.4895V8.89729C21.5391 7.62152 20.4456 6.62741 19.0538 6.62741ZM8.28426 32.1429C8.28426 30.8423 9.37778 29.8233 10.7695 29.8233C12.1613 29.8233 13.2548 30.8423 13.2548 32.1429V55.6702C13.2548 56.9709 12.1613 57.9898 10.7695 57.9898C9.37778 57.9898 8.28426 56.9709 8.28426 55.6702V32.1429ZM2.48528 39.7645C1.09352 39.7645 0 40.7586 0 42.0343V50.7494C0 52.0252 1.09352 53.0193 2.48528 53.0193C3.87703 53.0193 4.97056 52.0252 4.97056 50.7494V42.0343C4.97056 40.7586 3.87703 39.7645 2.48528 39.7645ZM27.3381 77.0436C28.7298 77.0436 29.8233 76.0661 29.8233 74.8234V62.6953C29.8233 61.4526 28.7298 60.4751 27.3381 60.4751C25.9463 60.4751 24.8528 61.4526 24.8528 62.6953V74.8234C24.8528 76.0661 25.9463 77.0436 27.3381 77.0436ZM24.8528 17.2064C24.8528 15.9223 25.9463 14.9117 27.3381 14.9117C28.7298 14.9117 29.8233 15.9223 29.8233 17.2064V49.0677C29.8233 50.3517 28.7298 51.3624 27.3381 51.3624C25.9463 51.3624 24.8528 50.3517 24.8528 49.0677V17.2064ZM71.2446 35.0093C71.2446 36.2851 70.1511 37.2792 68.7594 37.2792C67.3676 37.2792 66.2741 36.2851 66.2741 35.0093V26.2942C66.2741 25.0185 67.3676 24.0244 68.7594 24.0244C70.1511 24.0244 71.2446 25.0185 71.2446 26.2942V35.0093ZM60.4751 47.2203C61.8669 47.2203 62.9604 46.2013 62.9604 44.9007V21.3734C62.9604 20.0728 61.8669 19.0538 60.4751 19.0538C59.0833 19.0538 57.9898 20.0728 57.9898 21.3734V44.9007C57.9898 46.2013 59.0833 47.2203 60.4751 47.2203ZM54.6761 68.1463C54.6761 69.4221 53.5826 70.4162 52.1908 70.4162C50.7991 70.4162 49.7056 69.4221 49.7056 68.1463V10.5541C49.7056 9.27837 50.7991 8.28426 52.1908 8.28426C53.5826 8.28426 54.6761 9.27837 54.6761 10.5541V68.1463ZM43.9066 62.132C45.2983 62.132 46.3919 61.1213 46.3919 59.8372V27.9759C46.3919 26.6919 45.2983 25.6812 43.9066 25.6812C42.5148 25.6812 41.4213 26.6919 41.4213 27.9759V59.8372C41.4213 61.1213 42.5148 62.132 43.9066 62.132ZM38.1076 68.8753C38.1034 69.1951 38.0354 69.5108 37.9075 69.804C37.7797 70.0972 37.5946 70.3618 37.3631 70.5825C37.1316 70.8032 36.8584 70.9754 36.5595 71.0891C36.2606 71.2028 35.9419 71.2557 35.6223 71.2446C35.3027 71.2557 34.9841 71.2028 34.6852 71.0891C34.3862 70.9754 34.113 70.8032 33.8815 70.5825C33.6501 70.3618 33.465 70.0972 33.3371 69.804C33.2093 69.5108 33.1413 69.1951 33.137 68.8753V48.7612C33.1413 48.4414 33.2093 48.1256 33.3371 47.8325C33.465 47.5393 33.6501 47.2747 33.8815 47.054C34.113 46.8333 34.3862 46.6611 34.6852 46.5474C34.9841 46.4337 35.3027 46.3808 35.6223 46.3919C37.0141 46.3919 38.1076 47.4357 38.1076 48.7612V68.8753ZM35.6223 8.28426C35.3027 8.2732 34.9841 8.32608 34.6852 8.43978C34.3862 8.55348 34.113 8.72571 33.8815 8.94639C33.6501 9.16707 33.465 9.43174 33.3371 9.72489C33.2093 10.018 33.1413 10.3338 33.137 10.6536V30.7677C33.1413 31.0875 33.2093 31.4033 33.3371 31.6964C33.465 31.9896 33.6501 32.2542 33.8815 32.4749C34.113 32.6956 34.3862 32.8678 34.6852 32.9815C34.9841 33.0952 35.3027 33.1481 35.6223 33.137C37.0141 33.137 38.1076 32.0932 38.1076 30.7677V10.6536C38.1034 10.3338 38.0354 10.018 37.9075 9.72489C37.7797 9.43174 37.5946 9.16707 37.3631 8.94639C37.1316 8.72571 36.8584 8.55348 36.5595 8.43978C36.2606 8.32608 35.9419 8.2732 35.6223 8.28426Z" fill="#FFDD2A"/>
<path d="M90.2994 31.0662C90.2994 30.5169 90.0812 29.9901 89.6928 29.6017C89.3044 29.2133 88.7776 28.9951 88.2283 28.9951C87.679 28.9951 87.1522 29.2133 86.7638 29.6017C86.3754 29.9901 86.1572 30.5169 86.1572 31.0662V39.7647C86.1572 42.1815 87.1173 44.4993 88.8263 46.2083C90.5352 47.9173 92.8531 48.8773 95.2699 48.8773C97.6867 48.8773 100.005 47.9173 101.714 46.2083C103.423 44.4993 104.383 42.1815 104.383 39.7647V31.0662C104.383 30.5169 104.164 29.9901 103.776 29.6017C103.388 29.2133 102.861 28.9951 102.312 28.9951C101.762 28.9951 101.235 29.2133 100.847 29.6017C100.459 29.9901 100.24 30.5169 100.24 31.0662V39.7647C100.24 41.0829 99.7168 42.3472 98.7846 43.2794C97.8525 44.2115 96.5882 44.7352 95.2699 44.7352C93.9516 44.7352 92.6874 44.2115 91.7552 43.2794C90.823 42.3472 90.2994 41.0829 90.2994 39.7647V31.0662Z" fill="#212121"/>
<path fill-rule="evenodd" clip-rule="evenodd" d="M107.696 31.066C107.692 30.5509 107.879 30.0525 108.222 29.6681C108.565 29.2838 109.039 29.041 109.551 28.9872C110.063 28.9334 110.577 29.0724 110.993 29.3771C111.408 29.6818 111.695 30.1304 111.797 30.6352C113.253 29.5729 115.007 28.9987 116.809 28.9949C121.838 28.9949 125.922 33.4436 125.922 38.936C125.922 44.4285 121.838 48.8771 116.809 48.8771C115.025 48.8742 113.287 48.3122 111.839 47.27V53.4335C111.839 53.9828 111.62 54.5095 111.232 54.8979C110.844 55.2863 110.317 55.5045 109.767 55.5045C109.218 55.5045 108.691 55.2863 108.303 54.8979C107.915 54.5095 107.696 53.9828 107.696 53.4335V31.066ZM116.809 44.735C114.067 44.735 111.839 42.142 111.839 38.936C111.839 35.73 114.067 33.137 116.809 33.137C119.551 33.137 121.78 35.73 121.78 38.936C121.78 42.142 119.551 44.735 116.809 44.735ZM147.461 31.066C147.466 30.5509 147.278 30.0525 146.935 29.6681C146.592 29.2838 146.119 29.041 145.606 28.9872C145.094 28.9334 144.58 29.0724 144.165 29.3771C143.749 29.6818 143.463 30.1304 143.36 30.6352C141.905 29.5729 140.15 28.9987 138.348 28.9949C133.32 28.9949 129.235 33.4436 129.235 38.936C129.235 44.4285 133.32 48.8771 138.348 48.8771C140.204 48.8771 141.927 48.2724 143.36 47.2369C143.463 47.7417 143.749 48.1902 144.165 48.495C144.58 48.7997 145.094 48.9387 145.606 48.8849C146.119 48.8311 146.592 48.5883 146.935 48.2039C147.278 47.8195 147.466 47.3212 147.461 46.8061V31.066ZM138.348 44.735C141.09 44.735 143.319 42.142 143.319 38.936C143.319 35.73 141.09 33.137 138.348 33.137C135.606 33.137 133.378 35.73 133.378 38.936C133.378 42.142 135.606 44.735 138.348 44.735Z" fill="#212121"/>
<path d="M154.914 31.0662C154.914 30.5169 154.695 29.9901 154.307 29.6017C153.919 29.2133 153.392 28.9951 152.843 28.9951C152.293 28.9951 151.766 29.2133 151.378 29.6017C150.99 29.9901 150.771 30.5169 150.771 31.0662V40.5931C150.771 42.7902 151.644 44.8973 153.198 46.4509C154.751 48.0045 156.859 48.8773 159.056 48.8773H160.713C162.22 48.8773 163.637 48.4714 164.855 47.7672V48.0489C164.855 48.985 164.54 49.7223 163.919 50.2608C163.264 50.8241 162.046 51.3626 159.884 51.3626C157.208 51.3626 155.899 50.5011 155.436 50.1945L155.353 50.1448C154.92 49.8241 154.38 49.6842 153.847 49.7549C153.313 49.8255 152.828 50.1012 152.494 50.5233C152.16 50.9455 152.004 51.4811 152.058 52.0167C152.112 52.5522 152.373 53.0456 152.785 53.3923C153.431 53.8313 154.069 54.2207 154.781 54.5106C155.982 55.016 157.705 55.5047 159.884 55.5047C162.701 55.5047 164.996 54.8006 166.619 53.3923C167.382 52.7293 167.99 51.9074 168.401 50.9842C168.811 50.0611 169.015 49.0592 168.997 48.0489V31.0662C168.997 30.5169 168.779 29.9901 168.39 29.6017C168.002 29.2133 167.475 28.9951 166.926 28.9951C166.377 28.9951 165.85 29.2133 165.461 29.6017C165.073 29.9901 164.855 30.5169 164.855 31.0662V39.7812C164.853 41.0995 164.327 42.3629 163.393 43.2935C162.459 44.2241 161.194 44.7457 159.876 44.7435C158.558 44.7413 157.294 44.2155 156.364 43.2818C155.433 42.3481 154.911 41.0829 154.914 39.7647V31.0662Z" fill="#212121"/>
</svg>
