<svg width="130" height="130" viewBox="0 0 130 130" fill="none" xmlns="http://www.w3.org/2000/svg">
<path d="M79.0185 15.649C86.7754 23.4059 86.7754 35.9825 79.0185 43.7394C71.2615 51.4963 58.685 51.4963 50.9281 43.7394C43.1711 35.9825 43.1711 23.4059 50.9281 15.649C58.685 7.89206 71.2615 7.89206 79.0185 15.649" stroke="#323232" stroke-width="3" stroke-linecap="round" stroke-linejoin="round"/>
<path d="M114.967 77.9095C122.711 85.6538 122.711 98.2097 114.967 105.954C107.223 113.698 94.667 113.698 86.9227 105.954C79.1784 98.2097 79.1784 85.6538 86.9227 77.9095C94.667 70.1653 107.223 70.1653 114.967 77.9095" stroke="#323232" stroke-width="3" stroke-linecap="round" stroke-linejoin="round"/>
<path d="M43.0773 77.9095C50.8215 85.6538 50.8215 98.2097 43.0773 105.954C35.333 113.698 22.7771 113.698 15.0328 105.954C7.28854 98.2097 7.28854 85.6538 15.0328 77.9095C22.7771 70.1653 35.333 70.1653 43.0773 77.9095" stroke="#323232" stroke-width="3" stroke-linecap="round" stroke-linejoin="round"/>
<path d="M94.3508 41.857C110.561 58.0668 110.561 84.3482 94.3508 100.558C78.1409 116.768 51.8596 116.768 35.6498 100.558C19.44 84.3481 19.44 58.0667 35.6498 41.857C51.8597 25.6471 78.141 25.6471 94.3508 41.857" stroke="#323232" stroke-width="3" stroke-linecap="round" stroke-linejoin="round"/>
</svg>
