<svg width="130" height="130" viewBox="0 0 130 130" fill="none" xmlns="http://www.w3.org/2000/svg">
<path fill-rule="evenodd" clip-rule="evenodd" d="M65 113.75V113.75C38.0737 113.75 16.25 91.9262 16.25 65V65C16.25 38.0737 38.0737 16.25 65 16.25V16.25C91.9262 16.25 113.75 38.0737 113.75 65V65C113.75 91.9262 91.9262 113.75 65 113.75Z" stroke="#323232" stroke-width="3" stroke-linecap="round" stroke-linejoin="round"/>
<path fill-rule="evenodd" clip-rule="evenodd" d="M65 113.75V113.75C47.0492 113.75 32.5 99.2008 32.5 81.25V81.25C32.5 63.2992 47.0492 48.75 65 48.75V48.75C82.9508 48.75 97.5 63.2992 97.5 81.25V81.25C97.5 99.2008 82.9508 113.75 65 113.75Z" stroke="#323232" stroke-width="3" stroke-linecap="round" stroke-linejoin="round"/>
<path fill-rule="evenodd" clip-rule="evenodd" d="M65.0001 113.75V113.75C54.5297 113.75 46.0417 105.262 46.0417 94.7917V94.7917C46.0417 84.3213 54.5297 75.8334 65.0001 75.8334V75.8334C75.4705 75.8334 83.9584 84.3213 83.9584 94.7917V94.7917C83.9584 105.262 75.4705 113.75 65.0001 113.75Z" stroke="#323232" stroke-width="3" stroke-linecap="round" stroke-linejoin="round"/>
</svg>
