<svg width="170" height="47" viewBox="0 0 170 47" fill="none" xmlns="http://www.w3.org/2000/svg">
<path d="M75.3424 32.432C75.8947 32.432 76.3424 31.9843 76.3424 31.432V14.1343C76.3424 13.582 75.8947 13.1343 75.3424 13.1343H72.8258C72.2735 13.1343 71.8258 13.582 71.8258 14.1343V22.2596C71.8258 23.1999 70.6457 23.6204 70.0511 22.8919L62.3871 13.502C62.1972 13.2693 61.9128 13.1343 61.6124 13.1343H59.2197C58.6674 13.1343 58.2197 13.582 58.2197 14.1343V31.432C58.2197 31.9843 58.6674 32.432 59.2197 32.432H61.708C62.2603 32.432 62.708 31.9843 62.708 31.432V23.3004C62.708 22.3608 63.8867 21.9399 64.4819 22.667L72.175 32.0654C72.3649 32.2975 72.649 32.432 72.9488 32.432H75.3424Z" fill="#212121"/>
<path d="M112.545 31.8237C112.702 32.1926 113.064 32.432 113.465 32.432H116.179C116.58 32.432 116.942 32.1926 117.099 31.8237L124.463 14.5259C124.743 13.8664 124.259 13.1343 123.543 13.1343H120.784C120.379 13.1343 120.014 13.3784 119.86 13.7527L115.73 23.7571C115.39 24.5808 114.224 24.5819 113.882 23.7588L109.729 13.751C109.574 13.3776 109.209 13.1343 108.805 13.1343H106.102C105.385 13.1343 104.901 13.8664 105.182 14.5259L112.545 31.8237Z" fill="#212121"/>
<path d="M127.359 31.8318C127.2 32.1964 126.84 32.432 126.442 32.432H123.95C123.227 32.432 122.743 31.687 123.037 31.0257L130.729 13.728C130.889 13.3669 131.247 13.1343 131.643 13.1343H134.408C134.803 13.1343 135.161 13.3669 135.322 13.728L143.014 31.0257C143.308 31.687 142.824 32.432 142.1 32.432H139.608C139.21 32.432 138.85 32.1964 138.691 31.8319L135.538 24.6042L133.937 20.917C133.59 20.1162 132.455 20.1139 132.104 20.9132L130.485 24.6042L128.876 28.355L127.359 31.8318Z" fill="#212121"/>
<path d="M154.036 32.7582C158.214 32.7582 161.206 30.312 161.206 26.8058C161.235 23.8975 159.343 22.0493 156.436 21.0436L155.024 20.5544C152.879 19.8205 151.919 19.3856 151.919 18.3256C151.919 17.32 153.133 16.8579 154.347 16.8579C155.284 16.8579 156.22 17.1387 157.021 17.7222C157.495 18.0674 158.172 18.1021 158.583 17.6838L160.072 16.1668C160.452 15.78 160.458 15.1557 160.045 14.8045C158.337 13.3514 156.444 12.8081 154.29 12.8081C150.31 12.8081 147.374 15.0097 147.374 18.7605C147.374 21.397 149.153 23.2724 152.427 24.3324L153.839 24.7944C155.871 25.4468 156.633 26.1263 156.633 27.1047C156.633 28.056 155.702 28.7083 154.206 28.7083C153.046 28.7083 151.745 28.1992 150.763 27.3017C150.337 26.9124 149.677 26.8147 149.229 27.1788L147.347 28.7087C146.935 29.0438 146.852 29.6483 147.215 30.0368C148.826 31.764 151.222 32.7582 154.036 32.7582Z" fill="#212121"/>
<path d="M86.0247 22.9281C86.0247 26.0538 88.5935 28.7174 91.868 28.7174C92.2685 28.7174 92.6586 28.6769 93.0349 28.5999C93.3935 28.5266 93.7734 28.6091 94.037 28.863L95.9284 30.6841C96.4161 31.1537 96.3038 31.962 95.6715 32.204C94.4928 32.655 93.2093 32.9031 91.868 32.9031C86.1376 32.9031 81.5082 28.4184 81.5082 22.9281C81.5082 17.4378 86.1376 12.9531 91.868 12.9531C97.5701 12.9531 102.228 17.4378 102.228 22.9281C102.228 24.6151 101.788 26.2073 101.013 27.6035C100.718 28.1363 100.002 28.2001 99.5631 27.7775L97.6332 25.9192C97.3217 25.6192 97.2468 25.1554 97.3849 24.7455C97.5785 24.1706 97.6831 23.5587 97.6831 22.9281C97.6831 19.8024 95.1143 17.1388 91.868 17.1388C88.5935 17.1388 86.0247 19.8024 86.0247 22.9281Z" fill="#212121"/>
<circle cx="167.488" cy="30.3908" r="2.51188" fill="#00EEEE"/>
<path fill-rule="evenodd" clip-rule="evenodd" d="M10 0C4.47715 0 0 4.47716 0 10V36.5744C0 42.0972 4.47716 46.5744 10 46.5744H36.5744C42.0972 46.5744 46.5744 42.0972 46.5744 36.5744V10C46.5744 4.47715 42.0972 0 36.5744 0H10ZM18.6294 15.1375C19.3841 15.1201 20.1442 15.4075 20.7201 15.9998L23.4063 18.7624C25.7623 21.1853 29.6536 21.1853 32.0096 18.7624L34.6959 15.9998C35.8149 14.849 37.6291 14.849 38.7481 15.9998C39.8672 17.1506 39.8672 19.0164 38.7481 20.1672L30.0339 29.129C30.0278 29.1353 30.0217 29.1415 30.0156 29.1477C29.8067 29.3588 29.5803 29.5544 29.3407 29.7298C28.2218 30.5488 26.6591 30.4423 25.6555 29.4103L22.9311 26.6085C20.5751 24.1856 16.6838 24.1856 14.3278 26.6085L11.8769 29.129C10.7579 30.2798 8.94362 30.2798 7.82461 29.129C6.7056 27.9782 6.7056 26.1124 7.82461 24.9616L16.5389 15.9998C17.1147 15.4076 17.8748 15.1201 18.6294 15.1375Z" fill="#212121"/>
</svg>
