<svg width="50" height="50" viewBox="0 0 50 50" fill="none" xmlns="http://www.w3.org/2000/svg">
<path d="M39.5846 18.7498C39.5846 16.8347 39.2074 14.9384 38.4746 13.169C37.7417 11.3997 36.6675 9.79205 35.3133 8.43786C33.9591 7.08368 32.3514 6.00948 30.5821 5.27659C28.8128 4.54371 26.9164 4.1665 25.0013 4.1665C23.0862 4.1665 21.1898 4.54371 19.4205 5.27659C17.6512 6.00948 16.0435 7.08368 14.6893 8.43786C13.3351 9.79205 12.2609 11.3997 11.5281 13.169C10.7952 14.9384 10.418 16.8347 10.418 18.7498C10.418 21.6394 11.2701 24.3269 12.7201 26.5936H12.7034L25.0013 45.8332L37.2992 26.5936H37.2846C38.7865 24.2531 39.5848 21.5307 39.5846 18.7498ZM25.0013 24.9998C23.3437 24.9998 21.754 24.3414 20.5819 23.1693C19.4098 21.9972 18.7513 20.4074 18.7513 18.7498C18.7513 17.0922 19.4098 15.5025 20.5819 14.3304C21.754 13.1583 23.3437 12.4998 25.0013 12.4998C26.6589 12.4998 28.2486 13.1583 29.4207 14.3304C30.5928 15.5025 31.2513 17.0922 31.2513 18.7498C31.2513 20.4074 30.5928 21.9972 29.4207 23.1693C28.2486 24.3414 26.6589 24.9998 25.0013 24.9998Z" fill="black"/>
</svg>
