<svg width="130" height="130" viewBox="0 0 130 130" fill="none" xmlns="http://www.w3.org/2000/svg">
<path d="M26.743 32.3429C20.9905 38.2471 16.8143 45.6679 14.8047 53.9446" stroke="#323232" stroke-width="3" stroke-linecap="round" stroke-linejoin="round"/>
<path d="M50.3223 110.733C53.5235 111.426 56.8439 111.811 60.2564 111.811C65.0881 111.811 69.7519 111.074 74.1394 109.715" stroke="#323232" stroke-width="3" stroke-linecap="round" stroke-linejoin="round"/>
<path d="M14.8105 76.0554C16.8201 84.332 20.9964 91.7529 26.7489 97.657" stroke="#323232" stroke-width="3" stroke-linecap="round" stroke-linejoin="round"/>
<path d="M105.111 78.3466C102.841 85.995 98.6485 92.8037 93.1289 98.2691" stroke="#323232" stroke-width="3" stroke-linecap="round" stroke-linejoin="round"/>
<path d="M93.1289 31.7308C98.6485 37.1963 102.836 44.005 105.111 51.6533" stroke="#323232" stroke-width="3" stroke-linecap="round" stroke-linejoin="round"/>
<path d="M50.3223 19.2671C53.5235 18.5737 56.8439 18.1891 60.2564 18.1891C65.0881 18.1891 69.7519 18.9258 74.1394 20.2854" stroke="#323232" stroke-width="3" stroke-linecap="round" stroke-linejoin="round"/>
<path d="M116.642 55.4244C121.931 60.7127 121.931 69.2868 116.642 74.5752C111.354 79.8635 102.78 79.8635 97.4917 74.5752C92.2033 69.2868 92.2033 60.7127 97.4917 55.4244C102.78 50.136 111.354 50.136 116.642 55.4244" stroke="#323232" stroke-width="3" stroke-linecap="round" stroke-linejoin="round"/>
<path d="M47.8124 95.1665C53.1007 100.455 53.1007 109.029 47.8124 114.317C42.524 119.606 33.9499 119.606 28.6616 114.317C23.3732 109.029 23.3732 100.455 28.6616 95.1665C33.9499 89.8781 42.524 89.8781 47.8124 95.1665" stroke="#323232" stroke-width="3" stroke-linecap="round" stroke-linejoin="round"/>
<path d="M47.8124 15.6825C53.1007 20.9708 53.1007 29.5449 47.8124 34.8332C42.524 40.1216 33.9499 40.1216 28.6616 34.8332C23.3732 29.5449 23.3732 20.9708 28.6616 15.6825C33.9499 10.3941 42.524 10.3941 47.8124 15.6825" stroke="#323232" stroke-width="3" stroke-linecap="round" stroke-linejoin="round"/>
</svg>
