<svg width="88" height="116" viewBox="0 0 88 116" fill="none" xmlns="http://www.w3.org/2000/svg">
<path fill-rule="evenodd" clip-rule="evenodd" d="M15.9059 10.7815V37.8013L7.95294 46.5606L0 37.8013V10.7815V9.61355H3.84447V10.7815H6.02245V9.61355H9.86692V10.7815H12.0449V9.61355H15.9059V10.7815ZM11.6324 16.0055H13.0349V18.4991H11.6324V16.0055ZM2.87098 16.0055H4.27347V18.4991H2.87098V16.0055ZM7.24344 16.0055H8.64593V18.4991H7.24344V16.0055ZM8.33243 0.00195312V8.17733H7.55694V0.00195312H8.33243Z" fill="white"/>
<path d="M10.8404 60.2433C11.4839 60.2433 12.1109 60.3695 12.6719 60.6063C13.2494 60.8588 13.7444 61.1902 14.1734 61.6164C14.5859 62.0267 14.9324 62.5318 15.1798 63.0841C15.4273 63.6523 15.5428 64.2521 15.5428 64.8991C15.5428 65.5462 15.4273 66.146 15.1963 66.7141C14.9489 67.2665 14.6189 67.7558 14.2064 68.1819C13.7774 68.5923 13.2824 68.9237 12.7049 69.1762C12.1274 69.4287 11.5169 69.5392 10.8404 69.5392H7.44141V60.2433H10.8404ZM10.6754 68.3555C11.1704 68.3555 11.6324 68.2608 12.0449 68.0714C12.4574 67.8978 12.8204 67.6453 13.1174 67.3297C13.4144 67.014 13.6619 66.651 13.8269 66.2407C13.9919 65.8145 14.0744 65.3726 14.0744 64.8991C14.0744 64.4257 13.9919 63.968 13.8269 63.5576C13.6619 63.1315 13.4144 62.7685 13.1174 62.4528C12.8039 62.1372 12.4409 61.8847 12.0284 61.7111C11.6159 61.5217 11.1704 61.427 10.6754 61.427H8.8604V68.3555H10.6754ZM20.0143 69.5392V60.2433H21.4498V69.5392H20.0143ZM25.9213 69.5392L29.8812 60.2275L33.8577 69.5392H32.4057L32.1087 68.7974H27.6703L27.3568 69.5392H25.9213ZM28.1488 67.598H31.6302L29.8812 63.3367L28.1488 67.598ZM43.3121 66.651L46.5131 60.2433L48.3281 69.555H46.8761L45.9356 64.3941L43.3121 69.7286L40.7217 64.3941L39.7812 69.555H38.3292L40.1277 60.2433L43.3121 66.651ZM57.634 60.1959C58.3105 60.1959 58.9375 60.3222 59.5315 60.5747C60.1255 60.8114 60.6535 61.1429 61.0825 61.569C61.528 61.9951 61.8745 62.5002 62.122 63.0684C62.3695 63.6365 62.5015 64.2521 62.5015 64.8991C62.5015 65.5462 62.3695 66.146 62.122 66.7141C61.8745 67.2823 61.528 67.7716 61.0825 68.1977C60.6535 68.6238 60.1255 68.9553 59.5315 69.2078C58.9375 69.4445 58.3105 69.5708 57.634 69.5708C56.974 69.5708 56.3305 69.4445 55.753 69.2078C55.159 68.9553 54.6476 68.6238 54.2021 68.1977C53.7731 67.7716 53.4266 67.2823 53.1791 66.7141C52.9151 66.146 52.7996 65.5462 52.7996 64.8991C52.7996 64.2521 52.9151 63.6365 53.1791 63.0684C53.4266 62.5002 53.7731 61.9951 54.2021 61.569C54.6476 61.1429 55.159 60.8114 55.753 60.5747C56.3305 60.3222 56.974 60.1959 57.634 60.1959ZM57.634 68.2608C58.096 68.2608 58.5415 68.1661 58.954 67.9925C59.3665 67.8189 59.713 67.5822 60.0265 67.2823C60.3235 66.9667 60.571 66.6194 60.7525 66.2091C60.9175 65.7988 61.0165 65.3568 61.0165 64.8991C61.0165 64.4414 60.9175 63.9995 60.7525 63.5892C60.571 63.1631 60.3235 62.8158 60.0265 62.5002C59.713 62.2003 59.3665 61.9478 58.954 61.7742C58.5415 61.6006 58.096 61.5059 57.634 61.5059C57.172 61.5059 56.743 61.6006 56.347 61.7742C55.9345 61.9478 55.5715 62.2003 55.2746 62.5002C54.9611 62.8158 54.7301 63.1631 54.5486 63.5892C54.3671 63.9995 54.2846 64.4414 54.2846 64.8991C54.2846 65.3568 54.3671 65.7988 54.5486 66.2091C54.7301 66.6194 54.9611 66.9667 55.2746 67.2823C55.5715 67.5822 55.9345 67.8189 56.347 67.9925C56.743 68.1661 57.172 68.2608 57.634 68.2608ZM68.3095 63.6997V69.5708H66.973V60.0854L73.2594 67.2823V60.2591H74.5959V69.5708H73.3089L68.3095 63.6997ZM82.4828 60.2433C83.1263 60.2433 83.7368 60.3695 84.3143 60.6063C84.8918 60.8588 85.3868 61.1902 85.7993 61.6164C86.2283 62.0267 86.5748 62.5318 86.8223 63.0841C87.0698 63.6523 87.1853 64.2521 87.1853 64.8991C87.1853 65.5462 87.0698 66.146 86.8223 66.7141C86.5913 67.2665 86.2613 67.7558 85.8323 68.1819C85.4198 68.5923 84.9248 68.9237 84.3473 69.1762C83.7698 69.4287 83.1428 69.5392 82.4828 69.5392H79.0839V60.2433H82.4828ZM82.3178 68.3555C82.8128 68.3555 83.2748 68.2608 83.6873 68.0714C84.0998 67.8978 84.4628 67.6453 84.7598 67.3297C85.0568 67.014 85.2878 66.651 85.4693 66.2407C85.6343 65.8145 85.7168 65.3726 85.7168 64.8991C85.7168 64.4257 85.6343 63.968 85.4693 63.5576C85.2878 63.1315 85.0568 62.7685 84.7598 62.4528C84.4463 62.1372 84.0833 61.8847 83.6708 61.7111C83.2583 61.5217 82.7963 61.427 82.3178 61.427H80.5029V68.3555H82.3178ZM12.2429 85.0377C12.8039 85.0377 13.3319 84.9115 13.8104 84.6432C14.2724 84.3907 14.6684 84.0434 14.9654 83.6173L16.1203 84.438C15.6748 85.022 15.1138 85.4797 14.4539 85.8111C13.7774 86.1425 13.0514 86.3161 12.2429 86.3161C11.5829 86.3161 10.9559 86.1899 10.3784 85.9531C9.78439 85.7006 9.27289 85.3692 8.8439 84.9588C8.4149 84.5327 8.0684 84.0434 7.8209 83.4753C7.55691 82.9229 7.44141 82.3231 7.44141 81.676C7.44141 81.029 7.55691 80.4292 7.8209 79.861C8.0684 79.2929 8.4149 78.8036 8.8439 78.3933C9.27289 77.9671 9.78439 77.6357 10.3784 77.399C10.9559 77.1464 11.5829 77.0202 12.2429 77.0202C13.0514 77.0202 13.7774 77.1938 14.4539 77.541C15.1138 77.8724 15.6748 78.3301 16.1203 78.8983L14.9654 79.7348C14.6684 79.2929 14.2724 78.9614 13.8104 78.6931C13.3319 78.4406 12.8039 78.3144 12.2429 78.3144C11.7809 78.3144 11.3519 78.3933 10.9559 78.5827C10.5434 78.7563 10.1969 78.993 9.89989 79.2929C9.58639 79.6085 9.35539 79.9557 9.17389 80.3661C8.99239 80.7764 8.9099 81.2026 8.9099 81.676C8.9099 82.1337 8.99239 82.5757 9.17389 82.986C9.35539 83.3806 9.58639 83.7436 9.89989 84.0434C10.1969 84.3591 10.5434 84.5958 10.9559 84.7694C11.3519 84.943 11.7809 85.0377 12.2429 85.0377ZM20.5918 86.3003L24.5683 77.0044L28.5282 86.3003H27.0763L26.7958 85.5743H22.3408L22.0438 86.3003H20.5918ZM22.8193 84.3749H26.3008L24.5683 80.1136L22.8193 84.3749ZM38.3457 81.6918C38.3952 81.7234 38.4612 81.7707 38.5107 81.8339C38.5602 81.8812 38.6097 81.9444 38.6592 81.9917C38.8572 82.2284 39.0222 82.4967 39.1377 82.7966C39.2532 83.0807 39.3027 83.3963 39.3027 83.712C39.3027 83.7909 39.3027 83.854 39.3027 83.9014C39.2697 84.3749 39.1212 84.801 38.8407 85.1798C38.5932 85.527 38.2797 85.8111 37.8837 86.0163C37.5042 86.2214 37.0587 86.3319 36.5802 86.3319H35.7057C35.2272 86.3319 34.7982 86.2214 34.4187 86.0163C34.0227 85.8111 33.7092 85.527 33.4617 85.1798C33.3792 85.0693 33.3132 84.9588 33.2472 84.8168L34.4847 83.9014C34.5012 84.075 34.5672 84.217 34.6497 84.3591C34.7322 84.5011 34.8312 84.6274 34.9632 84.7221C35.0787 84.8326 35.2272 84.9115 35.3757 84.9746C35.5407 85.0377 35.7057 85.0693 35.8872 85.0693H36.4152C36.7782 85.0693 37.0917 84.943 37.3557 84.7221C37.6197 84.5011 37.7847 84.217 37.8342 83.9014C37.8342 83.854 37.8342 83.8225 37.8342 83.7909C37.8507 83.7593 37.8507 83.7278 37.8507 83.6962C37.8507 83.5068 37.8177 83.3332 37.7352 83.1754C37.6692 83.0176 37.5702 82.8755 37.4547 82.7493C37.3227 82.623 37.1742 82.5283 37.0092 82.4494C36.8442 82.3705 36.6627 82.3231 36.4812 82.3231H35.7222H35.6727C35.3427 82.3074 35.0292 82.2442 34.7487 82.1337C34.4682 82.0233 34.2042 81.8654 33.9732 81.676C33.8412 81.5814 33.7422 81.4867 33.6597 81.3604C33.4452 81.1237 33.2967 80.8554 33.1812 80.5555C33.0657 80.2714 32.9997 79.9557 32.9997 79.6401V79.4665C33.0492 78.9772 33.1977 78.5511 33.4617 78.1881C33.7092 77.8251 34.0392 77.541 34.4187 77.3358C34.8147 77.1307 35.2437 77.0202 35.7222 77.0202H36.5802C37.0587 77.0202 37.5042 77.1307 37.9002 77.3358C38.2962 77.541 38.6097 77.8251 38.8572 78.1881C38.8902 78.2197 38.9067 78.267 38.9397 78.3144C38.9727 78.3775 39.0057 78.4248 39.0222 78.4564L37.8177 79.356C37.7352 79.0561 37.5702 78.8036 37.3227 78.5984C37.0587 78.3933 36.7617 78.2986 36.4317 78.2986H35.9037C35.7222 78.2986 35.5572 78.3301 35.3922 78.3775C35.2272 78.4406 35.0787 78.5195 34.9632 78.63C34.8312 78.7405 34.7322 78.8667 34.6497 79.0088C34.5672 79.1508 34.5012 79.3087 34.4847 79.4665C34.4682 79.498 34.4682 79.5296 34.4682 79.5612C34.4682 79.5927 34.4682 79.6401 34.4682 79.6717C34.4682 79.8453 34.5012 80.0189 34.5672 80.1925C34.6332 80.3503 34.7322 80.4924 34.8642 80.6186C34.9797 80.7291 35.1282 80.8396 35.2932 80.9185C35.4747 80.9816 35.6397 81.029 35.8377 81.0447H36.5802H36.6462C36.9762 81.0447 37.2732 81.1079 37.5702 81.2184C37.8507 81.3288 38.1147 81.4867 38.3457 81.6918ZM43.7741 78.3144V77.0202H49.9946V78.3144H47.5856V86.3003H46.1831V78.3144H43.7741ZM55.885 77.0202V85.0062H59.8615V86.3319H54.4661V77.0202H55.885ZM65.7355 82.7493V84.9588H70.0584V86.3003H64.333V77.0202H69.9759V78.3301H65.7355V79.7979V80.5555V81.4867H69.5469V82.7493H65.7355Z" fill="white"/>
<path d="M37.1742 94.5382H7.44141V93.749H37.1742V94.5382Z" fill="#C7C7C7"/>
<path d="M9.05839 102.034C9.37189 102.034 9.66889 102.098 9.93289 102.208C10.2134 102.319 10.4444 102.492 10.6424 102.682C10.8569 102.887 11.0054 103.123 11.1374 103.392C11.2529 103.66 11.3024 103.944 11.3024 104.26C11.3024 104.56 11.2529 104.844 11.1374 105.112C11.0219 105.38 10.8734 105.617 10.6589 105.822C10.4609 106.027 10.2299 106.185 9.94939 106.296C9.68539 106.422 9.38839 106.469 9.05839 106.469H7.44141V102.034H9.05839ZM8.97589 105.901C9.22339 105.901 9.43789 105.854 9.63589 105.775C9.83389 105.68 9.99889 105.57 10.1474 105.412C10.2959 105.27 10.4114 105.096 10.4774 104.891C10.5599 104.686 10.6094 104.481 10.6094 104.26C10.6094 104.023 10.5599 103.818 10.4774 103.613C10.4114 103.408 10.2959 103.234 10.1474 103.092C9.99889 102.934 9.83389 102.824 9.63589 102.729C9.43789 102.65 9.22339 102.603 8.97589 102.603H8.1179V105.901H8.97589ZM14.1239 104.765V105.822H16.1863V106.454H13.4474V102.034H16.1368V102.666H14.1239V103.36V103.723V104.165H15.9388V104.765H14.1239ZM20.2123 104.828L21.3838 102.034H22.0933L20.2123 106.501L18.3148 102.034H19.0243L20.2123 104.828ZM24.8983 104.765V105.822H26.9608V106.454H24.2218V102.034H26.9278V102.666H24.8983V103.36V103.723V104.165H26.7133V104.765H24.8983ZM29.7822 102.034V105.838H31.6797V106.485H29.1057V102.034H29.7822ZM36.1182 102.019C36.4482 102.019 36.7452 102.066 37.0257 102.192C37.3062 102.303 37.5537 102.461 37.7682 102.666C37.9662 102.871 38.1312 103.108 38.2632 103.376C38.3787 103.66 38.4447 103.944 38.4447 104.26C38.4447 104.56 38.3787 104.86 38.2632 105.128C38.1312 105.396 37.9662 105.633 37.7682 105.838C37.5537 106.027 37.3062 106.185 37.0257 106.312C36.7452 106.422 36.4482 106.485 36.1182 106.485C35.8047 106.485 35.4912 106.422 35.2107 106.312C34.9302 106.185 34.6992 106.027 34.4847 105.838C34.2702 105.633 34.1052 105.396 33.9897 105.128C33.8742 104.86 33.8082 104.56 33.8082 104.26C33.8082 103.944 33.8742 103.66 33.9897 103.376C34.1052 103.108 34.2702 102.871 34.4847 102.666C34.6992 102.461 34.9302 102.303 35.2107 102.192C35.4912 102.066 35.8047 102.019 36.1182 102.019ZM36.1182 105.854C36.3327 105.854 36.5472 105.822 36.7452 105.728C36.9432 105.649 37.1082 105.538 37.2567 105.396C37.4052 105.238 37.5207 105.081 37.6032 104.875C37.6857 104.686 37.7352 104.481 37.7352 104.26C37.7352 104.039 37.6857 103.818 37.6032 103.629C37.5207 103.423 37.4052 103.266 37.2567 103.108C37.1082 102.966 36.9432 102.855 36.7452 102.76C36.5472 102.682 36.3327 102.634 36.1182 102.634C35.9037 102.634 35.6892 102.682 35.4912 102.76C35.3097 102.855 35.1282 102.966 34.9962 103.108C34.8477 103.266 34.7322 103.423 34.6497 103.629C34.5672 103.818 34.5177 104.039 34.5177 104.26C34.5177 104.481 34.5672 104.686 34.6497 104.875C34.7322 105.081 34.8477 105.238 34.9962 105.396C35.1282 105.538 35.3097 105.649 35.4912 105.728C35.6892 105.822 35.9037 105.854 36.1182 105.854ZM43.8236 103.439C43.8236 103.455 43.8236 103.486 43.8401 103.518C43.8401 103.534 43.8401 103.565 43.8401 103.597C43.8401 103.629 43.8401 103.66 43.8401 103.676C43.8236 103.707 43.8236 103.723 43.8236 103.755L43.8071 103.897C43.8071 103.913 43.7906 103.913 43.7906 103.928C43.7906 103.944 43.7906 103.96 43.7906 103.976C43.7741 103.992 43.7741 104.023 43.7741 104.039C43.7081 104.228 43.6256 104.386 43.5101 104.528C43.3946 104.686 43.2461 104.796 43.0811 104.907C42.9491 104.986 42.7841 105.049 42.6191 105.096C42.4541 105.144 42.2726 105.159 42.0746 105.159H41.2497V106.485H40.5732V102.019H42.0746C42.4541 102.019 42.8006 102.113 43.0811 102.287C43.2461 102.382 43.3946 102.508 43.5101 102.65C43.6256 102.808 43.7081 102.966 43.7741 103.139C43.7906 103.187 43.7906 103.234 43.7906 103.266C43.7906 103.281 43.8071 103.281 43.8071 103.281C43.8071 103.313 43.8071 103.329 43.8071 103.36C43.8236 103.376 43.8236 103.408 43.8236 103.423V103.439ZM42.1571 104.591C42.3056 104.591 42.4376 104.56 42.5531 104.512C42.6686 104.449 42.7676 104.386 42.8501 104.291C42.9326 104.197 42.9986 104.086 43.0481 103.976C43.0976 103.849 43.1306 103.723 43.1306 103.597C43.1306 103.471 43.0976 103.344 43.0481 103.218C42.9986 103.108 42.9326 102.997 42.8501 102.903C42.7676 102.808 42.6686 102.729 42.5531 102.682C42.4376 102.618 42.3056 102.603 42.1571 102.603H41.2662V104.591H42.1571ZM48.3611 105.096L49.8791 102.034L50.7371 106.485H50.0441L49.5986 104.007L48.3611 106.564L47.1071 104.007L46.6616 106.485H45.9686L46.8266 102.034L48.3611 105.096ZM53.5421 104.765V105.822H55.621V106.454H52.8821V102.034H55.5715V102.666H53.5421V103.36V103.723V104.165H55.3736V104.765H53.5421ZM58.393 103.676V106.485H57.7495V101.956L60.7525 105.396V102.034H61.396V106.485H60.769L58.393 103.676ZM63.5245 102.65V102.034H66.4945V102.65H65.3395V106.469H64.6795V102.65H63.5245ZM9.73489 114.55C9.99889 114.55 10.2464 114.487 10.4774 114.361C10.7084 114.234 10.8899 114.077 11.0219 113.871L11.5829 114.266C11.3684 114.534 11.1044 114.755 10.7909 114.913C10.4609 115.071 10.1144 115.166 9.73489 115.166C9.42139 115.166 9.12439 115.102 8.8439 114.976C8.5634 114.866 8.3159 114.708 8.1179 114.503C7.9034 114.313 7.7384 114.077 7.6229 113.808C7.49091 113.54 7.44141 113.256 7.44141 112.94C7.44141 112.64 7.49091 112.34 7.6229 112.072C7.7384 111.804 7.9034 111.567 8.1179 111.378C8.3159 111.173 8.5634 111.015 8.8439 110.904C9.12439 110.778 9.42139 110.731 9.73489 110.731C10.1144 110.731 10.4609 110.81 10.7909 110.967C11.1044 111.125 11.3684 111.346 11.5829 111.615L11.0219 112.009C10.8899 111.804 10.7084 111.646 10.4774 111.52C10.2464 111.394 9.99889 111.33 9.73489 111.33C9.50389 111.33 9.30589 111.378 9.10789 111.457C8.9264 111.551 8.7614 111.662 8.6129 111.804C8.4644 111.946 8.3489 112.12 8.2664 112.325C8.1839 112.514 8.1344 112.719 8.1344 112.94C8.1344 113.161 8.1839 113.366 8.2664 113.572C8.3489 113.761 8.4644 113.935 8.6129 114.077C8.7614 114.219 8.9264 114.329 9.10789 114.424C9.30589 114.503 9.50389 114.55 9.73489 114.55ZM16.0213 110.699C16.3513 110.699 16.6483 110.762 16.9288 110.873C17.2258 110.999 17.4568 111.157 17.6713 111.346C17.8858 111.551 18.0508 111.788 18.1663 112.072C18.2818 112.34 18.3478 112.625 18.3478 112.94C18.3478 113.256 18.2818 113.54 18.1663 113.808C18.0508 114.077 17.8858 114.313 17.6713 114.518C17.4568 114.724 17.2258 114.881 16.9288 114.992C16.6483 115.118 16.3513 115.166 16.0213 115.166C15.7078 115.166 15.4108 115.118 15.1303 114.992C14.8499 114.881 14.6024 114.724 14.3879 114.518C14.1899 114.313 14.0249 114.077 13.8929 113.808C13.7774 113.54 13.7114 113.256 13.7114 112.94C13.7114 112.625 13.7774 112.34 13.8929 112.072C14.0249 111.788 14.1899 111.551 14.3879 111.346C14.6024 111.157 14.8499 110.999 15.1303 110.873C15.4108 110.762 15.7078 110.699 16.0213 110.699ZM16.0213 114.55C16.2523 114.55 16.4503 114.503 16.6483 114.424C16.8463 114.329 17.0278 114.219 17.1598 114.077C17.3083 113.935 17.4238 113.761 17.5063 113.572C17.5888 113.366 17.6383 113.161 17.6383 112.94C17.6383 112.719 17.5888 112.514 17.5063 112.309C17.4238 112.12 17.3083 111.946 17.1598 111.804C17.0278 111.646 16.8463 111.536 16.6483 111.457C16.4503 111.362 16.2523 111.33 16.0213 111.33C15.8068 111.33 15.6088 111.362 15.4108 111.457C15.2128 111.536 15.0478 111.646 14.8994 111.804C14.7509 111.946 14.6354 112.12 14.5529 112.309C14.4704 112.514 14.4209 112.719 14.4209 112.94C14.4209 113.161 14.4704 113.366 14.5529 113.572C14.6354 113.761 14.7509 113.935 14.8994 114.077C15.0478 114.219 15.2128 114.329 15.4108 114.424C15.6088 114.503 15.8068 114.55 16.0213 114.55ZM22.8688 113.777L24.3868 110.715L25.2613 115.166H24.5683L24.1063 112.703L22.8688 115.244L21.6313 112.703L21.1693 115.166H20.4763L21.3508 110.715L22.8688 113.777ZM30.6402 112.12C30.6402 112.151 30.6402 112.167 30.6402 112.198C30.6567 112.214 30.6567 112.246 30.6567 112.277V112.293C30.6567 112.309 30.6567 112.34 30.6402 112.372C30.6402 112.388 30.6402 112.419 30.6402 112.435V112.451L30.6237 112.593L30.6072 112.609C30.6072 112.64 30.6072 112.656 30.6072 112.672C30.5907 112.688 30.5907 112.703 30.5742 112.719C30.5247 112.909 30.4422 113.082 30.3267 113.224C30.1947 113.366 30.0627 113.493 29.8977 113.587C29.7657 113.666 29.6007 113.729 29.4357 113.777C29.2707 113.824 29.0892 113.856 28.8912 113.856H28.0663V115.166H27.3898V110.715H28.8912C29.2707 110.715 29.6172 110.794 29.8977 110.967C30.0627 111.078 30.1947 111.188 30.3267 111.346C30.4422 111.488 30.5247 111.646 30.5742 111.835C30.5907 111.883 30.6072 111.914 30.6072 111.946C30.6072 111.962 30.6237 111.962 30.6237 111.978C30.6237 111.993 30.6237 112.025 30.6237 112.041C30.6237 112.072 30.6402 112.088 30.6402 112.104V112.12ZM28.9737 113.287C29.1222 113.287 29.2542 113.256 29.3697 113.193C29.4852 113.145 29.5842 113.066 29.6667 112.972C29.7492 112.877 29.8152 112.767 29.8647 112.656C29.9142 112.53 29.9472 112.404 29.9472 112.277C29.9472 112.151 29.9142 112.025 29.8647 111.914C29.8152 111.788 29.7492 111.678 29.6667 111.583C29.5842 111.504 29.4852 111.425 29.3697 111.362C29.2542 111.315 29.1222 111.283 28.9737 111.283H28.0663V113.287H28.9737ZM32.7852 115.15L34.6827 110.715L36.5802 115.15H35.8872L35.7387 114.803H33.6267L33.4782 115.15H32.7852ZM33.8577 114.234H35.5077L34.6827 112.198L33.8577 114.234ZM39.3522 112.372V115.166H38.7087V110.652L41.7117 114.077V110.731H42.3551V115.166H41.7281L39.3522 112.372ZM47.2886 110.715H48.0476L46.6121 113.714V115.166H45.9191V113.714L44.4836 110.715H44.5001H44.4836H45.2426L46.2656 113.082L47.2886 110.715Z" fill="white"/>
<path fill-rule="evenodd" clip-rule="evenodd" d="M1.77928 38.7147C2.20827 38.841 2.70327 38.9356 3.28077 39.0303C3.47876 39.0619 3.69326 39.0935 3.92426 39.1093L6.53124 43.9703L1.77928 38.7147ZM9.73222 0L15.4907 2.43052V3.267H9.73222V0ZM11.2667 34.2324V27.9825C11.2667 26.2307 9.78172 24.7944 7.95023 24.7944C6.11874 24.7944 4.61726 26.2307 4.61726 27.9825V34.2324C4.78225 34.1851 4.96375 34.1377 5.16175 34.1062C5.87125 33.9641 6.86124 33.8852 7.95023 33.8852C9.02272 33.8852 10.0127 33.9641 10.7387 34.1062C10.9367 34.1377 11.1182 34.1851 11.2667 34.2324ZM4.03976 35.4477C4.28726 35.6055 4.66676 35.7476 5.16175 35.8423C5.26075 35.858 5.37625 35.8738 5.49175 35.8896L4.03976 38.4306C3.80876 38.399 3.59426 38.3833 3.37977 38.3517C2.47227 38.2096 1.76278 38.036 1.30078 37.8309L4.03976 35.4477ZM14.5832 37.8309C14.1377 38.036 13.4117 38.2096 12.4877 38.3517C12.2897 38.3833 12.0752 38.4148 11.8607 38.4306L10.4087 35.8896C10.5242 35.8738 10.6232 35.858 10.7387 35.8423C11.2172 35.7476 11.5967 35.6055 11.8442 35.4477L14.5832 37.8309ZM9.36922 43.9703L11.9597 39.125C12.1907 39.0935 12.4052 39.0619 12.6032 39.0303C13.1807 38.9514 13.6757 38.841 14.1047 38.7305L9.36922 43.9703ZM9.63322 35.9843C9.12172 36.0474 8.54423 36.0632 7.95023 36.0632C7.33974 36.0632 6.76224 36.0317 6.25074 35.9843L4.81525 38.5095C5.75575 38.6042 6.82824 38.6516 7.95023 38.6516C9.07222 38.6516 10.1282 38.6042 11.0687 38.5095L9.63322 35.9843ZM4.78225 39.204L7.95023 45.1066L11.1017 39.204C10.1447 39.2986 9.07222 39.346 7.95023 39.346C6.82824 39.346 5.73925 39.2986 4.78225 39.204Z" fill="#C7C7C7"/>
</svg>
