<svg width="83" height="101" viewBox="0 0 83 101" fill="none" xmlns="http://www.w3.org/2000/svg">
<path d="M49.8843 95.7396L50.3786 98.7338L50.8729 95.7396H52.1908V101H51.2714V98.6365L50.8754 101H50.3786H49.8814L49.4853 98.6365V101H48.5664V95.7396H49.8843Z" fill="white"/>
<path d="M41.0538 34.0033C42.6546 34.7458 44.2386 35.5218 45.8051 36.3292C53.3095 33.5379 60.9808 31.2593 68.8614 29.6911V31.4912C60.9794 33.0747 53.2634 35.4111 45.769 38.2372C38.9985 40.79 32.3459 43.7806 26.0836 47.3438H22.5598C24.4044 46.25 26.2367 45.1873 28.1354 44.1798C23.6679 42.4481 19.1443 41.0066 14.4961 39.7998V37.9738C19.8885 39.3617 25.069 41.0337 30.2255 43.0963C32.1944 42.0995 34.1908 41.1528 36.2078 40.2506C29.1889 37.2628 21.9909 34.9852 14.4961 33.3256V31.5176C22.8372 33.3473 30.6695 35.8556 38.4276 39.2787C40.1253 38.5512 41.8369 37.8529 43.5598 37.1832C34.3045 32.5551 24.6669 29.1859 14.4961 26.9788V25.1747C16.4618 25.5965 18.4099 26.0483 20.354 26.5573V6.38162C23.0143 4.25255 25.6771 2.12694 28.3394 0C31.0025 2.12136 33.6698 4.23887 36.327 6.36701V24.6224H41.5866V20.749H49.6827V16.7252L56.3427 11.4795L59.6927 14.1183L63.0028 16.7312V24.9409C64.9463 24.4873 66.8962 24.09 68.8614 23.7339V25.5291C59.312 27.282 49.9482 30.2448 41.0538 34.0033ZM51.5157 24.763L54.6022 22.2963V23.1941L51.5157 26.7406V28.1846C52.8168 27.7614 54.1151 27.3518 55.4262 26.9577V14.4567L51.5157 17.5815V18.6364L54.6022 16.1701V17.0679L51.5157 20.6143V21.6997L54.6022 19.2333V20.1309L51.5157 23.6777V24.763ZM34.494 31.1868V7.22482L29.2571 2.9813V29.2503C31.0183 29.8634 32.7612 30.5009 34.494 31.1868ZM36.327 26.3915V31.9292C37.1762 32.2809 38.0189 32.6432 38.8602 33.0116C42.4046 31.4682 46.0202 30.0639 49.6827 28.8026V22.5183H43.4195V26.3915H36.327ZM22.187 8.26571L26.5997 4.73945V5.66901L22.187 10.4858V11.3828L26.5997 7.8002V8.70584L22.187 13.5476V14.3923L26.5997 10.866V11.7863L22.187 16.6102V17.4553L26.5997 13.929V14.839L22.187 19.6797V20.5981L26.5997 16.988V17.8765L22.187 22.7357V23.6024L26.5997 20.0548V20.9398L22.187 25.8008V26.6452L26.5997 23.1187V24.0025L23.5259 27.4328C24.8318 27.812 26.1324 28.2131 27.4241 28.6353V3.02568L22.187 7.21101V8.26571ZM57.2593 14.4567V26.4255C58.5569 26.0585 59.8609 25.7097 61.1702 25.3835V17.5815L57.2593 14.4567ZM52.5721 47.3438C57.9017 45.2785 63.296 43.5386 68.8614 42.1639V43.9864C65.0562 44.9365 61.3161 46.0582 57.6185 47.3438H52.5721ZM36.739 47.3438C47.0518 42.4133 57.5779 38.6525 68.8614 36.3861V38.1884C59.1709 40.1349 49.8312 43.2617 40.8889 47.3438H36.739Z" fill="white"/>
<path d="M0 68.6205V52.7575H4.09028C4.77078 52.7575 5.35628 52.8402 5.85435 53.0043C6.37043 53.1746 6.79152 53.432 7.12544 53.776C7.45744 54.1179 7.69582 54.5372 7.84966 55.0334C7.99799 55.5114 8.06742 56.0603 8.06742 56.6799V57.403C8.06742 57.8441 8.03374 58.2477 7.95936 58.6145C7.88251 58.9916 7.76154 59.3311 7.58846 59.6325C7.44906 59.8755 7.2779 60.0907 7.07169 60.2778C7.01574 60.3287 6.95717 60.3776 6.89614 60.4242C6.99361 60.4903 7.08626 60.5608 7.17342 60.6357C7.41345 60.8422 7.61389 61.0814 7.77666 61.35C7.97545 61.6778 8.11732 62.0462 8.20833 62.4496C8.29755 62.8448 8.33865 63.2749 8.33865 63.7348V65.0275C8.33865 65.6729 8.25246 66.2541 8.07718 66.7646C7.89984 67.2819 7.63217 67.723 7.27185 68.0808C6.91442 68.436 6.47106 68.7062 5.94082 68.8859C5.43217 69.0581 4.84611 69.1468 4.18046 69.1468H0V68.6205ZM2.84778 55.3657V59.265H3.66122C3.96325 59.265 4.22281 59.2434 4.43548 59.1922C4.62409 59.1473 4.77559 59.0791 4.88722 58.9823C4.99569 58.8869 5.08023 58.7518 5.13976 58.5689C5.20767 58.3594 5.24245 58.0908 5.24245 57.7533V56.8552C5.24245 56.563 5.21867 56.3128 5.16781 56.1056C5.12368 55.9225 5.05769 55.7763 4.96764 55.667C4.88846 55.5715 4.78205 55.4992 4.64595 55.4502C4.49019 55.3941 4.29072 55.3657 4.04533 55.3657H2.84778ZM2.84778 61.8731V66.5386H4.18046C4.43424 66.5386 4.64815 66.5088 4.82192 66.449C4.97575 66.3959 5.09921 66.318 5.19255 66.215C5.29414 66.1012 5.37182 65.949 5.42516 65.7574C5.48441 65.5454 5.51328 65.2877 5.51328 64.9835V63.6253C5.51328 63.2547 5.4785 62.9525 5.40742 62.7116C5.34405 62.4961 5.25263 62.3327 5.13275 62.2154C5.01521 62.1005 4.85697 62.0182 4.65915 61.9629C4.43589 61.9009 4.163 61.8731 3.84159 61.8731H2.84778ZM14.1113 68.6205V52.7575H16.9593V69.1468H14.1113V68.6205ZM25.839 66.5386H30.958V69.1468H22.6865V66.9815L27.8302 55.3657H22.9352V52.7575H31.003V54.9246L25.839 66.5386ZM42.382 68.7786L39.3977 59.6293V69.1468H36.73V52.7575H39.9047L42.6276 61.0051V52.7575H45.2724V69.1468H42.5014L42.382 68.7786ZM51.2483 68.6205V52.7575H54.0962V69.1468H51.2483V68.6205ZM65.7011 68.7786L62.7171 59.6293V69.1468H60.0494V52.7575H63.2239L65.9468 61.0051V52.7575H68.5917V69.1468H65.821L65.7011 68.7786ZM75.4917 53.777C75.844 53.3943 76.2819 53.0954 76.8073 52.8948C77.303 52.7051 77.8744 52.6044 78.5223 52.6044C79.1745 52.6044 79.7494 52.7051 80.2484 52.8939C80.7756 53.0938 81.2151 53.3915 81.5687 53.7732C81.9295 54.1647 82.1964 54.6363 82.3724 55.1751C82.5486 55.7154 82.6353 56.3242 82.6353 56.9869V58.8273H79.8774V56.8989C79.8774 56.5898 79.8466 56.3175 79.7828 56.0873C79.7252 55.8792 79.6423 55.707 79.5322 55.5757C79.4357 55.4602 79.3113 55.3707 79.1584 55.3101C78.9992 55.2456 78.8026 55.2126 78.5677 55.2126C78.3379 55.2126 78.1437 55.2462 77.9841 55.3101C77.8319 55.3711 77.7065 55.4624 77.6077 55.5803C77.4967 55.7126 77.412 55.8857 77.3535 56.095C77.2896 56.3243 77.2577 56.5938 77.2577 56.8989V65.0053C77.2577 65.3104 77.2896 65.5803 77.3535 65.8096C77.412 66.0188 77.4967 66.192 77.6077 66.3242C77.7065 66.4422 77.8316 66.5332 77.9841 66.5944C78.1437 66.6583 78.3379 66.692 78.5677 66.692C78.8026 66.692 78.9992 66.6589 79.1584 66.5956C79.3113 66.5339 79.4357 66.444 79.5322 66.3289C79.6423 66.1973 79.7256 66.0254 79.7828 65.8173C79.8466 65.5871 79.8774 65.3145 79.8774 65.0053V62.4645H78.2508V59.8783H82.6353V64.918C82.6353 65.5808 82.5486 66.1901 82.3724 66.7304C82.1957 67.2703 81.9291 67.7424 81.5687 68.1313C81.2151 68.5128 80.7756 68.8107 80.2484 69.0104C79.7494 69.1994 79.1745 69.2998 78.5223 69.2998C77.8744 69.2998 77.3033 69.1991 76.8069 69.0097C76.2822 68.8091 75.844 68.5103 75.4917 68.1276C75.1352 67.7398 74.8699 67.2682 74.6942 66.7276C74.5182 66.1883 74.432 65.5799 74.432 64.918V56.9869C74.432 56.3249 74.5182 55.7163 74.6939 55.177C74.8699 54.6363 75.1352 54.165 75.4917 53.777ZM9.5927 74.2657H11.8757V86.5134C11.8757 86.8225 11.9065 87.0949 11.9699 87.3251C12.0275 87.5331 12.1108 87.7054 12.2209 87.8371C12.318 87.9534 12.4423 88.0433 12.5945 88.1038C12.7563 88.1664 12.9529 88.1999 13.1855 88.1999C13.4123 88.1999 13.6039 88.1664 13.7609 88.1034C13.9112 88.0429 14.0341 87.9528 14.13 87.8371C14.2397 87.7044 14.3224 87.5322 14.3793 87.3248C14.4424 87.0953 14.4729 86.8232 14.4729 86.5134V74.2657H17.2082V86.4259C17.2082 87.0899 17.1223 87.7023 16.947 88.2463C16.7726 88.7872 16.5085 89.2611 16.1504 89.6525C15.7977 90.038 15.3609 90.3385 14.8371 90.5391C14.3413 90.7288 13.769 90.8301 13.1178 90.8301C12.4731 90.8301 11.9041 90.7284 11.4091 90.5372C10.8851 90.3348 10.4499 90.0347 10.1014 89.6509C9.74626 89.2585 9.48299 88.7851 9.30964 88.2447C9.13518 87.7007 9.04967 87.0893 9.04967 86.4259V74.2657H9.5927ZM28.2006 90.6548H25.9179V84.7126L22.3667 74.2657H25.3449L27.4132 80.5975L29.5015 74.2657H32.3172L28.7436 84.7073V90.6548H28.2006ZM44.9111 88.5728V90.6548H37.5436V74.2657H40.3918V88.0466H44.9111V88.5728ZM56.8177 90.2271L56.292 87.5657H53.1877L52.5777 90.6548H49.8473L50.5281 87.2172C51.3751 82.9399 52.2222 78.6631 53.0268 74.5502L53.0825 74.2657H56.5317L58.1403 82.3942C58.6315 84.8816 59.1415 87.4689 59.6855 90.2421L59.7666 90.6548H56.9017L56.8177 90.2271ZM55.8323 85.0448L54.7124 79.4913L53.6207 85.0448H55.8323ZM65.2014 90.1285V74.2657H69.269C69.9568 74.2657 70.5523 74.3542 71.061 74.5278C71.5838 74.7061 72.0143 74.9759 72.3585 75.3322C72.6996 75.6846 72.9462 76.1161 73.1068 76.6224C73.2625 77.114 73.3369 77.6733 73.3369 78.2975V79.5465C73.3369 80.0066 73.2934 80.4297 73.2042 80.8152C73.1132 81.2088 72.9745 81.5602 72.7863 81.8677C72.6336 82.1176 72.4492 82.3381 72.233 82.529C72.1684 82.5861 72.1004 82.6407 72.0301 82.6925C72.1149 82.7536 72.1957 82.8182 72.2719 82.8865C72.4975 83.0905 72.6847 83.3226 72.8359 83.5819C73.0215 83.9012 73.1535 84.2587 73.2381 84.6509C73.3211 85.0364 73.3597 85.4537 73.3597 85.8996V88.2881C73.3597 88.4683 73.361 88.6366 73.3662 88.7672C73.372 88.9173 73.3828 89.0614 73.4015 89.1984C73.4188 89.326 73.4436 89.4489 73.4784 89.5648C73.5112 89.674 73.5544 89.7798 73.6101 89.8797L74.0424 90.6548H70.9989L70.8541 90.3422C70.7936 90.2121 70.7418 90.0862 70.699 89.9533C70.6556 89.8182 70.6193 89.6725 70.5906 89.5034C70.5636 89.3449 70.544 89.1684 70.5308 88.9634C70.5178 88.7548 70.5115 88.5261 70.5115 88.2663V85.8562C70.5115 85.4859 70.4703 85.1865 70.3908 84.9491C70.3188 84.7345 70.2155 84.571 70.0836 84.4519C69.9508 84.3323 69.7777 84.2475 69.5688 84.1917C69.3401 84.1308 69.0653 84.1037 68.7494 84.1037H68.0496V90.6548H65.2014V90.1285ZM68.0496 76.8738V81.4955H68.8176C69.1226 81.4955 69.3903 81.4741 69.6133 81.4213C69.8147 81.3738 69.9816 81.3012 70.109 81.1957C70.2312 81.0947 70.3277 80.953 70.3949 80.7625C70.4712 80.5459 70.5115 80.2684 70.5115 79.9184V78.4507C70.5115 78.1531 70.4854 77.896 70.4304 77.6823C70.3805 77.4875 70.3075 77.3299 70.2084 77.211C70.12 77.1044 70.0022 77.0227 69.8538 76.9671C69.6885 76.905 69.4793 76.8738 69.2239 76.8738H68.0496Z" fill="white"/>
<path d="M19.1148 100.944H17.7578V95.796H19.1148C19.5374 95.796 19.8562 95.9133 20.0726 96.1373C20.2916 96.3642 20.4001 96.6957 20.4001 97.1217V99.6181C20.4001 100.044 20.2916 100.376 20.0726 100.602C19.8562 100.827 19.5374 100.944 19.1148 100.944ZM19.3158 96.7843C19.2695 96.7338 19.1957 96.7124 19.1006 96.7124H18.7628V100.027H19.1006C19.1957 100.027 19.2695 100.006 19.3162 99.955C19.3672 99.8988 19.3951 99.802 19.3951 99.6534V97.0864C19.3951 96.9382 19.3668 96.8406 19.3158 96.7843ZM24.6193 96.7124H23.3625V97.8763H24.4468V98.7929H23.3625V100.027H24.7272V100.944H22.3575V95.796H24.7272V96.7124H24.6193ZM26.569 95.796H27.4591L27.9692 99.2031L28.4797 95.796H29.4231C29.1544 97.5121 28.8865 99.2284 28.6146 100.944H27.2526L26.4435 95.796H26.569ZM33.4885 96.7124H32.2315V97.8763H33.3158V98.7929H32.2315V100.027H33.5961V100.944H31.2264V95.796H33.5961V96.7124H33.4885ZM37.7359 100.944H35.5387V95.796H36.5437V100.027H37.8434V100.944H37.7359ZM40.6659 96.7323C40.6129 96.79 40.583 96.8886 40.583 97.0368V99.7027C40.583 99.8512 40.6129 99.9499 40.6659 100.008C40.7143 100.061 40.7901 100.084 40.8849 100.084C40.9805 100.084 41.056 100.061 41.1039 100.008C41.1568 99.9499 41.1867 99.8515 41.1867 99.7027V97.0368C41.1867 96.8886 41.1568 96.79 41.1039 96.7323C41.056 96.6789 40.9805 96.6559 40.8849 96.6559C40.7901 96.6559 40.7143 96.6789 40.6659 96.7323ZM39.9194 100.645C39.6952 100.414 39.578 100.078 39.578 99.6534V97.0864C39.578 96.6622 39.6952 96.326 39.9194 96.0945C40.1429 95.8632 40.468 95.7395 40.8849 95.7395C41.302 95.7395 41.6272 95.8632 41.8507 96.0943C42.0744 96.326 42.1918 96.6622 42.1918 97.0864V99.6534C42.1918 100.078 42.0744 100.414 41.8507 100.646C41.6272 100.877 41.302 101 40.8849 101C40.468 101 40.1429 100.877 39.9194 100.645ZM44.264 95.796H45.4273C45.8499 95.796 46.1684 95.9133 46.3849 96.1373C46.6039 96.3642 46.7127 96.6957 46.7127 97.1217V97.7634C46.7127 98.1894 46.6039 98.5208 46.3849 98.7475C46.1684 98.9717 45.8499 99.089 45.4273 99.089H45.1614V100.944H44.1565V95.796H44.264ZM45.6351 96.7776C45.5927 96.731 45.5221 96.7124 45.4273 96.7124H45.1614V98.1727H45.4273C45.5221 98.1727 45.5927 98.1544 45.6351 98.1078C45.6827 98.0554 45.7074 97.9614 45.7074 97.8128V97.0725C45.7074 96.9239 45.6827 96.8297 45.6351 96.7776ZM56.3859 96.7124H55.1291V97.8763H56.2135V98.7929H55.1291V100.027H56.4935V100.944H54.1241V95.796H56.4935V96.7124H56.3859ZM61.0429 100.944H60.1491L59.3557 98.0589V100.944H58.4293V95.796H59.61L60.2317 98.0591V95.796H61.1507V100.944H61.0429ZM63.7684 96.7124H62.9426V95.796H65.5993V96.7124H64.7734V100.944H63.7684V96.7124Z" fill="white"/>
</svg>
