<svg width="213" height="34" viewBox="0 0 213 34" fill="none" xmlns="http://www.w3.org/2000/svg">
<path fill-rule="evenodd" clip-rule="evenodd" d="M121.862 33.169L121.602 28.0885C121.391 28.7805 121.176 29.3941 120.959 29.9284C120.682 30.6067 120.4 31.1581 120.11 31.5805C119.597 32.3192 118.94 32.8738 118.14 33.2444C117.341 33.6139 116.399 33.799 115.315 33.799C113.389 33.799 111.814 33.2047 110.58 32.0165C109.961 31.4399 109.422 30.6993 108.964 29.7985C108.507 28.902 108.131 27.8453 107.836 26.6317C107.541 25.4183 107.319 24.0345 107.171 22.4788C107.023 20.9294 106.949 19.2127 106.949 17.3274C106.949 15.9761 106.979 14.7259 107.039 13.5772C107.098 12.4301 107.187 11.3895 107.304 10.4549C107.42 9.51764 107.572 8.65201 107.757 7.85749C107.943 7.06216 108.163 6.33633 108.419 5.67892C108.678 5.01803 108.981 4.40221 109.33 3.83121C109.679 3.2594 110.073 2.7332 110.511 2.25316C111.197 1.50291 112.025 0.939421 112.998 0.563223C113.968 0.188099 115.08 0 116.336 0C118.252 0 119.811 0.564297 121.029 1.69235L121.032 1.69477C121.491 2.15388 121.872 2.64626 122.174 3.17219C122.476 3.69731 122.698 4.25624 122.84 4.84844C122.943 5.19432 123.026 5.53349 123.092 5.86541C123.161 6.21156 123.211 6.54938 123.245 6.87782C123.285 7.20169 123.324 7.62592 123.36 8.15131C123.396 8.67026 123.43 9.29278 123.462 10.0194L123.467 10.1174H120.343L120.343 10.0237C120.334 9.17391 120.325 8.46338 120.311 7.89398C120.298 7.32915 120.282 6.90277 120.262 6.61673C120.242 6.32748 120.207 5.99931 120.157 5.63223C120.109 5.27589 120.045 4.87742 119.966 4.43656V4.43575C119.867 3.85026 119.706 3.33292 119.483 2.88481C119.261 2.43777 118.978 2.05996 118.637 1.75273C118.285 1.44281 117.888 1.20936 117.446 1.05346C117.002 0.897294 116.512 0.818941 115.973 0.818941C113.622 0.818941 112.03 2.28804 111.199 5.22545L111.198 5.22759C110.988 5.90513 110.811 6.6272 110.666 7.39086C110.52 8.16178 110.406 8.97535 110.326 9.82891C110.249 10.691 110.19 11.7587 110.151 13.0314C110.113 14.284 110.093 15.7485 110.093 17.4245C110.093 19.2569 110.125 20.9198 110.189 22.4052C110.298 23.8655 110.44 25.154 110.617 26.2681C110.793 27.3779 111.003 28.3139 111.246 29.0738C111.469 29.7797 111.722 30.3854 112.005 30.8925C112.285 31.3959 112.595 31.8005 112.932 32.108C113.268 32.4137 113.652 32.6431 114.086 32.796C114.521 32.9492 115.008 33.026 115.546 33.026C116.556 33.026 117.418 32.6847 118.136 32.0036C118.861 31.3148 119.442 30.2775 119.879 28.8942C120.051 28.3605 120.193 27.8252 120.307 27.2886C120.421 26.7506 120.507 26.2115 120.567 25.6713C120.627 25.1256 120.672 24.4622 120.7 23.6798C120.729 22.9016 120.743 21.9966 120.743 20.9643C120.743 19.5964 120.728 18.57 120.699 17.8715H114.81V16.7381H123.695V33.2597H121.866L121.861 33.1695L121.862 33.169ZM88.4396 33.2569H82.8477V32.4831H84.8442L91.8865 0.0876465H93.8436L100.926 32.4831H103.019V33.2569H95.3124L95.2802 32.4831H97.7286L95.4398 22.2334H88.233L86.0624 32.4831H88.5592L88.5379 33.2569H88.4396ZM0 33.2604H5.5919H5.68971L5.71128 32.4865H3.21477L5.38537 22.2369H12.5921L14.8813 32.4865H12.4325L12.4647 33.2604H20.1711V32.4865H18.0785L10.9963 0.0910942H9.03881L1.99629 32.4865H0V33.2604ZM12.5291 21.1019H5.73076L9.21534 4.38574L12.5291 21.1019ZM23.3438 33.164V33.1634V32.4397H25.8843V1.44742H23.3438V0.673828H31.9709V1.44742H29.0769V32.1247H32.6417C33.507 32.1247 34.2241 31.9962 34.7931 31.7394C35.3563 31.4853 35.7774 31.1037 36.0564 30.5936L36.0584 30.5909C36.2673 30.2418 36.4534 29.8085 36.6156 29.2933C36.7801 28.773 36.9199 28.1701 37.0362 27.4874V27.4861C37.1607 26.8072 37.2553 26.1069 37.318 25.3856C37.3802 24.6724 37.4124 23.938 37.4124 23.1824V23.0879H38.2733V33.2579H23.3438V33.164ZM56.9223 0.674096H42.2145V0.673828H42.1133V1.46969H44.6535V32.4843H42.1133V33.2581H50.7405V32.4843H47.8467V17.4203H50.1013C50.8043 17.4203 51.4133 17.508 51.9273 17.6827C52.4393 17.8563 52.8579 18.116 53.1852 18.4608C53.5203 18.8102 53.7783 19.265 53.9593 19.8264C54.1419 20.3936 54.2452 21.0682 54.2688 21.8501L54.2714 21.9422H55.13V11.8245H54.2682V12.2716C54.2682 12.9096 54.2055 13.4742 54.0778 13.9647C53.9515 14.4504 53.7619 14.8647 53.5094 15.2068C53.216 15.5626 52.7836 15.8315 52.2121 16.0118C51.6339 16.1948 50.9136 16.2866 50.0524 16.2866H47.8464V1.80752H51.2824C51.7953 1.80752 52.2434 1.83301 52.6251 1.88346C53.0077 1.9339 53.3244 2.00877 53.5744 2.10698L53.5767 2.10778C53.8169 2.1966 54.0369 2.33452 54.2383 2.51967C54.4422 2.70696 54.6278 2.94363 54.7957 3.22806L54.7983 3.23235C54.9856 3.5149 55.1527 3.82804 55.298 4.16962C55.4412 4.50611 55.5632 4.87211 55.6621 5.26655C55.7855 5.75867 55.8793 6.28325 55.9423 6.84084C56.005 7.39843 56.0367 7.99144 56.0367 8.6196V8.71405H56.9223V0.674096ZM60.82 0.674365H69.6707C71.5278 0.674365 73.0549 0.970332 74.2437 1.56307C74.8444 1.85958 75.3659 2.23953 75.808 2.70052C76.2501 3.16124 76.6122 3.703 76.8939 4.32391C77.1752 4.94349 77.3869 5.64812 77.5275 6.43808C77.6676 7.22348 77.7384 8.09287 77.7384 9.04732C77.7384 10.4539 77.5799 11.6702 77.2635 12.695C76.9456 13.7246 76.4676 14.5604 75.8298 15.2006C75.5594 15.4757 75.2623 15.7166 74.9373 15.9219C74.6122 16.128 74.259 16.2984 73.8787 16.432C73.5048 16.5646 73.0414 16.6824 72.4885 16.7857C72.1954 16.8407 71.8772 16.8914 71.5349 16.9386C71.8246 16.9657 72.0964 16.9963 72.3499 17.0301C72.8794 17.1004 73.3302 17.1847 73.7007 17.2807C74.0579 17.3728 74.3927 17.4935 74.7037 17.643C75.0141 17.7924 75.3014 17.9703 75.5638 18.177C76.1365 18.6082 76.5855 19.2632 76.9082 20.1433C77.229 21.0153 77.4277 22.1115 77.5045 23.433C77.5931 25.1605 77.6711 26.8722 77.7381 28.6002C77.7692 29.1989 77.8043 29.7135 77.8434 30.145C77.8828 30.5891 77.9257 30.9374 77.9697 31.1923C78.0163 31.4335 78.0781 31.6374 78.1538 31.803C78.2274 31.964 78.3143 32.0869 78.4115 32.1717C78.5104 32.253 78.6433 32.3201 78.8102 32.3718C78.9839 32.4258 79.1936 32.4636 79.4393 32.4856L79.5307 32.4937V33.2584H75.6282L75.5856 33.175C75.499 33.0067 75.4323 32.8771 75.3722 32.7859C75.3385 32.7384 75.3046 32.6845 75.2715 32.6257C75.2399 32.5685 75.2088 32.5068 75.18 32.4424L75.1795 32.4405C75.0612 32.1553 74.9608 31.8411 74.8797 31.499C74.7983 31.1577 74.7353 30.7884 74.691 30.3916C74.6105 29.6016 74.5297 28.1521 74.4491 26.0583C74.4181 25.1916 74.3827 24.4282 74.3441 23.7657C74.3047 23.0756 74.2613 22.5008 74.2167 22.0374C74.1687 21.5877 74.1085 21.1908 74.0369 20.846C73.9659 20.5047 73.8827 20.2152 73.7881 19.9758C73.6986 19.7424 73.5859 19.5191 73.4521 19.3055C73.3158 19.0887 73.1573 18.8811 72.9781 18.6841C72.8271 18.5287 72.6691 18.3924 72.5055 18.2762C72.3438 18.1611 72.177 18.0661 72.0047 17.9907C71.9339 17.9693 71.803 17.9363 71.6109 17.8917C71.4187 17.8472 71.1688 17.7922 70.8613 17.7267C70.3665 17.6701 69.9655 17.6266 69.6592 17.5984C69.3491 17.5697 69.1233 17.555 68.9798 17.555H66.4519V32.4843H68.6625V33.2581H60.7188V32.4843H63.259V1.46969H60.7188V0.673828H60.82V0.674365ZM68.7682 16.4667H66.4498H66.4492V1.80762H69.3067C72.8247 1.80762 74.5834 4.31086 74.5834 9.32486C74.5834 10.6045 74.472 11.7039 74.2477 12.6216C74.025 13.5333 73.6914 14.2656 73.2458 14.8173C72.8028 15.3658 72.2103 15.7774 71.4687 16.0522C70.7214 16.3285 69.8213 16.4667 68.7682 16.4667ZM95.3803 21.1019H88.582L92.0663 4.38574L95.3803 21.1019ZM127.84 33.2569H133.431H133.432H133.53L133.551 32.4831H131.055L133.225 22.2334H140.432L142.721 32.4831H140.272L140.305 33.2569H148.011V32.4831H145.918L138.836 0.0876465H136.878L129.836 32.4831H127.84V33.2569ZM133.562 21.1019H140.361L137.047 4.38574L133.562 21.1019ZM157.376 0.676025H151.277H151.176V1.44962H153.716V32.4867H151.176V33.2606H157.142V32.4867H154.883V2.39441H154.938L163.926 33.2603H167.424V1.44962H169.683V0.676025H163.974V1.44962H166.257V31.1564L157.376 0.676025ZM188.635 1.44962H186.4V0.676025H192.061V1.44962H189.802V21.91C189.802 23.4156 189.792 24.6875 189.771 25.7259C189.752 26.7552 189.722 27.535 189.681 28.0657C189.645 28.6 189.584 29.091 189.498 29.5405C189.41 30.0012 189.297 30.4195 189.161 30.7963C188.783 31.8122 188.143 32.575 187.242 33.0843C186.344 33.5912 185.189 33.8453 183.776 33.8453C183.117 33.8453 182.483 33.7731 181.875 33.6287C181.268 33.4847 180.685 33.2676 180.126 32.9783C179.561 32.681 179.069 32.3354 178.65 31.9439C178.232 31.5522 177.886 31.1137 177.617 30.6302C177.442 30.3111 177.29 29.9859 177.161 29.6551C177.03 29.3215 176.922 28.9813 176.837 28.6357C176.739 28.2565 176.661 27.8734 176.599 27.4867C176.537 27.0982 176.493 26.7037 176.465 26.3036C176.437 25.9033 176.416 25.3355 176.403 24.6005C176.39 23.854 176.384 22.9581 176.384 21.9108V1.45042H174.125V0.67683H181.812V1.45042H179.528V22.5331C179.528 23.6042 179.53 24.4621 179.534 25.1077C179.538 25.7989 179.544 26.3256 179.552 26.6857C179.568 27.4089 179.6 27.9764 179.648 28.3875C179.672 28.5906 179.706 28.8018 179.751 29.0226C179.797 29.2437 179.855 29.4742 179.926 29.7146L179.927 29.7184C180.059 30.2373 180.247 30.7013 180.494 31.1086C180.737 31.5111 181.039 31.8591 181.398 32.1511C181.759 32.4435 182.156 32.6628 182.591 32.8085C183.025 32.9547 183.498 33.0277 184.009 33.0277C184.535 33.0277 185.02 32.9652 185.464 32.8399C185.906 32.7148 186.31 32.5262 186.675 32.274L186.675 32.2732C187.043 32.0255 187.352 31.7303 187.603 31.3893C187.856 31.045 188.052 30.6535 188.19 30.2156C188.262 29.9701 188.323 29.7039 188.374 29.4184C188.424 29.1399 188.463 28.8418 188.491 28.5251C188.523 28.1025 188.548 27.7027 188.563 27.3235C188.579 26.9457 188.587 26.5792 188.587 26.2223L188.587 26.2204C188.604 25.5448 188.616 24.9097 188.624 24.3145C188.631 23.7384 188.635 23.1822 188.635 22.6452V1.44989L188.635 1.44962ZM200.079 22.758H197.18L197.179 22.7572H197.078V24.1938C197.078 27.3827 197.712 29.7783 198.98 31.3805C200.255 32.991 202.166 33.7968 204.712 33.7968C206.484 33.7968 207.951 33.368 209.115 32.512C210.277 31.6569 211.133 30.3775 211.682 28.6749L211.682 28.6736C211.912 27.9088 212.085 27.1602 212.199 26.4279C212.313 25.6943 212.37 24.9773 212.37 24.2762C212.37 23.3615 212.252 22.5178 212.018 21.7451C211.783 20.9701 211.431 20.2666 210.962 19.6354C210.734 19.3081 210.469 18.9944 210.17 18.6936C209.872 18.3936 209.539 18.1057 209.173 17.8291C208.812 17.5486 208.325 17.217 207.715 16.8333C207.104 16.4485 206.369 16.0106 205.513 15.5195C204.716 15.0526 204.031 14.6228 203.457 14.2302C202.886 13.839 202.428 13.4853 202.081 13.17C201.738 12.8572 201.452 12.5255 201.223 12.1751C200.994 11.8254 200.823 11.4568 200.71 11.0685C200.594 10.67 200.506 10.1838 200.447 9.612C200.389 9.04314 200.36 8.38627 200.36 7.64354C200.36 6.71994 200.417 5.89805 200.531 5.17598C200.646 4.45256 200.817 3.8295 201.043 3.30653C201.271 2.78892 201.565 2.35208 201.922 1.99547C202.279 1.6402 202.702 1.36248 203.192 1.16123C203.463 1.06222 203.733 0.987087 204 0.937177C204.269 0.887268 204.538 0.861509 204.809 0.861509C205.488 0.861509 206.073 0.992453 206.562 1.25595C207.048 1.51731 207.442 1.91148 207.742 2.43875C208.047 2.9746 208.277 3.68085 208.431 4.55667C208.586 5.43411 208.663 6.48328 208.663 7.70364V9.23017H211.502V8.54324C211.502 5.73759 210.961 3.62906 209.881 2.21872C208.792 0.798451 207.163 0.0876465 204.994 0.0876465C204.209 0.0876465 203.478 0.179147 202.801 0.361879C202.124 0.54488 201.504 0.819112 200.941 1.18458C200.374 1.54629 199.873 1.98983 199.441 2.51522C199.01 3.039 198.645 3.64462 198.348 4.33128C198.052 5.01632 197.829 5.7655 197.68 6.5788C197.531 7.39184 197.456 8.26901 197.456 9.21085C197.456 9.76629 197.501 10.2928 197.592 10.7929C197.682 11.2936 197.818 11.7664 198.001 12.214L198.002 12.2153C198.202 12.6828 198.44 13.1175 198.716 13.5197C198.993 13.9222 199.309 14.2927 199.664 14.6314C200.017 14.9649 200.478 15.3282 201.045 15.7208C201.61 16.1128 202.281 16.5344 203.059 16.9849C204.45 17.8105 205.565 18.5055 206.407 19.0677C207.26 19.6379 207.824 20.0656 208.1 20.3487C208.505 20.8223 208.81 21.4204 209.014 22.1433C209.219 22.8699 209.322 23.7234 209.322 24.7042C209.322 25.818 209.28 26.8167 209.195 27.7004C209.11 28.5818 208.983 29.3533 208.812 30.015C208.677 30.3957 208.515 30.7464 208.326 31.0668C208.137 31.3861 207.92 31.6762 207.677 31.9362C207.301 32.2979 206.874 32.5703 206.397 32.7514C205.92 32.9328 205.39 33.024 204.809 33.024C204.431 33.024 204.069 32.984 203.721 32.9049C203.37 32.8252 203.032 32.7055 202.709 32.5475C202.387 32.3902 202.098 32.2051 201.842 31.9917C201.587 31.7792 201.363 31.5377 201.171 31.2667C200.948 30.945 200.761 30.5983 200.61 30.2286C200.457 29.8548 200.341 29.4576 200.262 29.038C200.185 28.6111 200.127 28.0572 200.088 27.3743C200.05 26.7014 200.031 25.8996 200.031 24.9672C200.073 24.2032 200.079 23.5286 200.079 22.758Z" fill="white"/>
</svg>
