<svg width="142" height="47" viewBox="0 0 142 47" fill="none" xmlns="http://www.w3.org/2000/svg">
<path fill-rule="evenodd" clip-rule="evenodd" d="M111.595 7.36753C112.471 7.36638 113.226 7.99068 113.398 8.8586C113.57 9.72651 113.111 10.5963 112.302 10.9359C111.493 11.2755 110.559 10.9904 110.072 10.255C109.584 9.51951 109.679 8.53856 110.298 7.91211C110.641 7.56303 111.108 7.36697 111.595 7.36753ZM80.8374 10.998C81.0594 10.3719 81.331 9.76482 81.6496 9.18278C83.4407 5.91284 86.225 3.31127 89.5914 1.76202C93.0488 0.135053 96.9168 -0.381927 100.674 0.280775C102.057 0.530646 103.391 1.00124 104.627 1.67489C105.741 2.27568 106.719 3.10259 107.502 4.1037C107.711 4.33626 107.786 4.66212 107.699 4.96413C107.648 5.11267 107.549 5.24009 107.419 5.32718C107.311 5.39954 107.188 5.44553 107.06 5.46151C106.704 5.50204 106.351 5.36688 106.111 5.09846C105.406 4.27879 104.552 3.6034 103.596 3.10894C102.605 2.6032 101.528 2.29038 100.422 2.18679C97.907 1.92903 95.1651 2.65513 92.6819 4.27434C90.1436 5.96778 88.1109 8.32892 86.8028 11.1033C86.3371 12.0695 85.9872 13.0884 85.7606 14.1384C85.5116 13.6985 85.2099 13.2912 84.8623 12.9258C83.79 11.8222 82.3625 11.1423 80.8374 11.0089V10.998ZM126.39 7.16785C126.065 7.35482 125.757 7.56982 125.47 7.81045C125.159 8.07896 124.868 8.37018 124.6 8.68177C124.104 9.2681 123.647 9.88793 123.235 10.537C122.755 11.2631 122.276 12.0702 121.797 12.9585C121.754 13.042 121.693 13.1582 121.625 13.3216H125.11C125.439 13.3093 125.742 13.5005 125.876 13.8044C125.962 14.0161 125.962 14.2535 125.876 14.4652C125.762 14.7933 125.455 15.0122 125.11 15.0098H120.856C120.32 16.2332 119.666 17.8415 119.098 19.4825C118.514 21.0638 118.104 22.7049 117.873 24.3765C117.851 24.6052 117.841 24.8303 117.841 25.0517C117.817 25.4518 117.889 25.8518 118.053 26.2171C118.157 26.4269 118.363 26.5651 118.595 26.5802H118.714C119.458 26.5802 120.511 25.8541 121.589 24.892C122.61 23.9531 123.548 22.9253 124.392 21.8206C124.53 21.2779 124.712 20.7473 124.934 20.2341C125.647 18.4946 126.617 16.874 127.809 15.4273C128.754 14.3672 129.858 13.5757 131.087 13.4632C132.064 13.376 132.441 13.5321 132.484 14.0223C132.51 14.3236 132.33 14.5596 132.071 14.8972C131.956 15.0461 131.82 15.2276 131.683 15.4345C130.758 16.8249 129.918 18.2713 129.168 19.7657C128.539 21.013 128.019 22.3127 127.612 23.6504C127.508 23.9893 127.428 24.335 127.371 24.6851C127.262 25.1758 127.291 25.6874 127.453 26.1627C127.552 26.4065 127.756 26.5911 128.007 26.6637L128.165 26.7C130.767 27.1066 132.711 23.5015 134.633 19.969C136.556 16.4365 138.353 13.0711 141.041 13.0711C141.294 13.0439 141.549 13.1082 141.759 13.2526C142.083 13.5285 142.119 13.8661 141.627 14.3091C139.963 15.8666 138.324 21.1308 137.041 25.2551C136.682 26.4204 136.344 27.4951 136.049 28.3591C134.998 31.3945 133.429 34.2206 131.414 36.7093C128.144 40.8012 123.811 43.8924 118.901 45.6367C113.784 47.4444 108.212 47.4546 103.089 45.6658C99.9675 44.5531 97.0649 42.8927 94.5146 40.761L94.4751 40.7246C94.3032 40.5723 94.1785 40.3732 94.1157 40.151C94.0811 39.9892 94.1163 39.8202 94.2128 39.6863C94.3142 39.542 94.4761 39.4535 94.6512 39.4467C94.8836 39.4485 95.1107 39.5178 95.3052 39.6464H95.3304L95.3591 39.6718C98.7443 42.3475 102.226 43.8977 105.648 44.5331C109.986 45.3107 114.457 44.7147 118.448 42.8267C122.446 40.9439 125.941 38.1219 128.639 34.5964C130.764 31.8714 132.378 28.7769 133.401 25.4656C133.032 25.9592 132.621 26.4185 132.172 26.8379C130.95 27.9561 129.459 28.6278 127.568 28.2393C127.28 28.1811 126.998 28.0922 126.728 27.9743C125.776 27.5583 125.015 26.7945 124.597 25.8359C124.467 25.5441 124.366 25.2401 124.295 24.9283C123.84 25.4142 123.36 25.8759 122.857 26.3115C121.502 27.4769 120.036 28.3482 118.814 28.3482C118.209 28.3492 117.61 28.2257 117.054 27.9852C116.103 27.5644 115.336 26.8081 114.897 25.8577C114.612 25.262 114.421 24.6251 114.33 23.9698C113.649 24.8057 112.904 25.5862 112.102 26.3043C110.761 27.4914 109.306 28.3737 108.07 28.3737C107.303 28.3914 106.543 28.2298 105.849 27.9017C105.209 27.5867 104.674 27.0895 104.311 26.4713C103.954 25.8473 103.736 25.1523 103.671 24.4346C102.656 25.4572 101.496 26.3211 100.228 26.9977C97.8657 28.2846 95.1912 28.871 92.513 28.6895C90.577 28.5555 88.6927 27.9994 86.9897 27.0594L86.7129 26.9033V22.5176C87.4946 24.1088 88.7638 25.4024 90.3317 26.2062C91.1156 26.5912 91.9592 26.8368 92.8256 26.9323C94.9423 27.172 97.2853 26.4967 99.3192 25.3785C101.454 24.2058 103.24 22.5503 104.074 20.9456C104.153 20.706 104.235 20.4737 104.332 20.2486C104.891 18.8553 105.56 17.51 106.334 16.226C106.87 15.2967 107.568 14.4727 108.393 13.7935C108.6 13.6403 108.827 13.5181 109.069 13.4305C109.329 13.3406 109.597 13.2786 109.87 13.2453C110.693 13.14 111.099 13.2453 111.232 13.7318C111.325 14.0767 111.135 14.4761 110.79 15.1078C109.835 16.9593 108.995 18.869 108.274 20.8258C107.753 22.1444 107.399 23.5239 107.218 24.9319C107.218 25.0735 107.2 25.2115 107.2 25.3494C107.178 25.6995 107.249 26.0491 107.405 26.3624C107.527 26.5544 107.736 26.6717 107.962 26.6746H108.073C108.738 26.6746 109.744 25.9485 110.772 25.0154C112.198 23.6806 113.467 22.1833 114.552 20.5535C114.554 20.5451 114.554 20.5366 114.552 20.5281C114.591 20.4606 114.637 20.3974 114.689 20.3393L114.775 20.1179L115.228 19.0287C115.742 17.7907 116.306 16.393 116.971 14.9843H114.624C114.279 14.9962 113.964 14.7846 113.841 14.4579C113.799 14.353 113.777 14.2408 113.776 14.1275C113.777 14.0143 113.799 13.9022 113.841 13.7972C113.963 13.4697 114.278 13.2577 114.624 13.2707H117.794C118.994 10.8891 120.381 8.66725 121.948 7.37842C122.502 6.8965 123.12 6.49564 123.784 6.18761C124.401 5.92724 125.06 5.78209 125.729 5.75921C126.713 5.70112 127.04 5.96615 127.062 6.33647C127.083 6.70678 126.684 6.97544 126.411 7.13155L126.39 7.16785Z" fill="white"/>
<path fill-rule="evenodd" clip-rule="evenodd" d="M84.7439 27.8763V18.103C84.7439 15.0025 83.0693 12.9476 79.8351 12.9476C77.9623 12.8837 76.1858 13.7865 75.1203 15.3438C74.4016 13.7391 72.9462 12.9476 71.0488 12.9476C69.2132 12.8791 67.4766 13.7887 66.4741 15.3438V13.3397H62.7153V27.8618H66.6682V19.9763C66.6682 18.0049 67.254 16.1715 69.5431 16.1715C71.4117 16.1715 71.7172 17.4676 71.7172 19.0179V27.8654H75.6701V19.6968C75.6701 17.7254 76.3673 16.2042 78.43 16.2042C80.4927 16.2042 80.7155 17.5838 80.7155 19.1921V27.869L84.7439 27.8763ZM55.6359 20.8041V22.4378C55.6359 24.5217 54.1985 25.6798 52.1214 25.6798C50.7558 25.6798 49.9652 24.9537 49.9652 23.7339C49.9652 21.9586 51.4961 21.7879 52.8652 21.5556C53.8463 21.3958 54.7159 21.3378 55.6359 20.8041ZM59.9482 27.8763C59.4163 26.6383 59.4451 25.2587 59.4451 23.9336V17.6528C59.4451 13.5975 56.0707 12.9331 53.1707 12.9331C49.0165 12.9331 46.7274 14.5959 46.5046 17.8343H50.2132C50.4899 16.1715 51.2445 15.6088 53.0557 15.6088C54.813 15.6088 55.6503 16.2296 55.6503 17.5548C55.6503 18.7383 54.7016 18.9634 52.1357 19.301C49.2932 19.6641 45.8613 20.1179 45.8613 23.9227C45.8613 26.6565 47.8127 28.3156 50.993 28.3156C52.727 28.3615 54.4079 27.7083 55.6646 26.5003C55.6795 26.9824 55.7743 27.4586 55.9449 27.909L59.9482 27.8763ZM40.3021 19.0868H33.9917C34.2145 17.061 35.4292 15.8194 37.1972 15.8194C39.1773 15.8194 40.126 17.3115 40.3021 19.0868ZM44.0861 23.3708H40.3021C39.7163 24.823 38.8251 25.4838 37.3769 25.4838C35.2567 25.4838 34.0564 24.1296 34.0025 21.6246H44.3197C44.3197 16.5419 41.5598 12.9186 37.208 12.9186C33.0251 12.9186 29.9849 16.1861 29.9849 20.6952C29.9849 25.2587 32.9137 28.3011 37.3481 28.3011C40.6003 28.2974 43.1769 26.5112 44.0861 23.3708ZM29.5572 13.0783C29.2713 13.0263 28.9817 12.9984 28.6912 12.9948C26.6713 12.9423 24.8224 14.1349 24.0195 16.0082V13.3397H20.2714V27.8618H24.2244V21.2288C24.2244 18.5822 25.2845 16.6072 28.0156 16.6072C28.5316 16.6059 29.0462 16.662 29.5501 16.7742L29.5572 13.0783ZM4.31949 24.2131V11.4809H7.49981C11.4312 11.4809 13.2711 13.819 13.2711 17.8488C13.2711 21.8787 11.4743 24.2167 7.49981 24.2167L4.31949 24.2131ZM0.00718734 27.8763H8.03166C14.1947 27.8763 17.6517 24.2966 17.6517 17.8488C17.6517 11.4011 14.1911 7.81774 8.03166 7.81774H0L0.00718734 27.8763Z" fill="white"/>
<path fill-rule="evenodd" clip-rule="evenodd" d="M91.6004 33.2567H87.8163V34.1353H89.1998V37.911H90.2168V34.1353H91.6004V33.2567ZM81.1394 37.911H82.1169V34.7888L84.0251 37.911H85.0349V33.2567H84.0646V36.3753L82.1708 33.2567H81.143L81.1394 37.911ZM78.1568 33.2567H74.7033V37.911H78.2035V37.0397H75.7059V35.8961H77.9555V35.0901H75.7059V34.0772H78.1568V33.2567ZM66.5854 37.911H67.5485V34.6436L68.6913 37.911H69.4746L70.6066 34.6036V37.911H71.5661V33.2567H70.1574L69.1117 36.4516L68.0336 33.2567H66.5962L66.5854 37.911ZM61.0333 34.0954H61.9389C62.3845 34.0954 62.7223 34.2696 62.7223 34.767C62.7223 35.2644 62.3881 35.435 61.9317 35.435H61.0333V34.0954ZM60.0307 33.2604V37.911H61.0333V36.2374H62.0683C62.9918 36.2374 63.7033 35.7654 63.7033 34.7525C63.7033 33.7396 63.0134 33.2567 62.0144 33.2567L60.0307 33.2604ZM54.8164 33.9828C55.5854 33.9828 56.0598 34.5964 56.0598 35.5766C56.0598 36.5569 55.589 37.1849 54.8236 37.1849C54.0582 37.1849 53.5623 36.575 53.5623 35.5766C53.5623 34.5782 54.051 33.9828 54.8164 33.9828ZM54.8128 33.1514C53.4365 33.1514 52.5309 34.1172 52.5309 35.5948C52.5309 37.0724 53.4437 38.0272 54.8056 38.0272C56.1676 38.0272 57.0696 37.047 57.0696 35.5948C57.0696 34.1426 56.1568 33.1514 54.8128 33.1514ZM49.922 37.0397H47.6724V33.264H46.6626V37.911H49.922V37.0397ZM43.6799 33.264H40.2265V37.911H43.7266V37.0397H41.2291V35.8961H43.4787V35.0901H41.2291V34.0772H43.6799V33.264ZM33.4058 33.264L34.9115 37.911H36.0579L37.5924 33.2567H36.543L35.4973 36.5242L34.4623 33.2567L33.4058 33.264ZM30.9191 33.264H27.4656V37.911H30.9586V37.0397H28.4647V35.8961H30.7142V35.0901H28.4647V34.0772H30.9155L30.9191 33.264ZM21.4356 37.0688V34.1135H22.1723C23.0851 34.1135 23.5127 34.6545 23.5127 35.5911C23.5127 36.5278 23.0994 37.0688 22.1723 37.0688H21.4356ZM20.433 37.9183H22.2945C23.7319 37.9183 24.5261 37.0869 24.5261 35.5911C24.5261 34.0954 23.7247 33.264 22.2945 33.264H20.4294L20.433 37.9183Z" fill="white"/>
</svg>
