<svg width="123" height="84" viewBox="0 0 123 84" fill="none" xmlns="http://www.w3.org/2000/svg">
<path fill-rule="evenodd" clip-rule="evenodd" d="M0 75.3886H122.594V74.7261H0V75.3886Z" fill="white"/>
<path fill-rule="evenodd" clip-rule="evenodd" d="M35.531 63.9452H35.5273H35.5254H35.5235H35.5216L35.4801 63.9462C34.8503 63.9546 34.245 63.9707 33.6001 63.9707C33.6001 65.652 33.5831 67.3163 33.5831 68.9967C33.5831 69.336 33.5661 69.6508 33.5661 69.9985V71.0089C33.5661 71.3349 33.5595 71.6252 33.5586 71.9456V71.9617V71.9777V71.9937V72.0097H34.8833V64.947C34.9078 64.9555 34.8927 64.9555 34.9163 64.9725L34.9333 64.9894L35.0822 65.1638C35.1077 65.1883 35.0992 65.1883 35.1237 65.2128L35.5961 65.7679C35.6121 65.7934 35.6206 65.8018 35.6451 65.8254C35.6621 65.8508 35.6696 65.8508 35.6857 65.8753L35.9685 66.2061C35.993 66.2306 35.993 66.2391 36.0175 66.2636L36.5389 66.8772C36.5559 66.9017 36.5634 66.9017 36.5889 66.9262L36.6794 67.0336C36.7039 67.0675 36.7039 67.0675 36.7209 67.092L37.5242 68.0354C37.5412 68.0609 37.5497 68.0609 37.5647 68.0769L37.7147 68.2503C37.9136 68.4906 38.303 68.9298 38.4689 69.1372L38.9404 69.6828C38.9583 69.7158 38.9658 69.7158 38.9818 69.7413L39.1223 69.9071C39.1563 69.9486 39.1893 69.9816 39.2232 70.0221C39.4127 70.2624 39.6296 70.4933 39.8266 70.7337C39.8521 70.7582 39.8596 70.7666 39.8766 70.7921C39.9011 70.8166 39.9096 70.8251 39.9256 70.8496L40.5894 71.6186C40.6139 71.6441 40.6139 71.6516 40.6375 71.677L40.8798 71.9579C40.8958 71.9815 40.9043 72.0078 40.9373 72.0078H42.9248V63.9433H41.6086V71.056C41.5586 71.0145 41.3522 70.7497 41.2862 70.6752L41.1787 70.5423C40.9797 70.2935 40.6893 69.9797 40.4744 69.7224L38.4699 67.355C38.4293 67.3135 38.3869 67.2711 38.3539 67.2296C38.3124 67.1787 38.2879 67.1392 38.2455 67.0977L36.9453 65.5662C36.7379 65.3014 36.4974 65.062 36.2825 64.7953L35.8516 64.2836C35.8261 64.2572 35.8261 64.2506 35.7931 64.2251C35.7187 64.1422 35.6611 64.0432 35.5867 63.9678C35.5603 63.948 35.5508 63.9433 35.531 63.9424V63.9452Z" fill="white"/>
<path fill-rule="evenodd" clip-rule="evenodd" d="M3.03152 72.0679H3.04095H3.05038H3.05981H7.01128H7.02448C7.29319 72.0642 7.81835 71.9501 8.04652 71.87C8.38595 71.7616 8.82531 71.5628 9.05725 71.3225C9.23262 71.1481 9.34671 71.0407 9.47116 70.8088C9.60976 70.5563 9.7559 70.1585 9.76061 69.8711V69.8579V67.9447H5.26418V68.8806H8.37935V70.0568C8.37935 70.3612 8.12195 70.6694 7.88152 70.8267C7.66655 70.9766 7.18476 71.1575 6.94528 71.1575H3.04378C2.89481 71.1575 2.63836 71.0746 2.51296 71.0331C2.19993 70.9266 1.90105 70.7438 1.71908 70.478C1.65214 70.3791 1.52863 70.1312 1.52863 69.9823V65.9665C1.52863 65.8591 1.62763 65.6094 1.66911 65.5349C1.91802 65.0797 2.45639 64.9553 2.94573 64.8234C3.05227 64.7979 3.66512 64.8064 3.78109 64.8064C3.8386 64.8149 3.84709 64.8234 3.91309 64.8234C4.79936 64.8234 5.73561 64.8064 6.6134 64.8234C6.86325 64.8234 7.33467 64.9393 7.55907 65.0137C7.82401 65.1061 8.04746 65.2701 8.21246 65.4944C8.42083 65.7762 8.38595 65.9581 8.38595 66.2804H9.76061L9.73704 65.4284C9.71253 65.271 9.44759 64.8648 9.30711 64.7659C9.18265 64.665 9.14022 64.6 8.93374 64.4756C8.37935 64.1448 7.49307 63.9205 6.83779 63.9205H3.74903C3.48221 63.9205 3.31909 63.9092 3.15598 63.9092C2.97873 63.9092 2.79958 63.9224 2.48939 63.978C1.87654 64.0864 1.26369 64.2862 0.791323 64.699C0.758324 64.7385 0.725324 64.7734 0.682896 64.8139C0.559383 64.9383 0.483956 65.0467 0.400985 65.1947C0.277473 65.3935 0.144531 65.7828 0.144531 66.0476V70.0389C0.144531 70.1878 0.228445 70.4187 0.268987 70.5355C0.343472 70.7429 0.466984 70.9493 0.599926 71.1236C0.956321 71.5543 1.4202 71.7692 1.96705 71.9266C2.05097 71.9511 2.13205 71.9596 2.21502 71.9756C2.29799 71.9925 2.39039 72.0086 2.48845 72.0246C2.65533 72.0491 2.84296 72.0651 3.03247 72.0661L3.03152 72.0679Z" fill="white"/>
<path fill-rule="evenodd" clip-rule="evenodd" d="M49.3599 63.9443H49.2958H49.2307H49.1657H49.1006H49.0355H48.9695H48.9035H48.8375H48.7715H48.7055H48.6395H48.5735H48.5075H48.4415H48.3755H48.3096H48.2436H48.1776H48.1116C46.9349 63.9443 45.8516 63.9462 45.6055 63.9462V68.2268V68.2862V68.3446V68.403C45.6074 69.598 45.6215 70.761 45.6215 71.9683C47.7514 71.9683 49.9048 71.9843 52.0423 71.9843C52.6966 71.9843 53.5084 71.8034 54.0223 71.4641C54.0637 71.4386 54.0883 71.4151 54.1297 71.3896C54.4437 71.1493 54.6766 70.826 54.8095 70.4368C54.8586 70.287 54.9246 70.04 54.9246 69.8336V66.2891C54.9246 65.3787 54.5352 64.8557 53.8139 64.4589C53.466 64.26 52.8032 64.0941 52.4062 64.0367C52.3072 64.0197 52.1818 64.0037 52.0743 63.9952C52.0253 63.9867 51.9753 63.9867 51.9169 63.9782L51.5699 63.9537C51.5303 63.9471 50.5309 63.9443 49.3571 63.9434L49.3599 63.9443ZM46.916 70.3294V69.5434C46.916 69.2701 46.9009 69.0307 46.9009 68.7574C46.9009 67.4493 46.884 66.1327 46.884 64.8246H52.0112C52.2186 64.8246 52.806 65.0404 53.0304 65.2053C53.3038 65.4042 53.5518 65.7029 53.5518 66.0912V69.942C53.5518 70.025 53.4943 70.1569 53.4688 70.2229C53.2944 70.6555 52.9135 70.9024 52.4666 71.0258C52.3006 71.0673 52.0357 71.1182 51.8207 71.1182H46.9245C46.9245 70.8449 46.916 70.6121 46.916 70.3313V70.3294Z" fill="white"/>
<path fill-rule="evenodd" clip-rule="evenodd" d="M19.0431 71.9845H20.4592V69.6256C20.4592 69.5181 20.3932 69.3947 20.3508 69.2948C20.2848 69.1383 20.1688 68.997 20.0444 68.8716C19.8718 68.6973 19.4975 68.5078 19.258 68.4909V68.4664C19.423 68.4664 19.7558 68.309 19.8963 68.211C20.0698 68.0941 20.2358 67.9113 20.3102 67.7303C20.3677 67.6059 20.4337 67.4155 20.4337 67.2402V65.4025C20.4337 65.1546 20.1943 64.7729 19.9953 64.607C19.523 64.2272 18.7527 64.0199 18.1153 64.0199L11.9519 64.0029C11.9519 65.344 11.9349 66.654 11.9349 67.9933L11.9274 71.862C11.9274 71.9148 11.9189 71.9185 11.918 71.9666V71.9713V71.977H13.2681V68.8971H17.7325C18.0559 68.8971 18.3963 69.0045 18.5943 69.1383C18.7696 69.2618 18.8762 69.3862 18.9667 69.5766C19.0082 69.6831 18.9997 69.6831 18.9997 69.8254L19.0167 70.0732C19.0167 70.7198 19.0412 71.3484 19.0412 71.9845H19.0431ZM13.2361 64.8822L17.2526 64.8907C17.3855 64.8907 17.526 64.8822 17.642 64.8992C17.7476 64.9143 17.8032 64.9114 17.8541 64.9096C17.9475 64.9067 18.0229 64.903 18.3548 64.9991C18.5207 65.0396 18.7696 65.164 18.8847 65.2799C18.9177 65.3129 19.0591 65.4618 19.0591 65.5118V67.0847C19.0591 67.2336 19.0006 67.4014 18.9346 67.4909L18.8102 67.6398C18.7272 67.7058 18.7517 67.6983 18.6537 67.7558C18.4462 67.8802 18.0323 68.0291 17.8249 68.0291H13.2361V64.8832V64.8822Z" fill="white"/>
<path fill-rule="evenodd" clip-rule="evenodd" d="M64.6863 72.0107H68.6123C69.4156 72.0107 70.2529 71.8033 70.6988 71.1248C70.7403 71.0663 70.7658 71.0173 70.8073 70.9504C70.8874 70.8119 71.0581 70.3529 71.0637 70.1333V70.123V69.1541H69.7466V70.0146C69.7466 70.1729 69.6146 70.4368 69.5486 70.5273C69.4496 70.6771 69.3411 70.793 69.1912 70.8835C68.9187 71.0579 68.4879 71.1728 68.04 71.1728H64.9503C64.7033 71.1728 64.2224 70.9919 63.998 70.8175L63.8981 70.7346C63.8566 70.6931 63.8491 70.6686 63.8161 70.6356C63.5822 70.3793 63.4917 69.9985 63.4917 69.6338V65.9658C63.4917 65.8744 63.6907 65.5851 63.7491 65.5106C63.8566 65.3693 63.965 65.2543 64.1055 65.1544C64.362 64.9555 64.8174 64.7651 65.1483 64.7651H68.0155C68.2889 64.7651 68.7934 64.9235 69.0423 65.0714C69.3327 65.2458 69.5316 65.4522 69.6806 65.7594C69.773 65.9338 69.7466 66.1157 69.7466 66.3635C69.7466 66.4465 69.7551 66.4879 69.7551 66.5709H71.0392V65.6096C71.0392 65.4607 70.8893 65.1459 70.7828 64.9894C70.6508 64.7897 70.5508 64.6916 70.3679 64.5418C70.2604 64.4504 70.1284 64.3844 70.003 64.3109C69.7965 64.195 69.3572 64.063 69.1337 64.0206C68.8603 63.9631 68.3879 63.8887 68.0985 63.8887H65.2992C64.8758 63.8887 64.4619 63.9546 64.1065 64.0376C63.5426 64.162 62.9637 64.4183 62.5819 64.8745C62.5329 64.932 62.4838 65.0064 62.4414 65.0724C62.2604 65.4117 62.168 65.7359 62.168 66.1487V70.1399C62.168 70.2888 62.3839 70.7619 62.4744 70.9193C62.9383 71.6968 63.7991 72.0126 64.6863 72.0126V72.0107Z" fill="white"/>
<path fill-rule="evenodd" clip-rule="evenodd" d="M27.8648 63.9633H25.8103C25.8103 63.9878 25.7028 64.1707 25.6868 64.2027C25.6604 64.2442 25.6453 64.2866 25.6198 64.3271L25.023 65.4609C24.7996 65.9086 24.5176 66.3883 24.2942 66.8359C24.2697 66.8774 24.2537 66.9264 24.2282 66.9679L24.0877 67.2167C24.0707 67.2572 24.0547 67.2996 24.0293 67.3401L23.7643 67.8377C23.7398 67.8868 23.7238 67.9282 23.6898 67.9697L22.6961 69.8423C22.581 70.0817 22.4226 70.3616 22.2991 70.5953L21.5703 71.9845H22.945C22.994 71.9035 23.027 71.8281 23.077 71.7376C23.2835 71.3229 23.5409 70.8771 23.7483 70.454C23.7898 70.3616 23.8313 70.2881 23.8803 70.2061C23.8973 70.1656 23.9218 70.1232 23.9472 70.0732C23.9717 70.0242 23.9963 69.9573 24.0293 69.9573H29.6382C29.6712 69.9573 29.6873 70.0073 29.7203 70.0732C30.0267 70.6114 30.3671 71.1825 30.6565 71.7131C30.7074 71.8045 30.7565 71.878 30.8055 71.9694H32.1057L31.2533 70.355C31.2288 70.306 31.2119 70.2721 31.1873 70.2221L29.9852 67.9697C29.9607 67.9282 29.9447 67.8952 29.9192 67.8453C29.8032 67.6229 29.6382 67.3251 29.5223 67.1008C29.3639 66.7775 29.1574 66.4212 28.9915 66.0989C28.9669 66.0499 28.9509 66.016 28.9264 65.967L28.7275 65.6013C28.7105 65.5599 28.686 65.5108 28.6615 65.4694L28.3296 64.8483C28.2457 64.6824 27.8827 64.0284 27.8657 63.9624L27.8648 63.9633ZM25.4379 67.2336C25.6368 66.8529 25.8763 66.4222 26.0583 66.0509L26.4816 65.2564C26.5071 65.2064 26.5316 65.1734 26.557 65.1235C26.574 65.082 26.6645 64.8662 26.7145 64.8662C27.0454 64.8662 26.9794 64.8417 27.0454 64.9831L27.4018 65.6447C27.4263 65.6946 27.4518 65.7191 27.4763 65.7776C27.5838 66.0085 27.7658 66.3242 27.8996 66.5636L28.389 67.4909C28.4135 67.5324 28.4371 67.5739 28.4625 67.6238C28.488 67.6728 28.5031 67.6983 28.537 67.7558C28.6285 67.9461 28.7953 68.2194 28.8859 68.4098L29.2413 69.0714H24.4705L25.4398 67.2327L25.4379 67.2336Z" fill="white"/>
<path fill-rule="evenodd" clip-rule="evenodd" d="M80.7477 72.0106H82.1469C82.1469 71.9446 81.5916 70.9343 81.5095 70.7684L80.5318 68.8817C80.5063 68.8317 80.4828 68.8053 80.4658 68.7572L78.8997 65.7433C78.8743 65.7028 78.8507 65.6679 78.8328 65.6189C78.8083 65.5699 78.7932 65.536 78.7668 65.486C78.7432 65.4445 78.7187 65.4116 78.7008 65.371L77.9729 63.98H75.8685C75.8515 64.0384 75.827 64.0639 75.8025 64.1044L74.9492 65.7367C74.9237 65.7772 74.9077 65.8112 74.8823 65.8602C74.8587 65.9101 74.8332 65.9346 74.8078 65.9846L74.6843 66.2315C74.5268 66.5472 74.3109 66.911 74.1534 67.2248L73.8885 67.7319C73.732 68.0532 73.5246 68.4104 73.3596 68.7318L72.9702 69.4773C72.9447 69.5187 72.9287 69.5612 72.9042 69.6017L72.5723 70.2228C72.5478 70.2727 72.5308 70.2972 72.5063 70.3472L71.6445 71.9861H72.9626C72.9881 71.9465 73.0032 71.9201 73.0296 71.872C73.0541 71.8221 73.0692 71.7882 73.1041 71.7392L73.9818 70.0918C73.9979 70.0427 74.0233 70.0088 74.0478 69.9589H79.7228C79.7389 70.0343 80.1943 70.9032 80.2357 70.9871L80.7496 72.0134L80.7477 72.0106ZM75.876 66.4784L76.2909 65.667C76.3163 65.618 76.3314 65.585 76.3569 65.535C76.3823 65.4851 76.4068 65.4521 76.4314 65.4031L76.7057 64.8555H77.0452C77.0536 64.8989 77.1442 65.0638 77.1772 65.1298C77.3016 65.3776 77.4751 65.6754 77.6005 65.9243L78.0219 66.7282C78.0483 66.7687 78.0719 66.8186 78.0889 66.8601C78.2124 67.107 78.3953 67.4152 78.5207 67.6631L79.291 69.1446H74.5032C74.5202 69.0701 75.712 66.8186 75.8779 66.4784H75.876Z" fill="white"/>
<path fill-rule="evenodd" clip-rule="evenodd" d="M103.371 72.002H104.722C104.738 71.9445 104.821 71.8031 104.854 71.7456L105.128 71.2395C105.26 71.0162 105.467 70.5864 105.6 70.3536L105.806 69.9559H111.497C111.58 70.1218 111.671 70.2952 111.753 70.4611L112.267 71.4629C112.349 71.6278 112.432 71.8106 112.523 71.9756H113.898C113.882 71.9011 113.807 71.7946 113.774 71.7277L113.378 70.9747C113.351 70.9247 113.336 70.8993 113.31 70.8588L112.457 69.2274C112.268 68.8297 111.994 68.3745 111.795 67.9758C111.563 67.5046 111.249 66.957 111.017 66.4858C110.924 66.3115 110.834 66.1541 110.752 65.9816L110.089 64.7376C110.03 64.6235 109.716 64.0439 109.699 63.9761H107.587C107.578 64.0345 107.313 64.5067 107.264 64.5971L106.478 66.1051C106.246 66.5593 105.972 67.039 105.749 67.4876C105.723 67.5291 105.707 67.5621 105.683 67.612L105.218 68.4894C105.194 68.53 105.177 68.5639 105.161 68.6139L104.763 69.3593C104.738 69.3989 104.722 69.4404 104.697 69.4913L104.299 70.2368C104.15 70.5261 103.969 70.8409 103.837 71.1142C103.819 71.1556 103.795 71.1971 103.77 71.2461L103.372 72.0001L103.371 72.002ZM106.296 69.0144L107.14 67.416C107.166 67.3651 107.181 67.3246 107.206 67.2746L107.703 66.3388C107.877 65.992 108.109 65.5933 108.274 65.2625L108.489 64.8488H108.78L109.202 65.6433C109.226 65.7017 109.252 65.7271 109.277 65.7846L110.412 67.9278C110.444 67.9777 110.46 68.0201 110.487 68.0691L110.768 68.5988C110.792 68.6487 110.809 68.6742 110.842 68.7307C110.866 68.7807 110.892 68.8146 110.908 68.8636C110.934 68.9136 110.959 68.9644 110.984 69.005C111.009 69.0464 111.042 69.0888 111.05 69.1454H106.229C106.245 69.1049 106.27 69.0634 106.295 69.0144H106.296Z" fill="white"/>
<path fill-rule="evenodd" clip-rule="evenodd" d="M83.582 71.9842H84.9152V68.9221H89.2306C89.6775 68.9221 90.2583 68.8053 90.6807 68.6404L90.8627 68.5574C91.0777 68.449 91.2681 68.3096 91.4265 68.1182C91.551 67.9684 91.749 67.6376 91.749 67.4387V65.5425C91.749 65.0704 91.435 64.7056 91.0701 64.4832C91.0286 64.4493 90.9871 64.4342 90.9372 64.4003C90.7222 64.2674 90.0094 64.0195 89.786 64.0195H83.6075C83.6075 66.5943 83.5839 69.1615 83.582 71.7344V71.8588V71.9832V71.9842ZM84.8982 64.8894H89.1731C89.471 64.8894 89.9528 65.0129 90.1669 65.2287C90.2329 65.2947 90.3243 65.4096 90.3243 65.518V67.4236C90.3243 67.5066 90.1999 67.6385 90.1414 67.697C89.9189 67.9194 89.4211 68.0108 89.0986 68.0108H84.8982V64.8894V64.8894Z" fill="white"/>
<path fill-rule="evenodd" clip-rule="evenodd" d="M104.711 64.8641V63.9697H96.2188V64.9056H99.7573C99.7818 64.9056 99.7902 64.9141 99.7902 64.9386V71.9833H101.14V64.8632H104.711V64.8641Z" fill="white"/>
<path fill-rule="evenodd" clip-rule="evenodd" d="M115.363 72.0017H122.999V71.0913H116.656V63.9702H115.363V72.0017Z" fill="white"/>
<path fill-rule="evenodd" clip-rule="evenodd" d="M34.4281 83.3867H34.4536H37.2859H37.3095C37.796 83.382 38.2184 83.235 38.4956 83.022C38.719 82.857 38.9095 82.6073 39.016 82.3519C39.0415 82.2859 39.115 82.1276 39.115 82.0531V80.9099H36.0508V81.4151H38.1712V82.2105C38.1712 82.318 37.9723 82.5168 37.8978 82.5828C37.7488 82.7147 37.4009 82.8401 37.1935 82.8561C37.0945 82.8646 36.9691 82.8646 36.871 82.8646C36.7466 82.8561 36.6721 82.8731 36.5561 82.8731H34.8826C34.6676 82.8731 34.1547 82.7232 33.9473 82.6158C33.7974 82.5413 33.5909 82.3924 33.5418 82.235C33.5154 82.169 33.5334 81.1663 33.5334 81.0504L33.5239 79.8751C33.5239 79.4689 33.6163 79.3115 33.9718 79.1381C34.1038 79.0637 34.4281 78.9892 34.6261 78.9892H37.102C37.268 78.9892 37.5829 79.1052 37.7149 79.1796C37.8308 79.2371 37.8554 79.2541 37.9562 79.3361C37.9968 79.3606 38.1467 79.5104 38.1467 79.5509V79.9317H39.1075C39.1075 79.8987 39.115 79.8902 39.115 79.8497C39.115 79.5179 39.148 79.4595 38.9255 79.1608C38.7266 78.8978 38.4456 78.7065 38.1297 78.5981C37.8233 78.4982 37.4763 78.4332 37.136 78.4332C37.003 78.4332 36.8013 78.4219 36.6297 78.4219C36.5429 78.4219 36.4647 78.4247 36.4072 78.4332C36.2987 78.4511 36.1639 78.4454 36.0291 78.4398C35.9056 78.4351 35.7811 78.4304 35.6774 78.4417C35.5067 78.4615 35.2908 78.4586 35.0589 78.4567C34.7892 78.4549 34.4988 78.452 34.2358 78.4831C34.0048 78.5161 33.8228 78.5406 33.6239 78.6066C33.258 78.7319 32.9771 78.8809 32.7536 79.2201C32.6886 79.3106 32.5594 79.6009 32.5547 79.7517V79.7583V81.9108V81.9278C32.5594 82.2869 32.7084 82.6431 32.9441 82.8891C32.9611 82.9136 32.9771 82.9211 32.995 82.9371C33.044 82.9711 33.0695 83.0031 33.11 83.038C33.4193 83.2491 33.8982 83.3801 34.4272 83.3848L34.4281 83.3867Z" fill="white"/>
<path fill-rule="evenodd" clip-rule="evenodd" d="M50.2448 78.4937H50.2382H45.9219V83.3369H46.7836V81.4756H50.0723C50.1383 81.4756 50.2797 81.5321 50.3287 81.5585C50.5522 81.6565 50.7351 81.8968 50.7351 82.1626V83.3378H51.6619V81.9138C51.6619 81.6405 51.3385 81.4105 51.1236 81.3097C51.083 81.2937 51.0406 81.2776 50.9906 81.2607C50.9331 81.2352 50.9001 81.2192 50.8416 81.2107C50.868 81.1693 50.8341 81.1938 50.9501 81.1693C51.2065 81.1033 51.48 80.9704 51.6044 80.731C51.7119 80.5152 51.6459 80.1345 51.6459 79.8781C51.6534 79.3814 51.6949 79.0497 51.1971 78.7773C51.0557 78.6935 50.9237 78.6435 50.7596 78.5945C50.6521 78.5625 50.3778 78.4974 50.2429 78.4946L50.2448 78.4937ZM46.7846 80.3324V80.24V80.2155V79.0648C47.091 79.0648 47.3559 79.0478 47.6624 79.0478H50.0647C50.2137 79.0478 50.4447 79.1628 50.5277 79.2382C50.5852 79.2957 50.6361 79.3371 50.6776 79.4116C50.7191 79.4945 50.7266 79.5869 50.7266 79.7019V80.3644C50.7266 80.6877 50.2637 80.9016 50.1713 80.9016H46.7751C46.7751 80.7612 46.7667 80.4558 46.7836 80.3314L46.7846 80.3324Z" fill="white"/>
<path fill-rule="evenodd" clip-rule="evenodd" d="M62.7986 78.4365C61.9425 78.4365 61.0864 78.445 60.2312 78.445C59.9323 78.445 59.3845 78.5685 59.162 78.6853C59.013 78.7598 59.03 78.7428 58.8895 78.8427C58.7132 78.9577 58.5812 79.116 58.4832 79.3064C58.4502 79.3545 58.3672 79.5703 58.3672 79.6372C58.3672 80.1254 58.3757 80.5806 58.3757 81.0697C58.3757 81.2026 58.3926 81.294 58.3926 81.4175C58.3926 81.5589 58.3926 82.2129 58.4096 82.3034C58.4596 82.5352 58.5586 82.7586 58.7142 82.9084C58.8396 83.0413 58.9725 83.1233 59.1554 83.1978C59.5439 83.3627 59.7343 83.3307 60.0492 83.3797C60.1737 83.3966 60.2981 83.3797 60.4056 83.3721C60.631 83.3627 60.9025 83.3721 61.1344 83.3721C61.2099 83.3797 61.2334 83.3627 61.2928 83.3627H61.8387C62.2951 83.3627 62.8174 83.3382 63.2813 83.3382C63.6028 83.3382 63.5632 83.3552 63.8781 83.2232C64.0507 83.1563 64.2081 83.0743 64.3495 82.9678C64.6324 82.751 64.8134 82.4693 64.8134 81.9811V79.6966C64.8134 79.4082 64.6654 79.15 64.4589 78.9624C64.293 78.8126 64.0865 78.7164 63.8791 78.6401C63.5378 78.5129 63.1502 78.4384 62.8014 78.4384L62.7986 78.4365ZM59.9003 82.7746C59.6674 82.6822 59.5099 82.5673 59.3779 82.3694C59.229 82.1469 59.2865 81.9707 59.2865 81.7888V81.1018C59.2865 80.9368 59.3034 80.8124 59.3034 80.6466V79.951C59.2949 79.8606 59.311 79.8191 59.311 79.7277C59.311 79.6033 59.3694 79.5288 59.4524 79.4129C59.6683 79.1481 60.0483 78.9916 60.4301 78.9916H62.742C63.1144 78.9916 63.6169 79.2046 63.83 79.5335C63.93 79.6881 63.9432 79.8125 63.9432 79.9765C63.9432 80.6277 63.9432 81.2789 63.9432 81.9302C63.9319 82.0112 63.9441 82.0706 63.9432 82.1262C63.9347 82.5673 63.3671 82.7944 62.9994 82.8585C62.791 82.8934 61.5078 82.8754 61.1684 82.8754C60.9506 82.8754 60.7573 82.8915 60.5687 82.8915C60.3491 82.8915 60.1369 82.8698 59.9021 82.7765L59.9003 82.7746Z" fill="white"/>
<path fill-rule="evenodd" clip-rule="evenodd" d="M77.8916 78.4682H76.9732V82.1617C76.9732 82.2276 76.8987 82.3605 76.8733 82.4086C76.7743 82.5415 76.6244 82.6574 76.4584 82.7149C76.4094 82.7403 76.2435 82.7988 76.185 82.7988H73.5262C73.3612 82.7988 72.9793 82.632 72.8464 82.5C72.7559 82.4171 72.7559 82.4171 72.6889 82.3181C72.6229 82.2192 72.6229 82.2107 72.6229 82.0533C72.6229 81.9873 72.6144 81.9628 72.6144 81.9034C72.605 81.73 72.6144 81.2673 72.6144 81.0684C72.6144 80.8357 72.5965 80.6453 72.5965 80.4144V79.7518C72.605 79.6284 72.588 79.553 72.588 79.438V78.6087C72.588 78.5512 72.6041 78.4711 72.5579 78.4682H72.556H71.6367V78.4748V78.4805V78.4871V78.4927C71.6377 78.6143 71.6452 78.7085 71.6452 78.8414C71.6452 78.9564 71.6367 79.1147 71.6452 79.2212C71.6631 79.3871 71.6631 79.6105 71.6537 79.7858C71.6537 79.8678 71.6707 79.8923 71.6707 79.9667C71.6707 80.5463 71.6961 81.1005 71.6961 81.6801L71.7206 82.2352C71.8366 83.0136 72.5899 83.2785 73.3112 83.3605C73.8251 83.4264 73.9571 83.3859 74.4219 83.3859H75.971C76.6828 83.3859 77.2221 83.1955 77.6115 82.7064C77.6775 82.6244 77.72 82.5584 77.769 82.4755C77.7944 82.435 77.8925 82.2606 77.8925 82.2107V78.4673L77.8916 78.4682Z" fill="white"/>
<path fill-rule="evenodd" clip-rule="evenodd" d="M84.9258 83.3623H85.8036V81.5086C85.8036 81.4501 86.011 81.4756 86.1185 81.4756H88.9508C89.3411 81.4756 89.9785 81.3257 90.251 81.0034C90.3415 80.895 90.4659 80.6971 90.4659 80.5058V79.4126C90.4659 79.1967 90.267 78.9244 90.0775 78.8C89.5382 78.4268 88.7594 78.4927 88.1475 78.4927C88.007 78.4927 87.9061 78.4758 87.7581 78.4758H85.7291C85.4557 78.4758 85.2067 78.4673 84.9258 78.4673V83.3605V83.3623ZM85.8375 79.0488H88.8772C89.2176 79.0488 89.5306 79.2391 89.5306 79.5624V80.4068C89.5306 80.5982 89.4401 80.6962 89.3242 80.7791C89.2327 80.8366 89.0262 80.911 88.8772 80.911H85.8375V79.0488V79.0488Z" fill="white"/>
<path fill-rule="evenodd" clip-rule="evenodd" d="M93.708 71.9693H95.0421V63.9463H93.7579C93.7579 64.1197 93.7495 64.2601 93.7495 64.4354V65.9509C93.7495 66.2817 93.7325 66.5964 93.7325 66.9442V67.9545C93.7325 68.3023 93.724 68.6001 93.724 68.9479V69.9572C93.724 70.3059 93.707 70.6113 93.707 70.9506V71.9693H93.708Z" fill="white"/>
<path fill-rule="evenodd" clip-rule="evenodd" d="M45.725 13.1596L44.8086 15.8974C50.1376 12.3906 55.8022 10.517 61.8072 9.34462L61.8034 6.6709C56.1029 7.79806 50.4996 9.84789 45.725 13.1587V13.1596Z" fill="white"/>
<path fill-rule="evenodd" clip-rule="evenodd" d="M75.421 50.8586C82.3283 51.5183 88.289 53.2524 94.8107 56.1712L93.2455 51.4241C86.82 48.4327 80.8886 46.8438 74.7969 46.1699L75.4201 50.8586H75.421Z" fill="white"/>
<path fill-rule="evenodd" clip-rule="evenodd" d="M74.5296 44.086C80.7835 44.7476 86.6791 46.5703 92.553 49.3147L90.9879 44.5676C85.576 42.006 80.4931 40.2766 73.9102 39.3926L74.5296 44.086V44.086Z" fill="white"/>
<path fill-rule="evenodd" clip-rule="evenodd" d="M73.5633 36.7833C80.1019 37.673 84.7945 39.4307 90.1159 41.93L88.7252 37.7098C83.2652 34.9927 78.5802 33.4716 73.0117 32.6055L73.5633 36.7833Z" fill="white"/>
<path fill-rule="evenodd" clip-rule="evenodd" d="M72.6697 29.9891C78.9311 31.0013 82.9514 32.7297 87.8561 35.0227L86.4673 30.8514C82.0124 28.5264 77.7601 26.8064 72.1172 25.8027L72.6697 29.9891V29.9891Z" fill="white"/>
<path fill-rule="evenodd" clip-rule="evenodd" d="M71.7698 23.1835C76.584 24.0864 81.2567 25.8299 85.5966 28.2153L84.3794 24.5227C80.047 22.1054 76.1625 20.5626 71.2852 19.5127L71.7698 23.1835Z" fill="white"/>
<path fill-rule="evenodd" clip-rule="evenodd" d="M70.8699 16.3574C75.2616 17.3197 79.4356 19.0792 83.3362 21.3562L82.2613 18.0953C78.3344 15.9437 74.6856 14.1653 70.4531 13.2012L70.8699 16.3574Z" fill="white"/>
<path fill-rule="evenodd" clip-rule="evenodd" d="M32.1653 53.686L30.6992 58.0674C40.4482 53.3476 51.0675 50.885 61.8612 50.5165L61.8556 46.2388C50.697 46.7119 41.6513 49.1773 32.1653 53.686Z" fill="white"/>
<path fill-rule="evenodd" clip-rule="evenodd" d="M36.9271 39.4472L35.4609 43.8287C43.8353 39.6612 52.3294 37.2824 61.8399 36.6152L61.8342 32.3374C52.6584 33.0838 44.9903 35.3023 36.9271 39.4472Z" fill="white"/>
<path fill-rule="evenodd" clip-rule="evenodd" d="M39.1309 32.8757L37.8477 36.7086C45.4479 32.6457 53.4659 30.4348 61.8355 29.6638L61.8308 25.9214C53.8411 26.7394 46.172 28.9438 39.1309 32.8757V32.8757Z" fill="white"/>
<path fill-rule="evenodd" clip-rule="evenodd" d="M41.3291 26.3032L40.0469 30.1371C46.7175 26.339 54.1641 24.1111 61.8276 23.2478L61.8228 19.5044C54.5526 20.3828 47.5104 22.6588 41.3301 26.3032H41.3291Z" fill="white"/>
<path fill-rule="evenodd" clip-rule="evenodd" d="M43.529 19.7312L42.4297 23.0175C48.5893 19.3608 54.9761 17.3044 61.8193 16.297L61.8155 13.0889C55.2618 14.184 49.1767 16.1546 43.53 19.7322L43.529 19.7312Z" fill="white"/>
<path fill-rule="evenodd" clip-rule="evenodd" d="M47.9237 6.58767L47.1836 8.77603C51.1747 5.91382 55.9191 3.733 61.7949 2.39378V0.255371C56.794 1.4994 52.0779 3.49362 47.9237 6.58767V6.58767Z" fill="white"/>
<path fill-rule="evenodd" clip-rule="evenodd" d="M34.5482 46.5666L33.082 50.948C42.4237 46.2961 51.955 44.1059 61.852 43.5659L61.8464 39.2881C52.2227 40.0062 43.4147 42.1314 34.5472 46.5666H34.5482Z" fill="white"/>
<path fill-rule="evenodd" clip-rule="evenodd" d="M31.2148 61.6776C51.8 55.5592 73.5854 54.7883 94.542 59.4581C73.9965 52.0712 51.1919 52.8676 31.2148 61.6776V61.6776Z" fill="white"/>
<path fill-rule="evenodd" clip-rule="evenodd" d="M66.6172 0.0204737L71.5719 50.5978L73.8875 50.7288L67.2527 0.0478047C67.0452 0.0364953 66.834 0.0270708 66.6172 0.0195312V0.0204737Z" fill="white"/>
<path fill-rule="evenodd" clip-rule="evenodd" d="M63.5352 0.0569455L63.6342 50.524L65.7801 50.5089L64.2083 0.0249023C63.9906 0.0333844 63.7671 0.0437513 63.5352 0.0569455V0.0569455Z" fill="white"/>
<path fill-rule="evenodd" clip-rule="evenodd" d="M67.6083 50.5107L69.7373 50.539L65.7688 0.0012381C65.5246 -0.000646793 65.2729 -0.000646793 65.0117 0.00312299L67.6093 50.5098L67.6083 50.5107Z" fill="white"/>
</svg>
