<svg width="111" height="48" viewBox="0 0 111 48" fill="none" xmlns="http://www.w3.org/2000/svg">
<path fill-rule="evenodd" clip-rule="evenodd" d="M9.77589 23.994C5.66675 23.994 2.40812 22.7748 0 20.3366V20.2678L2.65051 16.5502C4.64269 18.6341 7.09957 19.6768 10.0212 19.6783C11.2948 19.6783 12.2851 19.4287 12.9922 18.9296C13.6993 18.4305 14.0528 17.8224 14.0528 17.1052C14.0528 16.4785 13.7222 15.9571 13.0611 15.5412C12.3028 15.0871 11.4656 14.7806 10.5934 14.6376C9.50795 14.4277 8.43435 14.1606 7.3771 13.8373C6.28158 13.5126 5.20799 13.1181 4.16293 12.6562C3.16278 12.2028 2.3084 11.4803 1.69529 10.5693C1.03267 9.62271 0.702069 8.46454 0.703503 7.09483C0.703503 5.10121 1.5031 3.426 3.1023 2.06919C4.70149 0.712387 6.83352 0.0347008 9.49836 0.0361351C13.183 0.0361351 16.1949 1.11183 18.5342 3.26321L15.7912 6.88615C13.9596 5.19372 11.7114 4.34751 9.04657 4.34751C8.00387 4.34751 7.1928 4.5562 6.61336 4.97356C6.33876 5.16284 6.11607 5.41803 5.96571 5.71573C5.81536 6.01343 5.74215 6.34412 5.7528 6.67746C5.7528 7.23252 6.08268 7.70152 6.74244 8.08447C7.51141 8.50827 8.3464 8.7992 9.21223 8.94502C10.293 9.15475 11.3604 9.42773 12.4092 9.76255C13.5001 10.1001 14.5685 10.5061 15.6083 10.9781C16.6072 11.4437 17.4592 12.1744 18.0716 13.0907C18.7507 14.1142 19.0971 15.3224 19.0634 16.5502C19.0634 18.7747 18.2696 20.5675 16.6818 21.9286C15.0941 23.2897 12.7921 23.9782 9.77589 23.994Z" fill="white"/>
<path fill-rule="evenodd" clip-rule="evenodd" d="M32.2665 23.5709H27.2968V4.72695H20.5156V0.383301H39.0111V4.72695H32.2665V23.5709Z" fill="white"/>
<path fill-rule="evenodd" clip-rule="evenodd" d="M52.2924 10.9853C53.2051 11.0197 54.0978 10.7129 54.7966 10.1248C55.1164 9.84232 55.3695 9.49241 55.5377 9.10028C55.7058 8.70815 55.7848 8.28358 55.769 7.85721C55.7869 7.42931 55.7088 7.00284 55.5406 6.609C55.3723 6.21517 55.1181 5.86394 54.7966 5.58105C54.0987 4.99148 53.2053 4.68449 52.2924 4.72049H47.1162V10.9853H52.2924ZM60.9496 23.5623H55.2914L50.7369 15.3225H47.1162V23.5623H42.168V0.383301H53.0153C55.4019 0.383301 57.2958 1.0782 58.6971 2.46799C60.0983 3.85779 60.7997 5.65061 60.8011 7.84646C60.8011 9.74685 60.3084 11.288 59.3231 12.4698C58.4175 13.6102 57.1528 14.4109 55.7346 14.7416L60.9496 23.5623Z" fill="white"/>
<path fill-rule="evenodd" clip-rule="evenodd" d="M101.138 23.5709H96.2003V14.079L87.2656 0.383301H92.898L98.668 9.6988L104.369 0.383301H110.001L101.138 14.079V23.5709Z" fill="white"/>
<path fill-rule="evenodd" clip-rule="evenodd" d="M29.6267 47.4575H24.4118V35.0333C24.4118 32.9421 23.4343 31.8958 21.4794 31.8944C20.65 31.8961 19.8393 32.1407 19.1473 32.5979C18.4792 33.0147 17.8954 33.5533 17.4262 34.1856V47.4661H12.1897V35.0333C12.1897 32.9421 11.2123 31.8958 9.25741 31.8944C8.43131 31.9002 7.62447 32.1445 6.93391 32.5979C6.24641 33.0172 5.65075 33.5712 5.18269 34.2265V47.4661H0V27.7809H5.18269V30.3475C5.67177 29.6419 6.52587 28.9577 7.74499 28.2951C8.93026 27.6393 10.2629 27.2958 11.6175 27.2969C14.4702 27.2969 16.2903 28.4916 17.0777 30.8811C17.8383 29.7888 18.8486 28.8937 20.0246 28.2703C21.2007 27.6469 22.5085 27.3132 23.8395 27.2969C25.6868 27.2969 27.1132 27.7924 28.1186 28.7835C29.124 29.7746 29.626 31.2619 29.6246 33.2455L29.6267 47.4575Z" fill="white"/>
<path fill-rule="evenodd" clip-rule="evenodd" d="M42.3823 44.4434C44.31 44.4434 45.6955 43.8733 46.5388 42.7331V40.287C45.6955 39.1395 44.31 38.5658 42.3823 38.5658C41.4361 38.5308 40.5049 38.8099 39.734 39.3597C39.3924 39.6089 39.1173 39.9381 38.9327 40.3185C38.7481 40.6988 38.6598 41.1187 38.6755 41.5412C38.6618 41.9543 38.7514 42.3643 38.9362 42.7339C39.1211 43.1036 39.3953 43.4213 39.734 43.6582C40.5097 44.196 41.439 44.4678 42.3823 44.4327V44.4434ZM51.7107 47.4446H46.5474V45.4202C45.1332 47.1054 43.0536 47.9473 40.3084 47.9459C38.5714 47.9585 36.8875 47.3478 35.5624 46.2248C34.164 45.0688 33.4648 43.4732 33.4648 41.4379C33.4648 39.3181 34.1504 37.729 35.5216 36.6705C36.8905 35.6128 38.5788 35.0528 40.3084 35.0828C43.1052 35.0828 45.1849 35.8838 46.5474 37.4858V34.8289C46.5608 34.3622 46.4601 33.8994 46.2538 33.4806C46.0476 33.0618 45.7422 32.6997 45.3642 32.4258C44.5681 31.8234 43.5183 31.5222 42.2145 31.5222C40.0631 31.5222 38.1484 32.2967 36.4703 33.8457L34.5147 30.382C36.8511 28.3181 39.7196 27.2861 43.1203 27.2861C45.646 27.2861 47.7099 27.8699 49.3119 29.0374C50.914 30.2048 51.7122 32.1088 51.7064 34.7493L51.7107 47.4446Z" fill="white"/>
<path fill-rule="evenodd" clip-rule="evenodd" d="M62.0139 47.4574H56.8398V27.7808H62.0139V30.4701C62.78 29.5202 63.7382 28.7431 64.8258 28.1896C65.8893 27.611 67.0788 27.3029 68.2895 27.2925V32.3439C67.8199 32.2515 67.3416 32.2104 66.8631 32.2213C65.9044 32.2397 64.9603 32.4596 64.0922 32.8667C63.1154 33.297 62.4205 33.8305 62.0139 34.4544V47.4574Z" fill="white"/>
<path fill-rule="evenodd" clip-rule="evenodd" d="M89.1467 46.7821C88.8953 47.028 88.5665 47.1793 88.2162 47.2103C87.8659 47.2414 87.5156 47.1502 87.2249 46.9524C86.9341 46.7545 86.7208 46.4622 86.6211 46.1249C86.5214 45.7876 86.5415 45.4263 86.6779 45.1021C86.8143 44.778 87.0588 44.5111 87.3696 44.3467C87.6805 44.1822 88.0387 44.1304 88.3834 44.2001C88.7281 44.2697 89.0381 44.4565 89.2608 44.7287C89.4835 45.001 89.6051 45.3419 89.605 45.6935C89.6069 45.8966 89.5672 46.098 89.4884 46.2852C89.4096 46.4724 89.2933 46.6415 89.1467 46.7821Z" fill="white"/>
<path fill-rule="evenodd" clip-rule="evenodd" d="M100.356 47.0315H97.9292V45.8654C97.5245 46.323 97.0235 46.6852 96.4622 46.9263C95.9009 47.1673 95.2933 47.2811 94.6828 47.2595C93.6888 47.2595 92.9438 47.005 92.4475 46.4958C91.9512 45.9866 91.7031 45.2731 91.7031 44.3552V37.8042H94.1277V43.3978C94.1277 44.5309 94.695 45.0974 95.8295 45.0974C96.238 45.1036 96.6421 45.0115 97.0075 44.8288C97.373 44.646 97.6891 44.3781 97.9292 44.0475V37.8085H100.356V47.0315Z" fill="white"/>
<path fill-rule="evenodd" clip-rule="evenodd" d="M109.889 47.0315H102.363V45.2157L106.526 39.9233H102.363V37.8042H109.814V39.5619L105.59 44.9102H109.889V47.0315Z" fill="white"/>
<path fill-rule="evenodd" clip-rule="evenodd" d="M71.3953 6.68651C71.3949 5.86765 71.6373 5.06707 72.092 4.38604C72.5467 3.70501 73.1931 3.17414 73.9496 2.86058C74.706 2.54703 75.5384 2.46487 76.3416 2.62452C77.1447 2.78417 77.8825 3.17844 78.4615 3.75745C79.0405 4.33647 79.4348 5.07421 79.5944 5.87735C79.7541 6.68049 79.6719 7.51294 79.3583 8.26938C79.0448 9.02582 78.5139 9.67226 77.8329 10.1269C77.1519 10.5816 76.3513 10.824 75.5324 10.8236C74.4352 10.8236 73.3829 10.3877 72.607 9.61189C71.8312 8.83603 71.3953 7.78374 71.3953 6.68651ZM84.224 20.6146C86.5059 18.3685 87.6469 15.495 87.6469 11.994C87.6469 8.49295 86.5059 5.6187 84.224 3.37122C81.9421 1.12517 79.0392 0.00143426 75.5152 0C72.0156 0 69.1242 1.13019 66.8408 3.39058C64.5575 5.65097 63.4165 8.51948 63.418 11.9961C63.418 15.4728 64.5589 18.3413 66.8408 20.6017C68.5484 22.3057 70.7523 23.4242 73.1358 23.7965V47.3111H77.9269V47.2896H82.6148V42.4942H77.9269V32.7699H82.1587V27.9788H77.9269V23.79C80.3085 23.4227 82.5128 22.3112 84.224 20.6146Z" fill="#C6C6C6"/>
</svg>
