<svg width="93" height="101" viewBox="0 0 93 101" fill="none" xmlns="http://www.w3.org/2000/svg">
<path fill-rule="evenodd" clip-rule="evenodd" d="M52.0764 82.8304C53.2244 82.6564 54.3724 82.559 55.2073 82.6216C56.5848 82.7469 58.025 83.3663 59.1939 84.1667C60.3279 84.981 61.2672 85.9276 61.629 86.7628C59.5348 87.5075 56.557 87.9808 54.1428 87.9599C51.9303 87.9808 49.4674 86.1295 48.549 84.0693C48.1316 83.1367 47.3802 83.2411 47.8393 82.2249C48.4446 80.8816 49.2865 79.1695 50.1562 78.035C52.0138 75.6965 56.0004 73.5946 57.9137 72.8499C57.044 74.4994 56.0909 76.5317 54.6855 78.6197C54.1637 79.3922 53.3844 80.1717 52.473 80.8886C51.3946 81.7377 50.7058 82.1066 49.53 82.7678L48.2081 83.5055L49.3282 83.3246C50.2397 83.1715 51.1511 82.9696 52.0764 82.8304Z" fill="white"/>
<path fill-rule="evenodd" clip-rule="evenodd" d="M61.3368 79.4759C62.3456 79.114 63.3753 78.8147 64.1476 78.7242C65.4208 78.592 66.8401 78.8982 68.0507 79.4132C69.2265 79.9492 70.2562 80.6452 70.7293 81.3412C68.9552 82.3991 66.3392 83.3526 64.1337 83.7702C62.123 84.1808 59.5487 82.942 58.352 81.2368C57.8094 80.4642 57.1415 80.6939 57.378 79.6917C57.6911 78.3623 58.1503 76.6501 58.7417 75.4669C60.0079 73.0101 63.257 70.3862 64.8712 69.3631C64.3702 71.0195 63.8763 73.0379 62.9648 75.1886C62.6309 75.982 62.0604 76.8311 61.3577 77.6454C60.5297 78.6129 59.9731 79.0653 59.02 79.8796L57.9485 80.7844L58.9295 80.4155C59.7296 80.1162 60.5228 79.7682 61.3368 79.4759Z" fill="white"/>
<path fill-rule="evenodd" clip-rule="evenodd" d="M69.4282 75.8007C70.3397 75.2369 71.2859 74.7289 72.0234 74.4853C73.2409 74.0885 74.695 74.0955 75.9821 74.3461C77.2484 74.6245 78.3894 75.0908 79.0017 75.6754C77.4849 77.0743 75.1194 78.5568 73.0531 79.4199C71.1676 80.2411 68.3985 79.566 66.8679 78.1392C66.1791 77.4989 65.5669 77.8608 65.5877 76.8308C65.6156 75.4666 65.706 73.6988 66.04 72.4181C66.7705 69.7455 69.4004 66.5091 70.7641 65.1728C70.618 66.8919 70.5553 68.973 70.1101 71.2628C69.9431 72.1049 69.5604 73.0585 69.0456 74.005C68.4333 75.1256 67.988 75.6824 67.2227 76.6776L66.367 77.7843L67.2506 77.2205C67.9881 76.7612 68.6977 76.2531 69.4282 75.8007Z" fill="white"/>
<path fill-rule="evenodd" clip-rule="evenodd" d="M76.1353 69.9891C76.9354 69.3766 77.7703 68.8059 78.4312 68.5066C79.5305 68.0194 80.8941 67.8872 82.1187 67.9986C83.3292 68.1377 84.4424 68.4649 85.0686 68.9521C83.7884 70.4067 81.7221 72.0214 79.8714 73.0306C78.1947 73.9771 75.5369 73.6083 73.9715 72.432C73.2618 71.8961 72.7331 72.2998 72.6496 71.3254C72.5452 70.0517 72.4617 68.3883 72.6496 67.1564C73.074 64.5882 75.2238 61.31 76.3718 59.925C76.3997 61.5467 76.5388 63.5024 76.344 65.6809C76.2744 66.4882 76.01 67.4139 75.6135 68.3465C75.1473 69.4532 74.7855 70.0169 74.1663 71.0192L73.4706 72.1397L74.2429 71.5273C74.8829 71.0192 75.4882 70.4833 76.1353 69.9891Z" fill="white"/>
<path fill-rule="evenodd" clip-rule="evenodd" d="M81.8751 63.0572C82.5082 62.2707 83.1901 61.533 83.7606 61.0876C84.7207 60.3568 86.0078 59.9113 87.2323 59.7304C88.436 59.5842 89.5979 59.6399 90.3214 59.967C89.417 61.6791 87.782 63.7254 86.2165 65.1382C84.8042 66.4537 82.1325 66.7182 80.3375 65.9317C79.5235 65.5767 79.0991 66.0918 78.7999 65.1661C78.3964 63.9481 77.9302 62.3543 77.8259 61.1154C77.638 58.5193 78.9669 54.8305 79.76 53.2158C80.1705 54.7888 80.755 56.654 81.075 58.8186C81.1933 59.619 81.1515 60.5795 80.9846 61.5747C80.7897 62.7579 80.5671 63.3983 80.1984 64.5118L79.7809 65.7646L80.3932 64.9921C80.8941 64.3518 81.3603 63.6906 81.8751 63.0572Z" fill="white"/>
<path fill-rule="evenodd" clip-rule="evenodd" d="M85.6669 54.1763C86.0704 53.2507 86.5296 52.3528 86.9679 51.7751C87.6984 50.8216 88.8255 50.0491 89.9526 49.5549C91.0798 49.0956 92.2138 48.845 93 48.9633C92.5756 50.8564 91.5389 53.2646 90.4049 55.0394C89.3891 56.6819 86.8844 57.6354 84.9433 57.357C84.0667 57.2318 83.7953 57.8373 83.2526 57.0229C82.543 55.9581 81.6733 54.5382 81.2489 53.369C80.3862 50.9121 80.6923 47.0006 81.0332 45.2397C81.8403 46.6457 82.9048 48.2952 83.7814 50.2996C84.1084 51.0374 84.3171 51.977 84.4215 52.9862C84.5467 54.1763 84.498 54.8514 84.4354 56.0277L84.3658 57.3431L84.7485 56.4383C85.0685 55.6866 85.3399 54.921 85.6669 54.1763Z" fill="white"/>
<path fill-rule="evenodd" clip-rule="evenodd" d="M87.0514 44.1124C87.1697 43.1102 87.3436 42.1219 87.5941 41.4329C88.0115 40.3053 88.8673 39.2335 89.7996 38.4331C90.7388 37.6606 91.7546 37.0898 92.5408 36.9785C92.6869 38.9134 92.4016 41.5164 91.8381 43.5487C91.3441 45.414 89.236 47.0635 87.2949 47.3628C86.4183 47.5019 86.3348 48.1562 85.5834 47.5437C84.5954 46.7294 83.3431 45.6297 82.5917 44.6414C81.0471 42.5465 80.1983 38.7185 80.0035 36.9367C81.1863 38.0434 82.6821 39.3101 84.1084 40.9665C84.6372 41.579 85.1172 42.4142 85.5068 43.3469C85.973 44.4465 86.1261 45.1077 86.4113 46.2492L86.7313 47.5298L86.8357 46.5484C86.9192 45.7271 86.954 44.9198 87.0514 44.1124Z" fill="white"/>
<path fill-rule="evenodd" clip-rule="evenodd" d="M85.9939 34.097C85.8339 33.1017 85.7365 32.0995 85.7852 31.3757C85.8826 30.1785 86.4113 28.9188 87.0932 27.8887C87.7889 26.8934 88.6099 26.0652 89.3335 25.7451C90.0014 27.5616 90.4327 30.1507 90.4397 32.2596C90.4745 34.1875 88.8882 36.352 87.1001 37.1663C86.2931 37.5352 86.3905 38.1964 85.4999 37.7997C84.3311 37.2847 82.8283 36.5678 81.8333 35.8161C79.7809 34.2223 77.9163 30.7632 77.2484 29.0998C78.6886 29.8445 80.4697 30.6518 82.2925 31.8629C82.9674 32.3083 83.6562 32.9834 84.2893 33.7699C85.0407 34.7025 85.3608 35.2941 85.9452 36.3172L86.5992 37.4656L86.4322 36.4912C86.307 35.6908 86.1261 34.8974 85.9939 34.097Z" fill="white"/>
<path fill-rule="evenodd" clip-rule="evenodd" d="M81.7917 24.311C81.416 23.4549 81.0959 22.578 80.9707 21.9168C80.7829 20.8171 80.9637 19.5643 81.3325 18.4855C81.7291 17.4276 82.2717 16.495 82.8422 16.0426C83.865 17.5181 84.8529 19.7383 85.3469 21.6245C85.827 23.3436 84.9016 25.6543 83.4963 26.7957C82.8562 27.3177 83.0997 27.8815 82.2091 27.7353C81.0403 27.5474 79.5236 27.2481 78.466 26.8096C76.2536 25.8561 73.7837 23.1905 72.8027 21.8541C74.2707 22.1882 76.0518 22.5014 77.972 23.1626C78.6817 23.4062 79.454 23.8517 80.2054 24.4084C81.0959 25.0696 81.5203 25.529 82.2857 26.3085L83.1345 27.1855L82.7588 26.3503C82.4457 25.6752 82.0978 25 81.7917 24.311Z" fill="white"/>
<path fill-rule="evenodd" clip-rule="evenodd" d="M75.8291 16.6066C75.203 15.9175 74.6185 15.1867 74.2915 14.6021C73.7558 13.6207 73.5332 12.3749 73.5401 11.2335C73.5749 10.1059 73.7906 9.05499 74.1941 8.43555C75.6343 9.50739 77.2832 11.2891 78.3547 12.9247C79.3566 14.4002 79.2244 16.8849 78.2573 18.4231C77.819 19.1191 78.2295 19.5784 77.3389 19.7246C76.1701 19.9195 74.6394 20.1283 73.4914 20.0448C71.0911 19.8499 67.8977 18.1169 66.534 17.1633C68.0299 17.0102 69.8179 16.7318 71.8495 16.7457C72.6009 16.7527 73.4706 16.9267 74.3611 17.2121C75.4187 17.5531 75.9683 17.8454 76.9354 18.3465L78.0207 18.9033L77.3946 18.2352C76.8797 17.6784 76.337 17.1564 75.8291 16.6066Z" fill="white"/>
<path fill-rule="evenodd" clip-rule="evenodd" d="M68.9551 11.6091C68.2733 11.101 67.6193 10.5442 67.2227 10.0709C66.5757 9.28445 66.1582 8.20566 65.9634 7.18255C65.8034 6.16639 65.8103 5.17807 66.0608 4.55864C67.5358 5.26855 69.3239 6.59095 70.5692 7.86462C71.7242 9.01997 72.0372 11.268 71.4319 12.8132C71.1606 13.5161 71.6059 13.8571 70.8336 14.1425C69.8178 14.5183 68.482 14.9707 67.4384 15.096C65.2538 15.3396 62.0812 14.3304 60.6966 13.711C62.0116 13.3143 63.5701 12.7575 65.3929 12.4164C66.0678 12.2912 66.8818 12.2981 67.7306 12.4025C68.7394 12.5278 69.2821 12.6948 70.2353 12.9732L71.3067 13.2864L70.6318 12.7923C70.0822 12.3956 69.5047 12.0197 68.9551 11.6091Z" fill="white"/>
<path fill-rule="evenodd" clip-rule="evenodd" d="M61.5247 7.9694C60.9472 7.53788 60.3906 7.07156 60.0566 6.66788C59.507 5.99973 59.1522 5.08797 58.9922 4.21798C58.853 3.35494 58.86 2.51975 59.0756 1.99079C60.328 2.59631 61.8447 3.7099 62.8953 4.79566C63.8763 5.77005 64.1406 7.67708 63.6258 8.99251C63.3962 9.58411 63.7719 9.87642 63.1179 10.12C62.2552 10.4402 61.1211 10.823 60.2375 10.9274C58.3869 11.1292 55.7013 10.2801 54.5255 9.75811C55.6387 9.42403 56.9606 8.95075 58.5051 8.65843C59.0756 8.55403 59.7644 8.55403 60.488 8.64451C61.3368 8.74891 61.803 8.89507 62.61 9.13171L63.5145 9.39619L62.944 8.97859C62.4778 8.63755 61.9908 8.32436 61.5247 7.9694Z" fill="white"/>
<path fill-rule="evenodd" clip-rule="evenodd" d="M54.6855 4.83021C54.0872 4.55877 53.5028 4.25253 53.1271 3.96021C52.5078 3.47302 52.0139 2.73526 51.7008 1.99055C51.4086 1.25279 51.2555 0.508077 51.339 0C52.5705 0.292318 54.1359 0.988314 55.2839 1.73999C56.3484 2.41511 56.9537 4.05765 56.7519 5.32437C56.6614 5.89508 57.058 6.083 56.5223 6.42404C55.8196 6.87644 54.8873 7.4402 54.122 7.70468C52.5148 8.24755 49.9614 8.01787 48.8134 7.78124C49.7388 7.2662 50.8172 6.58412 52.1391 6.02732C52.6261 5.81852 53.2384 5.68628 53.8993 5.6306C54.6786 5.55405 55.1169 5.59581 55.8822 5.64453L56.738 5.7002L56.1466 5.44269C55.6665 5.23389 55.1656 5.04597 54.6855 4.83021Z" fill="white"/>
<path fill-rule="evenodd" clip-rule="evenodd" d="M40.9237 82.8304C39.7757 82.6564 38.6277 82.559 37.7928 82.6216C36.4153 82.7469 34.9751 83.3663 33.8062 84.1667C32.6722 84.981 31.7329 85.9276 31.3711 86.7628C33.4653 87.5075 36.4431 87.9808 38.8643 87.9599C41.0767 87.9808 43.5397 86.1295 44.4581 84.0693C44.8755 83.1367 45.6269 83.2411 45.1677 82.2249C44.5624 80.8816 43.7206 79.1695 42.8509 78.035C41.0002 75.6965 37.0136 73.5946 35.0933 72.8499C35.963 74.4994 36.9162 76.5317 38.3216 78.6197C38.8434 79.3922 39.6226 80.1717 40.5341 80.8886C41.6125 81.7377 42.3013 82.1066 43.4771 82.7678L44.799 83.5055L43.6788 83.3246C42.7604 83.1715 41.849 82.9696 40.9237 82.8304Z" fill="white"/>
<path fill-rule="evenodd" clip-rule="evenodd" d="M31.6633 79.4759C30.6545 79.114 29.6248 78.8147 28.8525 78.7242C27.5793 78.592 26.16 78.8982 24.9494 79.4132C23.7666 79.9492 22.7439 80.6452 22.2708 81.3412C24.0449 82.3991 26.6609 83.3526 28.8664 83.7702C30.8771 84.1808 33.4513 82.942 34.648 81.2368C35.1907 80.4642 35.8586 80.6939 35.6221 79.6917C35.309 78.3623 34.8567 76.6501 34.2584 75.4669C32.9922 73.0101 29.743 70.3862 28.1289 69.3631C28.6298 71.0195 29.1238 73.0379 30.0352 75.1886C30.3692 75.982 30.9397 76.8311 31.6424 77.6454C32.4703 78.6129 33.0269 79.0653 33.9801 79.8796L35.0516 80.7844L34.0706 80.4155C33.2705 80.1162 32.4773 79.7682 31.6633 79.4759Z" fill="white"/>
<path fill-rule="evenodd" clip-rule="evenodd" d="M23.5717 75.8007C22.6603 75.2369 21.7141 74.7289 20.9835 74.4853C19.766 74.0885 18.3119 74.0955 17.0248 74.3461C15.7585 74.6245 14.6175 75.0908 14.0052 75.6754C15.522 77.0743 17.8805 78.5568 19.9538 79.4199C21.8393 80.2411 24.6084 79.566 26.139 78.1392C26.8278 77.4989 27.44 77.8608 27.4192 76.8308C27.3913 75.4666 27.3009 73.6988 26.9669 72.4181C26.2364 69.7455 23.5995 66.5091 22.2428 65.1728C22.3889 66.8919 22.4516 68.973 22.8968 71.2628C23.0569 72.1049 23.4395 73.0585 23.9613 74.005C24.5736 75.1256 25.0188 75.6824 25.7911 76.6776L26.6469 77.7843L25.7633 77.2205C25.0119 76.7612 24.3092 76.2531 23.5717 75.8007Z" fill="white"/>
<path fill-rule="evenodd" clip-rule="evenodd" d="M16.8648 69.9891C16.0646 69.3766 15.2298 68.8059 14.5688 68.5066C13.4695 68.0194 12.1059 67.8872 10.8814 67.9986C9.67076 68.1377 8.55757 68.4649 7.93141 68.9521C9.21157 70.4067 11.2779 72.0214 13.1286 73.0306C14.8053 73.9771 17.4631 73.6083 19.0285 72.432C19.7382 71.8961 20.2669 72.2998 20.3504 71.3254C20.4548 70.0517 20.5383 68.3883 20.3504 67.1564C19.926 64.5882 17.7762 61.31 16.6282 59.925C16.5934 61.5467 16.4612 63.5024 16.656 65.6809C16.7256 66.4882 16.99 67.4139 17.3866 68.3465C17.8527 69.4532 18.2145 70.0169 18.8337 71.0192L19.5294 72.1397L18.7572 71.5273C18.1171 71.0192 17.5118 70.4833 16.8648 69.9891Z" fill="white"/>
<path fill-rule="evenodd" clip-rule="evenodd" d="M11.125 63.0572C10.4919 62.2707 9.81005 61.533 9.23954 61.0876C8.27942 60.3568 6.9923 59.9113 5.77475 59.7304C4.56415 59.5842 3.40226 59.6399 2.68564 59.967C3.59011 61.6791 5.22511 63.7254 6.79053 65.1382C8.20289 66.4537 10.8745 66.7182 12.6696 65.9317C13.4836 65.5767 13.908 66.0918 14.2072 65.1661C14.6037 63.9481 15.0768 62.3543 15.1742 61.1154C15.3621 58.5193 14.0332 54.8305 13.2401 53.2158C12.8296 54.7888 12.2452 56.654 11.9251 58.8186C11.8068 59.619 11.8486 60.5795 12.0156 61.5747C12.2104 62.7579 12.433 63.3983 12.8018 64.5118L13.2192 65.7646L12.6069 64.9921C12.106 64.3518 11.6399 63.6906 11.125 63.0572Z" fill="white"/>
<path fill-rule="evenodd" clip-rule="evenodd" d="M7.33313 54.1763C6.9296 53.2507 6.47042 52.3528 6.0321 51.7751C5.30157 50.8216 4.17446 50.0491 3.04736 49.5549C1.92026 49.0956 0.78619 48.845 0 48.9633C0.424403 50.8564 1.46106 53.2646 2.59512 55.0394C3.61091 56.6819 6.11558 57.6354 8.05671 57.357C8.93334 57.2318 9.20468 57.8373 9.74736 57.0229C10.457 55.9581 11.3267 54.5382 11.7511 53.369C12.6138 50.9121 12.3077 47.0006 11.9668 45.2397C11.1597 46.6457 10.1022 48.2952 9.2186 50.2996C8.89856 51.0374 8.68288 51.977 8.57852 52.9862C8.45328 54.1763 8.50199 54.8514 8.5646 56.0277L8.63418 57.3431L8.25152 56.4383C7.93147 55.6866 7.66013 54.921 7.33313 54.1763Z" fill="white"/>
<path fill-rule="evenodd" clip-rule="evenodd" d="M5.94858 44.1124C5.83031 43.1102 5.65637 42.1219 5.4059 41.4329C4.98846 40.3053 4.13269 39.2335 3.2004 38.4331C2.26114 37.6606 1.24536 37.0898 0.459168 36.9785C0.313062 38.9134 0.591361 41.5164 1.16187 43.5487C1.65585 45.414 3.77091 47.0635 5.70507 47.3628C6.58171 47.5019 6.6652 48.1562 7.4166 47.5437C8.40456 46.7294 9.65689 45.6297 10.4083 44.6414C11.9528 42.5465 12.8086 38.7185 12.9965 36.9367C11.8067 38.0434 10.3178 39.3101 8.89157 40.9665C8.36281 41.579 7.88275 42.4142 7.48617 43.3469C7.02003 44.4465 6.86696 45.1077 6.58171 46.2492L6.26166 47.5298L6.16426 46.5484C6.08077 45.7271 6.04599 44.9198 5.94858 44.1124Z" fill="white"/>
<path fill-rule="evenodd" clip-rule="evenodd" d="M7.00614 34.097C7.16616 33.1017 7.26357 32.0995 7.21486 31.3757C7.11746 30.1785 6.5887 28.9188 5.90687 27.8887C5.21113 26.8934 4.39015 26.0652 3.66657 25.7451C2.99866 27.5616 2.5673 30.1507 2.56034 32.2596C2.52555 34.1875 4.11185 36.352 5.89991 37.1663C6.70697 37.5352 6.60956 38.1964 7.50012 37.7997C8.67592 37.2847 10.1718 36.5678 11.1667 35.8161C13.2191 34.2223 15.0768 30.7632 15.7516 29.0998C14.3114 29.8445 12.5303 30.6518 10.7005 31.8629C10.0257 32.3083 9.33688 32.9834 8.70375 33.7699C7.95235 34.7025 7.63231 35.2941 7.04789 36.3172L6.39389 37.4656L6.56086 36.4912C6.69306 35.6908 6.88091 34.8974 7.00614 34.097Z" fill="white"/>
<path fill-rule="evenodd" clip-rule="evenodd" d="M11.2084 24.311C11.5841 23.4549 11.9041 22.578 12.0294 21.9168C12.2172 20.8171 12.0363 19.5643 11.6676 18.4855C11.271 17.4276 10.7283 16.495 10.1578 16.0426C9.13508 17.5181 8.14712 19.7383 7.65314 21.6245C7.17307 23.3436 8.09842 25.6543 9.50382 26.7957C10.1439 27.3177 9.90039 27.8815 10.7909 27.7353C11.9598 27.5474 13.4765 27.2481 14.534 26.8096C16.7465 25.8561 19.2164 23.1905 20.2043 21.8541C18.7363 22.1882 16.9552 22.5014 15.035 23.1626C14.3253 23.4062 13.553 23.8517 12.8016 24.4084C11.9111 25.0696 11.4867 25.529 10.7283 26.3085L9.87952 27.1855L10.2552 26.3503C10.5544 25.6752 10.9023 25 11.2084 24.311Z" fill="white"/>
<path fill-rule="evenodd" clip-rule="evenodd" d="M17.171 16.6066C17.7971 15.9175 18.3885 15.1867 18.7155 14.6021C19.2443 13.6207 19.4739 12.3749 19.4669 11.2335C19.4321 10.1059 19.2165 9.05499 18.8199 8.43555C17.3797 9.50739 15.7308 11.2891 14.6593 12.9247C13.6575 14.4002 13.7897 16.8849 14.7567 18.4231C15.1951 19.1191 14.7846 19.5784 15.6751 19.7246C16.844 19.9195 18.3746 20.1283 19.5226 20.0448C21.9229 19.8499 25.1164 18.1169 26.48 17.1633C24.9842 17.0102 23.1961 16.7318 21.1715 16.7457C20.4201 16.7527 19.5504 16.9267 18.6599 17.2121C17.6023 17.5531 17.0527 17.8454 16.0856 18.3465L15.0003 18.9033L15.6195 18.2352C16.1204 17.6784 16.6631 17.1564 17.171 16.6066Z" fill="white"/>
<path fill-rule="evenodd" clip-rule="evenodd" d="M24.0449 11.6091C24.7267 11.101 25.3807 10.5442 25.7773 10.0709C26.4243 9.28445 26.8487 8.20566 27.0366 7.18255C27.1966 6.16639 27.1896 5.17807 26.9392 4.55864C25.4642 5.26855 23.6761 6.59095 22.4308 7.86462C21.2758 9.01997 20.9627 11.268 21.568 12.8132C21.8394 13.5161 21.3941 13.8571 22.1664 14.1425C23.1822 14.5183 24.518 14.9707 25.5616 15.096C27.7462 15.3396 30.9188 14.3304 32.3034 13.711C30.9884 13.3143 29.4299 12.7575 27.6071 12.4164C26.9322 12.2912 26.1182 12.2981 25.2694 12.4025C24.2606 12.5278 23.7179 12.6948 22.7578 12.9732L21.6863 13.2864L22.3612 12.7923C22.9178 12.3956 23.4953 12.0197 24.0449 11.6091Z" fill="white"/>
<path fill-rule="evenodd" clip-rule="evenodd" d="M31.4755 7.9694C32.0529 7.53788 32.6095 7.07156 32.9435 6.66788C33.4931 5.99973 33.8479 5.08797 34.008 4.21798C34.1471 3.35494 34.1402 2.51975 33.9245 1.99079C32.6721 2.59631 31.1554 3.7099 30.1049 4.79566C29.1239 5.77005 28.8664 7.67708 29.3743 8.99251C29.6039 9.58411 29.2282 9.87642 29.8822 10.12C30.7449 10.4402 31.879 10.823 32.7626 10.9274C34.6202 11.1292 37.2988 10.2801 38.4746 9.75811C37.3615 9.42403 36.0395 8.95075 34.495 8.65843C33.9245 8.55403 33.2357 8.55403 32.5121 8.64451C31.6564 8.74891 31.1972 8.89507 30.3901 9.13171L29.4856 9.39619L30.0561 8.97859C30.5223 8.63755 31.0093 8.32436 31.4755 7.9694Z" fill="white"/>
<path fill-rule="evenodd" clip-rule="evenodd" d="M38.3216 4.83021C38.9199 4.55877 39.5044 4.25253 39.8801 3.96021C40.4993 3.47302 40.9932 2.73526 41.3063 1.99055C41.5985 1.25279 41.7516 0.508077 41.6681 0C40.4366 0.292318 38.8712 0.988314 37.7233 1.73999C36.6588 2.41511 36.0535 4.05765 36.2552 5.32437C36.3457 5.89508 35.9491 6.083 36.4848 6.42404C37.1875 6.87644 38.1198 7.4402 38.8851 7.70468C40.4923 8.24755 43.0457 8.01787 44.1937 7.78124C43.2683 7.2662 42.1899 6.58412 40.868 6.02732C40.381 5.81852 39.7687 5.68628 39.1078 5.6306C38.3285 5.55405 37.8902 5.59581 37.1249 5.64453L36.2691 5.7002L36.8605 5.44269C37.3406 5.23389 37.8346 5.04597 38.3216 4.83021Z" fill="white"/>
<path d="M27.8018 62.869L52.1737 23.7192C47.3453 23.7192 44.4649 23.7679 43.5395 23.8584C42.6142 23.9489 41.7654 24.0742 40.9931 24.2412C38.2867 24.7702 36.1647 26.0369 34.6201 28.0344C33.7017 29.2385 32.6651 31.3821 31.4962 34.4584H29.7569L31.0718 21.5547H64.3353V22.5639L40.1234 61.7136C48.7715 61.7136 54.6088 61.0594 57.6283 59.7579C60.6479 58.4564 62.9577 54.8024 64.551 48.8099H66.1999L64.551 63.8921H27.8018V62.869Z" fill="white"/>
<path d="M9.67354 100.558L9.89901 98.5804H9.73913C9.64895 99.0163 9.48633 99.364 9.2513 99.6237C9.01626 99.8833 8.73614 100.062 8.41091 100.158C8.21141 100.22 7.86159 100.251 7.36146 100.251H6.3038L9.57106 95.0856H5.18055L5.02887 96.6877H5.18055C5.24341 96.424 5.33018 96.2061 5.44087 96.0339C5.55155 95.8617 5.69093 95.7239 5.85901 95.6203C6.02709 95.5167 6.20678 95.4474 6.39809 95.4124C6.49921 95.3936 6.70964 95.3842 7.0294 95.3842H7.85339L4.58203 100.558H9.67354ZM12.6327 100.558V100.409C12.343 100.387 12.1613 100.355 12.0875 100.312C11.9617 100.239 11.8989 100.126 11.8989 99.9727C11.8989 99.857 11.9371 99.7104 12.0137 99.5329L12.2473 99.0001H14.211L14.5061 99.6822C14.5827 99.8597 14.6237 99.9606 14.6291 99.9848C14.6455 100.036 14.6537 100.086 14.6537 100.134C14.6537 100.215 14.6237 100.277 14.5635 100.32C14.4761 100.379 14.3244 100.409 14.1085 100.409H13.9978V100.558H16.687V100.409C16.5176 100.395 16.3864 100.347 16.2935 100.263C16.1705 100.153 16.0134 99.8853 15.8221 99.4602L13.8174 94.9726H13.7395L11.7513 99.3391C11.5627 99.7562 11.4042 100.031 11.2758 100.164C11.1473 100.298 10.9833 100.379 10.7838 100.409V100.558H12.6327ZM14.0716 98.7015H12.3908L13.2435 96.8169L14.0716 98.7015ZM20.4538 100.558V100.409C20.1996 100.409 20.0261 100.386 19.9331 100.34C19.8402 100.294 19.7753 100.233 19.7384 100.156C19.7015 100.08 19.6831 99.8934 19.6831 99.5974V98.0639H20.0479L21.8394 100.558H23.5898V100.409C23.4423 100.401 23.3125 100.355 23.2004 100.271C23.1266 100.212 23.0023 100.063 22.8274 99.8234L21.4909 97.9711C21.8298 97.8876 22.0936 97.7625 22.2821 97.5957C22.5773 97.3321 22.7249 96.9985 22.7249 96.5949C22.7249 96.264 22.6265 95.9754 22.4297 95.7292C22.2329 95.4831 21.9788 95.3142 21.6672 95.2228C21.3556 95.1313 20.8637 95.0856 20.1914 95.0856H17.6088V95.2349C17.8629 95.2349 18.0365 95.2577 18.1294 95.3035C18.2223 95.3492 18.2872 95.4104 18.3241 95.4871C18.361 95.5638 18.3795 95.7501 18.3795 96.046V99.5974C18.3795 99.8934 18.361 100.079 18.3241 100.154C18.2872 100.23 18.223 100.291 18.1314 100.338C18.0399 100.385 17.8657 100.409 17.6088 100.409V100.558H20.4538ZM19.9167 97.7773H19.6831V95.3802H20.1217C20.5617 95.3802 20.8808 95.4797 21.0789 95.6788C21.2771 95.8779 21.3761 96.1859 21.3761 96.603C21.3761 96.8908 21.3222 97.1242 21.2142 97.3031C21.1063 97.4821 20.958 97.6058 20.7694 97.6744C20.5809 97.743 20.2966 97.7773 19.9167 97.7773ZM26.1022 100.558V100.409C25.8125 100.387 25.6307 100.355 25.5569 100.312C25.4312 100.239 25.3684 100.126 25.3684 99.9727C25.3684 99.857 25.4066 99.7104 25.4831 99.5329L25.7168 99.0001H27.6804L27.9756 99.6822C28.0521 99.8597 28.0931 99.9606 28.0986 99.9848C28.115 100.036 28.1232 100.086 28.1232 100.134C28.1232 100.215 28.0931 100.277 28.033 100.32C27.9455 100.379 27.7939 100.409 27.578 100.409H27.4673V100.558H30.1565V100.409C29.9871 100.395 29.8559 100.347 29.763 100.263C29.64 100.153 29.4828 99.8853 29.2915 99.4602L27.2869 94.9726H27.209L25.2208 99.3391C25.0322 99.7562 24.8737 100.031 24.7452 100.164C24.6168 100.298 24.4528 100.379 24.2533 100.409V100.558H26.1022ZM27.5411 98.7015H25.8603L26.713 96.8169L27.5411 98.7015ZM34.0175 100.558V100.409H33.833C33.6773 100.409 33.5536 100.382 33.4621 100.33C33.3705 100.277 33.309 100.216 33.2776 100.146C33.2461 100.076 33.2304 99.9014 33.2304 99.6216V97.9468H33.3903C33.6827 97.9468 33.9444 98.0296 34.1754 98.195C34.4063 98.3605 34.5477 98.7029 34.5996 99.2221H34.7431V96.4738H34.5996C34.5669 96.7671 34.4965 96.9998 34.3885 97.172C34.2806 97.3442 34.1487 97.4666 33.9929 97.5392C33.8372 97.6119 33.6363 97.6482 33.3903 97.6482H33.2304V95.4003H33.747C34.1897 95.4003 34.4931 95.4205 34.657 95.4609C34.9549 95.5335 35.1825 95.6586 35.3396 95.8362C35.4967 96.0138 35.5944 96.2868 35.6327 96.6554H35.8008V95.0856H31.111V95.2349H31.2955C31.4513 95.2349 31.5749 95.2611 31.6665 95.3136C31.758 95.366 31.8189 95.4272 31.8489 95.4972C31.879 95.5671 31.894 95.742 31.894 96.0218V99.6216C31.894 99.8961 31.879 100.066 31.8489 100.13C31.8107 100.222 31.756 100.286 31.6849 100.324C31.5866 100.38 31.4567 100.409 31.2955 100.409H31.111V100.558H34.0175ZM39.133 100.687C39.6905 100.687 40.1503 100.522 40.5124 100.193C40.8746 99.8631 41.0556 99.4696 41.0556 99.0123C41.0556 98.6517 40.9436 98.3316 40.7195 98.0518C40.4926 97.772 40.054 97.4747 39.4035 97.1599C38.9389 96.9339 38.6424 96.7765 38.514 96.6877C38.3391 96.564 38.212 96.4388 38.1327 96.3124C38.0753 96.2182 38.0466 96.1106 38.0466 95.9895C38.0466 95.7985 38.1279 95.6297 38.2905 95.4831C38.4532 95.3364 38.6738 95.2631 38.9526 95.2631C39.3134 95.2631 39.6488 95.4024 39.959 95.6808C40.2692 95.9593 40.4639 96.3272 40.5432 96.7846H40.7113L40.6662 94.9604H40.5432C40.5077 95.1246 40.4694 95.2281 40.4284 95.2712C40.3874 95.3142 40.3314 95.3358 40.2603 95.3358C40.1865 95.3358 40.0574 95.292 39.8729 95.2046C39.6885 95.1172 39.532 95.0573 39.4035 95.025C39.2341 94.982 39.0592 94.9604 38.8788 94.9604C38.3841 94.9604 37.9742 95.1138 37.649 95.4205C37.3238 95.7272 37.1611 96.0985 37.1611 96.5344C37.1611 96.7899 37.2206 97.024 37.3395 97.2366C37.4584 97.4491 37.6285 97.6415 37.8498 97.8137C38.0712 97.9858 38.4347 98.1944 38.9403 98.4392C39.3011 98.6141 39.5525 98.756 39.6946 98.8649C39.8367 98.9739 39.9426 99.0889 40.0123 99.21C40.082 99.3311 40.1168 99.4562 40.1168 99.5853C40.1168 99.8032 40.026 99.9943 39.8442 100.158C39.6625 100.322 39.4186 100.405 39.1125 100.405C38.7162 100.405 38.3466 100.252 38.0036 99.9465C37.6606 99.6411 37.429 99.1979 37.3087 98.6168H37.157V100.683H37.3087C37.3579 100.573 37.4221 100.491 37.5014 100.437C37.5807 100.383 37.6558 100.356 37.7269 100.356C37.8116 100.356 37.9195 100.383 38.0507 100.437C38.2858 100.534 38.4812 100.6 38.6369 100.635C38.7927 100.67 38.9581 100.687 39.133 100.687ZM45.1462 100.558V100.409H44.9617C44.806 100.409 44.6823 100.382 44.5907 100.33C44.4992 100.277 44.4377 100.216 44.4063 100.146C44.3748 100.076 44.3591 99.9014 44.3591 99.6216V97.9267H46.3228V99.6216C46.3228 99.8961 46.3077 100.066 46.2777 100.13C46.2367 100.222 46.1806 100.286 46.1096 100.324C46.0139 100.38 45.8841 100.409 45.7201 100.409H45.5398V100.558H48.4422V100.409H48.2618C48.106 100.409 47.9817 100.382 47.8887 100.33C47.7958 100.277 47.7343 100.216 47.7043 100.146C47.6742 100.076 47.6592 99.9014 47.6592 99.6216V96.0218C47.6592 95.7474 47.6742 95.5779 47.7043 95.5133C47.7453 95.4219 47.8013 95.3573 47.8723 95.3196C47.968 95.2631 48.0978 95.2349 48.2618 95.2349H48.4422V95.0856H45.5398V95.2349H45.7201C45.8759 95.2349 46.0003 95.2611 46.0932 95.3136C46.1861 95.366 46.2476 95.4272 46.2777 95.4972C46.3077 95.5671 46.3228 95.742 46.3228 96.0218V97.5715H44.3591V96.0218C44.3591 95.7474 44.3741 95.5779 44.4042 95.5133C44.4452 95.4219 44.5012 95.3573 44.5723 95.3196C44.6707 95.2631 44.8005 95.2349 44.9617 95.2349H45.1462V95.0856H42.2397V95.2349H42.4242C42.58 95.2349 42.7036 95.2611 42.7952 95.3136C42.8867 95.366 42.9475 95.4272 42.9776 95.4972C43.0077 95.5671 43.0227 95.742 43.0227 96.0218V99.6216C43.0227 99.8961 43.0077 100.066 42.9776 100.13C42.9393 100.222 42.8847 100.286 42.8136 100.324C42.7152 100.38 42.5854 100.409 42.4242 100.409H42.2397V100.558H45.1462ZM51.1799 100.558V100.409C50.8902 100.387 50.7085 100.355 50.6347 100.312C50.509 100.239 50.4461 100.126 50.4461 99.9727C50.4461 99.857 50.4844 99.7104 50.5609 99.5329L50.7946 99.0001H52.7582L53.0534 99.6822C53.1299 99.8597 53.1709 99.9606 53.1764 99.9848C53.1928 100.036 53.201 100.086 53.201 100.134C53.201 100.215 53.1709 100.277 53.1108 100.32C53.0233 100.379 52.8716 100.409 52.6557 100.409H52.5451V100.558H55.2343V100.409C55.0648 100.395 54.9337 100.347 54.8407 100.263C54.7178 100.153 54.5606 99.8853 54.3693 99.4602L52.3647 94.9726H52.2868L50.2986 99.3391C50.11 99.7562 49.9515 100.031 49.823 100.164C49.6946 100.298 49.5306 100.379 49.3311 100.409V100.558H51.1799ZM52.6188 98.7015H50.9381L51.7908 96.8169L52.6188 98.7015ZM61.1368 100.683V96.1268C61.1368 95.8685 61.1594 95.6862 61.2045 95.5799C61.2496 95.4737 61.3124 95.397 61.393 95.3499C61.4737 95.3028 61.6315 95.2645 61.8665 95.2349V95.0856H60.03V95.2349C60.3388 95.2295 60.5588 95.3048 60.69 95.4609C60.7856 95.5766 60.8335 95.7985 60.8335 96.1268V98.4795L58.0909 95.0856H56.1191V95.2349C56.2886 95.2403 56.4184 95.2658 56.5086 95.3116C56.5987 95.3573 56.7026 95.4528 56.8201 95.5981L56.939 95.7434V99.6055C56.939 99.8961 56.8789 100.102 56.7586 100.223C56.6384 100.344 56.4252 100.406 56.1191 100.409V100.558H58.0909V100.409H57.9598C57.7712 100.409 57.6038 100.353 57.4576 100.243C57.3114 100.133 57.2383 99.9203 57.2383 99.6055V96.1268L60.9975 100.683H61.1368ZM68.8589 100.683C69.3098 100.683 69.704 100.611 70.0416 100.467C70.3791 100.323 70.7036 100.091 71.0152 99.771V99.2988C70.6927 99.6674 70.3859 99.927 70.0949 100.078C69.8038 100.228 69.4834 100.304 69.1335 100.304C68.7072 100.304 68.3601 100.201 68.0923 99.9949C67.8244 99.7891 67.6277 99.4851 67.502 99.0829C67.3762 98.6807 67.3134 98.2347 67.3134 97.7451C67.3134 97.2473 67.3995 96.7953 67.5717 96.3891C67.7056 96.0716 67.9174 95.8147 68.2071 95.6183C68.4968 95.4219 68.8151 95.3237 69.1622 95.3237C69.5776 95.3237 69.9493 95.4555 70.2773 95.7192C70.6052 95.9828 70.8293 96.3622 70.9496 96.8572H71.1095V94.9604H70.9496C70.9305 95.0977 70.8888 95.1979 70.8246 95.2611C70.7603 95.3243 70.6845 95.3559 70.597 95.3559C70.5287 95.3559 70.3688 95.3075 70.1174 95.2107C69.6829 95.0439 69.2702 94.9604 68.8794 94.9604C68.3492 94.9604 67.8484 95.0896 67.3769 95.3479C66.9055 95.6062 66.5311 95.9694 66.2537 96.4375C65.9763 96.9056 65.8376 97.4007 65.8376 97.9226C65.8376 98.4177 65.9626 98.8845 66.2127 99.323C66.4628 99.7615 66.818 100.098 67.2785 100.332C67.739 100.566 68.2658 100.683 68.8589 100.683ZM75.3148 100.558V100.409H75.1304C74.9746 100.409 74.8509 100.382 74.7594 100.33C74.6678 100.277 74.6063 100.216 74.5749 100.146C74.5435 100.076 74.5278 99.9014 74.5278 99.6216V96.0218C74.5278 95.7474 74.5428 95.5779 74.5728 95.5133C74.6138 95.4219 74.6699 95.3573 74.7409 95.3196C74.8393 95.2631 74.9691 95.2349 75.1304 95.2349H75.3148V95.0856H72.4083V95.2349H72.5928C72.7486 95.2349 72.8723 95.2611 72.9638 95.3136C73.0554 95.366 73.1162 95.4272 73.1462 95.4972C73.1763 95.5671 73.1913 95.742 73.1913 96.0218V99.6216C73.1913 99.8961 73.1763 100.066 73.1462 100.13C73.108 100.222 73.0533 100.286 72.9823 100.324C72.8839 100.38 72.7541 100.409 72.5928 100.409H72.4083V100.558H75.3148ZM80.4303 100.558V100.409H80.2458C80.0873 100.409 79.9623 100.382 79.8707 100.33C79.7792 100.277 79.7177 100.216 79.6862 100.146C79.6548 100.076 79.6391 99.9014 79.6391 99.6216V95.4003H80.0532C80.3128 95.4003 80.4945 95.4246 80.5984 95.473C80.7842 95.5618 80.9304 95.6808 81.037 95.8301C81.1436 95.9795 81.2406 96.225 81.3281 96.5666H81.4757V95.0856H76.4825V96.5666H76.6383C76.7012 96.1631 76.8515 95.8523 77.0892 95.6344C77.2587 95.4784 77.5306 95.4003 77.905 95.4003H78.3068V99.6216C78.3068 99.8961 78.2918 100.066 78.2617 100.13C78.2207 100.222 78.1647 100.286 78.0936 100.324C77.9952 100.38 77.8654 100.409 77.7042 100.409H77.5197V100.558H80.4303ZM87.0339 100.558V100.409H86.7223C86.5747 100.409 86.4565 100.382 86.3677 100.33C86.2789 100.277 86.2194 100.217 86.1894 100.148C86.1593 100.08 86.1443 99.9041 86.1443 99.6216V98.2979L87.3495 96.3164C87.6447 95.8133 87.8606 95.5053 87.9972 95.3923C88.0956 95.3116 88.2364 95.2591 88.4195 95.2349V95.0856H86.7223V95.2349C86.971 95.2483 87.1418 95.2887 87.2347 95.3559C87.3058 95.4044 87.3413 95.4649 87.3413 95.5375C87.3413 95.6694 87.217 95.9371 86.9683 96.3406L85.968 97.9912L84.9636 96.1792C84.745 95.7891 84.6357 95.5456 84.6357 95.4488C84.6357 95.3976 84.6678 95.3492 84.732 95.3035C84.7962 95.2577 84.909 95.2349 85.0702 95.2349H85.1891V95.0856H82.5245V95.2349C82.7021 95.2376 82.8442 95.2799 82.9508 95.362C83.0574 95.4441 83.2405 95.7165 83.5001 96.1792L84.8079 98.5239V99.6216C84.8079 99.8961 84.7928 100.066 84.7628 100.13C84.7218 100.222 84.6657 100.286 84.5947 100.324C84.499 100.38 84.3692 100.409 84.2052 100.409H83.9142V100.558H87.0339Z" fill="white"/>
</svg>
